<svg xmlns="http://www.w3.org/2000/svg" width="100%" height="100%" fill-rule="evenodd" clip-rule="evenodd" image-rendering="optimizeQuality" shape-rendering="geometricPrecision" text-rendering="geometricPrecision" version="1.1" viewBox="0 0 2.69 2.3039" xml:space="preserve">
  <path fill="#d2ae6d" d="M2.2194.3122c-.0272.1048-.0026.2287-.032.3294-.0399.1365-.147.1832-.2084.5152-.0607.328-.0016.3707.028.6445-.1026.0218-.1984.0457-.3082.0638-.2868.0473-.6442.0223-.929-.0473-.021-.0051-.0557-.0119-.0721-.0226.0335-.2663.0877-.3495.0242-.653C.6483.791.5506.7793.5129.628.4864.5216.5114.4046.4803.2985.4645.2445.4001.077.3298.0904.306.0948.2884.1139.2895.1429c.001.0257.0211.0438.0328.0601.11.1545.0521.3038.0896.4502.0447.1747.146.1903.2083.515.0515.2678.0066.3882-.0294.6422-.0072.0502-.1065.374-.106.4384.0005.0636.0703.0538.124.0538l1.447.0002c.0547.0003.1284.0121.1347-.049.006-.0586-.027-.2576-.042-.3193-.0121-.0505-.0314-.089-.0373-.1399-.0125-.1062-.0385-.2046-.0496-.3127-.0184-.1794.033-.4424.115-.5973.0442-.0839.0931-.1313.1183-.2433.0244-.1086.0008-.2256.0331-.3285A.4143.4143 0 0 1 2.39.191c.0523-.0727.0061-.1042-.0315-.102-.0559.0033-.1225.159-.139.2231zM.96 1.213C.956 1.187.9565 1.1124.9476 1.1002c-.0213-.0294-.0642-.0156-.07.0253-.0093.067.0056.165.0712.1666a.6184.6184 0 0 0 .209-.033c.0871-.029.104-.0582.1521-.0857l.0003.2117c.0006.0517-.0201.0757-.0692.1137-.0686.053-.1717.089-.2801.0852-.006-.0286-.0041-.1003-.0124-.1123-.017-.0244-.0606-.0192-.0691.0164-.0155.065.0036.1703.0646.1752.0636.0051.1541-.0129.2088-.0315.102-.0348.1114-.0634.1568-.0863l.0004.0391c.0002.0379-.0114.1974.014.2189a.0424.0424 0 0 0 .0579-.002c.0184-.0192.0113-.2095.0122-.258.0497.034.0801.0626.1555.0885.0508.0175.1557.0378.2136.0311.057-.0065.0767-.1131.061-.1759a.0388.0388 0 0 0-.0716-.0114c-.0043.0082-.0063.0871-.01.109-.0946-.0025-.172-.0184-.2425-.06-.0369-.0217-.1046-.077-.1075-.1181l.0002-.2332c.0301.0135.0492.0483.1562.0864a.5676.5676 0 0 0 .2098.0322c.0707-.0034.074-.1303.0668-.169-.008-.0439-.0556-.0498-.0726-.0194-.006.0105-.0055.0846-.01.1094-.1543.0013-.2857-.0615-.342-.1509-.025-.04.0058-.1792-.0107-.2317C1.381.801 1.3328.7935 1.3158.8229 1.303.8453 1.31.9069 1.31.9367c0 .0944.0108.108-.0337.1601-.0644.0756-.207.1175-.3163.1162zm.35-1.14v.496c-.218.0347-.2761.1948-.4402.2454-.0332.0102-.132.0168-.1436.029C.7088.8616.7134.8939.733.9042c.0177.0093.0557.0047.0783.0021.1003-.0116.1814-.0565.24-.1047.1186-.0974.2681-.2378.4728-.1.1276.086.196.1944.397.2074.0427.0028.038.0017.0644-.0189.0059-.0472-.0103-.057-.0538-.0595-.2581-.0141-.2585-.2063-.5387-.2623L1.3929.0945c0-.0365.0072-.0828-.0292-.0923C1.3142-.0106 1.31.0348 1.31.073zm1.0743 1.1067c.0177-.0299.0733-.0571.0696-.1017-.0045-.0531-.0629-.0613-.098-.03-.029.0259-.1586.1469-.1605.1806-.0025.0429.1233.1524.1561.1845.0568.0554.0995.0139.1044-.018.0073-.0486-.0488-.0726-.065-.1034.058-.0028.1193-.0002.1778-.0007.054-.0005.1233.0088.1212-.0573-.002-.064-.0713-.0532-.1266-.0535-.059-.0003-.1204.002-.179-.0005zm-2.0456.232c.1929-.1978.2234-.145-.0045-.3624-.047-.0447-.0975-.0082-.0978.0333-.0004.04.0513.0707.0693.0967-.059.0032-.1231.0011-.1827.0011-.057 0-.1207-.008-.123.0537-.0032.0911.1618.045.3.0584-.0196.0273-.0756.0566-.0642.1076.0073.0329.05.0658.103.0116z"/>
</svg>
