<svg xmlns="http://www.w3.org/2000/svg" width="100%" height="100%" fill-rule="evenodd" clip-rule="evenodd" image-rendering="optimizeQuality" shape-rendering="geometricPrecision" text-rendering="geometricPrecision" version="1.1" viewBox="0 0 2.3348 2.3065" xml:space="preserve">
  <path fill="#f7d67d" d="M.1701.761c0 .0385.0093.0491.0195.0797.0527.1573.0295.209.0663.312a.675.675 0 0 0 .0279.0665c.0143.0277.0602.0877.0849.1042-.032.137-.0312.1546-.0075.2957.0409.2433-.0398.174-.0398.451 0 .0544.0159.2364.0803.2364.0786 0 .0469-.0732.0406-.0973-.0651-.249.0303-.3225.0303-.4888 0-.1048-.0609-.2563-.0047-.3734.033.0159.2322.0178.2966-.0343.0463-.0374.0667-.1358.0957-.1358.0413 0 .037-.0026.0646.0536.01.0203.0228.0422.0381.0564a.2038.2038 0 0 0 .0592.0353c.068.0258.3141.072.4006.072.0604 0 .1275-.0145.1645-.0386.1063-.069.114-.1713.1298-.2861.0182-.1326.079-.0808.079-.1384 0-.0391-.0893-.0166-.1188.0797-.04.1308.0108.3315-.264.3315-.1063 0-.2168-.0317-.3194-.054-.1919-.0416-.0878-.1634-.2289-.1634-.0956 0-.0794.1387-.1636.1625-.0606.0171-.1455.0161-.2046-.0022-.0825-.0257-.1404-.1198-.1577-.2063a1.8025 1.8025 0 0 1-.0089-.0478C.3187.9645.3259.8666.2769.7771.269.7626.263.7507.251.7417.2016.7052.17.734.17.761zm1.626.0992c0 .0412.0235.0434.05.0633.048.036.1437.1475.1437.2014 0 .0707-.1185.2772-.1597.346-.0135.0224-.0256.0441-.0385.0655-.1708.2836-.122.2842-.1805.6324-.0076.0456-.0473.1377.0384.1377.0497 0 .0507-.0737.0595-.1202a2.1068 2.1068 0 0 0 .0248-.1548c.0128-.119.0177-.209.0622-.297.0504-.0996.0807-.1407.1293-.2299.027-.0496.0752-.1242.0956-.1737l.0304-.0642c.0048.0206.031.0593.0425.0756a.5078.5078 0 0 0 .0532.065c.0272.0282.0992.1052.1311.1052.0667 0 .0713-.062.0306-.092-.0165-.0122-.0248-.0199-.0394-.0316-.0309-.025-.0443-.0414-.07-.0717-.0552-.0647-.0705-.1133-.0954-.1882-.0374-.1128-.0889-.1808-.1672-.2582C1.9232.8573 1.8686.8129 1.848.8129c-.027 0-.052.0204-.052.0473zM1.5218.1465C1.517.168 1.5104.1785 1.5201.2c.019.042.0698.0227.1016.0132.0842-.025.1074-.0204.181-.0316.0692-.0105.1738.0198.2328.0515a.4648.4648 0 0 1 .0834.0585c.0162.0136.0225.0183.0375.0333.0152.0151.0197.0215.0333.0376.0128.0151.0202.0222.0324.0386.0078.0104.0222.0324.0314.0395.04.0308.1131-.0122.066-.0754-.1529-.205-.3231-.3173-.6113-.2734-.0682.0104-.0411.0186-.098-.0099C1.5741.064 1.4548 0 1.4226 0c-.0463 0-.0639.0679-.0176.0932.026.0143.0896.047.1168.0533zM0 .4585c0 .0708.0702.07.093.0269C.1393.3986.208.341.2947.2946.3676.2554.4513.231.5355.2188.588.211.5902.2174.6259.1958L.7264.1403C.7793.1107.8413.0926.8413.0473.8413.0184.8203 0 .7893 0 .7632 0 .6243.086.5831.1058.528.132.3525.1122.135.2815.0931.3141 0 .415 0 .4585zm.9028.0283c0 .033-.0043.0449-.0047.0757C.8977.5858.895.611.893.6378a5.344 5.344 0 0 1-.0133.1475c-.0013.0125 0 .0244-.001.0368L.8698.936c-.0013.0467-.028.1275.0188.1275.0263 0 .0244-.0363.027-.058.009-.074.0071-.168.0175-.2377l.0121-.158C.9454.5885.9477.5858.9493.5711.9508.5572.9492.5439.9508.53.9544.4992.9595.4726.9264.4726c-.011 0-.0144.0078-.0237.0142zm.3639 1.0398c0 .058-.005.0872-.0383.113-.0966.075-.1021-.0704-.3398-.0704-.0197 0-.019.0175-.019.0283 0 .0352.074.0168.1567.0466.063.0227.1493.1284.2536.0186.0268-.0283.0512-.0973.0318-.1338-.006-.0113-.0118-.0114-.0214-.0164a.2098.2098 0 0 0-.0236.0141zm-.241-1.139c0 .0127.0022.013.0047.0236.0425.0102.0592-.0094.134-.036l.2904-.1117c.0267-.0204.0035-.046-.0038-.046-.0267 0-.1841.0637-.2201.0775l-.161.0612c-.0166.0058-.0443.0129-.0443.0314zm-.0473 1.744c-.133 0-.1505-.0404-.1844-.0047.003.036.0305.0379.0642.0446.0888.0175.1808.0251.2514-.041.0278-.026.0815-.0861.0815-.1265 0-.011-.0127-.0236-.0237-.0236-.033 0-.0599.1512-.189.1512zm.1512-.241c-.078 0-.0446-.0155-.0917-.0265-.0484-.0112-.0728.005-.1617-.0086-.0587-.009-.0641-.0045-.0538.0398.0199.0095.0558.0127.085.0143.0187.001.0258.0062.0465.0041.1319-.0132.0525.0289.1757.0289.0921 0 .1612-.0993.0898-.0993-.0192 0-.0341.0473-.0898.0473zM.4868 1.484c0 .0584.0277.1087.0898.1087.0399 0 .057-.0193.0946-.0098.0111.0029.1228.0403.1228.0003 0-.0376-.0323-.0303-.0954-.0463-.0235-.006-.0378-.0083-.0566-.0066-.035.0033-.03.0104-.0748.0104-.0408 0-.0092-.0803-.0567-.0803-.011 0-.0237.0126-.0237.0236zm.0048.2032c0 .171.0784.1541.1437.1682.0493.0106.0973.0463.0973-.0075 0-.042-.1394-.038-.1648-.062a.0737.0737 0 0 1-.0175-.0298C.5422 1.7299.5435 1.701.5435 1.6684c-.031-.0208-.052-.0152-.052.019zm-.0142.26c0 .1793.2174.2116.2174.1607 0-.0501-.0356-.0122-.112-.0534-.0733-.0396-.0444-.1252-.0534-.164-.044-.021-.052.017-.052.0567zm.8318-.0378c.0155.0292.0319.0301.063.0457.0259.013.0694.0372.0694-.0126 0-.0164-.015-.0205-.0284-.0237v-.0094c.024-.0056.1418-.073.1418-.0946 0-.0127-.0023-.013-.0047-.0236-.0334-.0078-.0213-.0096-.0766.0274a.612.612 0 0 1-.0526.0325c-.0854.046-.0894.0158-.1119.0583zm-.501-.3403c.0547.0127.0454.0038.0575-.1127.0116-.1107.034-.1567-.015-.1567-.0241 0-.022.0318-.0244.0558-.0053.0499-.0257.1808-.018.2136zM.7137.2599c0 .0233.0135.027.0384.0467.0243.0193.1222.1093.1507.1093.0141 0 .0028.004.0174-.011L.9264.397C.919.366.9093.3668.8806.3435.8606.3273.8453.316.8256.2992.8072.2834.7886.2712.7699.2558.7608.2484.7536.2385.7414.2375.7294.2365.7137.2462.7137.26zm.6995 1.366c0 .026.0127.0303.0369.034.05.0076.0424.0128.0813.0038.005-.0217.015-.0383-.0237-.0473.0214-.0292.071-.0298.071-.0709 0-.0693-.1655.074-.1655.0804zm-.6948.4963c0 .0204.029.0298.0434.0153.0093-.0094.0322-.1712.0322-.195-.0103-.0069-.0436-.0385-.053.018l-.0226.1617zm.0426-.2505c.027.0064.0097.0076.0425 0l.0284-.1844c0-.0262-.0458-.0443-.053.0132-.0058.0458-.0262.136-.018.1712z"/>
</svg>
