<?xml version="1.0" encoding="UTF-8"?>
<!DOCTYPE svg PUBLIC "-//W3C//DTD SVG 1.1//EN" "http://www.w3.org/Graphics/SVG/1.1/DTD/svg11.dtd">
<!-- Creator: CorelDRAW 2017 -->
<svg xmlns="http://www.w3.org/2000/svg" xml:space="preserve" width="100%" height="100%" version="1.1" style="shape-rendering:geometricPrecision; text-rendering:geometricPrecision; image-rendering:optimizeQuality; fill-rule:evenodd; clip-rule:evenodd"
viewBox="0 0 5.53592 2.33037"
 xmlns:xlink="http://www.w3.org/1999/xlink">
 <defs>
  <style type="text/css">
   <![CDATA[
    .str0 {stroke:#00A859;stroke-width:0.1;stroke-miterlimit:22.9256}
    .str1 {stroke:#00A859;stroke-width:0.05;stroke-miterlimit:22.9256}
    .fil103 {fill:none}
    .fil1 {fill:#FEFEFE}
    .fil3 {fill:#FFF212}
    .fil2 {fill:#00A859}
    .fil101 {fill:#3E4095}
    .fil4 {fill:#373435;fill-rule:nonzero}
    .fil5 {fill:#383637;fill-rule:nonzero}
    .fil6 {fill:#393839;fill-rule:nonzero}
    .fil7 {fill:#3B3A3B;fill-rule:nonzero}
    .fil8 {fill:#3D3B3D;fill-rule:nonzero}
    .fil9 {fill:#3F3D40;fill-rule:nonzero}
    .fil10 {fill:#403E42;fill-rule:nonzero}
    .fil11 {fill:#424044;fill-rule:nonzero}
    .fil12 {fill:#434145;fill-rule:nonzero}
    .fil13 {fill:#444348;fill-rule:nonzero}
    .fil14 {fill:#454349;fill-rule:nonzero}
    .fil15 {fill:#48474E;fill-rule:nonzero}
    .fil16 {fill:#47464D;fill-rule:nonzero}
    .fil17 {fill:#48474E;fill-rule:nonzero}
    .fil18 {fill:#4B4A52;fill-rule:nonzero}
    .fil19 {fill:#4C4B54;fill-rule:nonzero}
    .fil20 {fill:#4D4C55;fill-rule:nonzero}
    .fil21 {fill:#4E4D57;fill-rule:nonzero}
    .fil22 {fill:#4E4D58;fill-rule:nonzero}
    .fil23 {fill:#4F4E5A;fill-rule:nonzero}
    .fil24 {fill:#504F5B;fill-rule:nonzero}
    .fil25 {fill:#514F5C;fill-rule:nonzero}
    .fil26 {fill:#52505E;fill-rule:nonzero}
    .fil27 {fill:#52515F;fill-rule:nonzero}
    .fil28 {fill:#535160;fill-rule:nonzero}
    .fil29 {fill:#535261;fill-rule:nonzero}
    .fil30 {fill:#545263;fill-rule:nonzero}
    .fil31 {fill:#545364;fill-rule:nonzero}
    .fil32 {fill:#555365;fill-rule:nonzero}
    .fil33 {fill:#555366;fill-rule:nonzero}
    .fil34 {fill:#565467;fill-rule:nonzero}
    .fil35 {fill:#575468;fill-rule:nonzero}
    .fil36 {fill:#575469;fill-rule:nonzero}
    .fil37 {fill:#57556A;fill-rule:nonzero}
    .fil38 {fill:#57556B;fill-rule:nonzero}
    .fil39 {fill:#58566D;fill-rule:nonzero}
    .fil40 {fill:#56546C;fill-rule:nonzero}
    .fil41 {fill:#58556F;fill-rule:nonzero}
    .fil42 {fill:#585570;fill-rule:nonzero}
    .fil43 {fill:#585571;fill-rule:nonzero}
    .fil44 {fill:#585571;fill-rule:nonzero}
    .fil45 {fill:#595572;fill-rule:nonzero}
    .fil46 {fill:#595573;fill-rule:nonzero}
    .fil47 {fill:#595574;fill-rule:nonzero}
    .fil48 {fill:#595574;fill-rule:nonzero}
    .fil49 {fill:#595575;fill-rule:nonzero}
    .fil50 {fill:#595576;fill-rule:nonzero}
    .fil51 {fill:#595577;fill-rule:nonzero}
    .fil52 {fill:#585577;fill-rule:nonzero}
    .fil53 {fill:#595578;fill-rule:nonzero}
    .fil54 {fill:#595579;fill-rule:nonzero}
    .fil55 {fill:#59557A;fill-rule:nonzero}
    .fil56 {fill:#59547B;fill-rule:nonzero}
    .fil57 {fill:#58547B;fill-rule:nonzero}
    .fil58 {fill:#58547C;fill-rule:nonzero}
    .fil59 {fill:#58547D;fill-rule:nonzero}
    .fil60 {fill:#58547E;fill-rule:nonzero}
    .fil61 {fill:#58547E;fill-rule:nonzero}
    .fil62 {fill:#57527E;fill-rule:nonzero}
    .fil63 {fill:#57527F;fill-rule:nonzero}
    .fil64 {fill:#575381;fill-rule:nonzero}
    .fil65 {fill:#575282;fill-rule:nonzero}
    .fil66 {fill:#575283;fill-rule:nonzero}
    .fil67 {fill:#565283;fill-rule:nonzero}
    .fil68 {fill:#565184;fill-rule:nonzero}
    .fil69 {fill:#565184;fill-rule:nonzero}
    .fil70 {fill:#555185;fill-rule:nonzero}
    .fil71 {fill:#545086;fill-rule:nonzero}
    .fil72 {fill:#545086;fill-rule:nonzero}
    .fil73 {fill:#544F87;fill-rule:nonzero}
    .fil74 {fill:#534F88;fill-rule:nonzero}
    .fil75 {fill:#534F88;fill-rule:nonzero}
    .fil76 {fill:#524E89;fill-rule:nonzero}
    .fil77 {fill:#524E89;fill-rule:nonzero}
    .fil78 {fill:#514D8A;fill-rule:nonzero}
    .fil79 {fill:#514D8B;fill-rule:nonzero}
    .fil80 {fill:#504C8B;fill-rule:nonzero}
    .fil81 {fill:#4F4C8C;fill-rule:nonzero}
    .fil82 {fill:#4E4B8C;fill-rule:nonzero}
    .fil83 {fill:#4E4B8C;fill-rule:nonzero}
    .fil84 {fill:#4D4A8D;fill-rule:nonzero}
    .fil85 {fill:#4C498D;fill-rule:nonzero}
    .fil86 {fill:#4A488D;fill-rule:nonzero}
    .fil87 {fill:#49478F;fill-rule:nonzero}
    .fil88 {fill:#49478F;fill-rule:nonzero}
    .fil89 {fill:#484690;fill-rule:nonzero}
    .fil90 {fill:#474590;fill-rule:nonzero}
    .fil91 {fill:#464591;fill-rule:nonzero}
    .fil92 {fill:#454591;fill-rule:nonzero}
    .fil93 {fill:#454491;fill-rule:nonzero}
    .fil94 {fill:#434392;fill-rule:nonzero}
    .fil95 {fill:#424392;fill-rule:nonzero}
    .fil96 {fill:#414293;fill-rule:nonzero}
    .fil97 {fill:#404193;fill-rule:nonzero}
    .fil98 {fill:#3F4094;fill-rule:nonzero}
    .fil99 {fill:#3F4094;fill-rule:nonzero}
    .fil100 {fill:#3E4095;fill-rule:nonzero}
    .fil0 {fill:#201E1E;fill-rule:nonzero}
    .fil102 {fill:#003D7E;fill-rule:nonzero}
   ]]>
  </style>
 </defs>
 <g id="Camada_x0020_1">
  <metadata id="CorelCorpID_0Corel-Layer"/>
  <g id="_2075682941376">
   <path class="fil0" d="M2.64681 0.8646l0.08673 0 0 -0.10187 0.13261 0 0.04864 -0.0491 0 -0.11702 -0.04864 -0.04864 -0.21934 0 0 0.31663zm0.08673 -0.16244l0 -0.09362 0.08122 0 0.01285 0.01285 0 0.06792 -0.01285 0.01285 -0.08122 0zm0.21567 0.16244l0.08673 0 0 -0.11747 0.05919 0 0.03992 0.11747 0.0904 0 -0.04726 -0.13032 0.04038 -0.03992 0 -0.1005 -0.04635 -0.04589 -0.22301 0 0 0.31663zm0.08673 -0.17713l0 -0.0803 0.08305 0 0.01239 0.01239 0 0.05506 -0.01239 0.01285 -0.08305 0zm0.26569 0.17713l0.17346 0 0.0491 -0.04864 0 -0.21935 -0.0491 -0.04864 -0.17346 0 -0.04864 0.04864 0 0.21935 0.04864 0.04864zm0.05415 -0.06378l-0.0156 -0.01561 0 -0.15785 0.0156 -0.0156 0.06562 0 0.0156 0.0156 0 0.15785 -0.0156 0.01561 -0.06562 0zm0.2143 0.06378l0.21843 0 0.0491 -0.04864 0 -0.21935 -0.0491 -0.04864 -0.21843 0 0 0.31663zm0.08673 -0.06378l0 -0.18906 0.07801 0 0.0156 0.0156 0 0.15785 -0.0156 0.01561 -0.07801 0zm0.27304 0.06378l0.16703 0 0.04864 -0.04864 0 -0.26799 -0.08719 0 0 0.23495 -0.0156 0.0156 -0.0592 0 -0.0156 -0.0156 0 -0.23495 -0.08718 0 0 0.26799 0.0491 0.04864zm0.32993 0l0.08718 0 0 -0.24688 0.0849 0 0 -0.06975 -0.25652 0 0 0.06975 0.08444 0 0 0.24688zm0.24595 0l0.17346 0 0.0491 -0.04864 0 -0.21935 -0.0491 -0.04864 -0.17346 0 -0.04864 0.04864 0 0.21935 0.04864 0.04864zm0.05415 -0.06378l-0.0156 -0.01561 0 -0.15785 0.0156 -0.0156 0.06562 0 0.0156 0.0156 0 0.15785 -0.0156 0.01561 -0.06562 0zm-1.91307 0.52266l0.20236 0 0 -0.06929 -0.11563 0 0 -0.24734 -0.08673 0 0 0.31663zm0.22576 0l0.19227 0 0 -0.06011 -0.05277 0 0 -0.19686 0.05277 0 0 -0.05966 -0.19227 0 0 0.05966 0.05232 0 0 0.19686 -0.05232 0 0 0.06011zm0.23403 0l0.22302 0 0.04405 -0.04405 0 -0.08077 -0.03717 -0.03716 0.03625 -0.0358 0 -0.07479 -0.04405 -0.04406 -0.2221 0 0 0.31663zm0.08719 -0.06011l0 -0.07159 0.08214 0 0.01055 0.01101 0 0.0491 -0.01147 0.01148 -0.08122 0zm0 -0.13078l0 -0.06608 0.08076 0 0.01102 0.01147 0 0.04405 -0.01056 0.01056 -0.08122 0zm0.22348 0.19089l0.22347 0 0 -0.06562 -0.13674 0 0 -0.06287 0.12252 0 0 -0.06562 -0.12252 0 0 -0.0569 0.13583 0 0 -0.06562 -0.22256 0 0 0.31663zm0.26707 0l0.08673 0 0 -0.11747 0.05919 0 0.03992 0.11747 0.0904 0 -0.04726 -0.13032 0.04038 -0.03992 0 -0.1005 -0.04635 -0.04589 -0.22301 0 0 0.31663zm0.08673 -0.17713l0 -0.0803 0.08305 0 0.01239 0.01239 0 0.05506 -0.01239 0.01285 -0.08305 0zm0.19824 0.17713l0.08259 0 0.01423 -0.06195 0.09499 0 0.01422 0.06195 0.0904 0 -0.08351 -0.31663 -0.12987 0 -0.08305 0.31663zm0.145 -0.26661l0.03212 0.14042 -0.06516 0 0.03304 -0.14042zm0.17805 0.26661l0.21843 0 0.0491 -0.04864 0 -0.21935 -0.0491 -0.04864 -0.21843 0 0 0.31663zm0.08673 -0.06378l0 -0.18906 0.07801 0 0.0156 0.0156 0 0.15785 -0.0156 0.01561 -0.07801 0zm0.27074 0.06378l0.17346 0 0.0491 -0.04864 0 -0.21935 -0.0491 -0.04864 -0.17346 0 -0.04864 0.04864 0 0.21935 0.04864 0.04864zm0.05415 -0.06378l-0.0156 -0.01561 0 -0.15785 0.0156 -0.0156 0.06562 0 0.0156 0.0156 0 0.15785 -0.0156 0.01561 -0.06562 0zm-2.05717 0.52266l0.08673 0 0 -0.10187 0.13261 0 0.04864 -0.0491 0 -0.11702 -0.04864 -0.04864 -0.21934 0 0 0.31663zm0.08673 -0.16244l0 -0.09362 0.08122 0 0.01285 0.01285 0 0.06792 -0.01285 0.01285 -0.08122 0zm0.21567 0.16244l0.22347 0 0 -0.06562 -0.13674 0 0 -0.06287 0.12252 0 0 -0.06562 -0.12252 0 0 -0.0569 0.13583 0 0 -0.06562 -0.22256 0 0 0.31663zm0.26707 0l0.20236 0 0 -0.06929 -0.11563 0 0 -0.24734 -0.08673 0 0 0.31663zm0.21292 0l0.08259 0 0.01423 -0.06195 0.09499 0 0.01422 0.06195 0.0904 0 -0.08351 -0.31663 -0.12987 0 -0.08305 0.31663zm0.145 -0.26661l0.03212 0.14042 -0.06516 0 0.03304 -0.14042zm0.24872 0.26661l0.08259 0 0.01423 -0.06195 0.09499 0 0.01422 0.06195 0.0904 0 -0.08351 -0.31663 -0.12987 0 -0.08305 0.31663zm0.145 -0.26661l0.03212 0.14042 -0.06516 0 0.03304 -0.14042zm0.17805 0.26661l0.07709 0 0 -0.1886 0.10004 0.1886 0.08902 0 0 -0.31663 -0.07709 0 0 0.18585 -0.10096 -0.18585 -0.0881 0 0 0.31663zm0.36711 0l0.13078 0 0.07296 -0.31663 -0.08306 0 -0.05139 0.25285 -0.0514 -0.25285 -0.0904 0 0.07251 0.31663zm0.22117 0l0.19227 0 0 -0.06011 -0.05277 0 0 -0.19686 0.05277 0 0 -0.05966 -0.19227 0 0 0.05966 0.05232 0 0 0.19686 -0.05232 0 0 0.06011zm0.26937 0l0.17483 0 0.04589 -0.04589 0 -0.10829 -0.03901 -0.03901 -0.13078 0 -0.00688 -0.00734 0 -0.04405 0.00918 -0.00964 0.06975 0 0.01009 0.0101 0 0.02615 0.08673 0 0 -0.05415 -0.04451 -0.04451 -0.17254 0 -0.04589 0.04589 0 0.10646 0.03901 0.03946 0.13078 0 0.00688 0.00689 0 0.04589 -0.00918 0.00917 -0.07204 0 -0.0101 -0.00963 0 -0.02616 -0.08672 0 0 0.05415 0.04451 0.04451zm0.23587 0l0.08259 0 0.01423 -0.06195 0.09499 0 0.01422 0.06195 0.0904 0 -0.08351 -0.31663 -0.12987 0 -0.08305 0.31663zm0.145 -0.26661l0.03212 0.14042 -0.06516 0 0.03304 -0.14042z"/>
   <path class="fil1 str0" d="M1.16518 0.05c0.61591,0 1.11519,0.49928 1.11519,1.11518 0,0.6159 -0.49928,1.11519 -1.11519,1.11519 -0.6159,0 -1.11518,-0.49929 -1.11518,-1.11519 0,-0.6159 0.49928,-1.11518 1.11518,-1.11518z"/>
   <g>
    <path class="fil2" d="M1.04515 1.21199l-0.03654 0 0 -0.22811 -0.26095 0 0 -0.03653 0.29749 0 0 0.26464zm0.53756 -0.26464l0 0.03653 -0.26098 0 0 0.22811 -0.03653 0 0 -0.26464 0.29751 0zm-0.29751 -0.49429l0.03653 0 0 0.22811 0.26098 0 0 0.03653 -0.29751 0 0 -0.26464zm-0.27659 0l0.03654 0 0 0.26464 -0.29749 0 0 -0.03653 0.26095 0 0 -0.22811z"/>
    <path class="fil3" d="M0.9825 0.83252c-0.00706,0.28005 0.63351,0.3134 0.65761,0.05219 -0.11606,0.28706 -0.52091,0.08925 -0.65761,-0.05219zm0.36537 0.00001c0.00706,-0.28005 -0.63351,-0.3134 -0.65761,-0.05219 0.11606,-0.28707 0.52091,-0.08925 0.65761,0.05219z"/>
    <path class="fil4" d="M1.16519 0.77695c0.03069,0 0.05557,0.02489 0.05557,0.05558 0,0.03068 -0.02488,0.05557 -0.05557,0.05557 -0.0307,0 -0.05558,-0.02489 -0.05558,-0.05557l0 -0.00012 0 0.00024 0 -0.00012c0,-0.03069 0.02488,-0.05558 0.05558,-0.05558zm0.01889 0.01223l0.01588 0 -0.01588 0z"/>
    <path class="fil4" d="M1.18408 0.78918l0.01588 0c0.01268,0.01018 0.0208,0.02582 0.0208,0.04335 0,0.03068 -0.02488,0.05557 -0.05557,0.05557 -0.0307,0 -0.05558,-0.02489 -0.05558,-0.05557 0,-0.03069 0.02488,-0.05558 0.05558,-0.05558 0.01316,0 0.02525,0.00458 0.03477,0.01223l-0.01588 0z"/>
    <path class="fil5" d="M1.18408 0.78918l0.01588 0c0.01268,0.01018 0.0208,0.02582 0.0208,0.04335 0,0.03068 -0.02488,0.05557 -0.05557,0.05557 -0.0307,0 -0.05558,-0.02489 -0.05558,-0.05557 0,-0.03069 0.02488,-0.05558 0.05558,-0.05558 0.01316,0 0.02525,0.00458 0.03477,0.01223l-0.01588 0z"/>
    <path class="fil6" d="M1.18408 0.78918l0.01588 0c0.01268,0.01018 0.0208,0.02582 0.0208,0.04335 0,0.03068 -0.02488,0.05557 -0.05557,0.05557 -0.0307,0 -0.05558,-0.02489 -0.05558,-0.05557 0,-0.03069 0.02488,-0.05558 0.05558,-0.05558 0.01316,0 0.02525,0.00458 0.03477,0.01223l-0.01588 0z"/>
    <path class="fil7" d="M1.18408 0.78918l0.01588 0c0.01268,0.01018 0.0208,0.02582 0.0208,0.04335 0,0.03068 -0.02488,0.05557 -0.05557,0.05557 -0.0307,0 -0.05558,-0.02489 -0.05558,-0.05557 0,-0.03069 0.02488,-0.05558 0.05558,-0.05558 0.01316,0 0.02525,0.00458 0.03477,0.01223l-0.01588 0z"/>
    <path class="fil8" d="M1.18408 0.78918l0.01588 0c0.01268,0.01018 0.0208,0.02582 0.0208,0.04335 0,0.03068 -0.02488,0.05557 -0.05557,0.05557 -0.0307,0 -0.05558,-0.02489 -0.05558,-0.05557 0,-0.03069 0.02488,-0.05558 0.05558,-0.05558 0.01316,0 0.02525,0.00458 0.03477,0.01223l-0.01588 0z"/>
    <path class="fil9" d="M1.18408 0.78918l0.01588 0c0.01268,0.01018 0.0208,0.02582 0.0208,0.04335 0,0.03068 -0.02488,0.05557 -0.05557,0.05557 -0.0307,0 -0.05558,-0.02489 -0.05558,-0.05557 0,-0.03069 0.02488,-0.05558 0.05558,-0.05558 0.01316,0 0.02525,0.00458 0.03477,0.01223l-0.01588 0z"/>
    <path class="fil10" d="M1.18408 0.78918l0.01588 0c0.01268,0.01018 0.0208,0.02582 0.0208,0.04335 0,0.03068 -0.02488,0.05557 -0.05557,0.05557 -0.0307,0 -0.05558,-0.02489 -0.05558,-0.05557 0,-0.03069 0.02488,-0.05558 0.05558,-0.05558 0.01316,0 0.02525,0.00458 0.03477,0.01223l-0.01588 0z"/>
    <path class="fil11" d="M1.18408 0.78918l0.01588 0c0.01268,0.01018 0.0208,0.02582 0.0208,0.04335 0,0.03068 -0.02488,0.05557 -0.05557,0.05557 -0.0307,0 -0.05558,-0.02489 -0.05558,-0.05557 0,-0.03069 0.02488,-0.05558 0.05558,-0.05558 0.01316,0 0.02525,0.00458 0.03477,0.01223l-0.01588 0z"/>
    <path class="fil12" d="M1.18408 0.78918l0.01588 0c0.01268,0.01018 0.0208,0.02582 0.0208,0.04335 0,0.03068 -0.02488,0.05557 -0.05557,0.05557 -0.0307,0 -0.05558,-0.02489 -0.05558,-0.05557 0,-0.03069 0.02488,-0.05558 0.05558,-0.05558 0.01316,0 0.02525,0.00458 0.03477,0.01223l-0.01588 0z"/>
    <path class="fil13" d="M1.18408 0.78918l0.01588 0c0.01268,0.01018 0.0208,0.02582 0.0208,0.04335 0,0.03068 -0.02488,0.05557 -0.05557,0.05557 -0.0307,0 -0.05558,-0.02489 -0.05558,-0.05557 0,-0.03069 0.02488,-0.05558 0.05558,-0.05558 0.01316,0 0.02525,0.00458 0.03477,0.01223l-0.01588 0z"/>
    <path class="fil14" d="M1.18408 0.78918l0.01588 0c0.01268,0.01018 0.0208,0.02582 0.0208,0.04335 0,0.03068 -0.02488,0.05557 -0.05557,0.05557 -0.0307,0 -0.05558,-0.02489 -0.05558,-0.05557 0,-0.03069 0.02488,-0.05558 0.05558,-0.05558 0.01316,0 0.02525,0.00458 0.03477,0.01223l-0.01588 0z"/>
    <path class="fil15" d="M1.18408 0.78918l0.01588 0c0.01268,0.01018 0.0208,0.02582 0.0208,0.04335 0,0.03068 -0.02488,0.05557 -0.05557,0.05557 -0.0307,0 -0.05558,-0.02489 -0.05558,-0.05557 0,-0.03069 0.02488,-0.05558 0.05558,-0.05558 0.01316,0 0.02525,0.00458 0.03477,0.01223l-0.01588 0z"/>
    <path class="fil16" d="M1.18408 0.78918l0.01588 0c0.01268,0.01018 0.0208,0.02582 0.0208,0.04335 0,0.03068 -0.02488,0.05557 -0.05557,0.05557 -0.0307,0 -0.05558,-0.02489 -0.05558,-0.05557 0,-0.03069 0.02488,-0.05558 0.05558,-0.05558 0.01316,0 0.02525,0.00458 0.03477,0.01223l-0.01588 0z"/>
    <path class="fil17" d="M1.18408 0.78918l0.01588 0c0.01268,0.01018 0.0208,0.02582 0.0208,0.04335 0,0.03068 -0.02488,0.05557 -0.05557,0.05557 -0.0307,0 -0.05558,-0.02489 -0.05558,-0.05557 0,-0.03069 0.02488,-0.05558 0.05558,-0.05558 0.01316,0 0.02525,0.00458 0.03477,0.01223l-0.01588 0z"/>
    <path class="fil18" d="M1.18408 0.78918l0.01588 0c0.01268,0.01018 0.0208,0.02582 0.0208,0.04335 0,0.03068 -0.02488,0.05557 -0.05557,0.05557 -0.0307,0 -0.05558,-0.02489 -0.05558,-0.05557 0,-0.03069 0.02488,-0.05558 0.05558,-0.05558 0.01316,0 0.02525,0.00458 0.03477,0.01223l-0.01588 0z"/>
    <path class="fil19" d="M1.18408 0.78918l0.01588 0c0.01268,0.01018 0.0208,0.02582 0.0208,0.04335 0,0.03068 -0.02488,0.05557 -0.05557,0.05557 -0.0307,0 -0.05558,-0.02489 -0.05558,-0.05557 0,-0.03069 0.02488,-0.05558 0.05558,-0.05558 0.01316,0 0.02525,0.00458 0.03477,0.01223l-0.01588 0z"/>
    <path class="fil20" d="M1.18408 0.78918l0.01588 0c0.01268,0.01018 0.0208,0.02582 0.0208,0.04335 0,0.03068 -0.02488,0.05557 -0.05557,0.05557 -0.0307,0 -0.05558,-0.02489 -0.05558,-0.05557 0,-0.03069 0.02488,-0.05558 0.05558,-0.05558 0.01316,0 0.02525,0.00458 0.03477,0.01223l-0.01588 0z"/>
    <path class="fil21" d="M1.18408 0.78918l0.01588 0c0.01268,0.01018 0.0208,0.02582 0.0208,0.04335 0,0.03068 -0.02488,0.05557 -0.05557,0.05557 -0.0307,0 -0.05558,-0.02489 -0.05558,-0.05557 0,-0.03069 0.02488,-0.05558 0.05558,-0.05558 0.01316,0 0.02525,0.00458 0.03477,0.01223l-0.01588 0z"/>
    <path class="fil22" d="M1.18408 0.78918l0.01588 0c0.01268,0.01018 0.0208,0.02582 0.0208,0.04335 0,0.03068 -0.02488,0.05557 -0.05557,0.05557 -0.0307,0 -0.05558,-0.02489 -0.05558,-0.05557 0,-0.03069 0.02488,-0.05558 0.05558,-0.05558 0.01316,0 0.02525,0.00458 0.03477,0.01223l-0.01588 0z"/>
    <path class="fil23" d="M1.18408 0.78918l0.01588 0c0.01268,0.01018 0.0208,0.02582 0.0208,0.04335 0,0.03068 -0.02488,0.05557 -0.05557,0.05557 -0.0307,0 -0.05558,-0.02489 -0.05558,-0.05557 0,-0.03069 0.02488,-0.05558 0.05558,-0.05558 0.01316,0 0.02525,0.00458 0.03477,0.01223l-0.01588 0z"/>
    <path class="fil24" d="M1.18408 0.78918l0.01588 0c0.01268,0.01018 0.0208,0.02582 0.0208,0.04335 0,0.03068 -0.02488,0.05557 -0.05557,0.05557 -0.0307,0 -0.05558,-0.02489 -0.05558,-0.05557 0,-0.03069 0.02488,-0.05558 0.05558,-0.05558 0.01316,0 0.02525,0.00458 0.03477,0.01223l-0.01588 0z"/>
    <path class="fil25" d="M1.18408 0.78918l0.01588 0c0.01268,0.01018 0.0208,0.02582 0.0208,0.04335 0,0.03068 -0.02488,0.05557 -0.05557,0.05557 -0.0307,0 -0.05558,-0.02489 -0.05558,-0.05557 0,-0.03069 0.02488,-0.05558 0.05558,-0.05558 0.01316,0 0.02525,0.00458 0.03477,0.01223l-0.01588 0z"/>
    <path class="fil26" d="M1.18408 0.78918l0.01588 0c0.01268,0.01018 0.0208,0.02582 0.0208,0.04335 0,0.03068 -0.02488,0.05557 -0.05557,0.05557 -0.0307,0 -0.05558,-0.02489 -0.05558,-0.05557 0,-0.03069 0.02488,-0.05558 0.05558,-0.05558 0.01316,0 0.02525,0.00458 0.03477,0.01223l-0.01588 0z"/>
    <path class="fil27" d="M1.18408 0.78918l0.01588 0c0.01268,0.01018 0.0208,0.02582 0.0208,0.04335 0,0.03068 -0.02488,0.05557 -0.05557,0.05557 -0.0307,0 -0.05558,-0.02489 -0.05558,-0.05557 0,-0.03069 0.02488,-0.05558 0.05558,-0.05558 0.01316,0 0.02525,0.00458 0.03477,0.01223l-0.01588 0z"/>
    <path class="fil28" d="M1.18408 0.78918l0.01588 0c0.01268,0.01018 0.0208,0.02582 0.0208,0.04335 0,0.03068 -0.02488,0.05557 -0.05557,0.05557 -0.00379,0 -0.00748,-0.00038 -0.01105,-0.0011 -0.00752,-0.0023 -0.01467,-0.00544 -0.02135,-0.00931 -0.01404,-0.01009 -0.02318,-0.02656 -0.02318,-0.04516 0,-0.03069 0.02488,-0.05558 0.05558,-0.05558 0.01316,0 0.02525,0.00458 0.03477,0.01223l-0.01588 0z"/>
    <path class="fil29" d="M1.18408 0.78918l0.01588 0c0.01268,0.01018 0.0208,0.02582 0.0208,0.04335 0,0.03068 -0.02488,0.05557 -0.05557,0.05557 -0.00117,0 -0.00233,-0.00004 -0.00349,-0.00011 -0.01267,-0.00286 -0.02445,-0.0081 -0.03484,-0.01522 -0.01063,-0.01012 -0.01725,-0.02441 -0.01725,-0.04024 0,-0.03069 0.02488,-0.05558 0.05558,-0.05558 0.01316,0 0.02525,0.00458 0.03477,0.01223l-0.01588 0z"/>
    <path class="fil30" d="M1.18408 0.78918l0.01588 0c0.01268,0.01018 0.0208,0.02582 0.0208,0.04335 0,0.03002 -0.02382,0.0545 -0.05361,0.05553 -0.01637,-0.00278 -0.03139,-0.00953 -0.04404,-0.01922 -0.00841,-0.00975 -0.0135,-0.02244 -0.0135,-0.03631 0,-0.03069 0.02488,-0.05558 0.05558,-0.05558 0.01316,0 0.02525,0.00458 0.03477,0.01223l-0.01588 0z"/>
    <path class="fil31" d="M1.18408 0.78918l0.01588 0c0.01268,0.01018 0.0208,0.02582 0.0208,0.04335 0,0.02851 -0.02149,0.05201 -0.04915,0.0552 -0.01938,-0.00243 -0.03701,-0.01044 -0.05125,-0.02236 -0.00676,-0.00921 -0.01075,-0.02056 -0.01075,-0.03284 0,-0.03069 0.02488,-0.05558 0.05558,-0.05558 0.01316,0 0.02525,0.00458 0.03477,0.01223l-0.01588 0z"/>
    <path class="fil32" d="M1.18408 0.78918l0.01588 0c0.01268,0.01018 0.0208,0.02582 0.0208,0.04335 0,0.02716 -0.0195,0.04978 -0.04528,0.05462 -0.02196,-0.00191 -0.04186,-0.01102 -0.0573,-0.02498 -0.00543,-0.00858 -0.00857,-0.01875 -0.00857,-0.02964 0,-0.03069 0.02488,-0.05558 0.05558,-0.05558 0.01316,0 0.02525,0.00458 0.03477,0.01223l-0.01588 0z"/>
    <path class="fil33" d="M1.18408 0.78918l0.01588 0c0.01268,0.01018 0.0208,0.02582 0.0208,0.04335 0,0.02596 -0.01782,0.04777 -0.04189,0.05387 -0.02423,-0.00128 -0.04611,-0.01142 -0.06247,-0.02724 -0.00433,-0.00791 -0.00679,-0.01698 -0.00679,-0.02663 0,-0.03069 0.02488,-0.05558 0.05558,-0.05558 0.01316,0 0.02525,0.00458 0.03477,0.01223l-0.01588 0z"/>
    <path class="fil34" d="M1.18408 0.78918l0.01588 0c0.01268,0.01018 0.0208,0.02582 0.0208,0.04335 0,0.02485 -0.01632,0.04589 -0.03883,0.053 -0.02626,-0.00057 -0.04992,-0.01165 -0.06697,-0.0292 -0.00343,-0.00721 -0.00535,-0.01529 -0.00535,-0.0238 0,-0.03069 0.02488,-0.05558 0.05558,-0.05558 0.01316,0 0.02525,0.00458 0.03477,0.01223l-0.01588 0z"/>
    <path class="fil35" d="M1.18408 0.78918l0.01588 0c0.01268,0.01018 0.0208,0.02582 0.0208,0.04335 0,0.02381 -0.01498,0.04413 -0.03604,0.05204l-0.00064 0c-0.02783,0 -0.05287,-0.01191 -0.07031,-0.03092 -0.00268,-0.00651 -0.00416,-0.01365 -0.00416,-0.02112 0,-0.03069 0.02488,-0.05558 0.05558,-0.05558 0.01316,0 0.02525,0.00458 0.03477,0.01223l-0.01588 0z"/>
    <path class="fil36" d="M1.18408 0.78918l0.01588 0c0.01268,0.01018 0.0208,0.02582 0.0208,0.04335 0,0.02283 -0.01378,0.04245 -0.03348,0.051 -0.00106,0.00004 -0.00213,0.00006 -0.0032,0.00006 -0.02846,0 -0.05399,-0.0126 -0.0713,-0.03252 -0.00205,-0.0058 -0.00317,-0.01204 -0.00317,-0.01854 0,-0.03069 0.02488,-0.05558 0.05558,-0.05558 0.01316,0 0.02525,0.00458 0.03477,0.01223l-0.01588 0z"/>
    <path class="fil37" d="M1.18408 0.78918l0.01588 0c0.01268,0.01018 0.0208,0.02582 0.0208,0.04335 0,0.02191 -0.01269,0.04086 -0.03112,0.04991 -0.00184,0.00011 -0.00369,0.00017 -0.00556,0.00017 -0.02903,0 -0.05497,-0.01324 -0.07211,-0.03402 -0.00153,-0.00509 -0.00236,-0.01048 -0.00236,-0.01606 0,-0.03069 0.02488,-0.05558 0.05558,-0.05558 0.01316,0 0.02525,0.00458 0.03477,0.01223l-0.01588 0z"/>
    <path class="fil38" d="M1.18408 0.78918l0.01588 0c0.01268,0.01018 0.0208,0.02582 0.0208,0.04335 0,0.02102 -0.01168,0.03933 -0.02892,0.04877 -0.00255,0.00021 -0.00514,0.00032 -0.00776,0.00032 -0.02954,0 -0.05585,-0.01386 -0.07277,-0.03543 -0.00111,-0.00437 -0.0017,-0.00895 -0.0017,-0.01366 0,-0.03069 0.02488,-0.05558 0.05558,-0.05558 0.01316,0 0.02525,0.00458 0.03477,0.01223l-0.01588 0z"/>
    <path class="fil39" d="M1.18408 0.78918l0.01588 0c0.01268,0.01018 0.0208,0.02582 0.0208,0.04335 0,0.02017 -0.01076,0.03785 -0.02686,0.04758 -0.00322,0.00035 -0.0065,0.00053 -0.00982,0.00053 -0.03,0 -0.05663,-0.01445 -0.07331,-0.03676 -0.00076,-0.00367 -0.00116,-0.00746 -0.00116,-0.01135 0,-0.03069 0.02488,-0.05558 0.05558,-0.05558 0.01316,0 0.02525,0.00458 0.03477,0.01223l-0.01588 0z"/>
    <path class="fil40" d="M1.18408 0.78918l0.01588 0c0.01268,0.01018 0.0208,0.02582 0.0208,0.04335 0,0.01937 -0.00991,0.03642 -0.02494,0.04637 -0.00385,0.0005 -0.00776,0.00076 -0.01174,0.00076 -0.03041,0 -0.05732,-0.01501 -0.07372,-0.03801 -0.00049,-0.00297 -0.00075,-0.00602 -0.00075,-0.00912 0,-0.03069 0.02488,-0.05558 0.05558,-0.05558 0.01316,0 0.02525,0.00458 0.03477,0.01223l-0.01588 0z"/>
    <path class="fil41" d="M1.18408 0.78918l0.01588 0c0.01268,0.01018 0.0208,0.02582 0.0208,0.04335 0,0.01858 -0.00913,0.03503 -0.02314,0.04512 -0.00441,0.00067 -0.00894,0.00102 -0.01354,0.00102 -0.03078,0 -0.05793,-0.01554 -0.07404,-0.03921 -0.00028,-0.00227 -0.00043,-0.00459 -0.00043,-0.00693 0,-0.03069 0.02488,-0.05558 0.05558,-0.05558 0.01316,0 0.02525,0.00458 0.03477,0.01223l-0.01588 0z"/>
    <path class="fil42" d="M1.18408 0.78918l0.01588 0c0.01268,0.01018 0.0208,0.02582 0.0208,0.04335 0,0.01781 -0.00839,0.03368 -0.02144,0.04385 -0.00495,0.00086 -0.01004,0.00131 -0.01524,0.00131 -0.03111,0 -0.05848,-0.01606 -0.07426,-0.04034 -0.00014,-0.00159 -0.00021,-0.0032 -0.00021,-0.00482 0,-0.03069 0.02488,-0.05558 0.05558,-0.05558 0.01316,0 0.02525,0.00458 0.03477,0.01223l-0.01588 0z"/>
    <path class="fil43" d="M1.18408 0.78918l0.01588 0c0.01268,0.01018 0.0208,0.02582 0.0208,0.04335 0,0.01707 -0.00771,0.03235 -0.01984,0.04255 -0.00545,0.00106 -0.01108,0.00163 -0.01684,0.00163 -0.03142,0 -0.05896,-0.01656 -0.0744,-0.04142 -0.00005,-0.00091 -0.00007,-0.00184 -0.00007,-0.00276 0,-0.03069 0.02488,-0.05558 0.05558,-0.05558 0.01316,0 0.02525,0.00458 0.03477,0.01223l-0.01588 0z"/>
    <path class="fil44" d="M1.18408 0.78918l0.01588 0c0.01268,0.01018 0.0208,0.02582 0.0208,0.04335 0,0.01635 -0.00707,0.03106 -0.01832,0.04124 -0.00592,0.00127 -0.01206,0.00195 -0.01836,0.00195 -0.03168,0 -0.05938,-0.01702 -0.07446,-0.04242l-0.00001 -0.00077c0,-0.03069 0.02488,-0.05558 0.05558,-0.05558 0.01316,0 0.02525,0.00458 0.03477,0.01223l-0.01588 0z"/>
    <path class="fil45" d="M1.18408 0.78918l0.01588 0c0.01268,0.01018 0.0208,0.02582 0.0208,0.04335 0,0.01566 -0.00649,0.02981 -0.01691,0.03991 -0.00635,0.0015 -0.01296,0.0023 -0.01977,0.0023 -0.03192,0 -0.05975,-0.01748 -0.07446,-0.04339 0.00063,-0.03014 0.02527,-0.0544 0.05557,-0.0544 0.01316,0 0.02525,0.00458 0.03477,0.01223l-0.01588 0z"/>
    <path class="fil46" d="M1.18408 0.78918l0.01588 0c0.01268,0.01018 0.0208,0.02582 0.0208,0.04335 0,0.01498 -0.00593,0.02857 -0.01557,0.03857 -0.00675,0.00173 -0.01382,0.00265 -0.02111,0.00265 -0.03212,0 -0.06007,-0.01791 -0.07439,-0.04429 0.00159,-0.02926 0.02583,-0.05251 0.0555,-0.05251 0.01316,0 0.02525,0.00458 0.03477,0.01223l-0.01588 0z"/>
    <path class="fil47" d="M1.18408 0.78918l0.01588 0c0.01268,0.01018 0.0208,0.02582 0.0208,0.04335 0,0.0143 -0.00541,0.02735 -0.0143,0.03721 -0.00712,0.00197 -0.01463,0.00303 -0.02238,0.00303 -0.03231,0 -0.06034,-0.01833 -0.07425,-0.04516 0.00249,-0.02839 0.02632,-0.05066 0.05536,-0.05066 0.01316,0 0.02525,0.00458 0.03477,0.01223l-0.01588 0z"/>
    <path class="fil48" d="M1.18408 0.78918l0.01588 0c0.01268,0.01018 0.0208,0.02582 0.0208,0.04335 0,0.01365 -0.00493,0.02616 -0.01311,0.03584 -0.00747,0.00222 -0.01538,0.00342 -0.02357,0.00342 -0.03247,0 -0.06056,-0.01874 -0.07406,-0.04599 0.00332,-0.02752 0.02675,-0.04885 0.05517,-0.04885 0.01316,0 0.02525,0.00458 0.03477,0.01223l-0.01588 0z"/>
    <path class="fil49" d="M1.18408 0.78918l0.01588 0c0.01268,0.01018 0.0208,0.02582 0.0208,0.04335 0,0.01302 -0.00448,0.025 -0.01199,0.03447 -0.00779,0.00247 -0.01608,0.00381 -0.02469,0.00381 -0.03261,0 -0.06075,-0.01913 -0.07383,-0.04677 0.00409,-0.02666 0.02713,-0.04709 0.05494,-0.04709 0.01316,0 0.02525,0.00458 0.03477,0.01223l-0.01588 0z"/>
    <path class="fil50" d="M1.18408 0.78918l0.01588 0c0.01268,0.01018 0.0208,0.02582 0.0208,0.04335 0,0.0124 -0.00406,0.02385 -0.01093,0.03309 -0.00809,0.00273 -0.01675,0.00421 -0.02575,0.00421 -0.03272,0 -0.06089,-0.01949 -0.07354,-0.0475 0.00479,-0.02582 0.02744,-0.04538 0.05465,-0.04538 0.01316,0 0.02525,0.00458 0.03477,0.01223l-0.01588 0z"/>
    <path class="fil51" d="M1.18408 0.78918l0.01588 0c0.01268,0.01018 0.0208,0.02582 0.0208,0.04335 0,0.01178 -0.00367,0.02271 -0.00993,0.0317 -0.00836,0.00298 -0.01737,0.00461 -0.02675,0.00461 -0.03281,0 -0.06099,-0.01984 -0.0732,-0.04818 0.00544,-0.02499 0.02769,-0.04371 0.05431,-0.04371 0.01316,0 0.02525,0.00458 0.03477,0.01223l-0.01588 0z"/>
    <path class="fil52" d="M1.18408 0.78918l0.01588 0c0.01268,0.01018 0.0208,0.02582 0.0208,0.04335 0,0.01118 -0.00331,0.02159 -0.00899,0.03031 -0.00862,0.00324 -0.01795,0.00502 -0.02769,0.00502 -0.03289,0 -0.06106,-0.02019 -0.07281,-0.04884 0.00603,-0.02416 0.02788,-0.04207 0.05392,-0.04207 0.01316,0 0.02525,0.00458 0.03477,0.01223l-0.01588 0z"/>
    <path class="fil53" d="M1.18408 0.78918l0.01588 0c0.01268,0.01018 0.0208,0.02582 0.0208,0.04335 0,0.01059 -0.00297,0.0205 -0.00812,0.02892 -0.00884,0.0035 -0.01847,0.00542 -0.02856,0.00542 -0.03294,0 -0.06109,-0.0205 -0.07239,-0.04944 0.00657,-0.02336 0.02804,-0.04048 0.0535,-0.04048 0.01316,0 0.02525,0.00458 0.03477,0.01223l-0.01588 0z"/>
    <path class="fil54" d="M1.18408 0.78918l0.01588 0c0.01268,0.01018 0.0208,0.02582 0.0208,0.04335 0,0.01001 -0.00265,0.0194 -0.00729,0.02752 -0.00905,0.00376 -0.01897,0.00583 -0.02939,0.00583 -0.03297,0 -0.06109,-0.0208 -0.07193,-0.05 0.00708,-0.02256 0.02814,-0.03893 0.05304,-0.03893 0.01316,0 0.02525,0.00458 0.03477,0.01223l-0.01588 0z"/>
    <path class="fil55" d="M1.18408 0.78918l0.01588 0c0.01268,0.01018 0.0208,0.02582 0.0208,0.04335 0,0.00944 -0.00236,0.01833 -0.00652,0.02612 -0.00924,0.00402 -0.01944,0.00625 -0.03016,0.00625 -0.03299,0 -0.06105,-0.0211 -0.07143,-0.05054 0.00753,-0.02177 0.02821,-0.03741 0.05254,-0.03741 0.01316,0 0.02525,0.00458 0.03477,0.01223l-0.01588 0z"/>
    <path class="fil56" d="M1.18408 0.78918l0.01588 0c0.01268,0.01018 0.0208,0.02582 0.0208,0.04335 0,0.00888 -0.00209,0.01728 -0.0058,0.02473 -0.00941,0.00428 -0.01987,0.00666 -0.03088,0.00666 -0.03299,0 -0.06098,-0.02137 -0.0709,-0.05103 0.00794,-0.021 0.02823,-0.03594 0.05201,-0.03594 0.01316,0 0.02525,0.00458 0.03477,0.01223l-0.01588 0z"/>
    <path class="fil57" d="M1.18408 0.78918l0.01588 0c0.01268,0.01018 0.0208,0.02582 0.0208,0.04335 0,0.00833 -0.00184,0.01624 -0.00513,0.02333 -0.00956,0.00454 -0.02026,0.00707 -0.03155,0.00707 -0.03297,0 -0.06088,-0.02163 -0.07033,-0.05147 0.0083,-0.02025 0.0282,-0.03451 0.05144,-0.03451 0.01316,0 0.02525,0.00458 0.03477,0.01223l-0.01588 0z"/>
    <path class="fil58" d="M1.18408 0.78918l0.01588 0c0.01268,0.01018 0.0208,0.02582 0.0208,0.04335 0,0.00779 -0.00161,0.01521 -0.00451,0.02194 -0.0097,0.00479 -0.02062,0.00749 -0.03217,0.00749 -0.03294,0 -0.06076,-0.02189 -0.06973,-0.05191 0.00863,-0.0195 0.02815,-0.0331 0.05084,-0.0331 0.01316,0 0.02525,0.00458 0.03477,0.01223l-0.01588 0z"/>
    <path class="fil59" d="M1.18408 0.78918l0.01588 0c0.01268,0.01018 0.0208,0.02582 0.0208,0.04335 0,0.00726 -0.0014,0.01419 -0.00393,0.02055 -0.00982,0.00505 -0.02095,0.00789 -0.03275,0.00789 -0.03289,0 -0.06061,-0.02211 -0.06911,-0.05228 0.00893,-0.01877 0.02806,-0.03174 0.05022,-0.03174 0.01316,0 0.02525,0.00458 0.03477,0.01223l-0.01588 0z"/>
    <path class="fil60" d="M1.18408 0.78918l0.01588 0c0.01268,0.01018 0.0208,0.02582 0.0208,0.04335 0,0.00673 -0.0012,0.01318 -0.00339,0.01916 -0.00993,0.00529 -0.02126,0.0083 -0.03329,0.0083 -0.03282,0 -0.06043,-0.02234 -0.06845,-0.05264 0.00918,-0.01804 0.02793,-0.0304 0.04956,-0.0304 0.01316,0 0.02525,0.00458 0.03477,0.01223l-0.01588 0z"/>
    <path class="fil61" d="M1.18408 0.78918l0.01588 0c0.01268,0.01018 0.0208,0.02582 0.0208,0.04335 0,0.00621 -0.00102,0.01219 -0.0029,0.01777 -0.01001,0.00554 -0.02153,0.0087 -0.03378,0.0087 -0.03274,0 -0.06022,-0.02254 -0.06777,-0.05295 0.00941,-0.01733 0.02777,-0.0291 0.04888,-0.0291 0.01316,0 0.02525,0.00458 0.03477,0.01223l-0.01588 0z"/>
    <path class="fil62" d="M1.18408 0.78918l0.01588 0c0.01268,0.01018 0.0208,0.02582 0.0208,0.04335 0,0.0057 -0.00086,0.01121 -0.00246,0.01639 -0.01008,0.00579 -0.02176,0.0091 -0.03422,0.0091 -0.03265,0 -0.05999,-0.02273 -0.06706,-0.05323 0.0096,-0.01664 0.02758,-0.02784 0.04817,-0.02784 0.01316,0 0.02525,0.00458 0.03477,0.01223l-0.01588 0z"/>
    <path class="fil63" d="M1.18408 0.78918l0.01588 0c0.01268,0.01018 0.0208,0.02582 0.0208,0.04335 0,0.0052 -0.00072,0.01024 -0.00206,0.01501 -0.01013,0.00603 -0.02197,0.00949 -0.03462,0.00949 -0.03254,0 -0.05973,-0.0229 -0.06633,-0.05347 0.00977,-0.01596 0.02736,-0.02661 0.04744,-0.02661 0.01316,0 0.02525,0.00458 0.03477,0.01223l-0.01588 0z"/>
    <path class="fil64" d="M1.18408 0.78918l0.01588 0c0.01268,0.01018 0.0208,0.02582 0.0208,0.04335 0,0.0047 -0.00059,0.00928 -0.00169,0.01364 -0.01018,0.00627 -0.02216,0.00988 -0.03499,0.00988 -0.03242,0 -0.05945,-0.02307 -0.06558,-0.05369 0.00991,-0.01529 0.02712,-0.02541 0.04669,-0.02541 0.01316,0 0.02525,0.00458 0.03477,0.01223l-0.01588 0z"/>
    <path class="fil65" d="M1.18408 0.78918l0.01588 0c0.01268,0.01018 0.0208,0.02582 0.0208,0.04335 0,0.00422 -0.00047,0.00833 -0.00137,0.01229 -0.0102,0.00649 -0.02232,0.01025 -0.03531,0.01025 -0.03228,0 -0.05915,-0.02322 -0.0648,-0.05388 0.01001,-0.01464 0.02684,-0.02424 0.04591,-0.02424 0.01316,0 0.02525,0.00458 0.03477,0.01223l-0.01588 0z"/>
    <path class="fil66" d="M1.18408 0.78918l0.01588 0c0.01268,0.01018 0.0208,0.02582 0.0208,0.04335 0,0.00374 -0.00037,0.00739 -0.00108,0.01093 -0.01022,0.00672 -0.02245,0.01063 -0.0356,0.01063 -0.03214,0 -0.05882,-0.02337 -0.064,-0.05403 0.0101,-0.014 0.02654,-0.02311 0.04511,-0.02311 0.01316,0 0.02525,0.00458 0.03477,0.01223l-0.01588 0z"/>
    <path class="fil67" d="M1.18408 0.78918l0.01588 0c0.01268,0.01018 0.0208,0.02582 0.0208,0.04335 0,0.00326 -0.00028,0.00646 -0.00082,0.00958 -0.01023,0.00694 -0.02257,0.01099 -0.03586,0.01099 -0.03198,0 -0.05848,-0.02348 -0.06318,-0.05415 0.01015,-0.01337 0.02621,-0.022 0.04429,-0.022 0.01316,0 0.02525,0.00458 0.03477,0.01223l-0.01588 0z"/>
    <path class="fil68" d="M1.18408 0.78918l0.01588 0c0.01268,0.01018 0.0208,0.02582 0.0208,0.04335 0,0.00279 -0.00021,0.00554 -0.00061,0.00823 -0.01021,0.00715 -0.02265,0.01136 -0.03607,0.01136 -0.03181,0 -0.05811,-0.0236 -0.06234,-0.05425 0.01018,-0.01275 0.02586,-0.02092 0.04345,-0.02092 0.01316,0 0.02525,0.00458 0.03477,0.01223l-0.01588 0z"/>
    <path class="fil69" d="M1.18408 0.78918l0.01588 0c0.01268,0.01018 0.0208,0.02582 0.0208,0.04335 0,0.00233 -0.00015,0.00463 -0.00042,0.00689 -0.0102,0.00737 -0.02272,0.01171 -0.03626,0.01171 -0.03162,0 -0.05772,-0.02369 -0.06149,-0.0543 0.0102,-0.01215 0.02549,-0.01988 0.0426,-0.01988 0.01316,0 0.02525,0.00458 0.03477,0.01223l-0.01588 0z"/>
    <path class="fil70" d="M1.18408 0.78918l0.01588 0c0.01268,0.01018 0.0208,0.02582 0.0208,0.04335 0,0.00188 -0.00009,0.00373 -0.00028,0.00557 -0.01016,0.00757 -0.02275,0.01205 -0.0364,0.01205 -0.03143,0 -0.05731,-0.02378 -0.06062,-0.05434 0.01019,-0.01156 0.02511,-0.01886 0.04173,-0.01886 0.01316,0 0.02525,0.00458 0.03477,0.01223l-0.01588 0z"/>
    <path class="fil71" d="M1.18408 0.78918l0.01588 0c0.01268,0.01018 0.0208,0.02582 0.0208,0.04335 0,0.00142 -0.00005,0.00284 -0.00016,0.00424 -0.01011,0.00777 -0.02277,0.0124 -0.03652,0.0124 -0.03122,0 -0.05688,-0.02386 -0.05972,-0.05434 0.01015,-0.011 0.02468,-0.01788 0.04083,-0.01788 0.01316,0 0.02525,0.00458 0.03477,0.01223l-0.01588 0z"/>
    <path class="fil72" d="M1.18408 0.78918l0.01588 0c0.01268,0.01018 0.0208,0.02582 0.0208,0.04335 0,0.00098 -0.00003,0.00196 -0.00008,0.00293 -0.01006,0.00796 -0.02277,0.01272 -0.0366,0.01272 -0.031,0 -0.05643,-0.02392 -0.05882,-0.05431 0.0101,-0.01043 0.02425,-0.01692 0.03993,-0.01692 0.01316,0 0.02525,0.00458 0.03477,0.01223l-0.01588 0z"/>
    <path class="fil73" d="M1.18408 0.78918l0.01588 0c0.01268,0.01018 0.0208,0.02582 0.0208,0.04335 0,0.00054 -0.00001,0.00108 -0.00003,0.00163 -0.00999,0.00815 -0.02275,0.01304 -0.03665,0.01304 -0.03078,0 -0.05596,-0.02397 -0.0579,-0.05426 0.01003,-0.00989 0.02381,-0.01599 0.03901,-0.01599 0.01316,0 0.02525,0.00458 0.03477,0.01223l-0.01588 0z"/>
    <path class="fil74" d="M1.18408 0.78918l0.01588 0c0.01268,0.01018 0.0208,0.02582 0.0208,0.04335l0 0.00034c-0.00992,0.00833 -0.02271,0.01335 -0.03668,0.01335 -0.03054,0 -0.05547,-0.024 -0.05697,-0.05418 0.00995,-0.00936 0.02334,-0.01509 0.03808,-0.01509 0.01316,0 0.02525,0.00458 0.03477,0.01223l-0.01588 0z"/>
    <path class="fil75" d="M1.18408 0.78918l0.01588 0c0.01245,0.01 0.0205,0.02526 0.02079,0.0424 -0.00983,0.00851 -0.02265,0.01365 -0.03667,0.01365 -0.03029,0 -0.05497,-0.02402 -0.05602,-0.05406 0.00984,-0.00884 0.02286,-0.01422 0.03713,-0.01422 0.01316,0 0.02525,0.00458 0.03477,0.01223l-0.01588 0z"/>
    <path class="fil76" d="M1.18408 0.78918l0.01588 0c0.01214,0.00975 0.02009,0.0245 0.02075,0.04112 -0.00973,0.00867 -0.02256,0.01395 -0.03663,0.01395 -0.03003,0 -0.05445,-0.02404 -0.05506,-0.05392 0.00972,-0.00834 0.02235,-0.01338 0.03617,-0.01338 0.01316,0 0.02525,0.00458 0.03477,0.01223l-0.01588 0z"/>
    <path class="fil77" d="M1.18408 0.78918l0.01588 0c0.01183,0.0095 0.01969,0.02375 0.02069,0.03985 -0.00963,0.00884 -0.02247,0.01424 -0.03657,0.01424 -0.02976,0 -0.0539,-0.02404 -0.05409,-0.05376 0.00959,-0.00785 0.02184,-0.01256 0.0352,-0.01256 0.01316,0 0.02525,0.00458 0.03477,0.01223l-0.01588 0z"/>
    <path class="fil78" d="M1.18408 0.78918l0.01588 0c0.01152,0.00925 0.01927,0.02301 0.0206,0.03859 -0.00952,0.009 -0.02235,0.01451 -0.03648,0.01451 -0.02933,0 -0.05311,-0.02377 -0.05311,-0.0531l0.00001 -0.00046c0.00943,-0.00737 0.02131,-0.01177 0.03421,-0.01177 0.01316,0 0.02525,0.00458 0.03477,0.01223l-0.01588 0z"/>
    <path class="fil79" d="M1.18408 0.78918l0.01588 0c0.01121,0.009 0.01886,0.02227 0.02048,0.03734 -0.00939,0.00915 -0.02222,0.01478 -0.03636,0.01478 -0.02878,0 -0.05212,-0.02334 -0.05212,-0.05212 0,-0.00041 0,-0.00081 0.00001,-0.00122 0.00927,-0.00692 0.02076,-0.01101 0.03322,-0.01101 0.01316,0 0.02525,0.00458 0.03477,0.01223l-0.01588 0z"/>
    <path class="fil80" d="M1.18408 0.78918l0.01588 0c0.0109,0.00876 0.01844,0.02155 0.02033,0.03611 -0.00926,0.00928 -0.02206,0.01502 -0.03621,0.01502 -0.02824,0 -0.05114,-0.02289 -0.05114,-0.05113 0,-0.00066 0.00002,-0.00131 0.00004,-0.00195 0.00909,-0.00648 0.0202,-0.01028 0.03221,-0.01028 0.01316,0 0.02525,0.00458 0.03477,0.01223l-0.01588 0z"/>
    <path class="fil81" d="M1.18408 0.78918l0.01588 0c0.0106,0.00851 0.01801,0.02083 0.02016,0.03488 -0.00912,0.00941 -0.02189,0.01527 -0.03604,0.01527 -0.0277,0 -0.05016,-0.02245 -0.05016,-0.05015 0,-0.00089 0.00003,-0.00178 0.00007,-0.00266 0.0089,-0.00604 0.01963,-0.00957 0.0312,-0.00957 0.01316,0 0.02525,0.00458 0.03477,0.01223l-0.01588 0z"/>
    <path class="fil82" d="M1.18408 0.78918l0.01588 0c0.01029,0.00826 0.01758,0.02012 0.01996,0.03366 -0.00897,0.00955 -0.02171,0.01551 -0.03584,0.01551 -0.02716,0 -0.04917,-0.02202 -0.04917,-0.04917 0,-0.00113 0.00004,-0.00224 0.00011,-0.00334 0.00869,-0.00563 0.01905,-0.00889 0.03017,-0.00889 0.01316,0 0.02525,0.00458 0.03477,0.01223l-0.01588 0z"/>
    <path class="fil83" d="M1.18408 0.78918l0.01588 0c0.00998,0.00802 0.01714,0.01942 0.01973,0.03246 -0.00881,0.00966 -0.0215,0.01572 -0.03561,0.01572 -0.02661,0 -0.04819,-0.02157 -0.04819,-0.04818 0,-0.00135 0.00006,-0.00268 0.00016,-0.00399 0.00848,-0.00523 0.01845,-0.00824 0.02914,-0.00824 0.01316,0 0.02525,0.00458 0.03477,0.01223l-0.01588 0z"/>
    <path class="fil84" d="M1.18408 0.78918l0.01588 0c0.00968,0.00777 0.0167,0.01873 0.01948,0.03127 -0.00865,0.00977 -0.02128,0.01593 -0.03536,0.01593 -0.02607,0 -0.04721,-0.02114 -0.04721,-0.0472 0,-0.00156 0.00008,-0.0031 0.00023,-0.00462 0.00824,-0.00484 0.01784,-0.00761 0.02809,-0.00761 0.01316,0 0.02525,0.00458 0.03477,0.01223l-0.01588 0z"/>
    <path class="fil85" d="M1.18408 0.78918l0.01588 0c0.00937,0.00753 0.01625,0.01804 0.01921,0.03009 -0.00848,0.00987 -0.02106,0.01613 -0.03509,0.01613 -0.02553,0 -0.04622,-0.02069 -0.04622,-0.04622 0,-0.00177 0.0001,-0.00351 0.00029,-0.00522 0.008,-0.00447 0.01722,-0.00701 0.02704,-0.00701 0.01316,0 0.02525,0.00458 0.03477,0.01223l-0.01588 0z"/>
    <path class="fil86" d="M1.18408 0.78918l0.01588 0c0.00907,0.00728 0.0158,0.01736 0.01891,0.02892 -0.0083,0.00997 -0.0208,0.01631 -0.03479,0.01631 -0.02498,0 -0.04524,-0.02025 -0.04524,-0.04523 0,-0.00197 0.00012,-0.0039 0.00037,-0.00579 0.00775,-0.00411 0.01659,-0.00644 0.02598,-0.00644 0.01316,0 0.02525,0.00458 0.03477,0.01223l-0.01588 0z"/>
    <path class="fil87" d="M1.18408 0.78918l0.01588 0c0.00877,0.00704 0.01535,0.01669 0.01858,0.02776 -0.00811,0.01006 -0.02053,0.01649 -0.03446,0.01649 -0.02444,0 -0.04426,-0.01981 -0.04426,-0.04425 0,-0.00216 0.00016,-0.00427 0.00046,-0.00635 0.00749,-0.00376 0.01595,-0.00588 0.02491,-0.00588 0.01316,0 0.02525,0.00458 0.03477,0.01223l-0.01588 0z"/>
    <path class="fil88" d="M1.18408 0.78918l0.01588 0c0.00846,0.0068 0.01489,0.01602 0.01824,0.02662 -0.00792,0.01013 -0.02026,0.01665 -0.03412,0.01665 -0.0239,0 -0.04327,-0.01938 -0.04327,-0.04327 0,-0.00234 0.00019,-0.00464 0.00054,-0.00688 0.00723,-0.00343 0.01531,-0.00535 0.02384,-0.00535 0.01316,0 0.02525,0.00458 0.03477,0.01223l-0.01588 0z"/>
    <path class="fil89" d="M1.18408 0.78918l0.01588 0c0.00816,0.00655 0.01443,0.01536 0.01787,0.02548 -0.00772,0.01021 -0.01997,0.0168 -0.03375,0.0168 -0.02335,0 -0.04229,-0.01893 -0.04229,-0.04228 0,-0.00252 0.00022,-0.00498 0.00064,-0.00737 0.00695,-0.00313 0.01465,-0.00486 0.02276,-0.00486 0.01316,0 0.02525,0.00458 0.03477,0.01223l-0.01588 0z"/>
    <path class="fil90" d="M1.18408 0.78918l0.01588 0c0.00786,0.00631 0.01396,0.01471 0.01747,0.02436 -0.00751,0.01027 -0.01965,0.01694 -0.03335,0.01694 -0.02281,0 -0.04131,-0.01849 -0.04131,-0.0413 0,-0.00269 0.00026,-0.00531 0.00075,-0.00785 0.00666,-0.00282 0.01398,-0.00438 0.02167,-0.00438 0.01316,0 0.02525,0.00458 0.03477,0.01223l-0.01588 0z"/>
    <path class="fil91" d="M1.18408 0.78918l0.01588 0c0.00756,0.00607 0.01349,0.01408 0.01706,0.02326 -0.00731,0.01032 -0.01933,0.01706 -0.03294,0.01706 -0.02227,0 -0.04032,-0.01806 -0.04032,-0.04032 0,-0.00285 0.00029,-0.00562 0.00085,-0.0083 0.00637,-0.00254 0.01331,-0.00393 0.02058,-0.00393 0.01316,0 0.02525,0.00458 0.03477,0.01223l-0.01588 0z"/>
    <path class="fil92" d="M1.18408 0.78918l0.01588 0c0.00726,0.00582 0.01301,0.01344 0.01662,0.02217 -0.00709,0.01036 -0.019,0.01716 -0.0325,0.01716 -0.02172,0 -0.03934,-0.01761 -0.03934,-0.03933 0,-0.003 0.00034,-0.00592 0.00097,-0.00872 0.00606,-0.00227 0.01262,-0.00351 0.01948,-0.00351 0.01316,0 0.02525,0.00458 0.03477,0.01223l-0.01588 0z"/>
    <path class="fil93" d="M1.18408 0.78918l0.01588 0c0.00695,0.00558 0.01253,0.01281 0.01616,0.02109 -0.00686,0.0104 -0.01865,0.01726 -0.03204,0.01726 -0.02118,0 -0.03836,-0.01717 -0.03836,-0.03835 0,-0.00315 0.00038,-0.0062 0.0011,-0.00912 0.00575,-0.00202 0.01193,-0.00311 0.01837,-0.00311 0.01316,0 0.02525,0.00458 0.03477,0.01223l-0.01588 0z"/>
    <path class="fil94" d="M1.18408 0.78918l0.01588 0c0.00665,0.00534 0.01205,0.01219 0.01568,0.02002 -0.00663,0.01043 -0.01829,0.01735 -0.03156,0.01735 -0.02064,0 -0.03737,-0.01673 -0.03737,-0.03737 0,-0.00328 0.00042,-0.00646 0.00121,-0.0095 0.00544,-0.00177 0.01124,-0.00273 0.01727,-0.00273 0.01316,0 0.02525,0.00458 0.03477,0.01223l-0.01588 0z"/>
    <path class="fil95" d="M1.18408 0.78918l0.01588 0c0.00635,0.0051 0.01156,0.01157 0.01518,0.01897 -0.0064,0.01044 -0.01791,0.01741 -0.03106,0.01741 -0.02009,0 -0.03639,-0.01629 -0.03639,-0.03638 0,-0.00342 0.00047,-0.00672 0.00135,-0.00985 0.00511,-0.00155 0.01053,-0.00238 0.01615,-0.00238 0.01316,0 0.02525,0.00458 0.03477,0.01223l-0.01588 0z"/>
    <path class="fil96" d="M1.18408 0.78918l0.01588 0c0.00605,0.00486 0.01107,0.01096 0.01466,0.01792 -0.00616,0.01046 -0.01753,0.01748 -0.03054,0.01748 -0.01955,0 -0.0354,-0.01585 -0.0354,-0.0354 0,-0.00354 0.00052,-0.00696 0.00148,-0.01018 0.00478,-0.00134 0.00982,-0.00205 0.01503,-0.00205 0.01316,0 0.02525,0.00458 0.03477,0.01223l-0.01588 0z"/>
    <path class="fil97" d="M1.18408 0.78918l0.01588 0c0.00575,0.00462 0.01057,0.01036 0.01411,0.0169 -0.0059,0.01046 -0.01712,0.01752 -0.02999,0.01752 -0.01901,0 -0.03442,-0.01541 -0.03442,-0.03442 0,-0.00366 0.00057,-0.00718 0.00163,-0.01048 0.00444,-0.00115 0.0091,-0.00175 0.0139,-0.00175 0.01316,0 0.02525,0.00458 0.03477,0.01223l-0.01588 0z"/>
    <path class="fil98" d="M1.18408 0.78918l0.01588 0c0.00546,0.00438 0.01007,0.00977 0.01355,0.01589 -0.00566,0.01045 -0.01671,0.01754 -0.02943,0.01754 -0.01846,0 -0.03344,-0.01497 -0.03344,-0.03343 0,-0.00377 0.00062,-0.00738 0.00177,-0.01076 0.0041,-0.00096 0.00838,-0.00147 0.01278,-0.00147 0.01316,0 0.02525,0.00458 0.03477,0.01223l-0.01588 0z"/>
    <path class="fil98" d="M1.18408 0.78918l0.01588 0c0.00515,0.00414 0.00955,0.00918 0.01296,0.01489 -0.00539,0.01043 -0.01628,0.01756 -0.02884,0.01756 -0.01792,0 -0.03245,-0.01453 -0.03245,-0.03245 0,-0.00387 0.00067,-0.00757 0.00191,-0.01101 0.00376,-0.0008 0.00765,-0.00122 0.01165,-0.00122 0.01316,0 0.02525,0.00458 0.03477,0.01223l-0.01588 0z"/>
    <path class="fil98" d="M1.18408 0.78918l0.01588 0c0.00486,0.0039 0.00904,0.0086 0.01236,0.0139 -0.00513,0.01041 -0.01585,0.01757 -0.02824,0.01757 -0.01738,0 -0.03147,-0.01409 -0.03147,-0.03147 0,-0.00396 0.00073,-0.00775 0.00207,-0.01124 0.0034,-0.00065 0.00691,-0.00099 0.01051,-0.00099 0.01316,0 0.02525,0.00458 0.03477,0.01223l-0.01588 0z"/>
    <path class="fil98" d="M1.18408 0.78918l0.01588 0c0.00456,0.00366 0.00852,0.00802 0.01174,0.01293 -0.00487,0.01037 -0.0154,0.01755 -0.02762,0.01755 -0.01684,0 -0.03049,-0.01364 -0.03049,-0.03048 0,-0.00405 0.00079,-0.00791 0.00222,-0.01144 0.00305,-0.00052 0.00618,-0.00079 0.00938,-0.00079 0.01316,0 0.02525,0.00458 0.03477,0.01223l-0.01588 0z"/>
    <path class="fil98" d="M1.18408 0.78918l0.01588 0c0.00426,0.00342 0.008,0.00745 0.0111,0.01197 -0.0046,0.01033 -0.01495,0.01753 -0.02698,0.01753 -0.01629,0 -0.0295,-0.01321 -0.0295,-0.0295 0,-0.00413 0.00084,-0.00806 0.00237,-0.01163 0.00269,-0.0004 0.00544,-0.0006 0.00824,-0.0006 0.01316,0 0.02525,0.00458 0.03477,0.01223l-0.01588 0z"/>
    <path class="fil98" d="M1.18408 0.78918l0.01588 0c0.00396,0.00317 0.00747,0.00689 0.01043,0.01102 -0.00431,0.01028 -0.01446,0.0175 -0.02631,0.0175 -0.01575,0 -0.02852,-0.01277 -0.02852,-0.02852 0,-0.00421 0.00091,-0.00819 0.00254,-0.01179 0.00232,-0.00029 0.00469,-0.00044 0.00709,-0.00044 0.01316,0 0.02525,0.00458 0.03477,0.01223l-0.01588 0z"/>
    <path class="fil98" d="M1.18408 0.78918l0.01588 0c0.00366,0.00293 0.00694,0.00632 0.00975,0.01008 -0.00402,0.01022 -0.01398,0.01745 -0.02563,0.01745 -0.01521,0 -0.02754,-0.01233 -0.02754,-0.02753 0,-0.00427 0.00097,-0.00831 0.00271,-0.01192 0.00195,-0.0002 0.00393,-0.00031 0.00594,-0.00031 0.01316,0 0.02525,0.00458 0.03477,0.01223l-0.01588 0z"/>
    <path class="fil98" d="M1.18408 0.78918l0.01588 0c0.00336,0.00269 0.0064,0.00577 0.00905,0.00917 -0.00374,0.01014 -0.01349,0.01738 -0.02493,0.01738 -0.01466,0 -0.02655,-0.01189 -0.02655,-0.02655 0,-0.00433 0.00103,-0.00842 0.00287,-0.01203 0.00158,-0.00013 0.00317,-0.0002 0.00479,-0.0002 0.01316,0 0.02525,0.00458 0.03477,0.01223l-0.01588 0z"/>
    <path class="fil98" d="M1.18408 0.78918l0.01588 0c0.00306,0.00245 0.00585,0.00522 0.00832,0.00826 -0.00343,0.01007 -0.01297,0.01731 -0.0242,0.01731 -0.01412,0 -0.02557,-0.01145 -0.02557,-0.02557 0,-0.00439 0.0011,-0.00851 0.00305,-0.01211 0.0012,-0.00008 0.00241,-0.00012 0.00363,-0.00012 0.01316,0 0.02525,0.00458 0.03477,0.01223l-0.01588 0z"/>
    <path class="fil98" d="M1.18408 0.78918l0.01588 0c0.00275,0.00221 0.0053,0.00468 0.00758,0.00737 -0.00313,0.00998 -0.01245,0.01721 -0.02346,0.01721 -0.01358,0 -0.02459,-0.01101 -0.02459,-0.02458 0,-0.00443 0.00117,-0.00859 0.00322,-0.01218 0.00082,-0.00003 0.00165,-0.00005 0.00248,-0.00005 0.01316,0 0.02525,0.00458 0.03477,0.01223l-0.01588 0z"/>
    <path class="fil99" d="M1.18408 0.78918l0.01588 0c0.00245,0.00197 0.00473,0.00414 0.00682,0.00649 -0.00282,0.00988 -0.01192,0.01711 -0.0227,0.01711 -0.01303,0 -0.0236,-0.01057 -0.0236,-0.0236 0,-0.00447 0.00124,-0.00865 0.0034,-0.01222 0.00043,-0.00001 0.00087,-0.00001 0.00131,-0.00001 0.01316,0 0.02525,0.00458 0.03477,0.01223l-0.01588 0z"/>
    <path class="fil99" d="M1.18408 0.78918l0.01588 0c0.00215,0.00172 0.00417,0.0036 0.00603,0.00563 -0.0025,0.00976 -0.01136,0.01698 -0.02191,0.01698 -0.01249,0 -0.02262,-0.01013 -0.02262,-0.02261 0,-0.00451 0.00132,-0.00871 0.00359,-0.01223l0.00014 0c0.01316,0 0.02525,0.00458 0.03477,0.01223l-0.01588 0z"/>
    <path class="fil99" d="M1.18408 0.78918l0.01588 0c0.00184,0.00148 0.00359,0.00307 0.00523,0.00477 -0.00218,0.00965 -0.0108,0.01686 -0.02111,0.01686 -0.01195,0 -0.02163,-0.00969 -0.02163,-0.02163 0,-0.00454 0.00139,-0.00874 0.00377,-0.01222 0.01276,0.00023 0.02447,0.00477 0.03374,0.01222l-0.01588 0z"/>
    <path class="fil99" d="M1.18408 0.78918l0.01588 0c0.00153,0.00123 0.003,0.00254 0.0044,0.00393 -0.00184,0.00952 -0.01022,0.01672 -0.02028,0.01672 -0.0114,0 -0.02065,-0.00925 -0.02065,-0.02065 0,-0.00456 0.00148,-0.00877 0.00397,-0.01219 0.0123,0.00049 0.02358,0.00497 0.03256,0.01219l-0.01588 0z"/>
    <path class="fil99" d="M1.18408 0.78918l0.01588 0c0.00122,0.00098 0.00241,0.00201 0.00355,0.0031 -0.00149,0.00938 -0.00962,0.01656 -0.01943,0.01656 -0.01086,0 -0.01967,-0.0088 -0.01967,-0.01966 0,-0.00458 0.00156,-0.00879 0.00418,-0.01213 0.01184,0.00072 0.02268,0.00514 0.03137,0.01213l-0.01588 0z"/>
    <path class="fil99" d="M1.18408 0.78918l0.01588 0c0.00091,0.00073 0.00181,0.00149 0.00267,0.00228 -0.00113,0.00924 -0.009,0.0164 -0.01855,0.0164 -0.01032,0 -0.01869,-0.00837 -0.01869,-0.01868 0,-0.00459 0.00166,-0.00879 0.0044,-0.01204 0.01137,0.00093 0.02177,0.00529 0.03017,0.01204l-0.01588 0z"/>
    <path class="fil99" d="M1.18408 0.78918l0.01588 0c0.0006,0.00048 0.00119,0.00097 0.00176,0.00147 -0.00075,0.00908 -0.00836,0.01623 -0.01764,0.01623 -0.00977,0 -0.0177,-0.00793 -0.0177,-0.0177 0,-0.0046 0.00175,-0.00879 0.00462,-0.01193 0.0109,0.00113 0.02086,0.00542 0.02896,0.01193l-0.01588 0z"/>
    <path class="fil99" d="M1.18408 0.78918l0.01588 0 0.00083 0.00067c-0.00036,0.00892 -0.0077,0.01604 -0.01671,0.01604 -0.00923,0 -0.01672,-0.00748 -0.01672,-0.01671 0,-0.0046 0.00186,-0.00877 0.00486,-0.01179 0.01043,0.00132 0.01994,0.00552 0.02774,0.01179l-0.01588 0z"/>
    <path class="fil99" d="M1.18408 0.78918l0.01574 0 0 -0.00012c-0.00746,-0.00595 -0.01648,-0.01002 -0.02636,-0.0115 -0.00314,0.00288 -0.00512,0.00702 -0.00512,0.01162 0,0.00868 0.00705,0.01573 0.01574,0.01573 0.00869,0 0.01574,-0.00705 0.01574,-0.01573l-0.01574 0z"/>
    <path class="fil99" d="M1.18408 0.78918l0.01475 0c0,-0.00031 -0.00001,-0.00061 -0.00002,-0.00091 -0.00693,-0.00527 -0.01514,-0.00895 -0.02408,-0.0105 -0.0033,0.0027 -0.0054,0.00681 -0.0054,0.01141 0,0.00814 0.00661,0.01475 0.01475,0.01475 0.00815,0 0.01475,-0.00661 0.01475,-0.01475l-0.01475 0z"/>
    <path class="fil99" d="M1.18408 0.78918l0.01377 0c0,-0.00058 -0.00003,-0.00114 -0.0001,-0.00169 -0.00636,-0.00461 -0.01373,-0.0079 -0.02172,-0.00948 -0.00346,0.0025 -0.00572,0.00657 -0.00572,0.01117 0,0.0076 0.00617,0.01376 0.01377,0.01376 0.0076,0 0.01377,-0.00616 0.01377,-0.01376l-0.01377 0z"/>
    <path class="fil99" d="M1.18408 0.78918l0.01279 0c0,-0.00085 -0.00009,-0.00168 -0.00024,-0.00249 -0.00574,-0.00394 -0.01225,-0.00683 -0.01926,-0.0084 -0.00364,0.00225 -0.00607,0.00628 -0.00607,0.01089 0,0.00706 0.00572,0.01278 0.01278,0.01278 0.00706,0 0.01279,-0.00572 0.01279,-0.01278l-0.01279 0z"/>
    <path class="fil99" d="M1.18408 0.78918l0.0118 0c0,-0.00115 -0.00016,-0.00225 -0.00046,-0.00329 -0.00504,-0.00328 -0.01064,-0.00576 -0.01663,-0.00726 -0.00386,0.00194 -0.00651,0.00593 -0.00651,0.01055 0,0.00651 0.00528,0.0118 0.0118,0.0118 0.00652,0 0.0118,-0.00529 0.0118,-0.0118l-0.0118 0z"/>
    <path class="fil99" d="M1.18408 0.78918l0.01082 0c0,-0.00147 -0.00029,-0.00287 -0.00082,-0.00414 -0.00425,-0.00259 -0.00887,-0.00463 -0.01376,-0.00601 -0.00412,0.00153 -0.00706,0.0055 -0.00706,0.01015 0,0.00597 0.00485,0.01081 0.01082,0.01081 0.00598,0 0.01082,-0.00484 0.01082,-0.01081l-0.01082 0z"/>
    <path class="fil99" d="M1.18408 0.78918l0.00984 0c0,-0.00185 -0.00051,-0.00358 -0.0014,-0.00505 -0.00329,-0.00187 -0.0068,-0.00341 -0.01047,-0.00458 -0.00446,0.00094 -0.0078,0.00489 -0.0078,0.00963 0,0.00542 0.0044,0.00983 0.00983,0.00983 0.00543,0 0.00984,-0.00441 0.00984,-0.00983l-0.00984 0z"/>
    <path class="fil99" d="M1.18408 0.78918l0.00885 0c0,-0.00241 -0.00096,-0.00459 -0.00251,-0.00619 -0.00197,-0.001 -0.00401,-0.00189 -0.00611,-0.00266l-0.00023 -0.00001c-0.00489,0 -0.00885,0.00396 -0.00885,0.00886 0,0.00488 0.00396,0.00885 0.00885,0.00885 0.00489,0 0.00885,-0.00397 0.00885,-0.00885l-0.00885 0z"/>
    <path class="fil100" d="M1.18408 0.78918l0.00787 0c0,-0.00435 -0.00352,-0.00787 -0.00787,-0.00787 -0.00434,0 -0.00787,0.00352 -0.00787,0.00787 0,0.00434 0.00353,0.00786 0.00787,0.00786 0.00435,0 0.00787,-0.00352 0.00787,-0.00786l-0.00787 0z"/>
    <path class="fil100" d="M1.18408 0.78918l0.00689 0c0,-0.00381 -0.00309,-0.00689 -0.00689,-0.00689 -0.0038,0 -0.00688,0.00308 -0.00688,0.00689 0,0.0038 0.00308,0.00688 0.00688,0.00688 0.0038,0 0.00689,-0.00308 0.00689,-0.00688l-0.00689 0z"/>
    <path class="fil100" d="M1.18408 0.78918l0.0059 0c0,-0.00326 -0.00264,-0.00591 -0.0059,-0.00591 -0.00326,0 -0.0059,0.00265 -0.0059,0.00591 0,0.00325 0.00264,0.0059 0.0059,0.0059 0.00326,0 0.0059,-0.00265 0.0059,-0.0059l-0.0059 0z"/>
    <path class="fil100" d="M1.18408 0.78918l0.00492 0c0,-0.00272 -0.0022,-0.00492 -0.00492,-0.00492 -0.00271,0 -0.00492,0.0022 -0.00492,0.00492 0,0.00271 0.00221,0.00491 0.00492,0.00491 0.00272,0 0.00492,-0.0022 0.00492,-0.00491l-0.00492 0z"/>
    <path class="fil100" d="M1.18408 0.78918l0.00394 0c0,-0.00218 -0.00176,-0.00394 -0.00394,-0.00394 -0.00217,0 -0.00393,0.00176 -0.00393,0.00394 0,0.00217 0.00176,0.00393 0.00393,0.00393 0.00218,0 0.00394,-0.00176 0.00394,-0.00393l-0.00394 0z"/>
    <path class="fil100" d="M1.18408 0.78918l0.00295 0c0,-0.00163 -0.00132,-0.00295 -0.00295,-0.00295 -0.00163,0 -0.00295,0.00132 -0.00295,0.00295 0,0.00162 0.00132,0.00295 0.00295,0.00295 0.00163,0 0.00295,-0.00133 0.00295,-0.00295l-0.00295 0z"/>
    <path class="fil100" d="M1.18408 0.78918l0.00197 0c0,-0.00109 -0.00088,-0.00197 -0.00197,-0.00197 -0.00108,0 -0.00197,0.00088 -0.00197,0.00197 0,0.00108 0.00089,0.00196 0.00197,0.00196 0.00109,0 0.00197,-0.00088 0.00197,-0.00196l-0.00197 0z"/>
    <path class="fil100" d="M1.18408 0.78918l0.00099 0c0,-0.00055 -0.00044,-0.00099 -0.00099,-0.00099 -0.00054,0 -0.00098,0.00044 -0.00098,0.00099 0,0.00054 0.00044,0.00098 0.00098,0.00098 0.00055,0 0.00099,-0.00044 0.00099,-0.00098l-0.00099 0z"/>
    <path class="fil101" d="M0.83153 1.33195l0.02029 0 0.00618 -0.01878 0.03423 0 0.00716 0.01878 0.0215 0 -0.0341 -0.08835 -0.02163 0 -0.03363 0.08835zm0.05625 -0.03361l-0.02447 0 0.00952 -0.02817c0.00037,-0.00112 0.00135,-0.00519 0.00259,-0.01224 0.00111,0.00643 0.00198,0.01038 0.00247,0.01186l0.00989 0.02855zm0.08148 0.03361l0.01804 0 0 -0.05042c0,-0.00432 0,-0.01012 -0.00124,-0.01754 0.00297,0.00742 0.00569,0.01273 0.00791,0.01557l0.04016 0.05239 0.01854 0 0 -0.08835 -0.01804 0 0 0.04943c0,0.0042 0,0.00988 0.00123,0.01742 -0.00296,-0.00741 -0.00568,-0.0126 -0.0079,-0.01545l-0.03905 -0.0514 -0.01965 0 0 0.08835zm0.16452 0l0.01792 0 0.03287 -0.08835 -0.02064 0 -0.01742 0.05449c-0.00124,0.00371 -0.00247,0.00952 -0.00358,0.0173 -0.00185,-0.00951 -0.00321,-0.01507 -0.00371,-0.01668l-0.01717 -0.05511 -0.02091 0 0.03264 0.08835zm0.09978 0l0.0189 0 0 -0.08835 -0.0189 0 0 0.08835zm0.07246 -0.01124c0.00469,0.00864 0.01445,0.01361 0.02817,0.01361 0.01978,0 0.03126,-0.01126 0.03126,-0.0272 0,-0.01113 -0.00716,-0.01953 -0.02199,-0.02633 -0.00988,-0.00444 -0.0178,-0.00642 -0.0178,-0.01458 0,-0.0058 0.00483,-0.01013 0.01249,-0.01013 0.00605,0 0.0105,0.00247 0.01322,0.00766l0.01112 -0.01063c-0.00593,-0.00803 -0.01347,-0.01161 -0.02409,-0.01161 -0.01916,0 -0.03115,0.011 -0.03115,0.02496 0,0.01236 0.00754,0.01878 0.02052,0.02558 0.01211,0.0063 0.01939,0.00791 0.01939,0.01569 0,0.00692 -0.00518,0.01162 -0.01433,0.01162 -0.00728,0 -0.01359,-0.00396 -0.01631,-0.0105l-0.0105 0.01186zm0.10345 0.01124l0.02029 0 0.00618 -0.01878 0.03423 0 0.00716 0.01878 0.0215 0 -0.0341 -0.08835 -0.02162 0 -0.03364 0.08835zm0.05625 -0.03361l-0.02446 0 0.00951 -0.02817c0.00037,-0.00112 0.00135,-0.00519 0.00259,-0.01224 0.00111,0.00643 0.00198,0.01038 0.00248,0.01186l0.00988 0.02855z"/>
   </g>
   <path class="fil102" d="M0.50307 1.67215l-0.07188 0 -0.0128 0.04659 -0.05394 0 0.06543 -0.22035 0.07313 0 0.06732 0.22035 -0.05299 0 -0.01427 -0.04659zm-0.01365 -0.04438l-0.02297 -0.08626 -0.0233 0.08626 0.04627 0zm0.10578 -0.12938l0.12276 0c0.02896,0 0.04344,0.01448 0.04344,0.04344l0 0.06233c0,0.02896 -0.01448,0.04344 -0.04344,0.04344l-0.07051 0 0 0.07114 -0.05225 0 0 -0.22035zm0.05225 0.10419l0.05572 0c0.00231,0 0.00388,-0.00042 0.00472,-0.00126 0.00084,-0.00084 0.00126,-0.00241 0.00126,-0.00472l0 -0.04722c0,-0.00231 -0.00042,-0.00388 -0.00126,-0.00472 -0.00084,-0.00084 -0.00241,-0.00126 -0.00472,-0.00126l-0.05572 0 0 0.05918zm0.32014 0.11616l-0.05445 0 -0.03683 -0.07586 -0.03054 0 0 0.07586 -0.05225 0 0 -0.22035 0.12276 0c0.02896,0 0.04344,0.01448 0.04344,0.04344l0 0.05509c0,0.02434 -0.01007,0.0384 -0.03022,0.04218l0.03809 0.07964zm-0.12182 -0.11931l0.05572 0c0.00231,0 0.00388,-0.00042 0.00472,-0.00125 0.00084,-0.00084 0.00126,-0.00242 0.00126,-0.00473l0 -0.0447c0,-0.00231 -0.00042,-0.00388 -0.00126,-0.00472 -0.00084,-0.00084 -0.00241,-0.00126 -0.00472,-0.00126l-0.05572 0 0 0.05666zm0.27733 0.11931l-0.08468 0c-0.02896,0 -0.04344,-0.01448 -0.04344,-0.04344l0 -0.13347c0,-0.02896 0.01448,-0.04344 0.04344,-0.04344l0.08468 0c0.01469,0 0.02561,0.00356 0.03274,0.0107 0.00714,0.00714 0.0107,0.01805 0.0107,0.03274l0 0.13347c0,0.02896 -0.01448,0.04344 -0.04344,0.04344zm-0.07586 -0.16904l0 0.11773c0,0.00399 0.00199,0.00598 0.00598,0.00598l0.05509 0c0.00231,0 0.00388,-0.00042 0.00472,-0.00126 0.00084,-0.00084 0.00126,-0.00241 0.00126,-0.00472l0 -0.11773c0,-0.00231 -0.00042,-0.00388 -0.00126,-0.00472 -0.00084,-0.00084 -0.00241,-0.00126 -0.00472,-0.00126l-0.05509 0c-0.00231,0 -0.00388,0.00042 -0.00472,0.00126 -0.00084,0.00084 -0.00126,0.00241 -0.00126,0.00472zm0.33147 -0.05131l-0.06736 0.22035 -0.06013 0 -0.06736 -0.22035 0.05666 0 0.04155 0.16463 0.04155 -0.16463 0.05509 0zm0.11816 0.17376l-0.07188 0 -0.0128 0.04659 -0.05394 0 0.06543 -0.22035 0.07313 0 0.06732 0.22035 -0.05299 0 -0.01427 -0.04659zm-0.01365 -0.04438l-0.02297 -0.08626 -0.0233 0.08626 0.04627 0zm0.10578 -0.12938l0.12591 0c0.02896,0 0.04344,0.01448 0.04344,0.04344l0 0.13347c0,0.02896 -0.01448,0.04344 -0.04344,0.04344l-0.12591 0 0 -0.22035zm0.05225 0.17502l0.05887 0c0.00398,0 0.00598,-0.00199 0.00598,-0.00598l0 -0.11773c0,-0.00231 -0.00042,-0.00388 -0.00126,-0.00472 -0.00084,-0.00084 -0.00242,-0.00126 -0.00472,-0.00126l-0.05887 0 0 0.12969zm0.28111 0.04533l-0.08468 0c-0.02896,0 -0.04344,-0.01448 -0.04344,-0.04344l0 -0.13347c0,-0.02896 0.01448,-0.04344 0.04344,-0.04344l0.08468 0c0.01469,0 0.02561,0.00356 0.03274,0.0107 0.00714,0.00714 0.0107,0.01805 0.0107,0.03274l0 0.13347c0,0.02896 -0.01448,0.04344 -0.04344,0.04344zm-0.07586 -0.16904l0 0.11773c0,0.00399 0.00199,0.00598 0.00598,0.00598l0.05509 0c0.00231,0 0.00388,-0.00042 0.00472,-0.00126 0.00084,-0.00084 0.00126,-0.00241 0.00126,-0.00472l0 -0.11773c0,-0.00231 -0.00042,-0.00388 -0.00126,-0.00472 -0.00084,-0.00084 -0.00241,-0.00126 -0.00472,-0.00126l-0.05509 0c-0.00231,0 -0.00388,0.00042 -0.00472,0.00126 -0.00084,0.00084 -0.00126,0.00241 -0.00126,0.00472z"/>
   <path class="fil103 str1" d="M0.30555 1.44855c-0.02937,-0.08914 -0.04531,-0.18439 -0.04531,-0.28337 0,-0.49978 0.40516,-0.90494 0.90494,-0.90494 0.49979,0 0.90495,0.40516 0.90495,0.90494 0,0.09898 -0.01595,0.19423 -0.04532,0.28337m-0.21078 0.34736c-0.1644,0.16912 -0.39434,0.27422 -0.64885,0.27422 -0.2545,0 -0.48444,-0.1051 -0.64884,-0.27422"/>
  </g>
 </g>
</svg>
