<svg xmlns="http://www.w3.org/2000/svg" xmlns:xlink="http://www.w3.org/1999/xlink" width="100%" height="100%" fill-rule="evenodd" clip-rule="evenodd" image-rendering="optimizeQuality" shape-rendering="geometricPrecision" text-rendering="geometricPrecision" version="1.1" viewBox="0 0 3.111 2.641" xml:space="preserve">
  <defs>
    <linearGradient id="a" x1="1.712" x2="1.712" y1="2.541" y2="1.501" gradientUnits="userSpaceOnUse">
      <stop offset="0" stop-color="#ff850a" stop-opacity="1"/>
      <stop offset="1" stop-color="#fe4f32" stop-opacity="1"/>
    </linearGradient>
    <linearGradient id="b" x1="1.712" x2="1.712" y1="2.596" y2="2.132" gradientUnits="userSpaceOnUse" xlink:href="#a"/>
    <linearGradient id="j" x1="1.712" x2="1.712" y1="2.515" y2="1.202" gradientUnits="userSpaceOnUse" xlink:href="#a"/>
    <linearGradient id="f" x1="1.712" x2="1.712" y1="2.556" y2="1.676" gradientUnits="userSpaceOnUse" xlink:href="#a"/>
    <linearGradient id="g" x1="1.712" x2="1.712" y1="2.562" y2="1.738" gradientUnits="userSpaceOnUse" xlink:href="#a"/>
    <linearGradient id="l" x1="1.712" x2="1.712" y1="2.497" y2="1.001" gradientUnits="userSpaceOnUse" xlink:href="#a"/>
    <linearGradient id="e" x1="1.712" x2="1.712" y1="2.556" y2="1.676" gradientUnits="userSpaceOnUse" xlink:href="#a"/>
    <linearGradient id="d" x1="1.712" x2="1.712" y1="2.566" y2="1.79" gradientUnits="userSpaceOnUse" xlink:href="#a"/>
    <linearGradient id="h" x1="1.712" x2="1.712" y1="2.545" y2="1.545" gradientUnits="userSpaceOnUse" xlink:href="#a"/>
    <linearGradient id="i" x1="1.712" x2="1.712" y1="2.531" y2="1.387" gradientUnits="userSpaceOnUse" xlink:href="#a"/>
    <linearGradient id="c" x1="1.712" x2="1.712" y1="2.573" y2="1.86" gradientUnits="userSpaceOnUse" xlink:href="#a"/>
    <linearGradient id="k" x1="1.712" x2="1.712" y1="2.506" y2="1.097" gradientUnits="userSpaceOnUse" xlink:href="#a"/>
  </defs>
  <path fill="#fefefe" fill-opacity=".122" d="M.078 0c.043 0 .079.035.079.078v2.485a.079.079 0 0 1-.079.078A.079.079 0 0 1 0 2.563V.078C0 .035.035 0 .078 0zm.269 0C.39 0 .425.035.425.078v2.485a.079.079 0 0 1-.078.078.079.079 0 0 1-.078-.078V.078C.269.035.304 0 .347 0zm.269 0c.043 0 .078.035.078.078v2.485a.079.079 0 0 1-.078.078.079.079 0 0 1-.079-.078V.078C.537.035.572 0 .616 0zm.268 0c.043 0 .078.035.078.078v2.485a.079.079 0 0 1-.078.078.079.079 0 0 1-.078-.078V.078C.806.035.84 0 .884 0zm.269 0c.043 0 .078.035.078.078v2.485a.079.079 0 0 1-.078.078.079.079 0 0 1-.079-.078V.078c0-.043.036-.078.079-.078zm.268 0c.043 0 .079.035.079.078v2.485a.079.079 0 0 1-.079.078.079.079 0 0 1-.078-.078V.078c0-.043.035-.078.078-.078zm.269 0c.043 0 .078.035.078.078v2.485a.079.079 0 0 1-.078.078.079.079 0 0 1-.078-.078V.078c0-.043.035-.078.078-.078zm.268 0c.044 0 .079.035.079.078v2.485a.079.079 0 0 1-.079.078.079.079 0 0 1-.078-.078V.078c0-.043.035-.078.078-.078zm.27 0c.042 0 .077.035.077.078v2.485a.079.079 0 0 1-.078.078.079.079 0 0 1-.078-.078V.078c0-.043.035-.078.078-.078zm.268 0c.043 0 .078.035.078.078v2.485a.079.079 0 0 1-.078.078.079.079 0 0 1-.079-.078V.078c0-.043.036-.078.079-.078zm.268 0c.043 0 .079.035.079.078v2.485a.079.079 0 0 1-.079.078.079.079 0 0 1-.078-.078V.078c0-.043.035-.078.078-.078zm.269 0c.043 0 .078.035.078.078v2.485a.079.079 0 0 1-.078.078.079.079 0 0 1-.079-.078V.078c0-.043.036-.078.079-.078z"/>
  <path fill="url(#b)" d="M.078 2.056c.043 0 .079.036.079.079v.428a.079.079 0 0 1-.079.078A.079.079 0 0 1 0 2.563v-.428c0-.043.035-.079.078-.079z"/>
  <path fill="url(#c)" d="M.347 1.744c.043 0 .078.035.078.078v.74a.079.079 0 0 1-.078.08.079.079 0 0 1-.078-.08v-.74c0-.043.035-.078.078-.078z"/>
  <path fill="url(#d)" d="M.616 1.663c.043 0 .078.036.078.079v.82a.079.079 0 0 1-.078.08.079.079 0 0 1-.079-.08v-.82c0-.043.035-.079.079-.079z"/>
  <path fill="url(#e)" d="M.884 1.532c.043 0 .078.035.078.079v.952a.079.079 0 0 1-.078.078.079.079 0 0 1-.078-.078V1.61c0-.043.035-.079.078-.079z"/>
  <path fill="url(#f)" d="M1.153 1.532c.043 0 .078.035.078.079v.952a.079.079 0 0 1-.078.078.079.079 0 0 1-.079-.078V1.61c0-.043.036-.079.079-.079z"/>
  <path fill="url(#g)" d="M1.421 1.603c.043 0 .079.035.079.078v.882a.079.079 0 0 1-.079.078.079.079 0 0 1-.078-.078V1.68c0-.043.035-.078.078-.078z"/>
  <path fill="url(#a)" d="M1.69 1.33c.043 0 .078.036.078.079v1.154a.079.079 0 0 1-.078.078.079.079 0 0 1-.078-.078V1.409c0-.043.035-.078.078-.078z"/>
  <path fill="url(#h)" d="M1.958 1.381c.044 0 .079.035.079.078v1.104a.079.079 0 0 1-.079.078.079.079 0 0 1-.078-.078V1.459c0-.043.035-.078.078-.078z"/>
  <path fill="url(#i)" d="M2.227 1.2c.043 0 .078.035.078.078v1.285a.079.079 0 0 1-.078.078.079.079 0 0 1-.078-.078V1.278c0-.043.035-.078.078-.078z"/>
  <path fill="url(#j)" d="M2.496.988c.043 0 .078.035.078.078v1.497a.079.079 0 0 1-.078.078.079.079 0 0 1-.079-.078V1.066c0-.043.036-.078.079-.078z"/>
  <path fill="url(#k)" d="M2.764.867c.043 0 .079.035.079.078v1.618a.079.079 0 0 1-.079.078.079.079 0 0 1-.078-.078V.945c0-.043.035-.078.078-.078z"/>
  <path fill="url(#l)" d="M3.033.756c.043 0 .078.035.078.078v1.729a.079.079 0 0 1-.078.078.079.079 0 0 1-.079-.078V.834c0-.043.036-.078.079-.078z"/>
</svg>
