<svg xmlns="http://www.w3.org/2000/svg" width="100%" height="100%" fill-rule="evenodd" clip-rule="evenodd" image-rendering="optimizeQuality" shape-rendering="geometricPrecision" text-rendering="geometricPrecision" version="1.1" viewBox="0 0 3.111 2.641" xml:space="preserve">
  <defs>
    <linearGradient id="a" x1="1.713" x2="1.712" y1="2.634" y2="1.801" gradientUnits="userSpaceOnUse">
      <stop offset="0" stop-color="#ff850a" stop-opacity="1"/>
      <stop offset="1" stop-color="#fe4f32" stop-opacity="1"/>
    </linearGradient>
  </defs>
  <path fill="#fefefe" fill-opacity=".122" d="M.078 0c.043 0 .079.035.079.078v2.485a.079.079 0 0 1-.079.078A.079.079 0 0 1 0 2.563V.078C0 .035.035 0 .078 0zm.269 0C.39 0 .425.035.425.078v2.485a.079.079 0 0 1-.078.078.079.079 0 0 1-.078-.078V.078C.269.035.304 0 .347 0zm.269 0c.043 0 .078.035.078.078v2.485a.079.079 0 0 1-.078.078.079.079 0 0 1-.079-.078V.078C.537.035.572 0 .616 0zm.268 0c.043 0 .078.035.078.078v2.485a.079.079 0 0 1-.078.078.079.079 0 0 1-.078-.078V.078C.806.035.84 0 .884 0zm.269 0c.043 0 .078.035.078.078v2.485a.079.079 0 0 1-.078.078.079.079 0 0 1-.079-.078V.078c0-.043.036-.078.079-.078zm.268 0c.043 0 .079.035.079.078v2.485a.079.079 0 0 1-.079.078.079.079 0 0 1-.078-.078V.078c0-.043.035-.078.078-.078zm.269 0c.043 0 .078.035.078.078v2.485a.079.079 0 0 1-.078.078.079.079 0 0 1-.078-.078V.078c0-.043.035-.078.078-.078zm.268 0c.044 0 .079.035.079.078v2.485a.079.079 0 0 1-.079.078.079.079 0 0 1-.078-.078V.078c0-.043.035-.078.078-.078zm.27 0c.042 0 .077.035.077.078v2.485a.079.079 0 0 1-.078.078.079.079 0 0 1-.078-.078V.078c0-.043.035-.078.078-.078zm.268 0c.043 0 .078.035.078.078v2.485a.079.079 0 0 1-.078.078.079.079 0 0 1-.079-.078V.078c0-.043.036-.078.079-.078zm.268 0c.043 0 .079.035.079.078v2.485a.079.079 0 0 1-.079.078.079.079 0 0 1-.078-.078V.078c0-.043.035-.078.078-.078zm.269 0c.043 0 .078.035.078.078v2.485a.079.079 0 0 1-.078.078.079.079 0 0 1-.079-.078V.078c0-.043.036-.078.079-.078z"/>
  <path fill="url(#a)" d="M.044 2.552h.068c.025 0 .045.02.045.045 0 .024-.02.044-.045.044H.044A.044.044 0 0 1 0 2.597c0-.025.02-.045.044-.045zm.303-.094c.043 0 .078.035.078.078v.027a.079.079 0 0 1-.078.078.079.079 0 0 1-.078-.078v-.027c0-.043.035-.078.078-.078zm.269-.028c.043 0 .078.035.078.078v.055a.079.079 0 0 1-.078.078.079.079 0 0 1-.079-.078v-.055c0-.043.035-.078.079-.078zm.268.007c.043 0 .078.035.078.078v.048a.079.079 0 0 1-.078.078.079.079 0 0 1-.078-.078v-.048c0-.043.035-.078.078-.078zm.269.007c.043 0 .078.035.078.078v.04a.079.079 0 0 1-.078.08.079.079 0 0 1-.079-.08v-.04c0-.043.036-.078.079-.078zm.268.014c.043 0 .079.035.079.078v.027a.079.079 0 0 1-.079.078.079.079 0 0 1-.078-.078v-.027c0-.043.035-.078.078-.078zm.269-.016c.043 0 .078.035.078.079v.042a.079.079 0 0 1-.078.078.079.079 0 0 1-.078-.078V2.52c0-.044.035-.079.078-.079zm.268.008c.044 0 .079.035.079.078v.035a.079.079 0 0 1-.079.078.079.079 0 0 1-.078-.078v-.035c0-.043.035-.078.078-.078zm.27-.028c.042 0 .077.036.077.079v.062a.079.079 0 0 1-.078.078.079.079 0 0 1-.078-.078V2.5c0-.043.035-.079.078-.079zm.268-.032c.043 0 .078.035.078.079v.094a.079.079 0 0 1-.078.078.079.079 0 0 1-.079-.078v-.094c0-.044.036-.079.079-.079zm.268-.018c.043 0 .079.035.079.078v.113a.079.079 0 0 1-.079.078.079.079 0 0 1-.078-.078V2.45c0-.043.035-.078.078-.078zm.269-.017c.043 0 .078.035.078.078v.13a.079.079 0 0 1-.078.078.079.079 0 0 1-.079-.078v-.13c0-.043.036-.078.079-.078z"/>
</svg>
