<svg xmlns="http://www.w3.org/2000/svg" width="100%" height="100%" fill-rule="evenodd" clip-rule="evenodd" image-rendering="optimizeQuality" shape-rendering="geometricPrecision" text-rendering="geometricPrecision" version="1.1" viewBox="0 0 2.53926 2.16594" xml:space="preserve">
  <path fill="#fefefe" d="M.04341 1.2319L1.21634.04469c.05838-.05907.15402-.05965.21309-.00128l.20527.2028c.05833-.0252.12263-.03928.19101-.03928.28987 0 .50643.25284.50643.53564v.10862h.20712v.90026H1.30892l-.36535.3698c-.05838.05907-.15402.05965-.21309.00128l-.6858-.67754c-.05907-.05836-.05964-.15401-.00127-.21309zM1.72212.33258L1.72068.333l-.00573.00176-.00143.00045-.00142.00046-.00143.00047-.00425.00142L1.705.33805l-.00141.00049-.00141.0005-.00141.0005-.0042.00155-.0014.00052-.0014.00053-.00139.00054-.00417.00164-.00138.00056-.00138.00056-.00138.00057-.00138.00057-.00411.00176-.00137.00059-.00136.0006-.00136.00061-.00136.00061-.00271.00124-.00136.00063-.00134.00063-.00135.00064-.00134.00064-.00402.00196-.00133.00067-.00133.00067-.00133.00067-.00397.00205-.00132.0007-.00131.0007-.00131.0007-.00131.00071-.00391.00216-.0013.00073-.0013.00074L1.64.36773l-.00129.00074-.00257.00151-.00128.00076c-.12187.07263-.20485.21236-.20485.37183v.21937h-.19414v.67876h1.19265V.96194h-.20711V.74257c0-.23366-.17806-.42489-.3957-.42489-.03581 0-.07054.00521-.10359.0149zM1.55386.29071L1.36724.10635c-.02433-.02404-.0639-.0238-.08795.00053L.10635 1.29409c-.02404.02434-.0238.06392.00052.08795l.46456.45898.5537-.56043v-.4294h.19414V.74257c0-.18358.09126-.3545.23459-.45186zm-.42873 1.27012l-.41358.41862.08112.08014c.02433.02403.0639.0238.08795-.00053l.30391-.30761h-.0594v-.19062zM1.82571.42842c-.16717 0-.28496.15437-.28496.31415v.21937h.56991V.74257c0-.15977-.1178-.31415-.28495-.31415zM1.6515.85119h.34841V.74257c0-.09731-.06876-.20341-.1742-.20341-.10547 0-.17421.10608-.17421.20341v.10862zm.1807.22848c.06594 0 .1194.05346.1194.11941 0 .04086-.02052.07692-.05183.09845v.20859h-.13514v-.20859c-.03131-.02153-.05184-.05759-.05184-.09845 0-.06595.05346-.11941.11941-.11941z"/>
</svg>
