<?xml version="1.0" encoding="UTF-8"?>
<!DOCTYPE svg PUBLIC "-//W3C//DTD SVG 1.1//EN" "http://www.w3.org/Graphics/SVG/1.1/DTD/svg11.dtd">
<!-- Creator: CorelDRAW 2017 -->
<svg xmlns="http://www.w3.org/2000/svg" xml:space="preserve" width="100%" height="100%" version="1.1" style="shape-rendering:geometricPrecision; text-rendering:geometricPrecision; image-rendering:optimizeQuality; fill-rule:evenodd; clip-rule:evenodd"
viewBox="0 0 2.53926 2.16594"
 xmlns:xlink="http://www.w3.org/1999/xlink">
 <defs>
  <style type="text/css">
   <![CDATA[
    .fil0 {fill:#FEFEFE}
   ]]>
  </style>
 </defs>
 <g id="Camada_x0020_1">
  <metadata id="CorelCorpID_0Corel-Layer"/>
  <path class="fil0" d="M0.04341 1.2319l1.17293 -1.18721c0.05838,-0.05907 0.15402,-0.05965 0.21309,-0.00128l0.20527 0.2028c0.05833,-0.0252 0.12263,-0.03928 0.19101,-0.03928 0.28987,0 0.50643,0.25284 0.50643,0.53564l0 0.10862 0.20712 0 0 0.90026 -1.23034 0 -0.36535 0.3698c-0.05838,0.05907 -0.15402,0.05965 -0.21309,0.00128l-0.6858 -0.67754c-0.05907,-0.05836 -0.05964,-0.15401 -0.00127,-0.21309zm1.67871 -0.89932l-0.00144 0.00042 -0.00573 0.00176 -0.00143 0.00045 -0.00142 0.00046 -0.00143 0.00047 -0.00425 0.00142 -0.00142 0.00049 -0.00141 0.00049 -0.00141 0.0005 -0.00141 0.0005 -0.0042 0.00155 -0.0014 0.00052 -0.0014 0.00053 -0.00139 0.00054 -0.00417 0.00164 -0.00138 0.00056 -0.00138 0.00056 -0.00138 0.00057 -0.00138 0.00057 -0.00411 0.00176 -0.00137 0.00059 -0.00136 0.0006 -0.00136 0.00061 -0.00136 0.00061 -0.00271 0.00124 -0.00136 0.00063 -0.00134 0.00063 -0.00135 0.00064 -0.00134 0.00064 -0.00402 0.00196 -0.00133 0.00067 -0.00133 0.00067 -0.00133 0.00067 -0.00397 0.00205 -0.00132 0.0007 -0.00131 0.0007 -0.00131 0.0007 -0.00131 0.00071 -0.00391 0.00216 -0.0013 0.00073 -0.0013 0.00074 -0.00129 0.00074 -0.00129 0.00074 -0.00257 0.00151 -0.00128 0.00076c-0.12187,0.07263 -0.20485,0.21236 -0.20485,0.37183l0 0.21937 -0.19414 0 0 0.20656 0 0.28024 0 0.19196 0.05808 0 0.12439 0 1.01018 0 0 -0.67876 -0.20711 0 0 -0.21937c0,-0.23366 -0.17806,-0.42489 -0.3957,-0.42489l0 0c-0.03581,0 -0.07054,0.00521 -0.10359,0.0149zm-0.16826 -0.04187l-0.18662 -0.18436c-0.02433,-0.02404 -0.0639,-0.0238 -0.08795,0.00053l-1.17294 1.18721c-0.02404,0.02434 -0.0238,0.06392 0.00052,0.08795l0.46456 0.45898 0.5537 -0.56043 0 -0.4294 0.19414 0 0 -0.10862c0,-0.18358 0.09126,-0.3545 0.23459,-0.45186zm-0.42873 1.27012l-0.41358 0.41862 0.08112 0.08014c0.02433,0.02403 0.0639,0.0238 0.08795,-0.00053l0.30391 -0.30761 -0.0594 0 0 -0.19062zm0.70058 -1.13241c-0.16717,0 -0.28496,0.15437 -0.28496,0.31415l0 0.21937 0.56991 0 0 -0.21937c0,-0.15977 -0.1178,-0.31415 -0.28495,-0.31415zm-0.17421 0.42277l0.34841 0 0 -0.10862c0,-0.09731 -0.06876,-0.20341 -0.1742,-0.20341 -0.10547,0 -0.17421,0.10608 -0.17421,0.20341l0 0.10862zm0.1807 0.22848c0.06594,0 0.1194,0.05346 0.1194,0.11941 0,0.04086 -0.02052,0.07692 -0.05183,0.09845l0 0.20859 -0.13514 0 0 -0.20859c-0.03131,-0.02153 -0.05184,-0.05759 -0.05184,-0.09845 0,-0.06595 0.05346,-0.11941 0.11941,-0.11941z"/>
 </g>
</svg>
