<svg xmlns="http://www.w3.org/2000/svg" width="100%" height="100%" fill-rule="evenodd" clip-rule="evenodd" image-rendering="optimizeQuality" shape-rendering="geometricPrecision" text-rendering="geometricPrecision" version="1.1" viewBox="0 0 1.7095 1.9751" xml:space="preserve">
  <path fill="#d2ae6d" d="M.142.4374C.1641.4214.8466.1675.8543.1678c.0034.0002.6912.2567.7127.2696.005.0822.0004.177.0007.261v.5261c.0002.1109.0033.1378-.0498.2154-.0963.1407-.3061.2455-.4696.3177-.0248.011-.1729.0712-.1936.071-.0472-.0006-.3158-.1254-.3705-.1553-.1096-.0596-.232-.144-.293-.2334-.0517-.0762-.0506-.1014-.0496-.211V.7027C.1424.6167.1372.522.142.4374zm.7126.5522l.6428-.0002.0005-.4943C1.4574.4846 1.0814.3378 1.0152.3117.9733.2952.8958.2604.8557.2511L.8546.9896h-.643c-.0013.0563-.0065.3143.0042.3475.044.136.2598.2569.3865.318.0514.0249.1935.0896.2514.1002L.8546.9896zM.0026.3069C-.0031.404.0025.5207.0026.62c0 .1058-.001.2118-.0001.3175.0008.104.001.2092 0 .3131-.001.1197.0117.1717.0638.2535.0768.1206.2075.2086.344.2866.0643.0368.1375.0722.2113.1014.0362.0142.2045.0826.2331.083.0235.0003.1984-.069.2297-.0818.2028-.0838.44-.2114.5586-.3893.0522-.0782.064-.1359.0638-.249V.6244c.0007-.098.0062-.2224-.0005-.3175C1.687.2946.8582.0001.8546 0c-.0022 0-.834.2951-.852.307z"/>
  <path fill="#fe4f32" d="M.8564 1.3662c.005-.0027.0097-.0085.014-.0121l.034-.0305c.0022-.0025.0038-.0037.0064-.0063.0023-.0023.0047-.0037.007-.0063l.0327-.0312c.0044-.0043.0088-.008.0132-.0124l.0577-.059c.002-.0022.0042-.004.0063-.0064l.0121-.0134a.3893.3893 0 0 0 .0244-.0268l.0122-.0139a.8115.8115 0 0 0 .035-.042l.0173-.0218c.0019-.0023.0036-.005.0054-.0073.0021-.0029.0034-.0044.0054-.0075.0285-.0447.0683-.1183.0683-.1755V.8827a.1594.1594 0 0 0-.0317-.095c-.003-.0041-.0065-.0075-.0098-.0112a.1604.1604 0 0 0-.0635-.041c-.048-.0181-.0897-.018-.138-.002a.1423.1423 0 0 0-.0546.036C.907.7729.905.776.9018.779A.2583.2583 0 0 0 .871.8204l-.0102.017C.8595.8397.8591.8414.8567.8424L.8547.8396a.3031.3031 0 0 0-.0412-.061A.2092.2092 0 0 0 .776.745.0674.0674 0 0 0 .765.7384C.7165.7154.6616.7166.6124.7363A.1635.1635 0 0 0 .549.7799.1603.1603 0 0 0 .5237.819C.512.8438.509.8701.509.8994c0 .0454.0217.0964.0444.1344l.0195.031a.942.942 0 0 0 .0434.0588l.0116.014a1.073 1.073 0 0 0 .0537.0607l.0124.0132c.01.0112.0208.0219.0314.0325.0086.0086.0168.016.0254.0251.0042.0044.009.008.0132.0124l.0392.037a.092.092 0 0 1 .0066.006l.027.0242c.003.0032.0183.0152.0196.0175z"/>
</svg>
