<svg xmlns="http://www.w3.org/2000/svg" width="100%" height="100%" fill-rule="evenodd" clip-rule="evenodd" image-rendering="optimizeQuality" shape-rendering="geometricPrecision" text-rendering="geometricPrecision" version="1.1" viewBox="0 0 2.265 1.699" xml:space="preserve">
  <path fill="#d2ae6d" d="M0 .628c0 .06.046.088.096.139l.266.225.167.107c.025.015.048.026.073.038.151.076.335.137.522.137h.084c0-.039-.005-.06-.004-.097 0-.065.002-.043-.054-.044-.024 0-.026-.004-.048-.005a.817.817 0 0 1-.142-.017 1.427 1.427 0 0 1-.622-.32C.318.774.3.757.28.74L.225.691A.393.393 0 0 1 .173.637c.02-.03.15-.142.191-.175C.507.346.66.255.834.196a.962.962 0 0 1 .643 0 1.4 1.4 0 0 1 .449.263l.211.218c.017-.005.042-.028.058-.039l.057-.04a.168.168 0 0 0-.02-.03A1.782 1.782 0 0 0 2.087.41L2.031.36C1.983.321 1.943.283 1.885.242a1.476 1.476 0 0 0-.198-.116A1.208 1.208 0 0 0 1.197 0h-.09a1.278 1.278 0 0 0-.505.137C.539.17.52.177.459.216.411.246.26.354.211.4.165.446 0 .581 0 .628zM1.133.566c.115.01.072.174-.028.135C1.074.688 1.07.67 1.062.637H.92c0 .122.101.213.195.213.053 0 .094-.005.137-.036l.071-.08a.213.213 0 0 0-.19-.31v.142zm.637.638h-.142v.141h.142v.142h.141v-.142h.142v-.141h-.142v-.142H1.77v.142zm.07.353a.307.307 0 0 1-.2-.083.3.3 0 0 1-.056-.085.27.27 0 0 1 0-.23.245.245 0 0 1 .076-.1c.03-.026.028-.023.066-.041a.28.28 0 0 1 .314.057.282.282 0 0 1 .075.261.286.286 0 0 1-.274.221zm.04.142h-.07a.464.464 0 0 1-.271-.123l-.046-.056a.413.413 0 0 1-.077-.263c0-.083.034-.17.077-.229.035-.048.04-.048.074-.08l.028-.021a.425.425 0 0 1 .67.37.42.42 0 0 1-.243.362.4.4 0 0 1-.142.04zM.85.646A.33.33 0 0 1 .873.528a.28.28 0 0 1 .513-.012.303.303 0 0 1 .03.113c.006.072-.036.152-.08.203a.298.298 0 0 1-.195.088.289.289 0 0 1-.262-.162C.859.72.857.683.849.646zM.708.619c0 .104.018.18.075.261l.034.042c.068.08.184.14.294.14h.044a.427.427 0 0 0 .325-.67.416.416 0 0 0-.33-.18.414.414 0 0 0-.29.099L.808.36a.386.386 0 0 0-.061.095.385.385 0 0 0-.04.163z"/>
</svg>
