<?xml version="1.0" encoding="UTF-8"?>
<!DOCTYPE svg PUBLIC "-//W3C//DTD SVG 1.1//EN" "http://www.w3.org/Graphics/SVG/1.1/DTD/svg11.dtd">
<!-- Creator: CorelDRAW 2017 -->
<svg xmlns="http://www.w3.org/2000/svg" xml:space="preserve" width="100%" height="100%" version="1.1" style="shape-rendering:geometricPrecision; text-rendering:geometricPrecision; image-rendering:optimizeQuality; fill-rule:evenodd; clip-rule:evenodd"
viewBox="0 0 1.42134 1.3351"
 xmlns:xlink="http://www.w3.org/1999/xlink">
 <defs>
  <style type="text/css">
   <![CDATA[
    .str0 {stroke:#FEFEFE;stroke-width:0.075;stroke-miterlimit:22.9256}
    .fil0 {fill:none}
    .fil1 {fill:#FEFEFE;fill-rule:nonzero}
   ]]>
  </style>
 </defs>
 <g id="Camada_x0020_1">
  <metadata id="CorelCorpID_0Corel-Layer"/>
  <path class="fil0 str0" d="M0.75379 0.0375c0.34797,0 0.63005,0.28208 0.63005,0.63005 0,0.34797 -0.28208,0.63005 -0.63005,0.63005 -0.12951,0 -0.24988,-0.0391 -0.35,-0.10611 -0.10837,0.03976 -0.22966,0.05657 -0.3632,0.0516l-0.00166 -0.02732c0.08783,-0.04385 0.15933,-0.09892 0.21473,-0.16505 -0.08147,-0.10617 -0.12992,-0.239 -0.12992,-0.38317 0,-0.34797 0.28209,-0.63005 0.63005,-0.63005z"/>
  <path class="fil1" d="M0.64548 0.80435l0.15537 0 0 -0.04743 0.01308 -0.0139 0.10222 0 0.06951 -0.06951 0 -0.18972 -0.08178 -0.08177 -0.30746 0 -0.07933 0.07932 0 0.09895 0.15537 0 0 -0.04907 0.01799 -0.01799 0.12021 0 0.02045 0.02045 0 0.07441 -0.01391 0.0139 -0.10794 0 -0.06378 0.06379 0 0.11857zm0 0.16191l0.15537 0 0 -0.11612 -0.15537 0 0 0.11612z"/>
 </g>
</svg>
