<svg xmlns="http://www.w3.org/2000/svg" width="100%" height="100%" fill-rule="evenodd" clip-rule="evenodd" image-rendering="optimizeQuality" shape-rendering="geometricPrecision" text-rendering="geometricPrecision" version="1.1" viewBox="0 0 1.421 1.335" xml:space="preserve">
  <path fill="none" stroke="#fefefe" stroke-miterlimit="22.926" stroke-width=".075" d="M.754.037a.63.63 0 1 1-.35 1.154.946.946 0 0 1-.363.052l-.002-.027a.66.66 0 0 0 .215-.165.63.63 0 0 1 .5-1.013z"/>
  <path fill="#fefefe" fill-rule="nonzero" d="M.645.804h.156V.757L.814.743h.102l.07-.07v-.19L.904.403H.596l-.079.08V.58h.155V.531L.69.513h.12l.021.02v.075L.817.622H.71L.645.686v.118zm0 .162h.156V.85H.645v.116z"/>
</svg>
