<svg xmlns="http://www.w3.org/2000/svg" width="100%" height="100%" fill-rule="evenodd" clip-rule="evenodd" image-rendering="optimizeQuality" shape-rendering="geometricPrecision" text-rendering="geometricPrecision" version="1.1" viewBox="0 0 5.7843 1.7685" xml:space="preserve">
  <defs>
    <style type="text/css">
      .fil1,.fil2{fill:#fefefe;fill-rule:nonzero}.fil2{fill:#201e1e}
    </style>
  </defs>
  <g id="Camada_x0020_1">
    <g id="_2075684831408">
      <path fill="#008ac4" fill-rule="nonzero" d="M1.5429.9772h.0067c.0518 0 .0874-.0178.0874-.0694 0-.0475-.0289-.0729-.0775-.0729h-.0167v.1423zM1.5067.804h.0577c.0522 0 .1108.0273.1108.101 0 .0756-.0577.103-.1137.103h-.0548V.804zm.3774.204h-.0256l-.063-.1592v.1592h-.0361V.804h.0545l.0577.1495.0592-.1495h.0539v.204h-.0362V.8495l-.0644.1586zM2.078.804h.0362v.204h-.0362V.804zm.2664.204L2.2435.8702v.1379h-.0362V.804h.0318l.1014.1381V.8041h.0362v.204h-.0324zM2.47.804h.0362v.204h-.0362V.804zm.1973.0276c-.0169 0-.0303.0085-.0303.024 0 .016.0201.0224.0365.0279.03.0102.0638.0236.0638.0647 0 .045-.0408.0633-.0746.0633-.031 0-.0542-.0108-.0764-.0327l.0245-.0236c.0178.0172.0312.0251.0522.0251.018 0 .0361-.0088.0361-.03 0-.0196-.0207-.0268-.042-.0344-.0274-.01-.0562-.0233-.0562-.0586 0-.0388.0309-.0568.0644-.0568a.105.105 0 0 1 .0659.0227l-.0213.026a.0685.0685 0 0 0-.0425-.0176zm.218.0032v.1732h-.036V.8349h-.0497V.804h.1353v.031h-.0496zm.1784.059c.0236 0 .0411-.0085.0411-.029 0-.018-.0143-.03-.0353-.03h-.026v.059h.0202zM3.0703.804c.0323 0 .0726.0166.0726.06 0 .033-.0228.0505-.0466.0572l.0632.0869h-.0449L3.0563.9247h-.0128v.0834h-.0361V.804h.0629zm.462.031v.173H3.496V.835h-.0496V.804h.1353v.031h-.0496zm.122-.031h.0362v.204h-.0361V.804zm.2262.0283c-.039 0-.0676.0324-.0676.0738 0 .0414.0286.0737.0676.0737.0394 0 .068-.0323.068-.0737s-.0286-.0738-.068-.0738zm0 .1793a.1046.1046 0 0 1-.1058-.1055.1046.1046 0 0 1 .1058-.1056.1047.1047 0 0 1 .1061.1056.1047.1047 0 0 1-.106.1055zm.3273-.0035L4.107.8702v.1379h-.0362V.804h.0318l.1014.1381V.8041h.0362v.204h-.0324zm-2.8162 0h.0414L1.3557.804h-.03l-.0813.204h.0396l.0146-.0402h.056L1.3438.9376h-.0341l.0285-.0784h.0003l.053.1489zm1.974 0h.0413L3.3297.804h-.03l-.0814.204h.0397l.0146-.0402h.056L3.3178.9376h-.0342l.0286-.0784h.0003l.053.1489zM1.4124.6006h.0002c.0403-.0003.0742-.0138.1008-.0398.0265-.0255.0403-.0601.041-.1032V.1961h-.0794v.2554c-.0003.0223-.0061.0393-.0176.0504a.06.06 0 0 1-.045.0177.0587.0587 0 0 1-.0445-.0178C1.3562.4905 1.3504.474 1.35.4517V.196h-.0794V.458c.0004.043.0145.0776.0418.1029a.1403.1403 0 0 0 .1.0398zm.2588-.081h-.0764v.078h.0764v-.078zm.4819 0h-.0764v.078h.0764v-.078zm.2259.077h.0794V.4355h.1186V.3607h-.1186V.273h.1782V.1952H2.379v.4015zM2.881.396c0 .0362-.0013.0609-.0036.073a.0576.0576 0 0 1-.0128.0274.0587.0587 0 0 1-.0749.0151.055.055 0 0 1-.0195-.0161.0531.0531 0 0 1-.0115-.0264C2.7562.4567 2.7549.4321 2.7549.396c0-.0363.0013-.061.0038-.0739a.0523.0523 0 0 1 .012-.0263.0588.0588 0 0 1 .0193-.016.0626.0626 0 0 1 .0279-.0066.0672.0672 0 0 1 .0285.0064.058.058 0 0 1 .019.017.0553.0553 0 0 1 .012.0256c.0023.0126.0036.0375.0036.0738zM2.943.2667a.138.138 0 0 0-.0454-.0511c-.0213-.0152-.048-.023-.0798-.0235-.0312.0004-.0576.0083-.0786.0233a.1398.1398 0 0 0-.046.0501.1183.1183 0 0 0-.014.0403c-.0025.0156-.0038.045-.0038.0902 0 .0442.0013.0735.0039.0894a.1194.1194 0 0 0 .0134.04.1367.1367 0 0 0 .0463.0504c.0211.0152.0476.0232.0787.024h.0005c.0314-.0008.0581-.0088.0792-.024a.1314.1314 0 0 0 .0448-.0491A.1023.1023 0 0 0 2.957.485.7607.7607 0 0 0 2.9604.396c0-.0449-.0011-.0742-.0034-.09A.0987.0987 0 0 0 2.943.2668zm.2852.1293c0 .0362-.0012.0609-.0035.073a.0577.0577 0 0 1-.0129.0274.0587.0587 0 0 1-.0749.0151.0544.0544 0 0 1-.0194-.0161A.0526.0526 0 0 1 3.106.469C3.1035.4567 3.1022.4321 3.1022.396c0-.0363.0013-.061.0039-.0739a.052.052 0 0 1 .012-.0263.059.059 0 0 1 .0192-.016.063.063 0 0 1 .028-.0066.0671.0671 0 0 1 .0285.0064.0585.0585 0 0 1 .019.017.0554.0554 0 0 1 .012.0256c.0023.0126.0035.0375.0035.0738zm.0622-.1293A.1382.1382 0 0 0 3.245.2156C3.2237.2004 3.197.1926 3.1652.192c-.0311.0004-.0576.0083-.0786.0233a.1395.1395 0 0 0-.046.0501.1179.1179 0 0 0-.0139.0403c-.0026.0156-.0039.045-.0039.0902 0 .0442.0013.0735.004.0894a.1208.1208 0 0 0 .0133.04.1367.1367 0 0 0 .0463.0504c.0212.0152.0476.0232.0787.024h.0006c.0313-.0008.058-.0088.0792-.024a.1318.1318 0 0 0 .0447-.0491.1018.1018 0 0 0 .0148-.0416.7592.7592 0 0 0 .0033-.0891c0-.0449-.0011-.0742-.0034-.09a.0987.0987 0 0 0-.0138-.0393zm.1715.0065h.0567a.061.061 0 0 1 .0536.0276.0544.0544 0 0 1 .0115.028.7522.7522 0 0 1 .0022.0692.6789.6789 0 0 1-.0022.0674.054.054 0 0 1-.01.026c-.0118.0184-.0307.0274-.0576.0274H3.462V.2732zm.1822-.0084C3.6172.219 3.5763.1956 3.5225.1952h-.14v.4015h.1362a.1357.1357 0 0 0 .0757-.0204.142.142 0 0 0 .0487-.0481.2145.2145 0 0 0 .011-.021A.108.108 0 0 0 3.661.483c.003-.017.0045-.0455.0045-.087a.7928.7928 0 0 0-.0029-.0823.128.128 0 0 0-.0183-.0489zm.8834.0084h.0567c.023 0 .0402.0087.0536.0276a.0542.0542 0 0 1 .0115.028.7404.7404 0 0 1 .0022.0692.6725.6725 0 0 1-.0022.0674.0535.0535 0 0 1-.01.026c-.0118.0184-.0307.0274-.0576.0274h-.0542V.2732zm.1822-.0084C4.6828.219 4.6419.1956 4.5881.1952h-.14v.4015h.1362A.1358.1358 0 0 0 4.66.5763a.142.142 0 0 0 .0487-.0481.2124.2124 0 0 0 .011-.021.1096.1096 0 0 0 .0069-.0242c.003-.017.0044-.0455.0044-.087a.7827.7827 0 0 0-.003-.0823.1276.1276 0 0 0-.0182-.0489zm.1757.0053h.075c.0147 0 .0258.003.0334.0093.0088.0065.0133.0174.0135.0331a.0477.0477 0 0 1-.0124.0337c-.0081.0094-.0205.0142-.0376.0145h-.0719V.27zm.1983.0422C5.0826.2739 5.0689.2438 5.0433.223 5.022.2046 4.9942.1953 4.961.1953h-.1548v.4014h.0794V.4354h.0512l.0756.1613h.093L5.0176.423c.0432-.0214.0654-.0585.0662-.1107zm.2673.1383C5.3508.473 5.345.49 5.3336.5011a.06.06 0 0 1-.045.0177.0586.0586 0 0 1-.0446-.018c-.0117-.0112-.0176-.0276-.0179-.05V.1953h-.0794V.457c.0003.043.0144.0776.0417.103a.1403.1403 0 0 0 .1001.0398h.0002C5.329.5994 5.363.586 5.3895.5599c.0265-.0254.0403-.06.041-.1031V.1953h-.0794v.2553zM4.0096.3328C4.02.3255 4.031.3192 4.04.31a.032.032 0 0 0 .0092-.0304c-.005-.0232-.0338-.0338-.0535-.0197a.034.034 0 0 0-.0101.0398c.0055.0127.0155.0222.024.033zm.0596.1784L3.9887.4166a.1853.1853 0 0 0-.026.0225.0536.0536 0 0 0-.015.039c0 .0252.0158.0466.0402.0538A.0798.0798 0 0 0 4.048.5263a.0893.0893 0 0 0 .0212-.0151zm-.02-.1332l.0682.0806a.0914.0914 0 0 0 .0152-.0337.2035.2035 0 0 0 .0053-.0368h.0698c-.0008.0076-.0013.015-.0022.0223a.2565.2565 0 0 1-.0112.0518.1423.1423 0 0 1-.0279.0485.0577.0577 0 0 0-.0018.0024l.0718.0849c-.0008.0011-.0018.0006-.0027.0006h-.0872a.0055.0055 0 0 1-.0048-.0021C4.1332.586 4.1245.5758 4.1158.5655L4.1143.5634C4.108.568 4.1021.5727 4.096.577a.1364.1364 0 0 1-.063.0236.1952.1952 0 0 1-.0747-.0047C3.9129.5835 3.8869.5535 3.8787.5076A.1244.1244 0 0 1 3.879.4573.1167.1167 0 0 1 3.905.408a.2115.2115 0 0 1 .0406-.0345l.0032-.0022C3.9453.367 3.9418.363 3.9385.3588a.1279.1279 0 0 1-.0273-.052C3.9018.2635 3.9198.219 3.966.2006A.1381.1381 0 0 1 4.036.1929a.099.099 0 0 1 .0544.0243c.0134.012.022.027.0261.0444a.0874.0874 0 0 1-.0025.0546.0866.0866 0 0 1-.0212.0285c-.0118.0113-.0258.02-.0388.0298L4.0493.378zM5.6417.365v.078h.0628v.0075a.0686.0686 0 0 1-.0184.0493.0576.0576 0 0 1-.0446.019.0528.0528 0 0 1-.0282-.0073.0553.0553 0 0 1-.0195-.0161.0527.0527 0 0 1-.0115-.0264C5.5796.4567 5.5784.4322 5.5784.396c0-.0363.0012-.061.0038-.0739a.0521.0521 0 0 1 .012-.0263.0587.0587 0 0 1 .047-.0227.0584.0584 0 0 1 .0372.0128.0707.0707 0 0 1 .0211.0335l.0026.0086h.0822L5.7816.3138a.156.156 0 0 0-.0456-.086C5.7116.2045 5.68.1925 5.6414.1921c-.0312.0004-.0577.0083-.0787.0235a.1396.1396 0 0 0-.046.0502.1175.1175 0 0 0-.0138.0402c-.0027.0156-.004.045-.004.09 0 .0442.0013.0735.004.0894a.115.115 0 0 0 .0134.04.1369.1369 0 0 0 .0463.0504.1377.1377 0 0 0 .0786.024h.0005a.1446.1446 0 0 0 .0694-.0181v.0157h.0732V.365H5.6416zM1.9027.2632c-.027 0-.0513.0135-.0513.0395 0 .0304.0372.0388.0676.0495.0558.0192.1229.0451.1229.128 0 .0856-.0806.1222-.1493.1222-.0609 0-.1082-.0231-.151-.066L1.795.484c.0321.031.0569.0495.098.0495.0316 0 .0626-.0152.0626-.05 0-.034-.036-.0469-.076-.0615-.0514-.0192-.1088-.0417-.1088-.1172 0-.075.0636-.1104.129-.1104.0507 0 .0907.0163.1307.0467l-.0462.0575C1.9624.28 1.9331.2631 1.9027.2631zM0 1.2061h1.0075V0H0v1.206z"/>
      <path d="M.7017.4922h.081L.766.4343H.72L.761.3139l.0851.2558h.0724L.7925.234H.7257l-.126.3357h.0752zM.1706.4313H.265V.371H.1706V.294h.284a.1025.1025 0 0 1 .0363.0072.0724.0724 0 0 1 .028.0211.0868.0868 0 0 1 .0157.0336.1857.1857 0 0 1 .005.0444.1653.1653 0 0 1-.0057.045.0943.0943 0 0 1-.0176.0345.0766.0766 0 0 1-.0313.0224A.1243.1243 0 0 1 .4385.51H.3933V.3716h-.07v.1981h.1138A.23.23 0 0 0 .5104.559a.1442.1442 0 0 0 .055-.0324A.1426.1426 0 0 0 .6.4734.2055.2055 0 0 0 .612.4C.612.3451.5977.3038.569.2759.5427.2503.5067.2362.4614.234H.1005v.3357h.07V.4313z" class="fil1"/>
      <path d="M.5201 1.6994H.4134l-.019.0691h-.08l.097-.3271h.1087l.0999.3271H.5413l-.0212-.0691zM.5 1.6334l-.0341-.128-.0346.128h.0687z" class="fil2"/>
      <path id="1" d="M1.0552 1.4414h.1822c.043 0 .0645.0215.0645.0645v.0925c0 .043-.0215.0645-.0645.0645h-.1046v.1056h-.0776v-.3271zm.0776.1547h.0827c.0034 0 .0057-.0007.007-.0019.0012-.0012.0019-.0036.0019-.007v-.0701c0-.0034-.0007-.0058-.002-.007-.0012-.0013-.0035-.0019-.007-.0019h-.0826v.0879z" class="fil2"/>
      <path id="2" d="M1.7479 1.4414H1.93c.043 0 .0645.0215.0645.0645v.0925c0 .043-.0215.0645-.0645.0645h-.1046v.1056h-.0776v-.3271zm.0776.1547h.0827c.0034 0 .0057-.0007.007-.0019.0012-.0012.0018-.0036.0018-.007v-.0701c0-.0034-.0006-.0058-.0018-.007-.0013-.0013-.0036-.0019-.007-.0019h-.0827v.0879z" class="fil2"/>
      <path id="3" d="M2.699 1.7685h-.0809l-.0546-.1126H2.518v.1126h-.0775v-.3271h.1822c.043 0 .0645.0215.0645.0645v.0818c0 .0361-.015.057-.0448.0626l.0565.1182zm-.1809-.1771h.0828c.0034 0 .0057-.0006.007-.0019.0012-.0012.0018-.0035.0018-.007v-.0663c0-.0035-.0006-.0058-.0018-.007-.0013-.0013-.0036-.002-.007-.002H2.518v.0842z" class="fil2"/>
      <path id="4" d="M3.3281 1.7685h-.1257c-.043 0-.0645-.0215-.0645-.0645V1.506c0-.043.0215-.0645.0645-.0645h.1257c.0218 0 .038.0053.0486.0159.0106.0106.016.0268.016.0486v.1981c0 .043-.0216.0645-.0646.0645zm-.1126-.251v.1748c0 .006.003.009.0089.009h.0818c.0034 0 .0057-.0007.007-.002.0012-.0012.0018-.0035.0018-.007v-.1747c0-.0035-.0006-.0058-.0018-.007-.0013-.0013-.0036-.002-.007-.002h-.0818c-.0034 0-.0058.0007-.007.002-.0013.0012-.0019.0035-.0019.007z" class="fil2"/>
      <path id="5" d="M4.1059 1.4414l-.1.3271h-.0893l-.1-.3271h.0841l.0617.2444.0617-.2444z" class="fil2"/>
      <path id="6" d="M4.542 1.4414h.2252v.0673h-.1476v.0593h.1182v.0664h-.1182v.0668h.1476v.0673H4.542z" class="fil2"/>
      <path id="7" d="M5.2183 1.4414h.187c.043 0 .0644.0215.0644.0645v.1981c0 .043-.0214.0645-.0644.0645h-.187v-.3271zm.0776.2598h.0874c.006 0 .0089-.003.0089-.0089v-.1747c0-.0035-.0006-.0058-.0019-.007-.0012-.0013-.0036-.002-.007-.002h-.0874v.1926z" class="fil2"/>
    </g>
  </g>
</svg>
