<svg xmlns="http://www.w3.org/2000/svg" width="100%" height="100%" fill-rule="evenodd" clip-rule="evenodd" image-rendering="optimizeQuality" shape-rendering="geometricPrecision" text-rendering="geometricPrecision" version="1.1" viewBox="0 0 1.939 1.941" xml:space="preserve">
  <path fill="#e6e7e8" d="M1.51 1.776l-.054-.085-.01-.015-.03-.045-.025-.05.039-.037.002-.002a.728.728 0 0 0 .05-1.097l-.024.046a.54.54 0 0 1 .072.09.683.683 0 0 1-.214.984l.06.095.025.04.043.057-.065.039a.178.178 0 0 1-.042.019.91.91 0 0 1-.743 0 .933.933 0 0 1-.511-.593l-.052.003.002.007.001.002v.002a.52.52 0 0 0 .028.08l.001.001c.09.243.275.435.511.54.236.105.5.112.742.022.042-.018.085-.035.124-.06l.002-.001h.001a.76.76 0 0 0 .067-.042zM1.401.104c-.036.07-.066.134-.11.2L1.24.288 1.237.288a.728.728 0 0 0-.978.499L.31.784A.539.539 0 0 1 .352.678C.375.628.404.578.44.535a.683.683 0 0 1 .874-.157c.04-.072.072-.132.105-.206l.065.036a.178.178 0 0 1 .038.027.91.91 0 0 1 .366.646.933.933 0 0 1-.262.737l.028.044a.208.208 0 0 0 .005-.005l.001-.002.002-.001a.519.519 0 0 0 .055-.063l.001-.001v-.001a.955.955 0 0 0 .217-.712.981.981 0 0 0-.347-.655C1.55.194 1.514.165 1.473.144L1.472.143 1.47.142a.764.764 0 0 0-.069-.038zm-1.4.92l.1-.002.02-.002.053-.002.055.004.013.053v.002a.728.728 0 0 0 .918.604l-.028-.043a.538.538 0 0 1-.113.015.646.646 0 0 1-.167-.005.683.683 0 0 1-.569-.682L.17.968.123.97l-.07.007L.051.902c0-.016.001-.03.005-.045a.91.91 0 0 1 .38-.638c.202-.14.52-.22.758-.14l.012.003.025-.046a.202.202 0 0 0-.007-.002H1.22a.987.987 0 0 0-.81.145.981.981 0 0 0-.399.626C.006.851 0 .897.001.943v.003a.763.763 0 0 0 0 .079z"/>
  <path fill="#f7d67d" d="M1.55 1.387l.031-.027c-.039-.053-.082-.1-.119-.142.01-.088-.008-.127-.044-.174.004.061-.02.072-.02.147-.081-.016-.095.013-.134.017.044.015.076.053.16.042l.126.137zm-.235-.338c0 .03.016.062.055.098.012-.029.033-.083.022-.12-.017-.052-.046-.072-.066-.103.005.05-.01.073-.011.125zm-.023.087c.024.002.044.016.067.025-.029.015-.052.027-.071.024-.037-.005-.053-.025-.077-.038.029.004.054-.014.08-.011zm-.101-.018c.039.01.085-.004.125-.007-.032-.036-.066-.057-.095-.059-.04-.002-.08.015-.12.007.03.028.053.05.09.059zm.03-.162c.001.035.03.07.068.107.005-.043.015-.078.014-.121 0-.055-.042-.061-.06-.12.004.034-.021.087-.021.134zm-.113.076c.039.012.086 0 .126-.001C1.204.99 1.17.968 1.14.965 1.1.96 1.06.978 1.02.967c.028.03.051.055.087.065zm.028-.176a.2.2 0 0 0 .065.12.238.238 0 0 0 0-.128C1.18.8 1.156.785 1.134.758c.005.041-.003.048 0 .098zm-.114.092c.034.005.079-.004.113-.009a.11.11 0 0 0-.089-.06c-.034 0-.07.024-.107.017.026.022.051.047.083.052zM.753.418l.292.284c.022.021.043.026.06.068.017.038.007.078.01.117C1.09.868 1.061.852 1.04.808c-.014-.027-.01-.066-.016-.1l-.27-.29zm.142.225a8.726 8.726 0 0 1-.47-.37L.902.63c.03.025.07.04.09.075.021.036.02.066.03.099C.968.773.951.759.931.73.915.704.908.672.896.643zm-.094.04C.825.698.858.7.896.696.878.672.871.647.844.624.822.605.787.604.76.596L.362.361l.386.25C.765.635.764.655.8.682zM.94.864c.036.01.075 0 .112 0C1.027.842 1.019.813.979.799.947.788.916.806.88.806L.593.679l.275.139c.024.016.044.04.071.047zM.877.71C.89.715.9.726.912.739l.034.04C.91.776.866.792.834.768A.173.173 0 0 1 .798.73.41.41 0 0 0 .714.666.972.972 0 0 0 .588.6 3.235 3.235 0 0 0 .312.494c.102.028.182.053.31.11.062.028.142.078.193.111C.835.713.85.7.877.71zm.682.806l.014-.03c-.047-.027-.095-.047-.137-.066-.023-.07-.05-.091-.093-.114.024.044.01.06.036.117-.067.015-.067.041-.095.058.038-.004.075.013.134-.024l.14.059zm-.292-.171c.012.022.034.04.076.054-.002-.025-.004-.073-.026-.097-.03-.033-.058-.038-.084-.054.021.036.017.057.034.097zm.013.072c.02-.006.039-.002.06-.004-.017.022-.03.038-.046.043-.03.009-.048-.001-.07-.002.023-.007.036-.03.056-.037zM1.2 1.44c.032-.006.062-.032.091-.048-.036-.016-.069-.02-.092-.011-.03.012-.053.038-.086.046.031.01.056.019.087.013zm-.033-.132c.013.026.047.043.087.057-.011-.034-.015-.063-.03-.095-.02-.04-.054-.03-.086-.069.014.025.013.072.03.107zm-.058.096c.033-.004.064-.03.093-.044-.036-.019-.07-.025-.092-.017-.031.01-.055.037-.089.043.032.013.057.023.088.018zm-.04-.14c.013.02.048.058.09.066a.196.196 0 0 0-.045-.094c-.032-.03-.053-.033-.08-.046.019.03.015.038.035.074zm-.053.107c.027-.008.057-.03.08-.045a.09.09 0 0 0-.086-.015c-.026.012-.044.043-.075.05.027.007.055.017.08.01zm-.383-.303l.315.112c.024.008.041.005.069.03.025.023.031.056.047.084-.025-.006-.053-.008-.084-.033-.02-.016-.03-.046-.046-.069l-.3-.124zm.183.119a7.17 7.17 0 0 1-.477-.114l.477.102c.03.008.065.005.093.025.028.02.038.042.056.063-.05-.003-.068-.009-.091-.023-.023-.014-.039-.035-.058-.053zm-.056.062c.023.004.048-.007.076-.022C.813 1.213.799 1.197.77 1.19c-.023-.007-.05.004-.073.008L.32 1.159l.373.054c.021.012.028.027.065.035zm.165.09c.03-.006.056-.027.083-.04-.025-.009-.04-.027-.075-.024-.028.002-.045.027-.072.039l-.258.004.253.009c.023.004.046.015.07.011zm-.1-.096c.012 0 .023.005.036.01.013.006.027.011.04.018-.029.01-.055.038-.087.03a.142.142 0 0 1-.04-.014.338.338 0 0 0-.085-.02.8.8 0 0 0-.117-.006c-.077 0-.159.007-.242.016.086-.015.154-.024.27-.025.055 0 .132.01.181.017.015-.009.021-.024.045-.026z"/>
  <rect width=".211" height="5.187" fill="#ed3237" rx=".105" ry=".105" transform="scale(-.4234 .4234) rotate(-45 -1.456 5.334)"/>
</svg>
