<svg xmlns="http://www.w3.org/2000/svg" width="100%" height="100%" fill-rule="evenodd" clip-rule="evenodd" image-rendering="optimizeQuality" shape-rendering="geometricPrecision" text-rendering="geometricPrecision" version="1.1" viewBox="0 0 1.939 1.941" xml:space="preserve">
  <path fill="#e6e7e8" d="M1.51 1.776l-.054-.085-.01-.015-.03-.045-.025-.05.039-.037.002-.002a.728.728 0 0 0 .05-1.097l-.024.046a.54.54 0 0 1 .072.09.683.683 0 0 1-.214.984l.06.095.025.04.043.057-.065.039a.178.178 0 0 1-.042.019.91.91 0 0 1-.743 0 .933.933 0 0 1-.511-.593l-.052.003.002.007.001.002v.002a.52.52 0 0 0 .028.08l.001.001c.09.243.275.435.511.54.236.105.5.112.742.022.042-.018.085-.035.124-.06l.002-.001h.001a.76.76 0 0 0 .067-.042zM1.401.104c-.036.07-.066.134-.11.2L1.24.288 1.237.288a.728.728 0 0 0-.978.499L.31.784A.539.539 0 0 1 .352.678C.375.628.404.578.44.535a.683.683 0 0 1 .874-.157c.04-.072.072-.132.105-.206l.065.036a.178.178 0 0 1 .038.027.91.91 0 0 1 .366.646.933.933 0 0 1-.262.737l.028.044a.208.208 0 0 0 .005-.005l.001-.002.002-.001a.519.519 0 0 0 .055-.063l.001-.001v-.001a.955.955 0 0 0 .217-.712.981.981 0 0 0-.347-.655C1.55.194 1.514.165 1.473.144L1.472.143 1.47.142a.767.767 0 0 0-.069-.038zm-1.4.92l.1-.002.02-.002.053-.002.055.004.013.053v.002a.728.728 0 0 0 .918.604l-.028-.043a.538.538 0 0 1-.113.015.646.646 0 0 1-.167-.005.683.683 0 0 1-.569-.682L.17.968.123.97l-.07.007L.051.902c0-.016.001-.03.005-.045a.91.91 0 0 1 .38-.638c.202-.14.52-.22.758-.14l.012.003.025-.046a.202.202 0 0 0-.007-.002H1.22a.987.987 0 0 0-.81.145.981.981 0 0 0-.399.626C.006.851 0 .897.001.943v.003a.763.763 0 0 0 0 .079z"/>
  <path fill="#00ab59" d="M.938.795c0 .026.004.048.017.066a.115.115 0 0 0 .063.046c.019.005.02 0 .024.013a.149.149 0 0 1 .005.047v.018a.184.184 0 0 1-.033.077.393.393 0 0 1-.032.042l-.008.01-.01.009-.018.018-.009.01-.009.01c.007.009.018.017.027.025.006.006.022.02.026.027L1 1.195l.019-.02.015-.014.005-.004a.261.261 0 0 1 .044-.034.167.167 0 0 1 .101-.03c.012 0 .031.003.04.008.008.004.008.016.01.023a.11.11 0 0 0 .05.065.113.113 0 0 0 .082.012.09.09 0 0 0 .045-.023l.009-.008.01-.009c.007-.008.062-.06.067-.068-.007-.005-.047-.046-.057-.056l-.009-.008c-.01-.011-.021-.022-.035-.03a.11.11 0 0 0-.131.014c-.005.005-.014.011-.017.016-.016-.004-.035-.009-.053-.01-.024-.003-.02 0 .005-.025l.064-.065.017.009a.113.113 0 0 0 .02.006c.014.004.021.003.034.005h.012c.055-.001.093-.033.12-.074a.113.113 0 0 0 .02-.048C1.491.793 1.49.69 1.49.652c-.03 0-.156-.002-.179.002a.128.128 0 0 0-.028.01L1.271.67a.167.167 0 0 0-.074.094.167.167 0 0 0 .007.096l.008.018c-.006.003-.017.016-.022.021-.013.013-.054.057-.067.065a.303.303 0 0 0-.007-.056C1.111.887 1.11.894 1.125.88A.053.053 0 0 0 1.13.873l.006-.007A.111.111 0 0 0 1.124.72L1.099.695 1.074.669 1.047.645l-.033.031C.998.693.964.724.952.745a.087.087 0 0 0-.014.05zm-.074.533l.002-.002.002-.002.002-.002H.87l.001-.002.001-.001.001-.001.001-.001.001-.001.001-.001.001-.001.001-.001.001-.001.001-.001.002-.001v-.001l.002-.002.002-.002.002-.002.002-.002V1.3l.002-.001v-.001l.002-.001.001-.001.001-.001.001-.001.001-.001L.9 1.29h.001c.001-.002 0-.002.002-.001l.002.001.001.001h.002l.001.003H.91l.002.001v.001l.006.006.002.001v.001l.002.001v.001l.002.001.001.001.001.001.001.001.001.001.001.001.001.001.001.001.001.002h.002v.002h.002v.002l.002.001v.001l.002.001v.001l.002.001v.001l.004.003a.72.72 0 0 1-.084 0l.002-.002zM.749.448h.012c.013.003.026.011.03.028L.796.5a.069.069 0 0 0 .007.02h.2c0-.004.002-.007.004-.01.004-.012.004-.024.008-.036.006-.02.017-.026.038-.026.022 0 .034.018.034.039 0 .03-.011.052-.023.074-.008.017-.02.031-.032.045-.007.01-.015.017-.023.026L.995.648.991.653l-.139.14-.019.019-.01.01-.008.01c.018.004.071.002.091.002 0 .019.017.044.028.058L.94.901c.003.003.004.003.006.007h-.09L.768.91A.15.15 0 0 0 .76.992c0 .01.005.016.007.024h.116c.026.003.06.001.087.001L1 1.02c-.003.013-.03.045-.04.058-.007.01-.01.015-.017.015h-.13c.009.012.028.03.038.04l.137.135c.004.004.005.007.01.011a.459.459 0 0 1 .045.051c.022.03.045.07.045.11 0 .023-.015.035-.031.038h-.013a.034.034 0 0 1-.023-.014c-.008-.011-.008-.032-.013-.047-.002-.005-.002-.01-.009-.011L.84 1.404l-.038-.001c0 .004-.003.006-.004.01-.004.012-.004.026-.007.037a.032.032 0 0 1-.01.019.038.038 0 0 1-.02.008H.75a.04.04 0 0 1-.022-.011c-.02-.02-.005-.078.007-.098a.32.32 0 0 1 .024-.036L.79 1.3l.03-.032c.009-.009.023-.02.03-.03-.01-.007-.025-.025-.034-.035l-.04-.042a.426.426 0 0 1-.086-.145.186.186 0 0 1-.005-.049c0-.045.002-.055.02-.098A.378.378 0 0 1 .768.771L.775.764.788.75C.8.736.84.698.848.69.842.682.824.665.817.658a.127.127 0 0 1-.01-.01L.788.625C.76.59.72.552.72.494.72.483.721.469.726.462A.033.033 0 0 1 .75.449zm.114.148h.079l-.04.04-.039-.04zm.002.731l.002-.002.002-.002.002-.002h.001l.001-.002.001-.001.001-.001.001-.001.001-.001.001-.001.001-.001.001-.001.001-.001.002-.001v-.001l.002-.002.002-.002.002-.002.002-.002V1.3l.002-.001v-.001l.002-.001.001-.001.001-.001.001-.001.001-.001L.9 1.29h.001l.002-.001c0 .002-.001.001.002.001l.001.001c0 .002 0 .002.002 0 0 .003-.002.002.001.003H.91c0 .002 0 .002.002.001v.001l.003.004.003.002.002.001v.001l.002.001v.001l.002.001.001.001.001.001.001.001.001.001c0 .002 0 .001.001.001 0 .002 0 .001.001.001l.001.001.001.002h.002v.002h.002v.002l.002.001v.001l.002.001v.001l.002.001v.003H.864v-.002zM.9 1.291v.002H.897l-.001.002H.896l-.001.002H.894L.893 1.3.892 1.3l-.001.001-.001.001-.001.001-.001.001-.001.001-.001.001-.001.001-.001.002H.883l-.002.002-.002.002-.002.002-.002.002v.001l-.002.001-.001.001-.001.001-.001.001-.001.001-.001.001-.001.001-.001.001-.001.001-.001.001-.002.002a.72.72 0 0 0 .084 0l-.003-.003H.942L.94 1.324H.94l-.001-.002-.001-.001-.001-.001-.001-.001-.001-.001-.001-.001-.002-.001v-.002H.93v-.002H.927V1.31H.925v-.002H.923l-.001-.002H.922L.92 1.304H.92l-.002-.002-.005-.006H.912L.91 1.295.91 1.295l-.001-.002H.906L.905 1.29.903 1.29H.901v.001z"/>
  <rect width=".211" height="5.187" fill="#ed3237" rx=".105" ry=".105" transform="scale(-.4234 .4234) rotate(-45 -1.456 5.334)"/>
</svg>
