<svg xmlns="http://www.w3.org/2000/svg" width="100%" height="100%" fill-rule="evenodd" clip-rule="evenodd" image-rendering="optimizeQuality" shape-rendering="geometricPrecision" text-rendering="geometricPrecision" version="1.1" viewBox="0 0 1.365 1.608" xml:space="preserve">
  <defs>
    <style type="text/css">
      .fil0,.fil1{fill:#fe4f32}.fil0{fill-rule:nonzero}
    </style>
  </defs>
  <g id="Camada_x0020_1">
    <g id="_1949732153488">
      <path d="M.683.3v.142H.634V.3L.658.276.683.3zM.658.276h.025V.3L.658.276zm-.117 0h.117v.048H.541L.522.284.541.276zm0 .048H.488l.034-.04.019.04zm.242-.27L.56.315.522.284.747.021h.036v.032zM.747.02L.765 0l.018.021H.747zM.97.316L.747.053.783.021l.225.263-.019.04L.971.316zm.037-.032l.034.04H.989l.019-.04zM.872.276h.117v.048H.872L.847.3.872.276zM.847.3V.276h.025L.847.3zm0 .345V.3h.049v.345H.847zM.274.772v.31H.225v-.31L.25.748l.024.024zM.25.748h.024v.024L.25.748zm-.193 0H.25v.048H.057L.04.755.057.748zm0 .048H0L.04.755l.017.041zM.441.407L.075.79.04.755.406.373h.035v.034zM.406.373L.424.355.44.373H.406zM.772.79L.406.407.441.373l.366.382L.79.796.772.79zM.807.755l.04.041H.79L.807.755zM.597.748H.79v.048H.598L.573.772.598.748zM.574.772V.748h.025L.573.772zm0 .337V.772h.049v.337H.573zM.933 1.038v.23H.884v-.23l.025-.024.024.024zM.91 1.014h.024v.024L.91 1.014zm-.142 0h.142v.049H.767L.749 1.02l.018-.007zm0 .049H.71l.04-.042.017.042zm.288-.29l-.27.282-.036-.034.27-.281h.036v.034zM1.02.74L1.037.72l.018.019H1.02zm.27.315L1.02.774 1.055.74l.27.281-.017.042-.018-.008zm.035-.034l.04.042h-.057l.017-.042zm-.16-.007h.143v.049h-.142l-.025-.025.025-.024zm-.024.024v-.024h.025l-.025.024zm0 .357v-.357h.049v.357h-.049z" class="fil0"/>
      <path d="M1.116.173h.042v.23h-.042zM1.116.469h.042v.073h-.042zM1.116.599h.042v.073h-.042zM.449 1.002h.042v.23H.449zM.449 1.297h.042v.073H.449zM.449 1.427h.042V1.5H.449zM.307 1.232h.042v.23H.307zM.307 1.527h.042V1.6H.307zM1.012 1.24h.042v.23h-.042zM1.012 1.535h.042v.073h-.042z" class="fil1"/>
    </g>
  </g>
</svg>
