<svg xmlns="http://www.w3.org/2000/svg" width="100%" height="100%" fill-rule="evenodd" clip-rule="evenodd" image-rendering="optimizeQuality" shape-rendering="geometricPrecision" text-rendering="geometricPrecision" version="1.1" viewBox="0 0 1.486 1.489" xml:space="preserve">
  <path fill="#fefefe" d="M1.38.915l.005-.04C1.39.86 1.438.842 1.458.81c.01-.015.026-.035.027-.079a.176.176 0 0 0-.027-.098c-.006-.01-.017-.03-.034-.028-.021.002-.02.022-.02.042-.002.028-.016.077-.038.086A.422.422 0 0 0 1.232.54.877.877 0 0 0 1.136.47C1.102.451 1.086.47 1.09.49c.003.014.035.028.047.036.022.014.05.035.07.053A.411.411 0 0 1 1.3.692c.04.075.02.135.087.086.037-.028.035-.046.05-.07.005.008.002 0 .003.006v.018c-.002.046-.035.08-.075.1-.038.019-.022.02-.028.072a.432.432 0 0 1-.139.262c-.008.007-.021.014-.022.028-.001.013.05.174.057.192.01.028-.02.047-.044.052-.083.018-.155-.032-.206-.086-.02-.02-.034-.049-.056-.04l-.038.013a.717.717 0 0 1-.234.006c-.103-.011-.079-.028-.11.014-.034.046-.081.092-.153.097a.134.134 0 0 1-.084-.016c-.03-.02-.016-.043-.008-.073.007-.028.014-.05.02-.078l.011-.04c.011-.037-.022-.03-.066-.079a.54.54 0 0 1-.097-.153C.163.989.163.976.15.97.123.961.093.981.064.957.051.946.051.937.047.926.041.906.043.88.042.863.042.833.04.798.055.776.074.751.1.754.134.754c.021 0 .025-.005.03-.022a.38.38 0 0 1 .073-.13L.25.588C.306.525.33.532.356.466.373.419.357.409.352.382.386.365.438.392.46.416.495.457.495.4.655.392.683.391.732.402.733.37.733.352.72.347.705.347a.598.598 0 0 0-.14.01C.533.364.515.372.487.381.479.367.442.346.421.34.354.32.255.352.301.394.327.415.32.44.306.468.297.485.293.487.279.498a.472.472 0 0 0-.122.14C.143.664.137.682.125.708c-.036 0-.054 0-.081.017a.097.097 0 0 0-.04.054.567.567 0 0 0 .007.184c.028.062.101.05.11.052.004 0 .03.057.033.064a.54.54 0 0 0 .104.134l.026.02a.276.276 0 0 1-.01.04l-.011.047-.002.01-.004.008-.003.01c-.002.011-.007.027-.01.036-.01.056.043.091.088.1a.234.234 0 0 0 .21-.066c.072-.07.009-.051.129-.04.058.005.12.006.179-.001.03-.004.072-.015.08-.016l.024.027c.024.025.056.05.084.067a.227.227 0 0 0 .169.025.106.106 0 0 0 .06-.042c.02-.03.014-.049.005-.08-.011-.037-.042-.125-.047-.155A.49.49 0 0 0 1.38.915zM.737.229c0 .007.005.06.013.085a.21.21 0 0 0 .033.063l.049.05c.2.143.446-.086.332-.305a.226.226 0 0 0-.26-.113C.883.014.84.025.849.052c.004.015.018.02.032.014C.896.06.901.056.918.052a.18.18 0 0 1 .198.079c.076.12.001.28-.135.294C.84.439.74.285.797.157.801.15.811.133.813.126a.023.023 0 0 0-.017-.03C.772.092.759.131.752.148A.244.244 0 0 0 .736.23zM.94.117C.926.124.908.126.893.15.883.168.88.197.893.215c.029.043.079.028.11.052.002.027-.021.049-.048.042C.92.301.93.27.91.26.895.255.862.265.888.31.894.32.902.33.91.336c.01.01.024.012.03.018C.941.37.934.403.963.403.99.403.986.375.986.354c.019-.01.03-.01.047-.034.011-.016.02-.043.014-.064C1.031.206.976.217.94.197.915.184.936.16.965.161c.042.001.026.03.047.036.013.004.024-.002.028-.011.005-.012 0-.025-.006-.034a.071.071 0 0 0-.02-.022C1.004.123.996.123.986.117.985.095.991.067.963.067s-.02.03-.023.05zM.635.496c.002.027.03.02.052.017a.58.58 0 0 1 .35.091c.03.02.042-.005.042-.016C1.078.571 1.05.56 1.039.553A.724.724 0 0 0 .882.487.552.552 0 0 0 .681.468C.66.47.634.472.635.496zM.262.688a.041.041 0 0 0 .08-.02C.333.619.252.633.263.689z"/>
</svg>
