<?xml version="1.0" encoding="UTF-8"?>
<!DOCTYPE svg PUBLIC "-//W3C//DTD SVG 1.1//EN" "http://www.w3.org/Graphics/SVG/1.1/DTD/svg11.dtd">
<!-- Creator: CorelDRAW 2017 -->
<svg xmlns="http://www.w3.org/2000/svg" xml:space="preserve" width="100%" height="100%" version="1.1" style="shape-rendering:geometricPrecision; text-rendering:geometricPrecision; image-rendering:optimizeQuality; fill-rule:evenodd; clip-rule:evenodd"
viewBox="0 0 1.5078 1.37904"
 xmlns:xlink="http://www.w3.org/1999/xlink">
 <defs>
  <style type="text/css">
   <![CDATA[
    .str0 {stroke:#FE4F32;stroke-width:0.04869;stroke-linecap:round;stroke-linejoin:round;stroke-miterlimit:22.9256}
    .fil0 {fill:none}
   ]]>
  </style>
 </defs>
 <g id="Camada_x0020_1">
  <metadata id="CorelCorpID_0Corel-Layer"/>
  <path class="fil0 str0" d="M0.79938 0.05327c0.13199,-0.02193 0.27549,-0.02904 0.43029,-0.00792 0.03884,0.00529 0.06024,0.02959 0.06336,0.06599 -0.0044,0.0352 -0.00758,0.0682 -0.00512,0.10358 0.00598,0.08631 0.08753,0.12715 0.04261,0.25006 -0.01189,0.03255 -0.00861,0.03333 0.01236,0.06569 0.0317,0.0489 0.06998,0.07712 0.10589,0.12184 0.05443,0.05575 0.0422,0.1012 -0.01848,0.11879 -0.03983,0.01155 -0.0373,0.0334 -0.02639,0.0528 0.01209,0.02153 0.04592,0.04523 0.00528,0.07391 0.05054,0.09247 -0.05661,0.08463 -0.04224,0.13199 0.02661,0.08766 0.00311,0.13753 -0.07655,0.12935l-0.07459 -0.00681c-0.09791,-0.00895 -0.14976,0.07476 -0.14452,0.20216m0.3379 -0.45669c-0.01805,0.00923 -0.0689,0.00838 -0.14082,0.00685m-0.74721 0.02221c0.04757,0.10454 0.05543,0.24349 0.02221,0.41803m-0.10703 -1.32075c0.22753,0 0.41198,0.18445 0.41198,0.41198 0,0.08692 -0.02694,0.16753 -0.07289,0.23399l0.04259 0.13962 -0.13901 -0.04068c-0.06806,0.0497 -0.15193,0.07905 -0.24267,0.07905 -0.22753,0 -0.41198,-0.18445 -0.41198,-0.41198 0,-0.22753 0.18445,-0.41198 0.41198,-0.41198zm-0.2282 0.46449c0.09439,0.15806 0.35192,0.15969 0.45237,0m-0.39179 -0.19107c0.0084,0.04799 0.09785,0.04342 0.10905,0m0.11309 0c0.00841,0.04799 0.09786,0.04342 0.10906,0"/>
 </g>
</svg>
