<svg xmlns="http://www.w3.org/2000/svg" width="100%" height="100%" fill-rule="evenodd" clip-rule="evenodd" image-rendering="optimizeQuality" shape-rendering="geometricPrecision" text-rendering="geometricPrecision" version="1.1" viewBox="0 0 13.626 10.861" xml:space="preserve">
  <path fill="#fe4f32" d="M8.34 8.454c-.021-.146-.036-.294-.05-.442-.017-.175-.032-.35-.047-.526-.016-.182-.031-.365-.05-.547a8.337 8.337 0 0 0-.051-.445c-.017-.111-.038-.247.022-.35.039-.066.105-.112.165-.156.095-.07.18-.139.266-.22.077-.073.162-.143.245-.21.103-.085.206-.168.307-.255.115-.097.491-.42.504-.572l.008-.092h.71V6.64c0 .265.269.534.534.534h1.037c.262 0 .534-.272.534-.534V5.33h.618c.262 0 .534-.272.534-.533v-2.42c0-.261-.272-.534-.534-.534h-.618V.533c0-.26-.272-.533-.534-.533h-1.037c-.269 0-.534.265-.534.534v2h-.726l-.018-.077c-.075-.318-.27-.55-.51-.76-.254-.224-.616-.314-.948-.314h-.06l-.029-.054C7.955 1.097 7.774.89 7.49.92a.838.838 0 0 0-.25.074c-.052.023-.141.073-.196.073a.21.21 0 0 1-.084-.018c-.048-.02-.084-.058-.132-.08a.775.775 0 0 0-.302-.046.413.413 0 0 0-.206.06c-.06.032-.127.084-.197.084a.21.21 0 0 1-.085-.018c-.048-.02-.084-.058-.132-.08a.775.775 0 0 0-.302-.046.413.413 0 0 0-.205.06c-.06.032-.128.084-.198.084a.21.21 0 0 1-.085-.018c-.047-.02-.083-.058-.131-.08A.775.775 0 0 0 4.68.922c-.268 0-.533.265-.533.533v1.08h-.892V.534C3.256.272 2.984 0 2.723 0H1.686c-.269 0-.534.265-.534.534v1.31H.534c-.262 0-.534.272-.534.533v2.42c0 .261.272.533.534.533h.618v1.31c0 .265.269.534.534.534h1.037c.261 0 .533-.272.533-.534V4.64h.698l.018.077c.026.111.067.22.098.33a1.4 1.4 0 0 0 .275.52c.062.076.127.15.19.225.074.087.144.175.208.27.047.069.048.196.046.277a4.056 4.056 0 0 1-.026.37c-.012.11-.025.22-.04.33-.009.072-.02.146-.026.218L4.47 9.62a11.41 11.41 0 0 0-.033.395c-.004.06-.01.119-.017.178a2.022 2.022 0 0 0-.012.22c0 .218.228.447.447.447H8.08c.228 0 .42-.219.446-.434.004-.03.002-.065 0-.094a5.686 5.686 0 0 0-.04-.383c-.022-.168-.033-.336-.047-.503l-.1-.993zM5.086 6.08c-.03-.089-.289-.397-.345-.467a6.934 6.934 0 0 1-.218-.278 1.07 1.07 0 0 1-.143-.24c-.036-.102-.06-.217-.107-.313l-.068-.143H6.87c.156 0 .31.003.465.008l.315.012c.097.003.231.01.323-.026a.496.496 0 0 0 .14-.09c.076-.066.15-.142.22-.213.078-.078.223-.19.223-.311 0-.14.003-.278.007-.417.003-.108.007-.216.006-.323 0-.137-.007-.296-.069-.42-.071-.142-.215-.235-.351-.307l-.054-.028v-.89l.109.01c.496.041.87.267 1.09.717.066.135.154.327.154.477v1.584a.478.478 0 0 1-.025.152.782.782 0 0 1-.225.313c-.104.097-.218.185-.324.28-.066.058-.135.114-.203.17l-.274.228c-.097.082-.193.164-.287.249-.055.05-.13.114-.174.173a.425.425 0 0 0-.086.198.918.918 0 0 0 .005.246c.012.106.029.211.036.316l.265 2.73c.03.314.082.62.082.936 0 .131-.164.187-.273.187H4.912a.203.203 0 0 1-.122-.039c-.102-.074-.103-.228-.097-.342.007-.144.031-.29.047-.433.006-.06.012-.122.015-.183V9.6l.332-3.52zM4.41 2.81V1.541c0-.193.131-.352.33-.352.2 0 .33.159.33.352v1.325a.34.34 0 0 1-.355.347.302.302 0 0 1-.218-.116.46.46 0 0 1-.087-.289zm1.252.416c-.18 0-.33-.187-.33-.36V1.543c0-.193.13-.352.33-.352.199 0 .33.159.33.352v1.267c0 .195-.11.417-.33.417zm1.513-.36V1.6c0-.102.021-.21.085-.293a.299.299 0 0 1 .218-.118c.202-.015.358.157.358.354v1.267a.46.46 0 0 1-.087.29.302.302 0 0 1-.219.115.34.34 0 0 1-.355-.347zm-.922 0V1.543c0-.193.131-.352.33-.352.2 0 .33.159.33.352v1.325c0 .193-.13.351-.33.351-.199 0-.33-.158-.33-.351zm1.569 1.512H3.256V2.796h.892v.1c0 .16.046.295.154.415.145.16.33.204.538.164a.991.991 0 0 0 .285-.105c.025-.014.043-.027.075-.027a.21.21 0 0 1 .084.017c.048.02.084.058.132.08.087.04.209.047.302.047.076 0 .14-.024.206-.06.06-.033.127-.084.198-.084a.21.21 0 0 1 .084.017c.048.02.084.058.132.08.087.04.209.047.302.047.076 0 .14-.024.206-.06.06-.033.127-.084.197-.084.05 0 .136.05.183.07.079.035.16.063.247.074.27.033.45-.13.578-.353l.002-.003.137-.206.054-.013.05.023.001.162c0 .173.01.341.018.513a.847.847 0 0 1-.026.314.65.65 0 0 1-.172.245c-.03.03-.058.065-.088.096-.054.057-.123.113-.206.113zm1.887-1.582h.661v1.582h-.66V2.796zm3.298 2.273h-.532V2.104h.1c.068 0 .137-.003.205-.005.16-.004.369-.003.49.117a.334.334 0 0 1 .096.248v2.189c0 .223-.116.416-.36.416zM.26 4.71V2.464c0-.094.027-.182.095-.248.163-.16.486-.112.696-.112h.1V5.07h-.1c-.068 0-.137.004-.205.006-.16.004-.369.002-.491-.117A.334.334 0 0 1 .26 4.71zm1.152 1.844V.62a.36.36 0 0 1 .36-.36h.863a.36.36 0 0 1 .36.36v5.934a.36.36 0 0 1-.36.359h-.864a.36.36 0 0 1-.359-.36zm9.217 0V.62a.36.36 0 0 1 .36-.36h.864a.36.36 0 0 1 .359.36v5.934a.36.36 0 0 1-.36.359h-.864a.36.36 0 0 1-.359-.36z"/>
</svg>
