<svg xmlns="http://www.w3.org/2000/svg" width="100%" height="100%" fill-rule="evenodd" clip-rule="evenodd" image-rendering="optimizeQuality" shape-rendering="geometricPrecision" text-rendering="geometricPrecision" version="1.1" viewBox="0 0 1.03 1.284" xml:space="preserve">
  <path fill="#fefefe" d="M.178 0h.67C.87 0 .89.02.89.043v.19C.89.243.883.25.874.25H.152A.017.017 0 0 1 .135.233v-.19C.135.02.155 0 .178 0zm.005.048v.153h.66V.048h-.66zM.19.25v.002C.19.29.136.306.105.329.045.374 0 .414 0 .537v.59c0 .094.05.157.135.157h.76c.084 0 .135-.063.135-.157v-.59C1.03.414.985.374.925.329.895.306.84.29.84.252V.25H.79v.002C.791.3.828.328.867.35c.01.006.02.011.029.018.066.05.085.081.085.169v.59c0 .057-.022.109-.086.109h-.76c-.064 0-.087-.052-.087-.11v-.59c0-.087.02-.119.086-.168C.143.361.154.356.164.35.19.334.218.316.231.285A.087.087 0 0 0 .238.252V.25H.19z"/>
  <path fill="none" stroke="#fefefe" stroke-miterlimit="22.926" stroke-width=".039" d="M.298.804C.256.804.234.798.275.748L.564.401C.624.33.622.388.613.445L.585.62C.577.67.583.661.629.661h.094c.053 0 .016.048 0 .067l-.299.346c-.05.06-.076.052-.059-.02l.05-.212C.422.815.425.805.391.805L.298.804z"/>
</svg>
