<svg xmlns="http://www.w3.org/2000/svg" width="100%" height="100%" fill-rule="evenodd" clip-rule="evenodd" image-rendering="optimizeQuality" shape-rendering="geometricPrecision" text-rendering="geometricPrecision" version="1.1" viewBox="0 0 1.37 1.506" xml:space="preserve">
  <path fill="none" stroke="#fe4f32" stroke-linecap="round" stroke-linejoin="round" stroke-miterlimit="22.926" stroke-width=".037" d="M.448 1.488v-.233L.22 1.238c-.048-.004-.091-.064-.091-.112V.913h-.07C.024.913.007.863.024.836L.17.609a.591.591 0 1 1 1.027.4c-.061.064-.09.137-.073.209l.058.263M.647.897A.31.31 0 0 1 .59.868L.54.925.472.865l.05-.057A.313.313 0 0 1 .48.75l-.07.025L.38.688.45.664a.314.314 0 0 1-.005-.07L.372.581.39.49l.074.013a.311.311 0 0 1 .03-.063L.434.393l.06-.07.057.048a.313.313 0 0 1 .057-.04L.583.261.669.23.695.3A.311.311 0 0 1 .72.296m.152.019a.31.31 0 0 1 .054.027L.975.286l.07.06-.05.057a.313.313 0 0 1 .04.057l.07-.024.03.086-.07.025a.314.314 0 0 1 .005.07l.073.013-.016.09-.074-.013a.31.31 0 0 1-.03.062l.057.049-.059.07L.964.84a.313.313 0 0 1-.057.04l.026.07L.847.98.82.911a.313.313 0 0 1-.026.004"/>
  <path fill="#fe4f32" d="M.728.672H.58L.857.127.79.531H.94l-.273.536.061-.395zm.002.2L.887.564H.751L.79.33.633.64h.133L.73.872z"/>
</svg>
