<svg xmlns="http://www.w3.org/2000/svg" width="100%" height="100%" fill-rule="evenodd" clip-rule="evenodd" image-rendering="optimizeQuality" shape-rendering="geometricPrecision" text-rendering="geometricPrecision" version="1.1" viewBox="0 0 1.675 1.486" xml:space="preserve">
  <path fill="none" stroke="#fe4f32" stroke-linecap="round" stroke-linejoin="round" stroke-miterlimit="22.926" stroke-width=".037" d="M1.085 1.454a.255.255 0 0 0-.156-.21C.88 1.222.83 1.168.786 1.08M.406.864c-.065.117.183.277.426.208.066-.019.105-.038.151-.051.144-.041.261-.062.405-.123.292.03.37-.367.113-.532-.093-.03-.23.075-.178.167M1.135.212C1.163.066 1.015.025.814.019.608.013.463.06.365.146M1.49.36c.004-.136-.207-.31-.394-.28M.451.243C.447.19.406.162.347.146.137.267.006.436.02.665.034.917.194.996.415.97M.182.278c.045.04.046.092.025.16-.026.085.001.144.061.17M.221.388c.04.066.088.09.147.07M.12.616c-.01.07.017.114.086.127.07.012.093.057.088.126M.718.14A.166.166 0 0 1 .807.02m.568.369c-.023-.05-.073-.066-.138-.062m-.03.634c-.032-.17.023-.23.147-.206C1.4.723 1.42.673 1.43.617m.1.113c-.036-.022-.08-.025-.12-.038m-.503.355c.085.147.201.25.441.134.154-.075.172-.186.154-.301m-.176.226c-.127.046-.236.008-.333-.08m.403-.029a.409.409 0 0 1-.283-.009m.039.238c.023.08.033.161.027.242"/>
  <path fill="#fe4f32" d="M.621.28h.043V.222c0-.01.008-.018.018-.018C.692.204.7.212.7.222V.28h.043V.222c0-.01.008-.018.018-.018.01 0 .018.008.018.018V.28h.043V.222c0-.01.009-.018.019-.018s.018.008.018.018V.28h.043V.222C.902.212.91.204.92.204c.01 0 .018.008.018.018V.28H.98V.222c0-.01.008-.018.018-.018.01 0 .018.008.018.018V.28c.04.003.071.035.074.075h.058c.01 0 .019.008.019.018 0 .01-.009.018-.019.018h-.057v.043h.057c.01 0 .019.008.019.018 0 .01-.009.018-.019.018h-.057v.043h.057c.01 0 .019.008.019.018 0 .01-.009.018-.019.018h-.057v.043h.057c.01 0 .019.008.019.018 0 .01-.009.018-.019.018h-.057v.043h.057c.01 0 .019.009.019.018 0 .01-.009.019-.019.019h-.057V.75h.057c.01 0 .019.008.019.018 0 .01-.009.018-.019.018h-.058a.082.082 0 0 1-.074.074V.92c0 .01-.008.018-.018.018A.018.018 0 0 1 .981.92V.861H.938V.92C.938.93.93.937.92.937A.018.018 0 0 1 .902.92V.861H.859V.92C.859.93.85.937.84.937A.018.018 0 0 1 .822.92V.861H.78V.92C.78.93.771.937.761.937A.018.018 0 0 1 .743.92V.861H.7V.92C.7.93.692.937.682.937A.018.018 0 0 1 .664.92V.861H.621V.92c0 .01-.008.018-.018.018A.018.018 0 0 1 .585.92V.861A.082.082 0 0 1 .51.787H.452A.018.018 0 0 1 .434.769C.434.759.443.75.452.75H.51V.708H.452A.018.018 0 0 1 .434.689c0-.01.009-.018.018-.018H.51V.628H.452A.018.018 0 0 1 .434.61C.434.6.443.592.452.592H.51V.55H.452a.018.018 0 0 1 0-.036H.51V.47H.452a.018.018 0 0 1 0-.036H.51V.39H.452A.018.018 0 0 1 .434.373c0-.01.009-.018.018-.018H.51A.082.082 0 0 1 .585.28V.222c0-.01.008-.018.018-.018.01 0 .018.008.018.018V.28zm-.03.074h.42c.003 0 .006.003.006.007V.78a.007.007 0 0 1-.007.007H.592A.007.007 0 0 1 .585.78V.361c0-.004.003-.007.007-.007zm.075.06h.27c.012 0 .022.01.022.022v.27c0 .012-.01.022-.022.022h-.27A.023.023 0 0 1 .644.705V.436c0-.012.01-.023.022-.023z"/>
</svg>
