<svg xmlns="http://www.w3.org/2000/svg" width="100%" height="100%" fill-rule="evenodd" clip-rule="evenodd" image-rendering="optimizeQuality" shape-rendering="geometricPrecision" text-rendering="geometricPrecision" version="1.1" viewBox="0 0 1.508 1.379" xml:space="preserve">
  <path fill="none" stroke="#fe4f32" stroke-linecap="round" stroke-linejoin="round" stroke-miterlimit="22.926" stroke-width=".049" d="M.8.053c.131-.022.275-.029.43-.008.039.006.06.03.063.066a.524.524 0 0 0-.005.104c.006.086.087.127.043.25-.012.033-.01.033.012.066.032.049.07.077.106.122.054.055.042.1-.019.118-.04.012-.037.034-.026.053.012.022.046.045.005.074.05.092-.056.085-.042.132.027.088.003.138-.077.13l-.074-.007c-.098-.01-.15.074-.145.202M1.41.898a.459.459 0 0 1-.14.007M.52.927c.048.105.056.244.022.418M.436.025a.412.412 0 0 1 .34.645l.042.14L.679.77A.412.412 0 1 1 .436.024zM.208.488c.095.158.352.16.453 0M.269.298c.008.048.098.043.109 0m.113 0C.499.346.589.34.6.298"/>
</svg>
