<svg xmlns="http://www.w3.org/2000/svg" width="100%" height="100%" fill-rule="evenodd" clip-rule="evenodd" image-rendering="optimizeQuality" shape-rendering="geometricPrecision" text-rendering="geometricPrecision" version="1.1" viewBox="0 0 1.707 1.783" xml:space="preserve">
  <path fill="none" stroke="#fefefe" stroke-miterlimit="22.926" stroke-width=".046" d="M1.037 1.145l.081-.086-.043-.045A.507.507 0 0 0 1.15.767c.064.02.1-.05.117-.188a1.356 1.356 0 0 0-.092-.383C1.089-.035.907-.016.84.141L.78.07.11.647.17.72c-.174-.012-.208.214-.025.333.114.074.246.13.404.15.12.014.178-.024.174-.071a.64.64 0 0 0 .266-.041l.048.055zM.205.775c.127.152.242.264.335.309M.915.199c.123.156.209.29.233.392m-.182.578c-.001.08.012.164.038.275m.118.163l-.168-.133-.061.09.169.125.06-.082zm.02-.054l.178-.096.12-.159-.037-.104-.157-.118-.04-.004m-.041.608l.054.07.456-.394-.08-.095-.058.02"/>
  <path fill="#fefefe" fill-rule="nonzero" d="M.806.854L.589.587.54.668.484.599.54.487.605.435l.284.352z"/>
</svg>
