<svg xmlns="http://www.w3.org/2000/svg" width="100%" height="100%" fill-rule="evenodd" clip-rule="evenodd" image-rendering="optimizeQuality" shape-rendering="geometricPrecision" text-rendering="geometricPrecision" version="1.1" viewBox="0 0 4.168 3.48" xml:space="preserve">
  <defs>
    <style type="text/css">
      .fil0,.fil1{fill:#000}.fil1{fill-rule:nonzero}
    </style>
  </defs>
  <g id="Camada_x0020_1">
    <g id="_1914333773872">
      <path d="M0 .489L.552 0l.552.489H.931v.624l-.11.064-.083-.049-.094.055v.123l-.125.072-.11-.064-.11.064-.125-.072V.489H0zM.38.384H.75v.11h-.13v.324H.51V.494H.38v-.11zm-.081.746l.045.026.045.026v.103l-.045.026-.045.026-.045-.026-.045-.026v-.103l.045-.026.045-.026zm.22 0l.045.026.045.026v.103l-.045.026-.045.026-.045-.026-.045-.026v-.103l.045-.026.045-.026zM.623.947l.045.026.044.026v.104l-.044.026-.045.026-.045-.026-.045-.026V.999L.578.973.623.947zm.199.019l.037.02.037.022V1.093l-.037.022-.037.02-.037-.02-.037-.022V1.008L.785.987.822.966zM.822 2.973l.037.022.037.02v.086l-.037.021-.037.021-.037-.02L.748 3.1V3.016l.037-.021.037-.022zm-.2-.018l.046.026.044.025v.104l-.044.026-.045.026-.045-.026-.045-.026v-.104l.045-.025.045-.026zm-.103.182l.045.026.045.026v.104l-.045.026-.045.026-.045-.026-.045-.026v-.104l.045-.026.045-.026zm-.22 0l.045.026.045.026v.104l-.045.026-.045.026-.045-.026-.045-.026v-.104l.045-.026.045-.026zM0 2.497l.552-.49.552.49H.931v.624l-.11.063-.083-.048-.094.055v.122l-.125.073-.11-.064-.11.064-.125-.073V2.497H0zm.445.022v-.034l-.002-.007-.008-.002h-.08c-.004 0-.006 0-.008.002l-.002.007v.183c0 .006.004.01.01.01h.08c.006 0 .01-.004.01-.01V2.62H.387v-.066h.138v.126c0 .044-.023.067-.067.067H.332c-.045 0-.067-.023-.067-.067v-.206c0-.045.022-.067.067-.067h.126c.044 0 .067.022.067.067v.045h-.08zm.124.228v-.34h.08v.13h.11v-.13h.08v.34H.76v-.139h-.11v.139H.57z" class="fil0"/>
      <path d="M1.816.632V.495h-.148V.363h.148V.226h.131v.137h.148v.132h-.148v.137z" class="fil1"/>
      <path id="1" d="M2.806.673h-.11v.155h-.15V.673h-.347L2.167.544l.385-.471h.145v.462h.109v.138zM2.358.535h.188V.298l-.188.237z" class="fil1"/>
      <path id="2" d="M3.034.595v.004l.002.06c.002.013.004.02.007.024.003.003.007.005.013.005h.19c.005 0 .01-.002.013-.005.002-.003.005-.011.006-.024a.587.587 0 0 0-.006-.143C3.256.512 3.25.51 3.246.51h-.18V.373h.171c.009 0 .014-.005.017-.014A.296.296 0 0 0 3.26.293a.296.296 0 0 0-.005-.066c-.003-.01-.008-.014-.017-.014h-.173c-.008 0-.014.005-.017.014a.296.296 0 0 0-.004.066v.013h-.155V.28c0-.078.011-.132.035-.162.024-.03.062-.046.116-.046h.224c.053 0 .092.015.115.045.024.03.036.082.036.157 0 .05-.005.087-.015.11a.114.114 0 0 1-.053.057.11.11 0 0 1 .06.056.306.306 0 0 1 .016.12c0 .078-.011.133-.035.163-.024.031-.062.047-.115.047H3.03c-.053 0-.092-.016-.115-.047-.024-.03-.036-.085-.036-.163V.595h.155z" class="fil1"/>
      <path id="3" d="M3.595.073h.093c.027 0 .046.006.058.017.011.012.017.031.017.058v.147c0 .027-.006.047-.017.058-.012.012-.03.018-.058.018h-.093c-.027 0-.046-.006-.058-.018C3.525.34 3.52.322 3.52.295V.148c0-.027.005-.046.017-.058.011-.011.03-.017.058-.017zm.453 0l-.35.755h-.125l.35-.755h.125zm-.363.205V.166c0-.007-.002-.012-.004-.015-.003-.003-.008-.005-.016-.005h-.047c-.008 0-.013.002-.016.005-.003.003-.004.008-.004.015v.112c0 .007.001.012.004.015.003.003.008.004.016.004h.047c.008 0 .013-.001.016-.004.002-.003.004-.008.004-.015zm.249.252h.092c.028 0 .047.006.059.017.011.012.017.031.017.059v.146c0 .028-.006.047-.017.059-.012.011-.031.017-.059.017h-.092c-.027 0-.046-.006-.058-.018-.012-.012-.018-.031-.018-.058V.606c0-.028.006-.047.017-.059.012-.011.031-.017.059-.017zm.09.205V.623c0-.007-.002-.012-.005-.015-.002-.003-.007-.004-.015-.004h-.048c-.008 0-.013.001-.015.004-.003.003-.004.008-.004.015v.112c0 .007.001.012.004.015.002.003.007.005.015.005h.048c.008 0 .013-.002.015-.005.003-.003.004-.008.004-.015z" class="fil1"/>
      <path d="M1.783 1.108h-.066v.197h-.049v-.197h-.066v-.044h.181z" class="fil1"/>
      <path id="1" d="M1.819 1.064h.162v.045h-.113v.05h.092v.045h-.092v.055h.113v.046h-.162z" class="fil1"/>
      <path id="2" d="M2.138 1.14v-.025l-.001-.005-.006-.002h-.059c-.003 0-.004.001-.005.002l-.002.005v.027c0 .004 0 .006.003.008a.02.02 0 0 0 .009.004l.064.013a.08.08 0 0 1 .037.017c.008.007.013.018.013.033v.04c0 .032-.016.048-.049.048h-.079c-.032 0-.048-.016-.048-.048v-.03h.048v.026c0 .003 0 .005.002.006l.005.001h.064l.005-.001.002-.006v-.029c0-.003 0-.006-.002-.007a.022.022 0 0 0-.01-.004l-.064-.014a.079.079 0 0 1-.037-.017c-.008-.007-.013-.018-.013-.033v-.037c0-.032.017-.048.049-.048h.074c.032 0 .048.016.048.048v.027h-.048z" class="fil1"/>
      <path id="3" d="M2.396 1.108h-.065v.197h-.05v-.197h-.065v-.044h.18z" class="fil1"/>
      <path id="4" d="M2.56 1.305h-.09c-.032 0-.048-.016-.048-.048v-.145c0-.032.016-.048.049-.048h.088c.032 0 .048.016.048.048v.145c0 .032-.016.048-.048.048zm-.088-.189v.137l.001.005.006.001h.072l.005-.001.002-.005v-.137c0-.003 0-.004-.002-.005l-.005-.002h-.072c-.003 0-.005 0-.006.002l-.001.005z" class="fil1"/>
      <path id="5" d="M2.772 1.14v-.025l-.001-.005-.006-.002h-.059c-.003 0-.004.001-.005.002l-.002.005v.027c0 .004 0 .006.002.008a.02.02 0 0 0 .01.004l.064.013a.08.08 0 0 1 .037.017c.008.007.013.018.013.033v.04c0 .032-.017.048-.049.048h-.079c-.032 0-.048-.016-.048-.048v-.03h.048v.026c0 .003 0 .005.002.006l.005.001h.064l.005-.001.002-.006v-.029c0-.003 0-.006-.002-.007a.022.022 0 0 0-.01-.004L2.7 1.199a.079.079 0 0 1-.037-.017c-.008-.007-.013-.018-.013-.033v-.037c0-.032.017-.048.049-.048h.074c.032 0 .048.016.048.048v.027h-.048z" class="fil1"/>
      <path id="6" d="M3.03 1.108h-.065v.197h-.05v-.197H2.85v-.044h.18z" class="fil1"/>
      <path id="7" d="M3.066 1.064h.163v.045h-.113v.05h.091v.045h-.091v.055h.113v.046h-.163z" class="fil1"/>
      <path id="8" d="M3.455 1.305h-.053l-.04-.085h-.04v.085h-.05v-.241H3.4c.032 0 .048.016.048.048v.058c0 .027-.011.043-.034.047l.041.088zm-.133-.13H3.397l.001-.006v-.054l-.001-.005-.006-.002h-.069v.068z" class="fil1"/>
      <path id="9" d="M3.627 1.305H3.54c-.032 0-.048-.016-.048-.048v-.145c0-.032.016-.048.048-.048h.088c.033 0 .049.016.049.048v.145c0 .032-.016.048-.049.048zm-.087-.189v.137c0 .002 0 .004.002.005l.005.001h.072l.005-.001c.002-.001.002-.003.002-.005v-.137c0-.003 0-.004-.002-.005 0-.001-.002-.002-.005-.002h-.072c-.002 0-.004 0-.005.002l-.002.005z" class="fil1"/>
      <path id="10" d="M3.867 1.064h.049v.241h-.049l-.094-.161v.161h-.049v-.241h.052l.091.155z" class="fil1"/>
      <path id="11" d="M4.102 1.253h-.086l-.015.052h-.053l.074-.241h.072l.074.24h-.05l-.016-.051zm-.014-.046l-.031-.101-.029.101h.06z" class="fil1"/>
      <g>
        <path d="M1.85 2.472v-.137h-.148v-.131h.148v-.137h.131v.137h.148v.131h-.148v.137z" class="fil1"/>
        <path id="1" d="M2.394 2.435v.005l.002.06c.002.012.004.02.007.023.003.004.007.005.013.005h.19c.005 0 .01-.001.013-.005.002-.003.005-.01.006-.023a.587.587 0 0 0-.006-.144c-.003-.003-.008-.005-.013-.005h-.18v-.138h.171c.009 0 .014-.004.017-.013a.296.296 0 0 0 .005-.067.296.296 0 0 0-.005-.066c-.003-.009-.008-.013-.017-.013h-.173c-.008 0-.014.004-.017.013a.296.296 0 0 0-.004.066v.013h-.155v-.024c0-.078.011-.132.035-.163.024-.03.062-.046.116-.046h.224c.053 0 .092.015.115.045.024.03.036.082.036.157 0 .05-.005.087-.015.111a.114.114 0 0 1-.053.056.11.11 0 0 1 .06.056.306.306 0 0 1 .016.12c0 .078-.011.133-.035.164-.024.03-.062.046-.115.046H2.39c-.053 0-.092-.015-.115-.046-.024-.03-.036-.086-.036-.164v-.023h.155z" class="fil1"/>
        <path id="2" d="M3.408 2.025l-.326.643h-.17l.316-.614h-.373v-.141h.553z" class="fil1"/>
        <path id="3" d="M3.561 1.913h.093c.027 0 .047.006.058.018.012.011.017.03.017.058v.147c0 .027-.005.046-.017.058-.011.011-.03.017-.058.017H3.56c-.027 0-.046-.006-.058-.018-.012-.012-.017-.03-.017-.057v-.147c0-.027.005-.047.017-.058.011-.012.03-.018.058-.018zm.453 0l-.35.755H3.54l.35-.755h.125zm-.363.205v-.112c0-.007-.002-.012-.004-.015-.003-.003-.008-.004-.016-.004h-.047c-.008 0-.013.001-.016.004-.002.003-.004.008-.004.015v.112c0 .008.002.013.004.015.003.003.008.005.016.005h.047c.008 0 .013-.002.016-.005.002-.002.004-.007.004-.015zm.249.253h.092c.028 0 .047.005.059.017.011.011.017.03.017.058v.147c0 .027-.006.047-.017.058-.012.012-.031.017-.059.017H3.9c-.027 0-.046-.006-.058-.017-.012-.012-.018-.032-.018-.058v-.147c0-.027.006-.047.017-.058.012-.012.031-.017.059-.017zm.09.205v-.113c0-.007-.002-.012-.005-.015-.002-.003-.007-.004-.015-.004h-.048c-.008 0-.013.001-.015.004-.003.003-.004.008-.004.015v.113c0 .007.001.012.004.015.002.003.007.004.015.004h.048c.008 0 .013-.001.015-.004.003-.003.004-.008.004-.015z" class="fil1"/>
        <path d="M1.748 3.145v-.241h.05v.095h.085v-.095h.05v.241h-.05v-.1h-.085v.1z" class="fil1"/>
        <path id="1" d="M2.118 3.145H2.03c-.032 0-.048-.016-.048-.048v-.145c0-.032.016-.048.048-.048h.088c.033 0 .049.016.049.048v.145c0 .032-.016.048-.049.048zm-.087-.188v.136c0 .003 0 .004.002.005l.005.002h.072c.003 0 .004 0 .005-.002.002 0 .002-.002.002-.005v-.136c0-.003 0-.005-.002-.006L2.11 2.95h-.072l-.005.001-.002.006z" class="fil1"/>
        <path id="2" d="M2.398 3.145h-.053l-.04-.085h-.04v.085h-.05v-.24h.127c.033 0 .049.015.049.047v.059c0 .027-.011.042-.034.047l.041.087zm-.133-.129h.07l.005-.001.001-.006v-.053L2.34 2.95c-.001-.002-.003-.002-.006-.002h-.07v.067z" class="fil1"/>
        <path id="3" d="M2.677 2.904v.241h-.049v-.153l-.052.121h-.037l-.052-.122v.154h-.048v-.241h.055l.061.142.067-.142z" class="fil1"/>
        <path id="4" d="M2.797 2.881l.02-.021.022.021h.044l-.044-.044h-.042l-.045.044h.045zm.065.264h-.089c-.032 0-.048-.016-.048-.048v-.145c0-.032.016-.048.048-.048h.089c.032 0 .048.016.048.048v.145c0 .032-.016.048-.048.048zm-.087-.188v.136l.001.005.006.002h.072c.002 0 .004 0 .005-.002.001 0 .002-.002.002-.005v-.136c0-.003 0-.005-.002-.006l-.005-.001h-.072l-.006.001-.001.006z" class="fil1"/>
        <path id="5" d="M3.102 2.904h.048v.241h-.048l-.095-.161v.161h-.048v-.241h.052l.091.156z" class="fil1"/>
        <path id="6" d="M3.205 3.145v-.241h.049v.241z" class="fil1"/>
        <path id="7" d="M3.44 3.145H3.35c-.032 0-.048-.016-.048-.048v-.145c0-.032.016-.048.048-.048h.089c.032 0 .048.016.048.048v.145c0 .032-.016.048-.048.048zm-.087-.188v.136l.001.005.005.002h.072c.003 0 .005 0 .006-.002l.001-.005v-.136l-.001-.006-.006-.001H3.36l-.005.001-.001.006z" class="fil1"/>
        <path id="8" d="M3.62 2.904h.131c.033 0 .049.016.049.048v.145c0 .032-.016.048-.049.048H3.62v-.24zm.049.196h.074c.003 0 .004 0 .005-.002.001 0 .002-.002.002-.005v-.136c0-.003 0-.005-.002-.006l-.005-.001H3.67v.15z" class="fil1"/>
        <path id="9" d="M3.98 3.145h-.09c-.032 0-.048-.016-.048-.048v-.145c0-.032.016-.048.049-.048h.088c.032 0 .049.016.049.048v.145c0 .032-.017.048-.049.048zm-.088-.188v.136c0 .003 0 .004.002.005 0 .001.002.002.005.002h.072c.003 0 .004 0 .005-.002.001 0 .002-.002.002-.005v-.136c0-.003 0-.005-.002-.006l-.005-.001h-.072l-.005.001-.002.006z" class="fil1"/>
        <path id="10" d="M1.863 3.48h-.08c-.032 0-.048-.016-.048-.049v-.144c0-.033.016-.049.049-.049h.08c.032 0 .048.016.048.049v.039h-.05V3.29l-.001-.006-.006-.001h-.063l-.006.001-.001.006v.136l.001.006.006.001h.063l.006-.001.001-.006v-.035h.05v.04c0 .032-.016.048-.049.048z" class="fil1"/>
        <path id="11" d="M2.139 3.48h-.054l-.04-.086h-.04v.086h-.05v-.242h.128c.032 0 .048.016.048.049v.058c0 .027-.01.043-.033.047l.04.088zm-.133-.13h.069l.005-.001.002-.006V3.29c0-.003 0-.004-.002-.005l-.005-.002h-.07v.067z" class="fil1"/>
        <path id="12" d="M2.18 3.238h.162v.046H2.23v.05h.091v.045H2.23v.055h.112v.046H2.18z" class="fil1"/>
        <path id="13" d="M2.5 3.314V3.29l-.002-.005-.005-.002h-.06c-.002 0-.004 0-.005.002l-.002.005v.027c0 .003.001.006.003.007a.02.02 0 0 0 .01.004l.063.014a.08.08 0 0 1 .038.016c.008.008.012.019.012.034v.04c0 .032-.016.048-.048.048h-.08c-.032 0-.048-.016-.048-.049v-.03h.048v.027c0 .002 0 .004.002.005l.005.002h.064c.003 0 .005 0 .006-.002l.001-.005v-.029c0-.004 0-.006-.002-.008a.022.022 0 0 0-.01-.004l-.064-.014a.079.079 0 0 1-.037-.016c-.008-.007-.012-.018-.012-.033v-.037c0-.033.016-.049.048-.049H2.5c.032 0 .048.016.048.049v.027H2.5z" class="fil1"/>
        <path id="14" d="M2.722 3.48h-.08c-.033 0-.049-.016-.049-.049v-.144c0-.033.016-.049.049-.049h.08c.032 0 .048.016.048.049v.039h-.05V3.29l-.001-.006-.006-.001H2.65l-.006.001-.001.006v.136l.001.006.006.001h.063l.006-.001.001-.006v-.035h.05v.04c0 .032-.016.048-.048.048z" class="fil1"/>
        <path id="15" d="M2.814 3.48v-.242h.05v.242z" class="fil1"/>
        <path id="16" d="M3.155 3.238v.242h-.049v-.154l-.052.122h-.036l-.052-.123v.155h-.048v-.242h.054l.061.142.068-.142z" class="fil1"/>
        <path id="17" d="M3.21 3.238h.162v.046h-.113v.05h.092v.045h-.092v.055h.113v.046H3.21z" class="fil1"/>
        <path id="18" d="M3.559 3.238h.048v.242h-.048l-.095-.161v.161h-.048v-.242h.052l.091.156z" class="fil1"/>
        <path id="19" d="M3.824 3.283h-.066v.197h-.05v-.197h-.065v-.045h.181z" class="fil1"/>
        <path id="20" d="M3.986 3.48h-.088c-.032 0-.049-.016-.049-.049v-.144c0-.033.017-.049.049-.049h.088c.033 0 .049.016.049.049v.144c0 .033-.016.049-.049.049zM3.9 3.29v.137c0 .003 0 .005.002.006l.005.001h.072l.005-.001.002-.006v-.136c0-.003 0-.005-.002-.006l-.005-.001h-.072l-.005.001-.002.006z" class="fil1"/>
      </g>
    </g>
  </g>
</svg>
