<?xml version="1.0" encoding="UTF-8"?>
<!DOCTYPE svg PUBLIC "-//W3C//DTD SVG 1.1//EN" "http://www.w3.org/Graphics/SVG/1.1/DTD/svg11.dtd">
<!-- Creator: CorelDRAW 2017 -->
<svg xmlns="http://www.w3.org/2000/svg" xml:space="preserve" width="100%" height="100%" version="1.1" style="shape-rendering:geometricPrecision; text-rendering:geometricPrecision; image-rendering:optimizeQuality; fill-rule:evenodd; clip-rule:evenodd"
viewBox="0 0 13.62576 10.86061"
 xmlns:xlink="http://www.w3.org/1999/xlink">
 <defs>
  <style type="text/css">
   <![CDATA[
    .fil0 {fill:#FE4F32}
   ]]>
  </style>
 </defs>
 <g id="Camada_x0020_1">
  <metadata id="CorelCorpID_0Corel-Layer"/>
  <path class="fil0" d="M8.33909 8.45417c-0.02059,-0.14659 -0.03555,-0.29463 -0.04962,-0.44198 -0.01673,-0.17516 -0.03159,-0.35053 -0.04659,-0.52586 -0.0156,-0.18241 -0.03112,-0.36489 -0.04894,-0.5471 -0.01448,-0.14816 -0.02987,-0.29764 -0.05231,-0.44481 -0.01704,-0.1118 -0.0372,-0.24783 0.02247,-0.35055 0.03852,-0.0663 0.10445,-0.11187 0.16512,-0.1563 0.09438,-0.06911 0.18037,-0.13828 0.26534,-0.21921 0.07745,-0.07377 0.16277,-0.14296 0.24547,-0.21083 0.10278,-0.08435 0.20608,-0.16803 0.3074,-0.25414 0.11417,-0.09702 0.49102,-0.41949 0.50376,-0.57266l0.00764 -0.09171 0.71049 0 0 2.00104c0,0.26532 0.26849,0.53368 0.53368,0.53368l1.03693 0c0.26158,0 0.53368,-0.2721 0.53368,-0.53368l0 -1.30976 0.61847 0c0.26158,0 0.53368,-0.2721 0.53368,-0.53368l0 -2.4195c0,-0.26157 -0.27211,-0.53368 -0.53368,-0.53368l-0.61847 0 0 -1.30976c0,-0.26158 -0.2721,-0.53368 -0.53368,-0.53368l-1.03693 0c-0.26881,0 -0.53368,0.26487 -0.53368,0.53368l0 2.00104 -0.72665 0 -0.01801 -0.07731c-0.0742,-0.31848 -0.26921,-0.54991 -0.50915,-0.76085 -0.25445,-0.2237 -0.61665,-0.31399 -0.94885,-0.31399l-0.06022 0 -0.02817 -0.05323c-0.12289,-0.23224 -0.30382,-0.43899 -0.58882,-0.40972 -0.08744,0.00898 -0.17105,0.03779 -0.25105,0.0731 -0.05169,0.02282 -0.14046,0.07302 -0.19509,0.07302 -0.02941,0 -0.05743,-0.00563 -0.08442,-0.01733 -0.04781,-0.02071 -0.08372,-0.05805 -0.13189,-0.0803 -0.08663,-0.04002 -0.2087,-0.04639 -0.30216,-0.04639 -0.07598,0 -0.13994,0.02339 -0.20557,0.05958 -0.05977,0.03295 -0.12739,0.08444 -0.19768,0.08444 -0.02941,0 -0.05742,-0.00563 -0.08441,-0.01733 -0.04781,-0.02071 -0.08372,-0.05805 -0.13189,-0.0803 -0.08663,-0.04002 -0.20871,-0.04639 -0.30217,-0.04639 -0.07598,0 -0.13994,0.02339 -0.20557,0.05958 -0.05976,0.03295 -0.12739,0.08444 -0.19768,0.08444 -0.02941,0 -0.05742,-0.00563 -0.08442,-0.01733 -0.0478,-0.02071 -0.08371,-0.05805 -0.13188,-0.0803 -0.08662,-0.04002 -0.2087,-0.04639 -0.30216,-0.04639 -0.26881,0 -0.53368,0.26487 -0.53368,0.53368l0 1.07932 -0.89129 0 0 -2.00104c0,-0.26157 -0.27211,-0.53368 -0.53368,-0.53368l-1.03693 0c-0.26882,0 -0.53368,0.26486 -0.53368,0.53368l0 1.30976 -0.61847 0c-0.26157,0 -0.53368,0.27211 -0.53368,0.53368l0 2.4195c0,0.26158 0.2721,0.53368 0.53368,0.53368l0.61847 0 0 1.30976c0,0.26532 0.26848,0.53368 0.53368,0.53368l1.03693 0c0.26157,0 0.53368,-0.27211 0.53368,-0.53368l0 -2.00104 0.69786 0 0.018 0.07732c0.02586,0.11104 0.06633,0.21912 0.09739,0.32895 0.05732,0.20261 0.14465,0.35671 0.2754,0.51989 0.06157,0.07685 0.12724,0.15045 0.19082,0.22563 0.07346,0.08688 0.1434,0.17529 0.20708,0.26967 0.04684,0.06944 0.04764,0.19652 0.0465,0.27795 -0.00172,0.12297 -0.01328,0.24801 -0.02631,0.37029 -0.01172,0.10998 -0.0256,0.21971 -0.03974,0.3294 -0.00927,0.07185 -0.02023,0.14557 -0.02629,0.21769l-0.22846 2.36522c-0.01272,0.13164 -0.02498,0.26319 -0.03312,0.39521 -0.00368,0.05966 -0.01005,0.11832 -0.01643,0.17769 -0.00795,0.074 -0.01218,0.14487 -0.01218,0.21941 0,0.21838 0.22803,0.44727 0.44727,0.44727l3.22601 0c0.22758,0 0.42006,-0.21865 0.44602,-0.43376 0.0035,-0.02903 0.00167,-0.06474 0.0003,-0.09396 -0.00227,-0.04824 -0.00634,-0.09656 -0.01099,-0.14462 -0.0077,-0.07955 -0.0171,-0.15933 -0.02816,-0.2385 -0.02347,-0.16802 -0.03432,-0.33604 -0.04831,-0.50323l-0.10001 -0.99237zm-3.25193 -2.37454c-0.03046,-0.08814 -0.28883,-0.39685 -0.34524,-0.46645 -0.07412,-0.09144 -0.14863,-0.18348 -0.21799,-0.2786 -0.05086,-0.06975 -0.11355,-0.15879 -0.14289,-0.24011 -0.03651,-0.10118 -0.0605,-0.21604 -0.10663,-0.3122l-0.06872 -0.14325 0.15888 0c0.83531,0 1.67061,0 2.50592,0 0.15503,0 0.30992,0.00265 0.46486,0.00778 0.10497,0.00348 0.2099,0.00847 0.31486,0.01183 0.09639,0.0031 0.23085,0.00978 0.3223,-0.02546 0.05219,-0.02012 0.098,-0.05492 0.14013,-0.09102 0.07664,-0.06565 0.14954,-0.14101 0.221,-0.21234 0.07774,-0.0776 0.22268,-0.18905 0.22268,-0.31089 0,-0.13901 0.00315,-0.2778 0.00703,-0.41673 0.00301,-0.10771 0.00673,-0.21582 0.00605,-0.32357 -0.00086,-0.1363 -0.00733,-0.29545 -0.06943,-0.41965 -0.07109,-0.14219 -0.21507,-0.23497 -0.35129,-0.30705l-0.05323 -0.02817 0 -0.88898 0.10829 0.00901c0.4965,0.04132 0.87022,0.26687 1.09035,0.71761 0.0655,0.13412 0.15351,0.32653 0.15351,0.47658l0 1.58421c0,0.05184 -0.00818,0.10264 -0.02456,0.15183 -0.04142,0.12448 -0.13036,0.22472 -0.22461,0.31271 -0.10413,0.09722 -0.2181,0.18483 -0.32475,0.27962 -0.06592,0.05858 -0.13472,0.11501 -0.20259,0.17134 -0.09128,0.07574 -0.18276,0.15124 -0.27363,0.22747 -0.09697,0.08135 -0.19381,0.16349 -0.2877,0.24839 -0.05508,0.04981 -0.12889,0.11479 -0.17373,0.17367 -0.04574,0.06007 -0.07411,0.12329 -0.08577,0.19795 -0.01254,0.08022 -0.005,0.16537 0.00447,0.24556 0.01258,0.10658 0.02901,0.2115 0.036,0.3159l0.26511 2.73048c0.03044,0.31351 0.08201,0.61965 0.08201,0.93624 0,0.13113 -0.16382,0.18641 -0.27282,0.18641l-3.05319 0c-0.04423,0 -0.08646,-0.01184 -0.1223,-0.03826 -0.10147,-0.07481 -0.10292,-0.22856 -0.09695,-0.34216 0.00755,-0.14397 0.03154,-0.2895 0.04713,-0.43304 0.00662,-0.06099 0.01217,-0.12223 0.0148,-0.18353l0.00011 -0.00257 0.33253 -3.52056zm-0.67857 -3.27045l0 -1.26737c0,-0.19283 0.13138,-0.35132 0.33043,-0.35132 0.19904,0 0.33042,0.15849 0.33042,0.35132l0 1.32497c0,0.19574 -0.15668,0.35991 -0.35548,0.34685 -0.08693,-0.0057 -0.16426,-0.04714 -0.21843,-0.11521 -0.0648,-0.08144 -0.08694,-0.18719 -0.08694,-0.28924zm1.25214 0.41683c-0.17955,0 -0.33042,-0.18652 -0.33042,-0.35923l0 -1.32497c0,-0.19283 0.13138,-0.35132 0.33043,-0.35132 0.19904,0 0.33042,0.15849 0.33042,0.35132l0 1.26737c0,0.19469 -0.11025,0.41683 -0.33043,0.41683zm1.51301 -0.35923l0 -1.26736c0,-0.10278 0.02131,-0.21023 0.08522,-0.2933 0.05333,-0.06931 0.1302,-0.11231 0.21768,-0.11848 0.20214,-0.01427 0.35796,0.15714 0.35796,0.35417l0 1.26737c0,0.10205 -0.02214,0.2078 -0.08694,0.28924 -0.05417,0.06807 -0.1315,0.10951 -0.21843,0.11521 -0.1988,0.01306 -0.35549,-0.15111 -0.35549,-0.34685zm-0.92171 0l0 -1.32497c0,-0.19283 0.13138,-0.35132 0.33043,-0.35132 0.19904,0 0.33042,0.15849 0.33042,0.35132l0 1.32497c0,0.19283 -0.13138,0.35132 -0.33043,0.35132 -0.19904,0 -0.33042,-0.15849 -0.33042,-0.35132zm1.56898 1.51138l-4.56457 0 0 -1.58258 0.89129 0 0 0.1c0,0.16024 0.04661,0.29588 0.15447,0.41504 0.14461,0.15977 0.3305,0.20468 0.5373,0.16409 0.07543,-0.0148 0.14964,-0.0401 0.21951,-0.07203 0.02229,-0.01018 0.04424,-0.02111 0.06579,-0.03278 0.02494,-0.0135 0.04326,-0.02704 0.07507,-0.02704 0.02942,0 0.05743,0.00563 0.08443,0.01733 0.0478,0.02071 0.08371,0.05805 0.13188,0.08029 0.08663,0.04002 0.2087,0.04639 0.30216,0.04639 0.07598,0 0.13995,-0.02339 0.20558,-0.05958 0.05976,-0.03295 0.12738,-0.08443 0.19767,-0.08443 0.02941,0 0.05742,0.00563 0.08441,0.01733 0.04781,0.0207 0.08372,0.05804 0.13189,0.08029 0.08663,0.04002 0.20871,0.04639 0.30217,0.04639 0.07598,0 0.13995,-0.02339 0.20558,-0.05958 0.05976,-0.03295 0.12738,-0.08443 0.19767,-0.08443 0.04961,0 0.13551,0.04938 0.18291,0.07044 0.07853,0.03489 0.16072,0.06302 0.24635,0.07357 0.27074,0.03333 0.45027,-0.13026 0.57852,-0.3532l0.00167 -0.0029 0.13735 -0.20557 0.05356 -0.01317 0.04955 0.02304 0.00223 0.16214c0,0.17261 0.00943,0.34089 0.01721,0.51288 0.00469,0.10385 0.00849,0.2138 -0.02586,0.31342 -0.03373,0.09781 -0.09968,0.17449 -0.17228,0.24599 -0.03008,0.02963 -0.05731,0.06465 -0.08702,0.09544 -0.05471,0.05669 -0.12337,0.11322 -0.20649,0.11322zm1.88745 -1.58258l0.66086 0 0 1.58258 -0.66086 0 0 -1.58258zm3.29721 2.27387l-0.53206 0 0 -2.96516 0.1 0c0.06839,0 0.13692,-0.00368 0.2053,-0.00533 0.15994,-0.00384 0.36872,-0.00265 0.49103,0.11659 0.06826,0.06653 0.09496,0.15439 0.09496,0.24798l0 2.18907c0,0.22373 -0.11616,0.41685 -0.35923,0.41685zm-12.74481 -0.35924l0 -2.24668c0,-0.09359 0.0267,-0.18145 0.09496,-0.24798 0.16297,-0.15887 0.48663,-0.11126 0.69633,-0.11126l0.1 0 0 2.96516 -0.1 0c-0.06839,0 -0.13692,0.00368 -0.2053,0.00533 -0.15994,0.00384 -0.36872,0.00265 -0.49103,-0.11659 -0.06826,-0.06653 -0.09496,-0.15439 -0.09496,-0.24798zm1.15215 1.84344l0 -5.93356c0,-0.19756 0.16167,-0.35923 0.35923,-0.35923l0.86411 0c0.19756,0 0.35923,0.16167 0.35923,0.35923l0 5.93356c0,0.19756 -0.16167,0.35923 -0.35923,0.35923l-0.86411 0c-0.19756,0 -0.35923,-0.16167 -0.35923,-0.35923zm9.21717 0l0 -5.93356c0,-0.19756 0.16167,-0.35923 0.35923,-0.35923l0.86411 0c0.19756,0 0.35923,0.16167 0.35923,0.35923l0 5.93356c0,0.19756 -0.16167,0.35923 -0.35923,0.35923l-0.86411 0c-0.19756,0 -0.35923,-0.16167 -0.35923,-0.35923z"/>
 </g>
</svg>
