<?xml version="1.0" encoding="UTF-8"?>
<!DOCTYPE svg PUBLIC "-//W3C//DTD SVG 1.1//EN" "http://www.w3.org/Graphics/SVG/1.1/DTD/svg11.dtd">
<!-- Creator: CorelDRAW 2017 -->
<svg xmlns="http://www.w3.org/2000/svg" xml:space="preserve" width="100%" height="100%" version="1.1" style="shape-rendering:geometricPrecision; text-rendering:geometricPrecision; image-rendering:optimizeQuality; fill-rule:evenodd; clip-rule:evenodd"
viewBox="0 0 4.16762 3.47963"
 xmlns:xlink="http://www.w3.org/1999/xlink">
 <defs>
  <style type="text/css">
   <![CDATA[
    .fil0 {fill:black}
    .fil1 {fill:black;fill-rule:nonzero}
   ]]>
  </style>
 </defs>
 <g id="Camada_x0020_1">
  <metadata id="CorelCorpID_0Corel-Layer"/>
  <g id="_1914333773872">
   <path class="fil0" d="M-0 0.48905l0.5522 -0.48905 0.5522 0.48905 -0.17359 0 0 0.49879 0 0.02549 0 0.10034 -0.10896 0.0629 -0.08347 -0.04819 -0.09448 0.05454 0 0.12276 -0.12513 0.07224 -0.11003 -0.06352 -0.11002 0.06352 -0.12513 -0.07224 0 -0.09094 0 -0.05356 0 -0.67213 -0.17359 0zm0.37968 -0.10521l0.37159 0 0 0.11003 -0.13079 0 0 0.32384 -0.11002 0 0 -0.32384 -0.13078 0 0 -0.11003zm-0.08096 0.7458l0.04494 0.02594 0.04495 0.02595 0 0.0519 0 0.0519 -0.04495 0.02594 -0.04494 0.02595 -0.04494 -0.02595 -0.04495 -0.02594 0 -0.0519 0 -0.0519 0.04495 -0.02595 0.04494 -0.02594zm0.22005 0l0.04494 0.02594 0.04494 0.02595 0 0.0519 0 0.0519 -0.04494 0.02594 -0.04494 0.02595 -0.04494 -0.02595 -0.04495 -0.02594 0 -0.0519 0 -0.0519 0.04495 -0.02595 0.04494 -0.02594zm0.10379 -0.18268l0.04494 0.02595 0.04495 0.02594 0 0.0519 0 0.0519 -0.04495 0.02595 -0.04494 0.02594 -0.04494 -0.02594 -0.04494 -0.02595 0 -0.0519 0 -0.0519 0.04494 -0.02594 0.04494 -0.02595zm0.19929 0.01867l0.03685 0.02128 0.03687 0.02128 0 0.04256 0 0.04256 -0.03687 0.02128 -0.03685 0.02128 -0.03685 -0.02128 -0.03687 -0.02128 0 -0.04256 0 -0.04256 0.03687 -0.02128 0.03685 -0.02128z"/>
   <path class="fil0" d="M0.82185 2.97324l0.03685 0.02128 0.03687 0.02128 0 0.04256 0 0.04256 -0.03687 0.02128 -0.03685 0.02127 -0.03685 -0.02127 -0.03687 -0.02128 0 -0.04256 0 -0.04256 0.03687 -0.02128 0.03685 -0.02128zm-0.19929 -0.01867l0.04494 0.02594 0.04495 0.02595 0 0.0519 0 0.0519 -0.04495 0.02595 -0.04494 0.02594 -0.04494 -0.02594 -0.04494 -0.02595 0 -0.0519 0 -0.0519 0.04494 -0.02595 0.04494 -0.02594zm-0.10379 0.18268l0.04494 0.02594 0.04495 0.02595 0 0.05189 0 0.0519 -0.04495 0.02595 -0.04494 0.02595 -0.04494 -0.02595 -0.04495 -0.02595 0 -0.0519 0 -0.05189 0.04495 -0.02595 0.04494 -0.02594zm-0.22005 0l0.04494 0.02594 0.04495 0.02595 0 0.05189 0 0.0519 -0.04495 0.02595 -0.04494 0.02595 -0.04494 -0.02595 -0.04495 -0.02595 0 -0.0519 0 -0.05189 0.04495 -0.02595 0.04494 -0.02594zm-0.29872 -0.6406l0.5522 -0.48904 0.5522 0.48904 -0.17359 0 0 0.49879 0 0.0255 0 0.10033 -0.10896 0.0629 -0.08347 -0.04818 -0.09448 0.05454 0 0.12276 -0.12513 0.07223 -0.11003 -0.06352 -0.11002 0.06352 -0.12513 -0.07223 0 -0.09094 0 -0.05356 0 -0.67214 -0.17359 0zm0.4445 0.0223l0 -0.0335c0,-0.00356 -0.00064,-0.00598 -0.00194,-0.00729 -0.0013,-0.00129 -0.00372,-0.00193 -0.00728,-0.00193l-0.0806 0c-0.00356,0 -0.00599,0.00064 -0.00728,0.00193 -0.0013,0.00131 -0.00194,0.00373 -0.00194,0.00729l0 0.18255c0,0.00614 0.00307,0.00922 0.00922,0.00922l0.0806 0c0.00614,0 0.00922,-0.00308 0.00922,-0.00922l0 -0.04758 -0.05729 0 0 -0.06652 0.1374 0 0 0.12575c0,0.04466 -0.02234,0.067 -0.067,0.067l-0.12574 0c-0.04467,0 -0.067,-0.02234 -0.067,-0.067l0 -0.20586c0,-0.04466 0.02233,-0.067 0.067,-0.067l0.12574 0c0.04466,0 0.067,0.02234 0.067,0.067l0 0.04516 -0.08011 0zm0.12461 0.2277l0 -0.33986 0.0806 0 0 0.13061 0.10923 0 0 -0.13061 0.0806 0 0 0.33986 -0.0806 0 0 -0.13837 -0.10923 0 0 0.13837 -0.0806 0z"/>
   <g>
    <polygon class="fil1" points="1.81574,0.63157 1.81574,0.49462 1.66801,0.49462 1.66801,0.36307 1.81574,0.36307 1.81574,0.22612 1.9473,0.22612 1.9473,0.36307 2.09503,0.36307 2.09503,0.49462 1.9473,0.49462 1.9473,0.63157 "/>
    <path id="1" class="fil1" d="M2.80565 0.67255l-0.10891 0 0 0.15528 -0.15097 0 0 -0.15528 -0.3465 0 -0.03253 -0.1285 0.38496 -0.47106 0.14504 0 0 0.46153 0.10891 0 0 0.13803zm-0.44733 -0.13803l0.18745 0 0 -0.23615 -0.18745 0.23615z"/>
    <path id="2" class="fil1" d="M3.03426 0.59491l0 0.00431c0,0.02732 0.00072,0.04727 0.00216,0.05985 0.00144,0.01258 0.0036,0.02049 0.00647,0.02372 0.00288,0.00324 0.00719,0.00486 0.01294,0.00486l0.18979 0c0.00575,0 0.01006,-0.00162 0.01294,-0.00486 0.00287,-0.00323 0.00503,-0.01114 0.00647,-0.02372 0.00144,-0.01258 0.00216,-0.03253 0.00216,-0.05985 0,-0.02732 -0.00072,-0.04727 -0.00216,-0.05985 -0.00144,-0.01258 -0.0036,-0.02048 -0.00647,-0.02372 -0.00288,-0.00323 -0.00719,-0.00485 -0.01294,-0.00485l-0.18008 0 0 -0.13803 0.17145 0c0.00863,0 0.01438,-0.00449 0.01726,-0.01348 0.00287,-0.00898 0.00431,-0.03109 0.00431,-0.06632 0,-0.03522 -0.00144,-0.05733 -0.00431,-0.06631 -0.00288,-0.00899 -0.00863,-0.01348 -0.01726,-0.01348l-0.17253 0c-0.00863,0 -0.01438,0.00449 -0.01726,0.01348 -0.00287,0.00898 -0.00431,0.03109 -0.00431,0.06631l0 0.01294 -0.15528 0 0 -0.0248c0,-0.07764 0.01186,-0.13174 0.03559,-0.16229 0.02372,-0.03055 0.06218,-0.04583 0.11538,-0.04583l0.22429 0c0.0532,0 0.09166,0.01492 0.11539,0.04475 0.02372,0.02984 0.03558,0.08214 0.03558,0.1569 0,0.05032 -0.00503,0.08735 -0.0151,0.11107 -0.01006,0.02372 -0.02767,0.04242 -0.05284,0.05607 0.02804,0.01223 0.04781,0.03092 0.05931,0.05608 0.01151,0.02516 0.01726,0.06506 0.01726,0.11969 0,0.07836 -0.01186,0.133 -0.03559,0.16391 -0.02372,0.03091 -0.06218,0.04637 -0.11538,0.04637l-0.24155 0c-0.0532,0 -0.09166,-0.01546 -0.11538,-0.04637 -0.02372,-0.03091 -0.03559,-0.08555 -0.03559,-0.16391l0 -0.02264 0.15528 0z"/>
    <path id="3" class="fil1" d="M3.595 0.07299l0.09273 0c0.02732,0 0.04673,0.00575 0.05824,0.01726 0.0115,0.0115 0.01725,0.03091 0.01725,0.05823l0 0.14665c0,0.02732 -0.00575,0.04673 -0.01725,0.05823 -0.01151,0.0115 -0.03092,0.01725 -0.05824,0.01725l-0.09273 0c-0.0266,0 -0.04583,-0.00593 -0.05769,-0.01779 -0.01187,-0.01186 -0.0178,-0.03109 -0.0178,-0.05769l0 -0.14665c0,-0.02732 0.00575,-0.04673 0.01726,-0.05823 0.0115,-0.01151 0.03091,-0.01726 0.05823,-0.01726zm0.4529 0l-0.34938 0.75484 -0.12509 0 0.34938 -0.75484 0.12509 0zm-0.3634 0.20489l0 -0.11215c0,-0.00719 -0.00126,-0.01222 -0.00377,-0.0151 -0.00252,-0.00287 -0.00773,-0.00431 -0.01564,-0.00431l-0.04745 0c-0.00791,0 -0.01312,0.00144 -0.01563,0.00431 -0.00252,0.00288 -0.00378,0.00791 -0.00378,0.0151l0 0.11215c0,0.00719 0.00126,0.01222 0.00378,0.01509 0.00251,0.00288 0.00772,0.00432 0.01563,0.00432l0.04745 0c0.00791,0 0.01312,-0.00144 0.01564,-0.00432 0.00251,-0.00287 0.00377,-0.0079 0.00377,-0.01509zm0.2491 0.25233l0.09273 0c0.02732,0 0.04673,0.00575 0.05823,0.01725 0.01151,0.0115 0.01726,0.03091 0.01726,0.05823l0 0.14666c0,0.02731 -0.00575,0.04672 -0.01726,0.05823 -0.0115,0.0115 -0.03091,0.01725 -0.05823,0.01725l-0.09273 0c-0.0266,0 -0.04583,-0.00593 -0.0577,-0.01779 -0.01186,-0.01186 -0.01779,-0.03109 -0.01779,-0.05769l0 -0.14666c0,-0.02732 0.00575,-0.04673 0.01726,-0.05823 0.0115,-0.0115 0.03091,-0.01725 0.05823,-0.01725zm0.0895 0.20488l0 -0.11214c0,-0.00719 -0.00126,-0.01223 -0.00378,-0.0151 -0.00251,-0.00288 -0.00772,-0.00431 -0.01563,-0.00431l-0.04745 0c-0.00791,0 -0.01312,0.00143 -0.01563,0.00431 -0.00252,0.00287 -0.00378,0.00791 -0.00378,0.0151l0 0.11214c0,0.00719 0.00126,0.01222 0.00378,0.0151 0.00251,0.00288 0.00772,0.00431 0.01563,0.00431l0.04745 0c0.00791,0 0.01312,-0.00143 0.01563,-0.00431 0.00252,-0.00288 0.00378,-0.00791 0.00378,-0.0151z"/>
    <polygon class="fil1" points="1.78278,1.10844 1.71728,1.10844 1.71728,1.30494 1.66764,1.30494 1.66764,1.10844 1.60214,1.10844 1.60214,1.06363 1.78278,1.06363 "/>
    <polygon id="1" class="fil1" points="1.81863,1.06363 1.981,1.06363 1.981,1.10913 1.86827,1.10913 1.86827,1.15912 1.95963,1.15912 1.95963,1.20393 1.86827,1.20393 1.86827,1.25944 1.981,1.25944 1.981,1.30494 1.81863,1.30494 "/>
    <path id="2" class="fil1" d="M2.1382 1.13947l0 -0.02413c0,-0.00253 -0.00052,-0.00431 -0.00155,-0.00534 -0.00104,-0.00104 -0.00282,-0.00156 -0.00535,-0.00156l-0.05929 0c-0.00253,0 -0.00431,0.00052 -0.00534,0.00156 -0.00104,0.00103 -0.00156,0.00287 -0.00156,0.0054l0 0.02643c0,0.00373 0.00081,0.00632 0.00242,0.00781 0.00155,0.00155 0.00465,0.00287 0.00925,0.00402l0.06412 0.01379c0.01655,0.00345 0.02896,0.00891 0.03729,0.01632 0.00827,0.00747 0.01241,0.0185 0.01241,0.03315l0 0.03987c0,0.03212 -0.01609,0.04815 -0.04827,0.04815l-0.07928 0c-0.03218,0 -0.04827,-0.01609 -0.04827,-0.04826l0 -0.03034 0.04827 0 0 0.02689c0,0.00253 0.00051,0.00431 0.00155,0.00534 0.00103,0.00104 0.00281,0.00156 0.00534,0.00156l0.06412 0c0.00253,0 0.00431,-0.00052 0.00534,-0.00156 0.00104,-0.00103 0.00156,-0.00281 0.00156,-0.00534l0 -0.02896c0,-0.00367 -0.00081,-0.00626 -0.00242,-0.00775 -0.00161,-0.0015 -0.00471,-0.00282 -0.00931,-0.00397l-0.06412 -0.01379c-0.01654,-0.00344 -0.02895,-0.0089 -0.03723,-0.01637 -0.00827,-0.00747 -0.01241,-0.01856 -0.01241,-0.03327l0 -0.03723c0,-0.03217 0.01609,-0.04826 0.04827,-0.04826l0.07446 0c0.03217,0 0.04826,0.01609 0.04826,0.04826l0 0.02758 -0.04826 0z"/>
    <polygon id="3" class="fil1" points="2.3964,1.10844 2.3309,1.10844 2.3309,1.30494 2.28126,1.30494 2.28126,1.10844 2.21576,1.10844 2.21576,1.06363 2.3964,1.06363 "/>
    <path id="4" class="fil1" d="M2.55911 1.30494l-0.08859 0c-0.03218,0 -0.04827,-0.01609 -0.04827,-0.04826l0 -0.14479c0,-0.03217 0.01609,-0.04826 0.04827,-0.04826l0.08859 0c0.03218,0 0.04826,0.01609 0.04826,0.04826l0 0.14479c0,0.03217 -0.01608,0.04826 -0.04826,0.04826zm-0.08722 -0.18891l0 0.13651c0,0.00253 0.00052,0.00431 0.00156,0.00534 0.00103,0.00104 0.00281,0.00156 0.00534,0.00156l0.07205 0c0.00253,0 0.00431,-0.00052 0.00534,-0.00156 0.00104,-0.00103 0.00155,-0.00281 0.00155,-0.00534l0 -0.13651c0,-0.00253 -0.00051,-0.00431 -0.00155,-0.00535 -0.00103,-0.00103 -0.00281,-0.00155 -0.00534,-0.00155l-0.07205 0c-0.00253,0 -0.00431,0.00052 -0.00534,0.00155 -0.00104,0.00104 -0.00156,0.00282 -0.00156,0.00535z"/>
    <path id="5" class="fil1" d="M2.77216 1.13947l0 -0.02413c0,-0.00253 -0.00052,-0.00431 -0.00155,-0.00534 -0.00104,-0.00104 -0.00282,-0.00156 -0.00535,-0.00156l-0.05929 0c-0.00253,0 -0.00431,0.00052 -0.00534,0.00156 -0.00104,0.00103 -0.00156,0.00287 -0.00156,0.0054l0 0.02643c0,0.00373 0.00081,0.00632 0.00242,0.00781 0.00155,0.00155 0.00465,0.00287 0.00925,0.00402l0.06412 0.01379c0.01655,0.00345 0.02896,0.00891 0.03729,0.01632 0.00827,0.00747 0.01241,0.0185 0.01241,0.03315l0 0.03987c0,0.03212 -0.01609,0.04815 -0.04827,0.04815l-0.07928 0c-0.03218,0 -0.04827,-0.01609 -0.04827,-0.04826l0 -0.03034 0.04827 0 0 0.02689c0,0.00253 0.00051,0.00431 0.00155,0.00534 0.00103,0.00104 0.00281,0.00156 0.00534,0.00156l0.06412 0c0.00253,0 0.00431,-0.00052 0.00534,-0.00156 0.00104,-0.00103 0.00156,-0.00281 0.00156,-0.00534l0 -0.02896c0,-0.00367 -0.00081,-0.00626 -0.00242,-0.00775 -0.00161,-0.0015 -0.00471,-0.00282 -0.00931,-0.00397l-0.06412 -0.01379c-0.01654,-0.00344 -0.02895,-0.0089 -0.03723,-0.01637 -0.00827,-0.00747 -0.01241,-0.01856 -0.01241,-0.03327l0 -0.03723c0,-0.03217 0.01609,-0.04826 0.04827,-0.04826l0.07446 0c0.03217,0 0.04826,0.01609 0.04826,0.04826l0 0.02758 -0.04826 0z"/>
    <polygon id="6" class="fil1" points="3.03036,1.10844 2.96486,1.10844 2.96486,1.30494 2.91522,1.30494 2.91522,1.10844 2.84972,1.10844 2.84972,1.06363 3.03036,1.06363 "/>
    <polygon id="7" class="fil1" points="3.06621,1.06363 3.22858,1.06363 3.22858,1.10913 3.11585,1.10913 3.11585,1.15912 3.20721,1.15912 3.20721,1.20393 3.11585,1.20393 3.11585,1.25944 3.22858,1.25944 3.22858,1.30494 3.06621,1.30494 "/>
    <path id="8" class="fil1" d="M3.45542 1.30494l-0.05344 0 -0.0401 -0.08515 -0.03988 0 0 0.08515 -0.04964 0 0 -0.24131 0.12721 0c0.03217,0 0.04826,0.01609 0.04826,0.04826l0 0.05826c0,0.02712 -0.01115,0.04275 -0.03344,0.04688l0.04103 0.08791zm-0.13342 -0.12927l0.0693 0c0.00252,0 0.0043,-0.00052 0.00534,-0.00156 0.00103,-0.00103 0.00155,-0.00281 0.00155,-0.00534l0 -0.05343c0,-0.00253 -0.00052,-0.00431 -0.00155,-0.00534 -0.00104,-0.00104 -0.00282,-0.00156 -0.00534,-0.00156l-0.0693 0 0 0.06723z"/>
    <path id="9" class="fil1" d="M3.62743 1.30494l-0.08859 0c-0.03218,0 -0.04827,-0.01609 -0.04827,-0.04826l0 -0.14479c0,-0.03217 0.01609,-0.04826 0.04827,-0.04826l0.08859 0c0.03218,0 0.04826,0.01609 0.04826,0.04826l0 0.14479c0,0.03217 -0.01608,0.04826 -0.04826,0.04826zm-0.08722 -0.18891l0 0.13651c0,0.00253 0.00052,0.00431 0.00156,0.00534 0.00103,0.00104 0.00281,0.00156 0.00534,0.00156l0.07205 0c0.00253,0 0.00431,-0.00052 0.00534,-0.00156 0.00104,-0.00103 0.00155,-0.00281 0.00155,-0.00534l0 -0.13651c0,-0.00253 -0.00051,-0.00431 -0.00155,-0.00535 -0.00103,-0.00103 -0.00281,-0.00155 -0.00534,-0.00155l-0.07205 0c-0.00253,0 -0.00431,0.00052 -0.00534,0.00155 -0.00104,0.00104 -0.00156,0.00282 -0.00156,0.00535z"/>
    <polygon id="10" class="fil1" points="3.86737,1.06363 3.91563,1.06363 3.91563,1.30494 3.86737,1.30494 3.77257,1.14395 3.77257,1.30494 3.7243,1.30494 3.7243,1.06363 3.77607,1.06363 3.86737,1.21933 "/>
    <path id="11" class="fil1" d="M4.1019 1.25254l-0.08578 0 -0.01535 0.0524 -0.05239 0 0.07325 -0.24131 0.07228 0 0.07371 0.24131 -0.04969 0 -0.01603 -0.0524zm-0.01397 -0.0455l-0.03096 -0.10135 -0.02862 0.10135 0.05958 0z"/>
   </g>
   <g>
    <polygon class="fil1" points="1.84971,2.47208 1.84971,2.33513 1.70198,2.33513 1.70198,2.20358 1.84971,2.20358 1.84971,2.06663 1.98127,2.06663 1.98127,2.20358 2.129,2.20358 2.129,2.33513 1.98127,2.33513 1.98127,2.47208 "/>
    <path id="1" class="fil1" d="M2.39427 2.43542l0 0.00431c0,0.02732 0.00072,0.04727 0.00216,0.05985 0.00144,0.01258 0.0036,0.02049 0.00647,0.02372 0.00288,0.00324 0.00719,0.00486 0.01294,0.00486l0.18979 0c0.00575,0 0.01006,-0.00162 0.01294,-0.00486 0.00287,-0.00323 0.00503,-0.01114 0.00647,-0.02372 0.00144,-0.01258 0.00216,-0.03253 0.00216,-0.05985 0,-0.02732 -0.00072,-0.04727 -0.00216,-0.05985 -0.00144,-0.01258 -0.0036,-0.02048 -0.00647,-0.02372 -0.00288,-0.00323 -0.00719,-0.00485 -0.01294,-0.00485l-0.18008 0 0 -0.13803 0.17145 0c0.00863,0 0.01438,-0.00449 0.01726,-0.01348 0.00287,-0.00898 0.00431,-0.03109 0.00431,-0.06632 0,-0.03522 -0.00144,-0.05733 -0.00431,-0.06631 -0.00288,-0.00899 -0.00863,-0.01348 -0.01726,-0.01348l-0.17253 0c-0.00863,0 -0.01438,0.00449 -0.01726,0.01348 -0.00287,0.00898 -0.00431,0.03109 -0.00431,0.06631l0 0.01294 -0.15528 0 0 -0.0248c0,-0.07764 0.01186,-0.13174 0.03559,-0.16229 0.02372,-0.03055 0.06218,-0.04583 0.11538,-0.04583l0.22429 0c0.0532,0 0.09166,0.01492 0.11539,0.04475 0.02372,0.02984 0.03558,0.08214 0.03558,0.1569 0,0.05032 -0.00503,0.08735 -0.0151,0.11107 -0.01006,0.02372 -0.02767,0.04242 -0.05284,0.05607 0.02804,0.01223 0.04781,0.03092 0.05931,0.05608 0.01151,0.02516 0.01726,0.06506 0.01726,0.11969 0,0.07836 -0.01186,0.133 -0.03559,0.16391 -0.02372,0.03091 -0.06218,0.04637 -0.11538,0.04637l-0.24155 0c-0.0532,0 -0.09166,-0.01546 -0.11538,-0.04637 -0.02372,-0.03091 -0.03559,-0.08555 -0.03559,-0.16391l0 -0.02264 0.15528 0z"/>
    <polygon id="2" class="fil1" points="3.40792,2.02457 3.08226,2.66834 2.91188,2.66834 3.22765,2.05369 2.85455,2.05369 2.85455,1.9135 3.40792,1.9135 "/>
    <path id="3" class="fil1" d="M3.56104 1.9135l0.09273 0c0.02732,0 0.04673,0.00575 0.05824,0.01726 0.0115,0.0115 0.01725,0.03091 0.01725,0.05823l0 0.14665c0,0.02732 -0.00575,0.04673 -0.01725,0.05823 -0.01151,0.0115 -0.03092,0.01725 -0.05824,0.01725l-0.09273 0c-0.0266,0 -0.04583,-0.00593 -0.05769,-0.01779 -0.01187,-0.01186 -0.0178,-0.03109 -0.0178,-0.05769l0 -0.14665c0,-0.02732 0.00575,-0.04673 0.01726,-0.05823 0.0115,-0.01151 0.03091,-0.01726 0.05823,-0.01726zm0.4529 0l-0.34938 0.75484 -0.12509 0 0.34938 -0.75484 0.12509 0zm-0.3634 0.20489l0 -0.11215c0,-0.00719 -0.00126,-0.01222 -0.00377,-0.0151 -0.00252,-0.00287 -0.00773,-0.00431 -0.01564,-0.00431l-0.04745 0c-0.00791,0 -0.01312,0.00144 -0.01563,0.00431 -0.00252,0.00288 -0.00378,0.00791 -0.00378,0.0151l0 0.11215c0,0.00719 0.00126,0.01222 0.00378,0.01509 0.00251,0.00288 0.00772,0.00432 0.01563,0.00432l0.04745 0c0.00791,0 0.01312,-0.00144 0.01564,-0.00432 0.00251,-0.00287 0.00377,-0.0079 0.00377,-0.01509zm0.2491 0.25233l0.09273 0c0.02732,0 0.04673,0.00575 0.05823,0.01725 0.01151,0.0115 0.01726,0.03091 0.01726,0.05823l0 0.14666c0,0.02731 -0.00575,0.04672 -0.01726,0.05823 -0.0115,0.0115 -0.03091,0.01725 -0.05823,0.01725l-0.09273 0c-0.0266,0 -0.04583,-0.00593 -0.0577,-0.01779 -0.01186,-0.01186 -0.01779,-0.03109 -0.01779,-0.05769l0 -0.14666c0,-0.02732 0.00575,-0.04673 0.01726,-0.05823 0.0115,-0.0115 0.03091,-0.01725 0.05823,-0.01725zm0.0895 0.20488l0 -0.11214c0,-0.00719 -0.00126,-0.01223 -0.00378,-0.0151 -0.00251,-0.00288 -0.00772,-0.00431 -0.01563,-0.00431l-0.04745 0c-0.00791,0 -0.01312,0.00143 -0.01563,0.00431 -0.00252,0.00287 -0.00378,0.00791 -0.00378,0.0151l0 0.11214c0,0.00719 0.00126,0.01222 0.00378,0.0151 0.00251,0.00288 0.00772,0.00431 0.01563,0.00431l0.04745 0c0.00791,0 0.01312,-0.00143 0.01563,-0.00431 0.00252,-0.00288 0.00378,-0.00791 0.00378,-0.0151z"/>
    <polygon class="fil1" points="1.74816,3.14545 1.74816,2.90414 1.7978,2.90414 1.7978,2.99928 1.8833,2.99928 1.8833,2.90414 1.93294,2.90414 1.93294,3.14545 1.8833,3.14545 1.8833,3.04479 1.7978,3.04479 1.7978,3.14545 "/>
    <path id="1" class="fil1" d="M2.1184 3.14545l-0.08859 0c-0.03218,0 -0.04827,-0.01609 -0.04827,-0.04826l0 -0.14479c0,-0.03217 0.01609,-0.04826 0.04827,-0.04826l0.08859 0c0.03218,0 0.04826,0.01609 0.04826,0.04826l0 0.14479c0,0.03217 -0.01608,0.04826 -0.04826,0.04826zm-0.08722 -0.18891l0 0.13651c0,0.00253 0.00052,0.00431 0.00156,0.00534 0.00103,0.00104 0.00281,0.00156 0.00534,0.00156l0.07205 0c0.00253,0 0.00431,-0.00052 0.00534,-0.00156 0.00104,-0.00103 0.00155,-0.00281 0.00155,-0.00534l0 -0.13651c0,-0.00253 -0.00051,-0.00431 -0.00155,-0.00535 -0.00103,-0.00103 -0.00281,-0.00155 -0.00534,-0.00155l-0.07205 0c-0.00253,0 -0.00431,0.00052 -0.00534,0.00155 -0.00104,0.00104 -0.00156,0.00282 -0.00156,0.00535z"/>
    <path id="2" class="fil1" d="M2.39833 3.14545l-0.05344 0 -0.0401 -0.08515 -0.03988 0 0 0.08515 -0.04964 0 0 -0.24131 0.12721 0c0.03217,0 0.04826,0.01609 0.04826,0.04826l0 0.05826c0,0.02712 -0.01115,0.04275 -0.03344,0.04688l0.04103 0.08791zm-0.13342 -0.12927l0.0693 0c0.00252,0 0.0043,-0.00052 0.00534,-0.00156 0.00103,-0.00103 0.00155,-0.00281 0.00155,-0.00534l0 -0.05343c0,-0.00253 -0.00052,-0.00431 -0.00155,-0.00534 -0.00104,-0.00104 -0.00282,-0.00156 -0.00534,-0.00156l-0.0693 0 0 0.06723z"/>
    <polygon id="3" class="fil1" points="2.67652,2.90414 2.67652,3.14545 2.62757,3.14545 2.62757,2.9917 2.57551,3.11339 2.53897,3.11339 2.48692,2.99107 2.48692,3.14545 2.43934,3.14545 2.43934,2.90414 2.49381,2.90414 2.55477,3.04617 2.62205,2.90414 "/>
    <path id="4" class="fil1" d="M2.79683 2.88139l0.02103 -0.02172 0.02102 0.02172 0.04447 0 -0.04481 -0.04482 -0.04137 0 -0.04481 0.04482 0.04447 0zm0.06515 0.26406l-0.08859 0c-0.03218,0 -0.04827,-0.01609 -0.04827,-0.04826l0 -0.14479c0,-0.03217 0.01609,-0.04826 0.04827,-0.04826l0.08859 0c0.03218,0 0.04826,0.01609 0.04826,0.04826l0 0.14479c0,0.03217 -0.01608,0.04826 -0.04826,0.04826zm-0.08722 -0.18891l0 0.13651c0,0.00253 0.00052,0.00431 0.00156,0.00534 0.00103,0.00104 0.00281,0.00156 0.00534,0.00156l0.07205 0c0.00253,0 0.00431,-0.00052 0.00534,-0.00156 0.00104,-0.00103 0.00155,-0.00281 0.00155,-0.00534l0 -0.13651c0,-0.00253 -0.00051,-0.00431 -0.00155,-0.00535 -0.00103,-0.00103 -0.00281,-0.00155 -0.00534,-0.00155l-0.07205 0c-0.00253,0 -0.00431,0.00052 -0.00534,0.00155 -0.00104,0.00104 -0.00156,0.00282 -0.00156,0.00535z"/>
    <polygon id="5" class="fil1" points="3.10192,2.90414 3.15018,2.90414 3.15018,3.14545 3.10192,3.14545 3.00712,2.98446 3.00712,3.14545 2.95885,3.14545 2.95885,2.90414 3.01062,2.90414 3.10192,3.05984 "/>
    <polygon id="6" class="fil1" points="3.20464,3.14545 3.20464,2.90414 3.25428,2.90414 3.25428,3.14545 "/>
    <path id="7" class="fil1" d="M3.43975 3.14545l-0.08859 0c-0.03218,0 -0.04827,-0.01609 -0.04827,-0.04826l0 -0.14479c0,-0.03217 0.01609,-0.04826 0.04827,-0.04826l0.08859 0c0.03218,0 0.04826,0.01609 0.04826,0.04826l0 0.14479c0,0.03217 -0.01608,0.04826 -0.04826,0.04826zm-0.08722 -0.18891l0 0.13651c0,0.00253 0.00052,0.00431 0.00156,0.00534 0.00103,0.00104 0.00281,0.00156 0.00534,0.00156l0.07205 0c0.00253,0 0.00431,-0.00052 0.00534,-0.00156 0.00104,-0.00103 0.00155,-0.00281 0.00155,-0.00534l0 -0.13651c0,-0.00253 -0.00051,-0.00431 -0.00155,-0.00535 -0.00103,-0.00103 -0.00281,-0.00155 -0.00534,-0.00155l-0.07205 0c-0.00253,0 -0.00431,0.00052 -0.00534,0.00155 -0.00104,0.00104 -0.00156,0.00282 -0.00156,0.00535z"/>
    <path id="8" class="fil1" d="M3.61936 2.90414l0.13204 0c0.03217,0 0.04826,0.01609 0.04826,0.04826l0 0.14479c0,0.03217 -0.01609,0.04826 -0.04826,0.04826l-0.13204 0 0 -0.24131zm0.04964 0.19581l0.07412 0c0.00253,0 0.00431,-0.00052 0.00535,-0.00156 0.00103,-0.00103 0.00155,-0.00281 0.00155,-0.00534l0 -0.13651c0,-0.00253 -0.00052,-0.00431 -0.00155,-0.00535 -0.00104,-0.00103 -0.00282,-0.00155 -0.00535,-0.00155l-0.07412 0 0 0.15031z"/>
    <path id="9" class="fil1" d="M3.97926 3.14545l-0.08859 0c-0.03218,0 -0.04827,-0.01609 -0.04827,-0.04826l0 -0.14479c0,-0.03217 0.01609,-0.04826 0.04827,-0.04826l0.08859 0c0.03218,0 0.04826,0.01609 0.04826,0.04826l0 0.14479c0,0.03217 -0.01608,0.04826 -0.04826,0.04826zm-0.08722 -0.18891l0 0.13651c0,0.00253 0.00052,0.00431 0.00156,0.00534 0.00103,0.00104 0.00281,0.00156 0.00534,0.00156l0.07205 0c0.00253,0 0.00431,-0.00052 0.00534,-0.00156 0.00104,-0.00103 0.00155,-0.00281 0.00155,-0.00534l0 -0.13651c0,-0.00253 -0.00051,-0.00431 -0.00155,-0.00535 -0.00103,-0.00103 -0.00281,-0.00155 -0.00534,-0.00155l-0.07205 0c-0.00253,0 -0.00431,0.00052 -0.00534,0.00155 -0.00104,0.00104 -0.00156,0.00282 -0.00156,0.00535z"/>
    <path id="10" class="fil1" d="M1.86348 3.47963l-0.07997 0c-0.03218,0 -0.04827,-0.01609 -0.04827,-0.04826l0 -0.14479c0,-0.03217 0.01609,-0.04826 0.04827,-0.04826l0.07997 0c0.03218,0 0.04827,0.01609 0.04827,0.04826l0 0.0393 -0.04965 0 0 -0.03516c0,-0.00253 -0.00051,-0.00431 -0.00155,-0.00535 -0.00103,-0.00103 -0.00281,-0.00155 -0.00534,-0.00155l-0.06343 0c-0.00253,0 -0.00431,0.00052 -0.00534,0.00155 -0.00104,0.00104 -0.00156,0.00282 -0.00156,0.00535l0 0.13651c0,0.00253 0.00052,0.00431 0.00156,0.00534 0.00103,0.00104 0.00281,0.00156 0.00534,0.00156l0.06343 0c0.00253,0 0.00431,-0.00052 0.00534,-0.00156 0.00104,-0.00103 0.00155,-0.00281 0.00155,-0.00534l0 -0.03516 0.04965 0 0 0.0393c0,0.03217 -0.01609,0.04826 -0.04827,0.04826z"/>
    <path id="11" class="fil1" d="M2.13893 3.47963l-0.05344 0 -0.0401 -0.08515 -0.03988 0 0 0.08515 -0.04964 0 0 -0.24131 0.12721 0c0.03217,0 0.04826,0.01609 0.04826,0.04826l0 0.05826c0,0.02712 -0.01115,0.04275 -0.03344,0.04688l0.04103 0.08791zm-0.13342 -0.12927l0.0693 0c0.00252,0 0.0043,-0.00052 0.00534,-0.00156 0.00103,-0.00103 0.00155,-0.00281 0.00155,-0.00534l0 -0.05343c0,-0.00253 -0.00052,-0.00431 -0.00155,-0.00534 -0.00104,-0.00104 -0.00282,-0.00156 -0.00534,-0.00156l-0.0693 0 0 0.06723z"/>
    <polygon id="12" class="fil1" points="2.17994,3.23832 2.34231,3.23832 2.34231,3.28382 2.22958,3.28382 2.22958,3.33381 2.32094,3.33381 2.32094,3.37862 2.22958,3.37862 2.22958,3.43413 2.34231,3.43413 2.34231,3.47963 2.17994,3.47963 "/>
    <path id="13" class="fil1" d="M2.49951 3.31416l0 -0.02413c0,-0.00253 -0.00052,-0.00431 -0.00155,-0.00534 -0.00104,-0.00104 -0.00282,-0.00156 -0.00535,-0.00156l-0.05929 0c-0.00253,0 -0.00431,0.00052 -0.00534,0.00156 -0.00104,0.00103 -0.00156,0.00287 -0.00156,0.0054l0 0.02643c0,0.00373 0.00081,0.00632 0.00242,0.00781 0.00155,0.00155 0.00465,0.00287 0.00925,0.00402l0.06412 0.01379c0.01655,0.00345 0.02896,0.00891 0.03729,0.01632 0.00827,0.00747 0.01241,0.0185 0.01241,0.03315l0 0.03987c0,0.03212 -0.01609,0.04815 -0.04827,0.04815l-0.07928 0c-0.03218,0 -0.04827,-0.01609 -0.04827,-0.04826l0 -0.03034 0.04827 0 0 0.02689c0,0.00253 0.00051,0.00431 0.00155,0.00534 0.00103,0.00104 0.00281,0.00156 0.00534,0.00156l0.06412 0c0.00253,0 0.00431,-0.00052 0.00534,-0.00156 0.00104,-0.00103 0.00156,-0.00281 0.00156,-0.00534l0 -0.02896c0,-0.00367 -0.00081,-0.00626 -0.00242,-0.00775 -0.00161,-0.0015 -0.00471,-0.00282 -0.00931,-0.00397l-0.06412 -0.01379c-0.01654,-0.00344 -0.02895,-0.0089 -0.03723,-0.01637 -0.00827,-0.00747 -0.01241,-0.01856 -0.01241,-0.03327l0 -0.03723c0,-0.03217 0.01609,-0.04826 0.04827,-0.04826l0.07446 0c0.03217,0 0.04826,0.01609 0.04826,0.04826l0 0.02758 -0.04826 0z"/>
    <path id="14" class="fil1" d="M2.72151 3.47963l-0.07997 0c-0.03218,0 -0.04827,-0.01609 -0.04827,-0.04826l0 -0.14479c0,-0.03217 0.01609,-0.04826 0.04827,-0.04826l0.07997 0c0.03218,0 0.04827,0.01609 0.04827,0.04826l0 0.0393 -0.04965 0 0 -0.03516c0,-0.00253 -0.00051,-0.00431 -0.00155,-0.00535 -0.00103,-0.00103 -0.00281,-0.00155 -0.00534,-0.00155l-0.06343 0c-0.00253,0 -0.00431,0.00052 -0.00534,0.00155 -0.00104,0.00104 -0.00156,0.00282 -0.00156,0.00535l0 0.13651c0,0.00253 0.00052,0.00431 0.00156,0.00534 0.00103,0.00104 0.00281,0.00156 0.00534,0.00156l0.06343 0c0.00253,0 0.00431,-0.00052 0.00534,-0.00156 0.00104,-0.00103 0.00155,-0.00281 0.00155,-0.00534l0 -0.03516 0.04965 0 0 0.0393c0,0.03217 -0.01609,0.04826 -0.04827,0.04826z"/>
    <polygon id="15" class="fil1" points="2.8139,3.47963 2.8139,3.23832 2.86354,3.23832 2.86354,3.47963 "/>
    <polygon id="16" class="fil1" points="3.15519,3.23832 3.15519,3.47963 3.10624,3.47963 3.10624,3.32588 3.05418,3.44757 3.01764,3.44757 2.96559,3.32525 2.96559,3.47963 2.91801,3.47963 2.91801,3.23832 2.97248,3.23832 3.03344,3.38035 3.10072,3.23832 "/>
    <polygon id="17" class="fil1" points="3.20965,3.23832 3.37202,3.23832 3.37202,3.28382 3.25929,3.28382 3.25929,3.33381 3.35065,3.33381 3.35065,3.37862 3.25929,3.37862 3.25929,3.43413 3.37202,3.43413 3.37202,3.47963 3.20965,3.47963 "/>
    <polygon id="18" class="fil1" points="3.55887,3.23832 3.60713,3.23832 3.60713,3.47963 3.55887,3.47963 3.46407,3.31864 3.46407,3.47963 3.4158,3.47963 3.4158,3.23832 3.46757,3.23832 3.55887,3.39402 "/>
    <polygon id="19" class="fil1" points="3.82362,3.28313 3.75812,3.28313 3.75812,3.47963 3.70848,3.47963 3.70848,3.28313 3.64298,3.28313 3.64298,3.23832 3.82362,3.23832 "/>
    <path id="20" class="fil1" d="M3.98633 3.47963l-0.08859 0c-0.03218,0 -0.04827,-0.01609 -0.04827,-0.04826l0 -0.14479c0,-0.03217 0.01609,-0.04826 0.04827,-0.04826l0.08859 0c0.03218,0 0.04826,0.01609 0.04826,0.04826l0 0.14479c0,0.03217 -0.01608,0.04826 -0.04826,0.04826zm-0.08722 -0.18891l0 0.13651c0,0.00253 0.00052,0.00431 0.00156,0.00534 0.00103,0.00104 0.00281,0.00156 0.00534,0.00156l0.07205 0c0.00253,0 0.00431,-0.00052 0.00534,-0.00156 0.00104,-0.00103 0.00155,-0.00281 0.00155,-0.00534l0 -0.13651c0,-0.00253 -0.00051,-0.00431 -0.00155,-0.00535 -0.00103,-0.00103 -0.00281,-0.00155 -0.00534,-0.00155l-0.07205 0c-0.00253,0 -0.00431,0.00052 -0.00534,0.00155 -0.00104,0.00104 -0.00156,0.00282 -0.00156,0.00535z"/>
   </g>
  </g>
 </g>
</svg>
