<?xml version="1.0" encoding="UTF-8"?>
<!DOCTYPE svg PUBLIC "-//W3C//DTD SVG 1.1//EN" "http://www.w3.org/Graphics/SVG/1.1/DTD/svg11.dtd">
<!-- Creator: CorelDRAW 2017 -->
<svg xmlns="http://www.w3.org/2000/svg" xml:space="preserve" width="100%" height="100%" version="1.1" style="shape-rendering:geometricPrecision; text-rendering:geometricPrecision; image-rendering:optimizeQuality; fill-rule:evenodd; clip-rule:evenodd"
viewBox="0 0 3.38125 2.00974"
 xmlns:xlink="http://www.w3.org/1999/xlink">
 <defs>
  <style type="text/css">
   <![CDATA[
    .fil0 {fill:#FEFEFE}
   ]]>
  </style>
 </defs>
 <g id="Camada_x0020_1">
  <metadata id="CorelCorpID_0Corel-Layer"/>
  <path class="fil0" d="M2.3576 0l-1.33854 0 -0.02865 0.1208 1.33853 0c0.08668,0 0.14109,0.07135 0.12053,0.15802l-0.20425 0.86105 0.03587 0 0.08493 0 0.48457 0 0.17115 -0.11709c0.01876,0.00917 0.03866,0.01653 0.05947,0.02181l0.12046 0.03053c0.04641,0.01177 0.06873,0.02959 0.06887,0.07946l0.00115 0.41642c0.00009,0.02863 -0.00627,0.05177 -0.03912,0.05177l-0.38361 0c-0.01385,-0.11109 -0.10142,-0.19047 -0.22637,-0.19047 -0.12496,0 -0.2502,0.07938 -0.31675,0.19047l-0.83384 0c-0.01385,-0.11109 -0.10143,-0.19047 -0.22638,-0.19047 -0.12495,0 -0.25019,0.07938 -0.31674,0.19047l-0.42803 0 -0.02528 0.10658 0.41099 0c-0.03251,0.15561 0.06541,0.28039 0.22208,0.28039 0.15667,0 0.31379,-0.12478 0.35511,-0.28039l0.79977 0c-0.0325,0.15561 0.06541,0.28039 0.22208,0.28039 0.15667,0 0.31379,-0.12478 0.35511,-0.28039l0.36658 0c0.10274,0 0.17422,-0.08407 0.17395,-0.18323l-0.00116 -0.41642c-0.00021,-0.07446 -0.03045,-0.13325 -0.12904,-0.15824l-0.12045 -0.03054c-0.05329,-0.0135 -0.09907,-0.04653 -0.12884,-0.08883l-0.19722 -0.28039c-0.05115,-0.07272 -0.1072,-0.06386 -0.17363,-0.06386l-0.11496 0 0.05433 -0.22902c0.03638,-0.15335 -0.05932,-0.27882 -0.21267,-0.27882zm-1.137 1.53779c0.10119,0 0.16377,0.08204 0.13976,0.18323 -0.02401,0.10119 -0.1255,0.18323 -0.22669,0.18323 -0.1012,0 -0.16377,-0.08204 -0.13977,-0.18323 0.02401,-0.10119 0.1255,-0.18323 0.2267,-0.18323zm1.37696 0c0.10119,0 0.16377,0.08204 0.13976,0.18323 -0.024,0.10119 -0.12549,0.18323 -0.22669,0.18323 -0.10119,0 -0.16377,-0.08204 -0.13976,-0.18323 0.024,-0.10119 0.1255,-0.18323 0.22669,-0.18323zm0.251 -0.50453l-0.45726 0 0.09936 -0.41883 0.11496 0c0.05156,0 0.07608,-0.00934 0.10395,0.03029l0.19722 0.28039c0.01048,0.0149 0.02239,0.02886 0.03553,0.0417l-0.09376 0.06645zm-1.00787 -0.61147l-1.29369 0 -0.02634 0.11104 1.29368 0 0.02635 -0.11104zm-0.39851 0.53302l-1.41584 0 -0.02634 0.11104 1.41584 0 0.02634 -0.11104z"/>
 </g>
</svg>
