<?xml version="1.0" encoding="UTF-8"?>
<!DOCTYPE svg PUBLIC "-//W3C//DTD SVG 1.1//EN" "http://www.w3.org/Graphics/SVG/1.1/DTD/svg11.dtd">
<!-- Creator: CorelDRAW 2017 -->
<svg xmlns="http://www.w3.org/2000/svg" xml:space="preserve" width="100%" height="100%" version="1.1" style="shape-rendering:geometricPrecision; text-rendering:geometricPrecision; image-rendering:optimizeQuality; fill-rule:evenodd; clip-rule:evenodd"
viewBox="0 0 0.72058 1.56667"
 xmlns:xlink="http://www.w3.org/1999/xlink">
 <defs>
  <style type="text/css">
   <![CDATA[
    .str0 {stroke:#FE4F32;stroke-width:0.04;stroke-miterlimit:22.9256}
    .fil1 {fill:none}
    .fil0 {fill:#FE4F32}
   ]]>
  </style>
 </defs>
 <g id="Camada_x0020_1">
  <metadata id="CorelCorpID_0Corel-Layer"/>
  <g id="_1949625994560">
   <path class="fil0" d="M0.72058 1.39884c-0.0404,0.1419 -0.23635,0.16783 -0.36748,0.16783 -0.0375,0 -0.07506,-0.00165 -0.11227,-0.00652 -0.10445,-0.01366 -0.21138,-0.06012 -0.24083,-0.16131l0.05407 0c0.03026,0.07115 0.11649,0.1009 0.19335,0.11095 0.03495,0.00458 0.07044,0.00609 0.10568,0.00609 0.09911,0 0.26855,-0.01377 0.31313,-0.11704l0.05435 0z"/>
   <path class="fil1 str0" d="M0.42662 0.11175c0.0958,0.03373 0.16505,0.13024 0.16601,0.24317l0.00842 0.98683c0.00075,0.08765 -0.16541,0.09794 -0.24795,0.09794 -0.08349,0 -0.23329,-0.00925 -0.23404,-0.09794l-0.00842 -0.98683c-0.00098,-0.11542 0.07254,-0.21363 0.17209,-0.24528l-0.00007 -0.00876c-0.00036,-0.04449 0.03236,-0.08088 0.07192,-0.08088l0.00002 0c0.03956,0 0.07157,0.03641 0.07193,0.08088l0.00009 0.01087z"/>
   <path class="fil0" d="M0.31804 0.22264c-0.05057,0.01609 -0.08501,0.06733 -0.08857,0.12095l-0.05088 0c0.00393,-0.08178 0.06018,-0.15665 0.13945,-0.17343l0 0.05248zm-0.08861 0.16327l0.00048 0.057 -0.05079 0 -0.00048 -0.057 0.05079 0zm0.00084 0.09932l0.00048 0.057 -0.0508 0 -0.00048 -0.057 0.0508 0zm0.00083 0.09932l0.00048 0.057 -0.05079 0 -0.00048 -0.057 0.05079 0zm0.00084 0.09932l0.00048 0.057 -0.05079 0 -0.00048 -0.057 0.05079 0zm0.00083 0.09932l0.00049 0.05771 -0.05079 0 -0.00049 -0.05771 0.05079 0z"/>
  </g>
 </g>
</svg>
