<svg xmlns="http://www.w3.org/2000/svg" width="100%" height="100%" fill-rule="evenodd" clip-rule="evenodd" image-rendering="optimizeQuality" shape-rendering="geometricPrecision" text-rendering="geometricPrecision" version="1.1" viewBox="0 0 .721 1.567" xml:space="preserve">
  <defs>
    <style type="text/css">
      .fil0{fill:#fe4f32}
    </style>
  </defs>
  <g id="Camada_x0020_1">
    <g id="_1949625994560">
      <path d="M.72 1.399c-.04.142-.236.168-.367.168a.865.865 0 0 1-.112-.007C.136 1.546.029 1.5 0 1.4h.054c.03.071.117.1.193.11.035.005.07.007.106.007.1 0 .269-.014.313-.117h.055z" class="fil0"/>
      <path fill="none" stroke="#fe4f32" stroke-miterlimit="22.926" stroke-width=".04" d="M.427.112c.095.033.165.13.166.243l.008.987c0 .087-.165.098-.248.098-.083 0-.233-.01-.234-.098L.111.355A.254.254 0 0 1 .283.11V.1c0-.044.032-.08.072-.08.04 0 .071.036.072.08v.012z"/>
      <path d="M.318.223a.136.136 0 0 0-.089.12H.18A.185.185 0 0 1 .318.17v.053zM.229.386v.057H.18V.386h.05zm.001.1v.056H.18V.485h.05zm.001.099v.057h-.05V.585h.05zm0 .099L.233.74h-.05V.684h.05zm.002.1V.84h-.05L.181.783h.05z" class="fil0"/>
    </g>
  </g>
</svg>
