<svg xmlns="http://www.w3.org/2000/svg" width="100%" height="100%" fill-rule="evenodd" clip-rule="evenodd" image-rendering="optimizeQuality" shape-rendering="geometricPrecision" text-rendering="geometricPrecision" version="1.1" viewBox="0 0 1.705 1.517" xml:space="preserve">
  <path fill="none" stroke="#fe4f32" stroke-linejoin="round" stroke-miterlimit="22.926" stroke-width=".04" d="M.998.282C.966.223.895.187.79.186a.277.277 0 0 0-.236.13.275.275 0 0 0-.246-.122.298.298 0 0 0-.244.13C.002.417.013.532.05.633a.652.652 0 0 0 .122.198c.069.08.145.141.206.188A.583.583 0 0 0 .78.74C.837.644.905.545.973.431a.42.42 0 0 0-.322.142C.623.602.588.613.55.579.517.552.514.51.544.47a.454.454 0 0 1 .31-.18.85.85 0 0 1 .144-.007zm-.227.48zM.765.78zM.763.813zM1.295.02a.148.148 0 1 1 0 .297.148.148 0 0 1 0-.297zM.09.713h.25L.378.598l.062.19.063-.393L.558.9.61.598m.05-.036l.023.15h.113m-.02.035a.695.695 0 0 1-.153.167.568.568 0 0 1-.305.113c-.075.004-.131.034-.132.106-.002.071.055.101.123.095a.83.83 0 0 0 .478-.191.725.725 0 0 0 .114-.123.843.843 0 0 0-.053-.02C.778.87.739.818.777.747zM1.238.43c.02.064.063.112.135.136a.25.25 0 0 0 .174.003c.067-.027.11-.027.129.014.022.048.003.098-.049.121a.388.388 0 0 1-.263.024C1.237.694 1.177.645 1.156.587L1.188.53c.016-.03.043-.064.05-.099zm-.05.099c.023-.041.066-.091.047-.137C1.195.29 1.027.267.855.289a.454.454 0 0 0-.31.18c-.031.04-.028.083.004.11.04.034.074.023.102-.006A.42.42 0 0 1 .973.43C.905.545.837.644.781.741.737.814.776.868.848.893c.118.04.184.086.206.144.03.08.035.177-.028.282-.032.056-.057.108-.003.153.045.037.115.03.145-.017a.6.6 0 0 0 .1-.375C1.257.919 1.163.83 1.056.769l.133-.24z"/>
</svg>
