<svg xmlns="http://www.w3.org/2000/svg" width="100%" height="100%" fill-rule="evenodd" clip-rule="evenodd" image-rendering="optimizeQuality" shape-rendering="geometricPrecision" text-rendering="geometricPrecision" version="1.1" viewBox="0 0 1.529 1.615" xml:space="preserve">
  <path fill="#fe4f32" d="M.91.273C.895.24.91.182.903.14.898.102.875.085.846.068L.897.062C.91.08.92.087.92.117c0 .04.009.123-.01.156zM.807.062C.782.078.786.066.792.108L.845.13c.013.07.016.185-.019.227C.823.306.831.227.822.18.797.063.633.125.733.167.767.18.768.182.77.227.775.44.79.418.656.422.604.422.587.426.594.369L.658.35c.029.012 0 .037.06.017A.196.196 0 0 0 .713.243H.68L.667.286a.29.29 0 0 1-.13.028C.512.26.535.2.516.147.447.143.467.203.469.267c0 .077.027.072.059.11-.04.165.08.35-.03.56C.492.946.482.96.48.967c-.01.037.026.06.068-.003C.64.827.794.807.922.894A.21.21 0 0 1 .98.948a.289.289 0 0 0 .025.031c.024.016.022.011.04 0C1.075.948.984.87.984.87a.361.361 0 0 1 .42-.023c.067.042.087.093.118.063C1.579.855 1.3.683 1.076.757.99.786.968.819.933.834.8.754.72.787.591.834a.546.546 0 0 0 .005-.19C.59.598.562.5.578.468.627.49.775.48.805.447.826.424.808.434.838.417.89.383.867.396.9.351.917.329.918.338.94.32.985.284 1.014.056.918.013.884-.003.832.004.791.004c-.18 0-.392-.04-.412.12C.35.345.348.314.225.499.189.551.159.604.12.656a.65.65 0 0 0-.07.627c.025.057.083.09.15.112.037.013.083.013.111.023.032.011.182.166.47.193a.998.998 0 0 0 .448-.06c.019-.006.078-.022.062-.055-.033-.067-.32.19-.763-.011a.768.768 0 0 1-.163-.099c-.045-.036-.034-.02-.102-.032a.33.33 0 0 1-.098-.035C.045 1.253.046 1.033.069.91A.47.47 0 0 1 .143.725C.235.588.41.356.428.21.44.117.43.061.538.061c.085-.002.186-.004.27 0zm-.35.42C.42.48.415.497.414.535c-.008.167.03.447-.12.492-.1.03-.005.119.105-.005C.475.937.463.784.467.677.47.622.487.52.457.482zm.033.742c-.026.03.06.09.082.106.095.064.21.088.324.063.04-.01.132-.046.146-.07.016-.024-.006-.047-.033-.04-.012.003-.047.027-.067.036a.356.356 0 0 1-.383-.07C.54 1.23.52 1.19.49 1.223z"/>
</svg>
