<?xml version="1.0" encoding="UTF-8"?>
<!DOCTYPE svg PUBLIC "-//W3C//DTD SVG 1.1//EN" "http://www.w3.org/Graphics/SVG/1.1/DTD/svg11.dtd">
<!-- Creator: CorelDRAW 2017 -->
<svg xmlns="http://www.w3.org/2000/svg" xml:space="preserve" width="100%" height="100%" version="1.1" style="shape-rendering:geometricPrecision; text-rendering:geometricPrecision; image-rendering:optimizeQuality; fill-rule:evenodd; clip-rule:evenodd"
viewBox="0 0 1.70737 1.78348"
 xmlns:xlink="http://www.w3.org/1999/xlink">
 <defs>
  <style type="text/css">
   <![CDATA[
    .str0 {stroke:#FEFEFE;stroke-width:0.0458;stroke-miterlimit:22.9256}
    .fil0 {fill:none}
    .fil1 {fill:#FEFEFE;fill-rule:nonzero}
   ]]>
  </style>
 </defs>
 <g id="Camada_x0020_1">
  <metadata id="CorelCorpID_0Corel-Layer"/>
  <g id="_2041079962320">
   <path class="fil0 str0" d="M1.03681 1.145l0.08136 -0.08612 -0.0435 -0.04536c0.04703,-0.07736 0.07231,-0.15944 0.0758,-0.24627 0.06367,0.01996 0.10025,-0.04985 0.11614,-0.18825 -0.01354,-0.16514 -0.05549,-0.28425 -0.09179,-0.3825 -0.0856,-0.23164 -0.26756,-0.21217 -0.33376,-0.05526l-0.0612 -0.07133 -0.6707 0.57748 0.0612 0.07133c-0.17406,-0.0122 -0.20835,0.21469 -0.02551,0.33315 0.11368,0.07365 0.24577,0.13044 0.40367,0.14976 0.11962,0.01463 0.17813,-0.02354 0.17437,-0.07085 0.0866,0.00578 0.17519,-0.00752 0.26587,-0.04089l0.04805 0.05511zm-0.83144 -0.37068c0.12704,0.15271 0.24132,0.26424 0.33503,0.30957m0.37442 -0.88487c0.12316,0.15585 0.20869,0.2907 0.23368,0.39176m-0.18285 0.57833c-0.00088,0.07901 0.01269,0.16342 0.03809,0.27486m0.11846 0.16265l-0.16798 -0.13257 -0.06136 0.09007 0.16875 0.12523 0.06059 -0.08273zm0.02043 -0.05353l0.17706 -0.09654 0.12041 -0.15812 -0.03737 -0.10409 -0.15647 -0.11838 -0.04038 -0.00421m-0.04122 0.60795l0.05386 0.07056 0.45672 -0.39388 -0.08092 -0.09565 -0.05774 0.01995"/>
   <polygon class="fil1" points="0.80612,0.85412 0.58915,0.58657 0.54024,0.66784 0.48406,0.59857 0.54025,0.48727 0.6045,0.43517 0.88944,0.78655 "/>
  </g>
 </g>
</svg>
