<svg xmlns="http://www.w3.org/2000/svg" width="100%" height="100%" fill-rule="evenodd" clip-rule="evenodd" image-rendering="optimizeQuality" shape-rendering="geometricPrecision" text-rendering="geometricPrecision" version="1.1" viewBox="0 0 1.569 1.359" xml:space="preserve">
  <path fill="#fefefe" d="M1.203 1.229c0-.058.054-.093.11-.072.007.003.019.01.024.015.053.053.006.163-.088.128a.083.083 0 0 1-.024-.015.083.083 0 0 1-.016-.024.182.182 0 0 1-.006-.032zm.08.13h-.01c-.067-.003-.116-.065-.12-.104H.756a.132.132 0 0 1-.042.072.147.147 0 0 1-.083.032H.62C.552 1.356.503 1.294.5 1.255H.395c-.027 0-.081.007-.081-.02v-.51c0-.023.052-.032.052.007v.47H.5a.135.135 0 0 1 .04-.07c.045-.035.091-.046.143-.021a.153.153 0 0 1 .033.022.165.165 0 0 1 .025.032.09.09 0 0 1 .014.037h.29V.575H.759C.731.575.732.553.732.542c0-.007.012-.02.02-.02h.326c.011 0 .02.015.02.027v.13h.19c.01 0 .133.13.143.139.01.01.138.132.138.143v.268c0 .033-.036.026-.069.026h-.092a.132.132 0 0 1-.042.072.147.147 0 0 1-.083.032zM.55 1.23c0-.103.157-.103.157 0 0 .058-.054.092-.11.071-.031-.01-.047-.043-.047-.071zm.605-.027h-.056V.993h.418v.21h-.108a.09.09 0 0 0-.014-.038c-.021-.035-.064-.067-.1-.067-.044 0-.06.002-.1.034a.135.135 0 0 0-.04.07zm-.056-.47h.167c.011 0 .14.136.159.154.014.015.043.04.053.055h-.379v-.21zM.34.575A.263.263 0 0 1 .102.424.263.263 0 0 1 .23.076a.274.274 0 0 1 .218 0 .252.252 0 0 1 .146.18.257.257 0 0 1-.196.312.37.37 0 0 1-.058.007zM.026.297c0 .086.013.128.058.197L.1.514a.31.31 0 0 0 .42.055L.54.553C.562.535.56.54.578.516A.306.306 0 0 0 .579.113C.561.092.565.094.542.076.534.069.532.066.522.059a.314.314 0 0 0-.465.12.275.275 0 0 0-.03.118zm.288-.12v.17c0 .01.014.019.026.019h.104c.039 0 .03-.052.007-.052H.366V.183C.366.144.314.153.314.176zM0 .913C0 .925.003.94.026.94h.21c.036 0 .03-.052.006-.052H.02C.012.889 0 .9 0 .909v.005zm.105.099c0 .012.002.033.02.033h.117c.027 0 .024-.053 0-.053H.124c-.008 0-.02.012-.02.02zm.052.105c0 .04.02.032.078.032.038 0 .03-.052.007-.052-.031 0-.085-.008-.085.02z"/>
</svg>
