<svg xmlns="http://www.w3.org/2000/svg" width="100%" height="100%" fill-rule="evenodd" clip-rule="evenodd" image-rendering="optimizeQuality" shape-rendering="geometricPrecision" text-rendering="geometricPrecision" version="1.1" viewBox="0 0 3.381 2.01" xml:space="preserve">
  <path fill="#fefefe" d="M2.358 0H1.019L.99.12H2.33c.087 0 .141.072.12.159l-.204.86h.606l.17-.116c.02.009.04.016.06.022l.12.03c.047.012.07.03.07.08v.416c0 .029-.006.052-.038.052h-.384c-.014-.111-.101-.19-.226-.19s-.25.079-.317.19h-.834c-.014-.111-.101-.19-.226-.19s-.25.079-.317.19H.5l-.025.106h.41c-.032.156.066.28.223.28a.389.389 0 0 0 .355-.28h.8c-.033.156.065.28.222.28a.389.389 0 0 0 .355-.28h.366c.103 0 .175-.084.174-.183V1.13C3.38 1.055 3.35.996 3.25.97l-.12-.03A.227.227 0 0 1 3 .852l-.196-.28C2.753.499 2.697.508 2.63.508h-.115l.054-.23C2.607.126 2.511 0 2.358 0zM1.22 1.538c.1 0 .163.082.14.183a.246.246 0 0 1-.227.183c-.102 0-.164-.082-.14-.183a.246.246 0 0 1 .227-.183zm1.377 0c.1 0 .163.082.14.183a.246.246 0 0 1-.227.183c-.102 0-.164-.082-.14-.183a.246.246 0 0 1 .227-.183zm.25-.505h-.457l.1-.419h.115c.051 0 .076-.009.104.03l.197.281c.01.015.022.029.035.042l-.093.066zM1.842.422H.547l-.026.11h1.293l.027-.11zm-.399.533H.026L0 1.065h1.416l.026-.11z"/>
</svg>
