<?xml version="1.0" encoding="UTF-8"?>
<!DOCTYPE svg PUBLIC "-//W3C//DTD SVG 1.1//EN" "http://www.w3.org/Graphics/SVG/1.1/DTD/svg11.dtd">
<!-- Creator: CorelDRAW 2017 -->
<svg xmlns="http://www.w3.org/2000/svg" xml:space="preserve" width="100%" height="100%" version="1.1" style="shape-rendering:geometricPrecision; text-rendering:geometricPrecision; image-rendering:optimizeQuality; fill-rule:evenodd; clip-rule:evenodd"
viewBox="0 0 1.67486 1.48622"
 xmlns:xlink="http://www.w3.org/1999/xlink">
 <defs>
  <style type="text/css">
   <![CDATA[
    .str0 {stroke:#FE4F32;stroke-width:0.03657;stroke-linecap:round;stroke-linejoin:round;stroke-miterlimit:22.9256}
    .fil0 {fill:none}
    .fil1 {fill:#FE4F32}
   ]]>
  </style>
 </defs>
 <g id="Camada_x0020_1">
  <metadata id="CorelCorpID_0Corel-Layer"/>
  <path class="fil0 str0" d="M1.08498 1.45436c-0.01074,-0.08785 -0.05749,-0.16568 -0.15614,-0.21045 -0.04816,-0.02186 -0.09777,-0.07587 -0.14256,-0.16293m-0.38018 -0.21725c-0.06461,0.11697 0.18325,0.27717 0.42544,0.20819 0.0661,-0.01882 0.10527,-0.03769 0.15191,-0.05101 0.14379,-0.04104 0.26054,-0.06177 0.40477,-0.12323 0.29155,0.03026 0.36999,-0.3667 0.11315,-0.53179 -0.09305,-0.02986 -0.23055,0.0751 -0.17877,0.16746m-0.18783 -0.32134c0.02814,-0.14622 -0.11962,-0.18728 -0.32106,-0.19322 -0.20612,-0.00607 -0.3508,0.0418 -0.44834,0.12759m1.12468 0.21272c0.00386,-0.13624 -0.20751,-0.31032 -0.39375,-0.28061m-0.64494 0.1652c-0.00485,-0.05234 -0.04493,-0.08119 -0.10409,-0.09731 -0.21056,0.12071 -0.3417,0.2893 -0.32813,0.51821 0.01497,0.25264 0.17504,0.33155 0.39601,0.3055m-0.23308 -0.69246c0.04508,0.0413 0.04548,0.09281 0.02489,0.16067 -0.02576,0.08492 0.00148,0.14335 0.0611,0.16972m-0.04752 -0.21951c0.041,0.06586 0.08798,0.08879 0.1471,0.07016m-0.24667 0.15614c-0.00918,0.06999 0.01669,0.11406 0.08599,0.12672 0.0693,0.01267 0.0932,0.057 0.08826,0.12673m0.42317 -0.72867c0.00972,-0.0564 0.04233,-0.09371 0.08825,-0.11993m0.568 0.36885c-0.02281,-0.0502 -0.07299,-0.0652 -0.13804,-0.06109m-0.02942 0.63362c-0.03267,-0.16921 0.02288,-0.22983 0.1471,-0.20593 0.04568,-0.03214 0.0652,-0.08174 0.07467,-0.13804m0.09957 0.11315c-0.03545,-0.02187 -0.07996,-0.02565 -0.11993,-0.03847m-0.50238 0.35528c0.08508,0.14706 0.20102,0.25071 0.44128,0.13351 0.15319,-0.07472 0.17195,-0.18578 0.15388,-0.30097m-0.17651 0.2263c-0.12726,0.04564 -0.23557,0.00792 -0.33266,-0.07921m0.40281 -0.02941c-0.10579,0.03911 -0.19529,0.01853 -0.28287,-0.00905m0.03847 0.2376c0.02368,0.08072 0.03363,0.16143 0.02715,0.24214"/>
  <path class="fil1" d="M0.62109 0.2799l0.04299 0 0 -0.05771c0,-0.00996 0.00814,-0.0181 0.0181,-0.0181l0.00001 0c0.00996,0 0.0181,0.00814 0.0181,0.0181l0 0.05771 0.04299 0 0 -0.05771c0,-0.00996 0.00815,-0.0181 0.01811,-0.0181l0 0c0.00996,0 0.0181,0.00814 0.0181,0.0181l0 0.05771 0.043 0 0 -0.05771c0,-0.00996 0.00814,-0.0181 0.0181,-0.0181l0 0c0.00996,0 0.01811,0.00814 0.01811,0.0181l0 0.05771 0.04299 0 0 -0.05771c0,-0.00996 0.00814,-0.0181 0.0181,-0.0181l0.00001 0c0.00996,0 0.0181,0.00814 0.0181,0.0181l0 0.05771 0.04299 0 0 -0.05771c0,-0.00996 0.00814,-0.0181 0.0181,-0.0181l0.00001 0c0.00996,0 0.0181,0.00814 0.0181,0.0181l0 0.05799c0.03942,0.0033 0.07109,0.03497 0.07439,0.07439l0.05799 0c0.00996,0 0.0181,0.00814 0.0181,0.0181l0 0.00001c0,0.00996 -0.00814,0.0181 -0.0181,0.0181l-0.0577 0 0 0.04299 0.0577 0c0.00996,0 0.0181,0.00814 0.0181,0.01811l0 0c0,0.00996 -0.00814,0.0181 -0.0181,0.0181l-0.0577 0 0 0.043 0.0577 0c0.00996,0 0.0181,0.00814 0.0181,0.0181l0 0c0,0.00996 -0.00814,0.01811 -0.0181,0.01811l-0.0577 0 0 0.04299 0.0577 0c0.00996,0 0.0181,0.00814 0.0181,0.0181l0 0.00001c0,0.00996 -0.00814,0.0181 -0.0181,0.0181l-0.0577 0 0 0.04299 0.0577 0c0.00996,0 0.0181,0.00814 0.0181,0.0181l0 0.00001c0,0.00996 -0.00814,0.0181 -0.0181,0.0181l-0.0577 0 0 0.04299 0.0577 0c0.00996,0 0.0181,0.00815 0.0181,0.01811l0 0c0,0.00996 -0.00814,0.0181 -0.0181,0.0181l-0.05799 0c-0.00329,0.03943 -0.03496,0.0711 -0.07439,0.07439l0 0.058c0,0.00996 -0.00814,0.0181 -0.0181,0.0181l-0.00001 0c-0.00996,0 -0.0181,-0.00814 -0.0181,-0.0181l0 -0.05771 -0.04299 0 0 0.05771c0,0.00996 -0.00814,0.0181 -0.0181,0.0181l-0.00001 0c-0.00996,0 -0.0181,-0.00814 -0.0181,-0.0181l0 -0.05771 -0.04299 0 0 0.05771c0,0.00996 -0.00815,0.0181 -0.01811,0.0181l0 0c-0.00996,0 -0.0181,-0.00814 -0.0181,-0.0181l0 -0.05771 -0.043 0 0 0.05771c0,0.00996 -0.00814,0.0181 -0.0181,0.0181l0 0c-0.00996,0 -0.01811,-0.00814 -0.01811,-0.0181l0 -0.05771 -0.04299 0 0 0.05771c0,0.00996 -0.00814,0.0181 -0.0181,0.0181l-0.00001 0c-0.00996,0 -0.0181,-0.00814 -0.0181,-0.0181l0 -0.05771 -0.04299 0 0 0.05771c0,0.00996 -0.00814,0.0181 -0.0181,0.0181l-0.00001 0c-0.00996,0 -0.0181,-0.00814 -0.0181,-0.0181l0 -0.058c-0.03943,-0.00329 -0.0711,-0.03496 -0.07439,-0.07439l-0.058 0c-0.00996,0 -0.0181,-0.00814 -0.0181,-0.0181l0 0c0,-0.00996 0.00814,-0.01811 0.0181,-0.01811l0.05771 0 0 -0.04299 -0.05771 0c-0.00996,0 -0.0181,-0.00814 -0.0181,-0.0181l0 -0.00001c0,-0.00996 0.00814,-0.0181 0.0181,-0.0181l0.05771 0 0 -0.04299 -0.05771 0c-0.00996,0 -0.0181,-0.00814 -0.0181,-0.0181l0 -0.00001c0,-0.00996 0.00814,-0.0181 0.0181,-0.0181l0.05771 0 0 -0.04299 -0.05771 0c-0.00996,0 -0.0181,-0.00815 -0.0181,-0.01811l0 0c0,-0.00996 0.00814,-0.0181 0.0181,-0.0181l0.05771 0 0 -0.043 -0.05771 0c-0.00996,0 -0.0181,-0.00814 -0.0181,-0.0181l0 0c0,-0.00997 0.00814,-0.01811 0.0181,-0.01811l0.05771 0 0 -0.04299 -0.05771 0c-0.00996,0 -0.0181,-0.00814 -0.0181,-0.0181l0 -0.00001c0,-0.00996 0.00814,-0.0181 0.0181,-0.0181l0.058 0c0.00329,-0.03942 0.03497,-0.07109 0.07439,-0.07439l0 -0.05799c0,-0.00996 0.00814,-0.0181 0.0181,-0.0181l0.00001 0c0.00996,0 0.0181,0.00814 0.0181,0.0181l0 0.05771zm-0.02942 0.07429l0.41865 0c0.00394,0 0.00716,0.00322 0.00716,0.00717l0 0.41864c0,0.00395 -0.00322,0.00717 -0.00716,0.00717l-0.41865 0c-0.00394,0 -0.00717,-0.00322 -0.00717,-0.00717l0 -0.41864c0,-0.00395 0.00323,-0.00717 0.00717,-0.00717zm0.07467 0.05922l0.2693 0c0.01244,0 0.02262,0.01018 0.02262,0.02263l0 0.26929c0,0.01245 -0.01018,0.02263 -0.02262,0.02263l-0.2693 0c-0.01244,0 -0.02262,-0.01018 -0.02262,-0.02263l0 -0.26929c0,-0.01245 0.01018,-0.02263 0.02262,-0.02263z"/>
 </g>
</svg>
