<?xml version="1.0" encoding="UTF-8"?>
<!DOCTYPE svg PUBLIC "-//W3C//DTD SVG 1.1//EN" "http://www.w3.org/Graphics/SVG/1.1/DTD/svg11.dtd">
<!-- Creator: CorelDRAW 2017 -->
<svg xmlns="http://www.w3.org/2000/svg" xml:space="preserve" width="100%" height="100%" version="1.1" style="shape-rendering:geometricPrecision; text-rendering:geometricPrecision; image-rendering:optimizeQuality; fill-rule:evenodd; clip-rule:evenodd"
viewBox="0 0 1.22547 1.57388"
 xmlns:xlink="http://www.w3.org/1999/xlink">
 <defs>
  <style type="text/css">
   <![CDATA[
    .str0 {stroke:#FE4F32;stroke-width:0.04;stroke-linecap:round;stroke-linejoin:round;stroke-miterlimit:22.9256}
    .fil0 {fill:none}
   ]]>
  </style>
 </defs>
 <g id="Camada_x0020_1">
  <metadata id="CorelCorpID_0Corel-Layer"/>
  <path class="fil0 str0" d="M0.02287 1.54768c-0.01805,-0.32404 0.05082,-0.6114 0.11682,-0.89414 0.03536,-0.15147 0.03376,-0.20228 0.00449,-0.29206 -0.03401,-0.10435 -0.07501,-0.21543 -0.10334,-0.34148 0.03374,0.07595 0.09464,0.12696 0.19671,0.12476l0.14882 -0.00321c0.11093,-0.00239 0.15911,-0.05004 0.17568,-0.12155m0.00206 0.30564c0.01002,0.0226 -0.00525,0.0413 -0.03685,0.0433 -0.0476,0.00302 -0.09844,0.00115 -0.14234,-0.00189m0.18929 0.1892c0.00496,0.01586 -0.00694,0.0312 -0.03853,0.0332 -0.04759,0.00301 -0.07824,0.00619 -0.12215,0.00316m-0.16948 0.17071c0.02748,0.06173 0.04883,0.10156 0.10773,0.16328m-0.32594 0.4379c0.07548,0.0534 0.29646,0.08193 0.52454,0.07766m-0.08447 -0.21118c0.02167,0.04475 0.05191,0.06652 0.10219,0.09673 -0.00017,0.10241 -0.02256,0.18189 -0.06268,0.22617m0.1046 -0.79364c-0.01338,0 -0.02423,0.01085 -0.02423,0.02424 0,0.01338 0.01085,0.02423 0.02423,0.02423 0.01339,0 0.02424,-0.01085 0.02424,-0.02423 0,-0.01339 -0.01085,-0.02424 -0.02424,-0.02424zm0.59258 0.78744c0.01805,-0.32404 -0.05083,-0.6114 -0.11682,-0.89414 -0.03536,-0.15147 -0.03376,-0.20228 -0.00449,-0.29206 0.03401,-0.10435 0.07501,-0.21543 0.10334,-0.34148 -0.03374,0.07595 -0.09464,0.12696 -0.19671,0.12476l-0.14882 -0.00321c-0.11093,-0.00239 -0.15911,-0.05004 -0.17568,-0.12155m-0.00206 0.30564c-0.01002,0.0226 0.00525,0.0413 0.03685,0.0433 0.0476,0.00302 0.09844,0.00115 0.14234,-0.00189m-0.18929 0.1892c-0.00496,0.01586 0.00694,0.0312 0.03853,0.0332 0.04759,0.00301 0.07824,0.00619 0.12215,0.00316m0.16948 0.17071c-0.02748,0.06173 -0.04883,0.10156 -0.10773,0.16328m0.32594 0.4379c-0.07548,0.0534 -0.29646,0.08193 -0.52454,0.07766m0.08447 -0.21118c-0.02167,0.04475 -0.05191,0.06652 -0.10219,0.09673 0.00017,0.10241 0.02256,0.18189 0.06268,0.22617m-0.15195 -0.22617l0.08927 0m-0.55585 -0.48061c0.08799,0.0482 0.20612,0.08872 0.348,0.10235 0.09559,0.0092 0.22298,0.0092 0.31872,0.0008 0.14575,-0.01279 0.26689,-0.05397 0.35667,-0.10315"/>
 </g>
</svg>
