<svg xmlns="http://www.w3.org/2000/svg" width="100%" height="100%" fill-rule="evenodd" clip-rule="evenodd" image-rendering="optimizeQuality" shape-rendering="geometricPrecision" text-rendering="geometricPrecision" version="1.1" viewBox="0 0 1.2255 1.5739" xml:space="preserve">
  <path fill="none" stroke="#fe4f32" stroke-linecap="round" stroke-linejoin="round" stroke-miterlimit="22.9256" stroke-width=".04" d="M.0229 1.5477c-.018-.324.0508-.6114.1168-.8942C.175.5021.1734.4513.1442.3615.1102.257.0692.146.0408.02c.0338.076.0947.127.1967.1248L.3864.1415C.4973.1392.5454.0915.562.02m.0021.3056C.5741.3482.559.367.5273.369A1.1065 1.1065 0 0 1 .3849.367m.1893.1892c.005.016-.007.0312-.0385.0332C.488.5924.4574.5956.4135.5926M.244.7633C.2715.8251.293.865.3518.9266m-.326.4379c.0755.0534.2965.082.5246.0777M.4659 1.231c.0217.0447.052.0665.1022.0967-.0002.1024-.0226.1819-.0627.2262M.61.7602a.0242.0242 0 1 0 0 .0485.0242.0242 0 0 0 0-.0485zm.5926.7875c.018-.324-.0508-.6114-.1168-.8942-.0354-.1514-.0338-.2022-.0045-.292.034-.1044.075-.2154.1033-.3415C1.151.096 1.09.147.988.1448L.8391.1416C.7281.1392.68.0916.6634.02m-.002.3056C.6514.3482.6666.367.6982.369.7458.372.7967.3701.8406.3671M.6513.5563C.6463.572.6582.5875.6898.5895c.0476.003.0782.0061.1221.0031m.1695.1707C.954.8251.9326.865.8737.9266m.326.4379c-.0756.0534-.2965.082-.5246.0777m.0845-.2112c-.0217.0447-.052.0665-.1022.0967.0001.1024.0225.1819.0627.2262m-.152-.2262h.0893M.1015.8471c.088.0482.2061.0887.348.1024.0956.0092.223.0092.3187.0008.1458-.0128.267-.054.3567-.1032"/>
</svg>
