<svg xmlns="http://www.w3.org/2000/svg" width="100%" height="100%" fill-rule="evenodd" clip-rule="evenodd" image-rendering="optimizeQuality" shape-rendering="geometricPrecision" text-rendering="geometricPrecision" version="1.1" viewBox="0 0 2.64152 10.28071" xml:space="preserve">
  <path fill="none" stroke="#fe4f32" stroke-miterlimit="22.9256" stroke-width=".05" d="M.97636 7.62831l-.39096.19367.18189.13794h.20907v.22153H.025v-.22153h.43899L.025 7.65277v-.25415l.36967.27997.58169-.29492v.24464zM.025 7.28038v-.2256h.75293v-.3955h.19843v.6211H.025zm0-.75021V5.8751h.19571v.42947h.1726v-.34385H.5863v.34385h.19435V5.8751h.19571v.65507H.025zm0-1.37402v-.21881h.95136v.20929l-.58984.35608h.58984v.21881H.025v-.22923l.55949-.33614H.025zm0-.40909v-.5246c0-.06524.01835-.1128.05505-.1427.03669-.0299.10034-.04485.19095-.04485.07067 0 .12164.00679.15289.02038.03126.01359.05323.03942.06592.07747.00906-.04077.03126-.06909.06659-.08494.03534-.01586.0897-.02379.16309-.02379.09514 0 .16173.01495.19979.04485.03805.0299.05708.07747.05708.14271v.53547H.025zm.37783-.2256v-.23512c0-.00997-.00544-.01677-.01631-.02039-.01087-.00362-.03715-.00544-.07883-.00544-.0299 0-.05164.00091-.06523.00272-.01359.00181-.02198.00431-.02515.00748-.00317.00317-.00475.00838-.00475.01563v.23512h.19027zm.38598 0v-.246c0-.00724-.00182-.01245-.00544-.01563-.00362-.00317-.01314-.00566-.02854-.00747-.0154-.00181-.03941-.00272-.07203-.00272-.03262 0-.05663.00091-.07203.00272-.01541.00181-.02492.0043-.02854.00747-.00363.00318-.00544.00839-.00544.01563v.246h.21202zM.025 3.30237v-.21881h.95136v.20929l-.58984.35608h.58984v.21881H.025v-.22923l.55949-.33614H.025zm.95136-.94456v.36559c0 .12503-.06252.18755-.18755.18755H.21256c-.12504 0-.18756-.06252-.18756-.18755v-.36559c0-.06343.01541-.11054.04621-.14135.03081-.0308.07792-.04621.14135-.04621h.57625c.12503 0 .18755.06252.18755.18756zm-.72983.32754h.5083c.01721 0 .02582-.00861.02582-.02583v-.23784c0-.00996-.00181-.01676-.00543-.02038-.00363-.00363-.01042-.00544-.02039-.00544h-.5083c-.00996 0-.01676.00181-.02038.00544-.00363.00362-.00544.01042-.00544.02038v.23784c0 .00997.00181.01676.00544.02039.00362.00362.01042.00544.02038.00544zM.025 1.02999h.95136v.22017H.39875l.45665.1914v.1495l-.45665.19186h.57761v.21473H.025v-.25143l.53027-.23444L.025 1.27915v-.24916zM.77522.32417v.31032l.20114.05527v.23286L.025.64016V.3244L.97636.03378v.22878L.77522.32417zM.58359.38306L.2112.48228l.37239.10057V.38306zm.68226 8.57572h-.4253v1.29693H.45264V8.95878H.025v-.33884h1.24085v.33884zm.5211.78283v.00935c0 .05297.00156.09191.00468.11684.00311.02493.0074.04089.01285.0479.00545.00701.01441.01052.02687.01052h.35286c.01246 0 .02142-.00312.02687-.00935.00546-.00623.00974-.02181.01286-.04673.00311-.02493.00467-.06388.00467-.11684 0-.05297-.00156-.09192-.00467-.11684-.00312-.02493-.0074-.04051-.01286-.04674-.00545-.00623-.01441-.00935-.02687-.00935H1.815v-.32248h.35052c.01713 0 .02882-.00896.03505-.02687.00623-.01792.00935-.06037.00935-.12736 0-.06854-.00312-.11139-.00935-.12852-.00623-.01714-.01792-.02571-.03505-.02571h-.31547c-.01714 0-.02882.00857-.03505.02571-.00624.01713-.00935.05998-.00935.12852v.02804h-.38791v-.08178c0-.15891.0257-.27029.07711-.33417.05141-.06387.1332-.09581.24537-.09581h.53513c.11216 0 .19395.03155.24536.09464.05141.0631.07712.17254.07712.32833 0 .12307-.0113.21109-.03389.26406-.02259.05296-.0666.09035-.13203.11216.07011.01714.1184.05531.14489.11451.02648.05919.03972.15267.03972.28041 0 .16358-.0257.27808-.07711.34351-.05141.06543-.1332.09815-.24537.09815h-.57252c-.11216 0-.19395-.03272-.24536-.09815-.05141-.06543-.07712-.17993-.07712-.34351v-.07244h.38791z"/>
</svg>
