<svg xmlns="http://www.w3.org/2000/svg" width="100%" height="100%" fill-rule="evenodd" clip-rule="evenodd" image-rendering="optimizeQuality" shape-rendering="geometricPrecision" text-rendering="geometricPrecision" version="1.1" viewBox="0 0 1.939 1.941" xml:space="preserve">
  <defs>
    <style type="text/css">
      .fil0{fill:#fefefe}.fil1,.fil3{fill:#373435;fill-rule:nonzero}.fil3{fill:#00afef}
    </style>
  </defs>
  <g id="Camada_x0020_1">
    <g id="_2075659042720">
      <path d="M.664.57H.84v.937H.664z" class="fil0"/>
      <path id="1" d="M.84.58H.664V.56H.84l.01.01-.01.01zm0-.02a.01.01 0 0 1 .01.01.01.01 0 0 1-.01.01V.56zm-.01.947V.57h.02v.937l-.01.01-.01-.01zm.02 0a.01.01 0 0 1-.02 0h.02zm-.186-.01H.84v.02H.664l-.01-.01.01-.01zm0 .02a.01.01 0 0 1-.01-.01.01.01 0 0 1 .01-.01v.02zM.674.57v.937h-.02V.57l.01-.01.01.01zm-.02 0a.01.01 0 0 1 .02 0h-.02z" class="fil1"/>
      <path d="M1.274.57H.84v.937h.434z" class="fil0"/>
      <path id="1" d="M.84.58L.83.57.84.56h.434v.02H.84zm0-.02v.02A.01.01 0 0 1 .83.57.01.01 0 0 1 .84.56zm.01.947l-.01.01-.01-.01V.57h.02v.937zm-.02 0h.02a.01.01 0 0 1-.01.01.01.01 0 0 1-.01-.01zm.444-.01l.01.01-.01.01H.84v-.02h.434zm0 .02v-.02a.01.01 0 0 1 .01.01.01.01 0 0 1-.01.01zM1.264.57l.01-.01.01.01v.937h-.02V.57zm.02 0h-.02a.01.01 0 0 1 .01-.01.01.01 0 0 1 .01.01z" class="fil1"/>
      <path d="M1.274.57H.84L.757.418h.435z" class="fil0"/>
      <path id="1" d="M.84.56h.434v.02H.84L.83.576.84.56zm0 .02A.01.01 0 0 1 .829.57a.01.01 0 0 1 .01-.01v.02zM.767.414l.082.152-.02.01L.748.422l.01-.015.01.006zm-.02.01A.01.01 0 0 1 .752.407a.011.011 0 0 1 .015.005l-.02.01zm.445.005H.757v-.02h.435l.01.005-.01.015zm0-.02a.01.01 0 0 1 .01.01.01.01 0 0 1-.01.01v-.02zm.073.167L1.182.422l.02-.01.082.153-.01.016-.01-.006zm.019-.01a.01.01 0 0 1-.005.015.011.011 0 0 1-.014-.005l.019-.01z" class="fil1"/>
      <path d="M1.192.355H.757v.063h.435z" class="fil0"/>
      <path id="1" d="M.757.366L.748.356l.01-.011h.434v.02H.757zm0-.021v.02C.752.366.748.362.748.356s.004-.01.01-.01zm.009.073l-.009.01-.009-.01V.355h.018v.063zm-.018 0h.018c0 .005-.004.01-.009.01C.752.428.748.423.748.418zm.444-.01l.009.01-.01.01H.758v-.02h.435zm0 .02v-.02c.005 0 .009.004.009.01 0 .005-.004.01-.01.01zM1.183.355l.009-.01.009.01v.063h-.018V.355zm.018 0h-.018c0-.006.004-.01.009-.01.005 0 .009.004.009.01z" class="fil1"/>
      <path stroke="#373435" stroke-linecap="round" stroke-linejoin="round" stroke-miterlimit="22.926" stroke-width=".021" d="M.84.57H.664L.757.418z" class="fil0"/>
      <path fill="#201e1e" fill-rule="nonzero" d="M.935.94V.917a.01.01 0 0 1 .01.01.01.01 0 0 1-.01.011zM.85.917H.935V.94H.85V.92zm0 0V.94a.01.01 0 0 1-.01-.01.01.01 0 0 1 .01-.01zM.958.881V.86a.01.01 0 0 1 .01.01.01.01 0 0 1-.01.011zM.848.86H.959V.88H.849V.86zm0 0V.88a.01.01 0 0 1-.01-.01.01.01 0 0 1 .01-.011zM.98.823V.802a.01.01 0 0 1 .01.01.01.01 0 0 1-.01.01zM.85.802H.98v.02H.85v-.02zm0 0v.02a.01.01 0 0 1-.01-.01.01.01 0 0 1 .01-.01zm.154-.037V.744a.01.01 0 0 1 .01.01.01.01 0 0 1-.01.01zM.849.744H1.003v.02H.849v-.02zm0 0v.02a.01.01 0 0 1-.01-.01.01.01 0 0 1 .01-.01zm.176-.038v-.02a.01.01 0 0 1 .01.01.01.01 0 0 1-.01.01zM.85.686H1.025v.02H.85v-.02zm0 0v.02a.01.01 0 0 1-.01-.01.01.01 0 0 1 .01-.01zm.199-.038v-.02a.01.01 0 0 1 .01.01.01.01 0 0 1-.01.01zm-.2 0v-.02h.2v.02h-.2zm0-.02v.02a.01.01 0 0 1-.01-.01.01.01 0 0 1 .01-.01zm.065.37V.975a.01.01 0 0 1 .01.01.01.01 0 0 1-.01.011zm-.064 0V.975h.064v.021H.849zm0-.022v.021a.01.01 0 0 1-.01-.01.01.01 0 0 1 .01-.01z"/>
      <path d="M1.22 1.305h.002v.002l.002.003a.032.032 0 0 1-.001.012l-.001.002H1.09l.13.053h.002l.001.002v.003a.04.04 0 0 1 0 .011l-.001.002h-.001l-.13.05h.13v.001l.002.002v.003a.033.033 0 0 1 0 .013l-.001.001h-.139c-.003 0-.005 0-.007-.002a.009.009 0 0 1-.002-.006v-.012l.001-.006.002-.005a.012.012 0 0 1 .004-.004.026.026 0 0 1 .005-.002l.108-.042v-.001l-.107-.044a.032.032 0 0 1-.006-.003.015.015 0 0 1-.004-.003.011.011 0 0 1-.002-.004v-.018a.01.01 0 0 1 0-.003l.001-.003.003-.002a.01.01 0 0 1 .004 0h.137z" class="fil3"/>
      <path id="1" d="M1.22 1.246h.002v.002l.002.003a.033.033 0 0 1-.001.012l-.001.002h-.145-.001l-.001-.002-.001-.003a.032.032 0 0 1 0-.01v-.002l.002-.002h.144z" class="fil3"/>
      <path id="2" d="M1.214 1.13h.004a.01.01 0 0 1 .003 0l.002.002v.067c0 .002 0 .004-.002.005 0 .002-.003.002-.006.002h-.138-.001l-.001-.002-.001-.003v-.004-.005-.003l.002-.002h.13v-.053-.002l.002-.001.003-.001h.003z" class="fil3"/>
      <path id="3" d="M1.22 1.012h.002v.002l.002.003v.005a.05.05 0 0 1 0 .006l-.002.004-.002.002-.074.054h.076v.002l.002.003a.033.033 0 0 1-.001.013l-.001.002h-.145-.001l-.001-.002-.001-.003v-.005-.005-.003l.002-.001h.067l-.066-.053a.007.007 0 0 1-.003-.004V1.03a.04.04 0 0 1 0-.012l.002-.002h.004a.03.03 0 0 1 .004.003l.06.05.07-.054a.02.02 0 0 1 .004-.002h.002z" class="fil3"/>
      <path fill="#e6e7e8" d="M1.51 1.776l-.054-.085-.011-.015-.029-.045-.025-.05.039-.037.002-.002a.728.728 0 0 0 .05-1.097l-.024.046a.54.54 0 0 1 .072.09.683.683 0 0 1-.214.984l.06.095.025.04.043.057-.065.039a.178.178 0 0 1-.042.019.91.91 0 0 1-.743 0 .933.933 0 0 1-.511-.593l-.052.003.002.007.001.002v.002a.517.517 0 0 0 .028.08l.001.001c.09.243.275.435.511.54.236.105.5.112.742.022.042-.018.085-.035.124-.06l.002-.001h.001a.763.763 0 0 0 .067-.042zM1.401.104c-.036.07-.066.134-.11.2L1.24.288 1.237.288a.728.728 0 0 0-.978.499L.31.784A.54.54 0 0 1 .352.678C.375.628.404.578.44.535a.683.683 0 0 1 .874-.157c.04-.072.072-.132.105-.206l.065.036a.177.177 0 0 1 .038.027.91.91 0 0 1 .366.646.933.933 0 0 1-.262.737l.028.044a.192.192 0 0 0 .005-.005l.001-.002.002-.001a.518.518 0 0 0 .055-.063l.001-.001v-.001a.955.955 0 0 0 .217-.712.981.981 0 0 0-.347-.655C1.55.194 1.514.165 1.473.144L1.472.143 1.47.142a.767.767 0 0 0-.069-.038zm-1.4.92l.1-.002.02-.002.053-.002.055.004.013.053v.002a.728.728 0 0 0 .918.604l-.028-.043a.539.539 0 0 1-.113.015.647.647 0 0 1-.167-.005.683.683 0 0 1-.569-.682L.17.968.123.97l-.07.007L.051.902c0-.016.001-.03.005-.045a.91.91 0 0 1 .38-.638c.202-.14.52-.22.758-.14l.012.003.025-.046a.203.203 0 0 0-.007-.002H1.22a.987.987 0 0 0-.81.145.981.981 0 0 0-.399.626C.006.851 0 .897.001.943v.003a.766.766 0 0 0 0 .079z"/>
      <rect width=".211" height="5.187" fill="#ed3237" rx=".105" ry=".105" transform="scale(-.4234 .4234) rotate(-45 -1.456 5.334)"/>
    </g>
  </g>
</svg>
