<svg xmlns="http://www.w3.org/2000/svg" width="100%" height="100%" fill-rule="evenodd" clip-rule="evenodd" image-rendering="optimizeQuality" shape-rendering="geometricPrecision" text-rendering="geometricPrecision" version="1.1" viewBox="0 0 3.209 .825" xml:space="preserve">
  <defs>
    <style type="text/css">
      .fil0{fill:#000;fill-rule:nonzero}
    </style>
  </defs>
  <g id="Camada_x0020_1">
    <g id="_1949625950080">
      <path d="M1.241.308l.028-.133H.905L.877.308h.11L.925.603h.143L1.13.308z" class="fil0"/>
      <path id="1" d="M1.234.603h.336l.022-.106h-.193L1.411.44h.171l.022-.102h-.171l.012-.056h.193l.023-.108h-.337z" class="fil0"/>
      <path id="2" d="M1.683.299a.116.116 0 0 0-.003.03c0 .022.005.04.016.053.01.013.023.024.039.032a.229.229 0 0 0 .051.018l.051.012a.267.267 0 0 1 .04.01c.01.004.015.01.015.017v.003a.048.048 0 0 1-.004.01.027.027 0 0 1-.01.009.057.057 0 0 1-.015.007.246.246 0 0 1-.101-.007A.207.207 0 0 1 1.71.47a2.865 2.865 0 0 1-.074.088.188.188 0 0 0 .038.022.292.292 0 0 0 .096.025.418.418 0 0 0 .048.003.31.31 0 0 0 .092-.012.233.233 0 0 0 .067-.032.17.17 0 0 0 .044-.045.143.143 0 0 0 .025-.078.09.09 0 0 0-.03-.07.183.183 0 0 0-.095-.038A2.96 2.96 0 0 1 1.86.32a.076.076 0 0 1-.02-.009A.014.014 0 0 1 1.833.3V.298l.001-.001C1.837.279 1.856.27 1.89.27c.02 0 .039.004.059.01.02.007.038.015.056.026l.071-.09A.263.263 0 0 0 1.993.18a.363.363 0 0 0-.182-.001.213.213 0 0 0-.065.028.148.148 0 0 0-.063.093z" class="fil0"/>
      <path id="3" d="M2.477.308l.029-.133h-.364l-.029.133h.11l-.062.295h.143l.062-.295z" class="fil0"/>
      <path id="4" d="M2.95.409l.008-.04a.155.155 0 0 0 .005-.047.14.14 0 0 0-.054-.115.175.175 0 0 0-.06-.03.328.328 0 0 0-.169.003.248.248 0 0 0-.18.19l-.007.039a.286.286 0 0 0-.005.047.136.136 0 0 0 .054.115.178.178 0 0 0 .06.03.32.32 0 0 0 .25-.042.242.242 0 0 0 .098-.15zM2.814.371l-.008.036a.1.1 0 0 1-.014.033.125.125 0 0 1-.024.027.104.104 0 0 1-.065.025.067.067 0 0 1-.049-.019.065.065 0 0 1-.019-.048l.002-.018.008-.036a.105.105 0 0 1 .037-.06.121.121 0 0 1 .03-.018.089.089 0 0 1 .035-.007.066.066 0 0 1 .069.067l-.002.018z" class="fil0"/>
      <path d="M1.044.679l.005-.027H.937l-.036.17h.033L.949.751h.072l.006-.027H.954l.01-.045z" class="fil0"/>
      <path id="1" d="M1.09.758l.036-.065.009.065H1.09zm.047.027l.006.037h.033l-.024-.17h-.034l-.097.17h.034l.021-.037h.061z" class="fil0"/>
      <path id="2" d="M1.347.786L1.321.771a.063.063 0 0 1-.02.017.05.05 0 0 1-.025.007.04.04 0 0 1-.015-.003.035.035 0 0 1-.011-.008.032.032 0 0 1-.008-.011.039.039 0 0 1-.002-.014v-.01l.005-.024a.061.061 0 0 1 .037-.042.05.05 0 0 1 .019-.003c.008 0 .015.002.021.006.007.004.01.01.013.017l.033-.015A.053.053 0 0 0 1.346.66a.07.07 0 0 0-.039-.01.095.095 0 0 0-.06.02.1.1 0 0 0-.022.025.086.086 0 0 0-.013.03l-.005.024a.078.078 0 0 0-.002.017.06.06 0 0 0 .005.024.054.054 0 0 0 .013.018.06.06 0 0 0 .02.012.093.093 0 0 0 .07-.006.102.102 0 0 0 .034-.028z" class="fil0"/>
      <path id="3" d="M1.513.652h-.125l-.006.03h.045l-.029.14h.033l.029-.14h.046z" class="fil0"/>
      <path id="4" d="M1.667.749l.005-.024a.073.073 0 0 0 .002-.016.06.06 0 0 0-.005-.025.054.054 0 0 0-.014-.018.06.06 0 0 0-.02-.012A.076.076 0 0 0 1.61.65a.095.095 0 0 0-.06.02.1.1 0 0 0-.022.025.086.086 0 0 0-.013.03L1.51.749a.078.078 0 0 0-.002.017.06.06 0 0 0 .005.024.054.054 0 0 0 .013.018.06.06 0 0 0 .02.012.077.077 0 0 0 .027.005.094.094 0 0 0 .06-.021.098.098 0 0 0 .035-.055zM1.638.725l-.004.023a.054.054 0 0 1-.008.018.065.065 0 0 1-.029.025.05.05 0 0 1-.019.003.04.04 0 0 1-.015-.002.035.035 0 0 1-.011-.008.032.032 0 0 1-.008-.011.044.044 0 0 1-.002-.024l.005-.024a.061.061 0 0 1 .037-.042.05.05 0 0 1 .019-.003c.005 0 .01 0 .015.002a.035.035 0 0 1 .019.02.039.039 0 0 1 .002.018v.005z" class="fil0"/>
      <path id="5" d="M1.835.71l.002-.012.001-.01c0-.01-.003-.019-.01-.026a.04.04 0 0 0-.03-.01h-.083l-.036.17h.032L1.725.76h.027a2.651 2.651 0 0 0 .024.063h.035L1.786.758a.04.04 0 0 0 .016-.005.068.068 0 0 0 .033-.043zM1.73.734l.012-.054h.044c.005 0 .01.002.013.005a.017.017 0 0 1 .005.012.018.018 0 0 1 0 .005l-.002.01a.022.022 0 0 1-.004.008.034.034 0 0 1-.014.012.024.024 0 0 1-.01.002H1.73z" class="fil0"/>
      <path fill="#000" d="M.373.247l-.126.02L.605 0l.211.065-.022.338L.43.625.453.532 0 .794l.227-.3-.101.01.247-.257zm.151.11L.558.37.59.386.587.422.584.458.548.466.513.474.495.442.476.412.5.383.524.357zM.595.088l.067.025.066.024-.002.07-.003.071-.068.02-.068.02-.04-.06L.509.2.552.144.595.088zM.341.38L.367.374.393.368.407.39l.014.023-.018.02-.017.02L.36.444.336.432.34.406.34.38z"/>
      <path d="M2.143.695h-.026l.007-.032h-.046L2.07.695h-.018l-.006.03h.018l-.01.046a.08.08 0 0 0-.002.017c0 .011.003.02.01.026.006.005.016.008.03.008h.023l.008-.038h-.01c-.004 0-.008 0-.01-.002-.002-.001-.003-.004-.003-.008V.767l.01-.042h.026l.006-.03z" class="fil0"/>
      <path id="1" d="M2.24.693a.038.038 0 0 0-.018.005.053.053 0 0 0-.016.012h-.001l.003-.015h-.046l-.027.127h.046l.015-.069a.02.02 0 0 1 .003-.008.031.031 0 0 1 .024-.013c.008 0 .015.002.018.005l.018-.04a.026.026 0 0 0-.008-.003L2.239.693z" class="fil0"/>
      <path id="2" d="M2.27.695l-.016.079a.094.094 0 0 0-.002.02c0 .01.003.017.008.022.005.006.014.008.026.008A.053.053 0 0 0 2.31.82a.051.051 0 0 0 .016-.012h.002l-.003.015h.046l.027-.127H2.35l-.016.072a.025.025 0 0 1-.007.013.019.019 0 0 1-.014.005c-.005 0-.008-.001-.01-.004A.015.015 0 0 1 2.3.771a.018.018 0 0 1 0-.004l.016-.072H2.27z" class="fil0"/>
      <path id="3" d="M2.471.779l.094-.085.009-.042h-.142l-.009.042h.076l-.001.001-.094.085-.008.042h.142L2.547.78h-.076z" class="fil0"/>
      <path id="4" d="M2.708.822h.049l.024-.17h-.05l-.053.08h-.001l-.018-.08h-.051l-.048.17h.049l.025-.086h.001l.018.069h.019l.047-.069h.001z" class="fil0"/>
      <path id="5" d="M2.856.756l.025-.05h.002l.004.05h-.031zm.035.038l.003.028h.05L2.92.652h-.051l-.098.17h.05l.016-.028h.055z" class="fil0"/>
      <path d="M3.095.181h-.074l-.004.018h.027l-.018.085h.02l.018-.085h.028z" class="fil0"/>
      <path id="1" d="M3.175.284h.02l.014-.103H3.19l-.042.062-.016-.062h-.019l-.029.103h.019L3.122.22h.001l.014.054h.009L3.183.22h.001z" class="fil0"/>
    </g>
  </g>
</svg>
