<svg xmlns="http://www.w3.org/2000/svg" width="100%" height="100%" fill-rule="evenodd" clip-rule="evenodd" image-rendering="optimizeQuality" shape-rendering="geometricPrecision" text-rendering="geometricPrecision" version="1.1" viewBox="0 0 2.608 .81" xml:space="preserve">
  <defs>
    <style type="text/css">
      .fil1{fill:none}.fil0{fill:#000;fill-rule:nonzero}
    </style>
  </defs>
  <g id="Camada_x0020_1">
    <path d="M1.025.301a.044.044 0 0 1 .011-.014.038.038 0 0 1 .018-.002h.159l-.03.058a.044.044 0 0 1-.012.013.038.038 0 0 1-.017.003h-.16l.031-.058zm.26-.153L1.253.21c-.004.007-.008.012-.01.013a.041.041 0 0 1-.018.003h-.23A.02.02 0 0 0 .98.232a.023.023 0 0 0-.006.016v.247H.868V.148h.417z" class="fil0"/>
    <path id="1" d="M1.761.285v.188a.023.023 0 0 1-.006.016.02.02 0 0 1-.016.006h-.262A.27.27 0 0 1 1.39.483a.163.163 0 0 1-.06-.035.14.14 0 0 1-.036-.055.21.21 0 0 1-.012-.071.21.21 0 0 1 .012-.071.14.14 0 0 1 .036-.055.163.163 0 0 1 .06-.035.27.27 0 0 1 .087-.013h.268L1.713.21A.04.04 0 0 1 1.7.223a.038.038 0 0 1-.017.003h-.197a.165.165 0 0 0-.036.004.07.07 0 0 0-.052.044.129.129 0 0 0-.008.048c0 .02.003.036.008.049A.07.07 0 0 0 1.42.4c.01.007.02.011.03.013a.185.185 0 0 0 .037.004L1.67.416V.359h-.165l.03-.058a.04.04 0 0 1 .011-.014.038.038 0 0 1 .017-.002h.198z" class="fil0"/>
    <path id="2" d="M1.937.148v.347H1.83V.148z" class="fil0"/>
    <path id="3" d="M2.427.148v.347H2.32V.36h-.187l.03-.058a.044.044 0 0 1 .012-.014.038.038 0 0 1 .017-.002h.128V.148h.107zm-.42 0h.105v.347h-.106V.148z" class="fil0"/>
    <path d="M1.062.635a.021.021 0 0 1 .005-.007.018.018 0 0 1 .008 0h.077l-.015.027a.021.021 0 0 1-.005.007.018.018 0 0 1-.009 0h-.076l.015-.027zm.125-.074l-.016.03c-.002.004-.003.006-.005.007a.02.02 0 0 1-.008 0h-.11a.01.01 0 0 0-.008.004.01.01 0 0 0-.003.008v.118H.986V.561h.2z" class="fil0"/>
    <path id="1" d="M1.331.71L1.326.701a.018.018 0 0 0-.009-.001H1.24l.015-.03a.025.025 0 0 1 .006-.007l.008-.001h.037L1.273.6l-.066.128h-.058a31.294 31.294 0 0 1 .092-.165.018.018 0 0 1 .008-.002h.057l.092.167h-.057L1.331.71z" class="fil0"/>
    <path id="2" d="M1.491.728A.13.13 0 0 1 1.45.722.079.079 0 0 1 1.42.706a.067.067 0 0 1-.017-.027.1.1 0 0 1-.005-.034.1.1 0 0 1 .005-.034c.004-.01.01-.02.017-.027a.078.078 0 0 1 .03-.017.13.13 0 0 1 .041-.006h.116l-.015.03a.021.021 0 0 1-.005.007.018.018 0 0 1-.009 0h-.082a.08.08 0 0 0-.017.003.033.033 0 0 0-.025.021.062.062 0 0 0-.004.023c0 .01.001.017.004.023a.033.033 0 0 0 .025.021.089.089 0 0 0 .017.002h.116l-.016.03a.021.021 0 0 1-.005.006.018.018 0 0 1-.008.001H1.49z" class="fil0"/>
    <path id="3" d="M1.758.728h-.05v-.13H1.62L1.635.57l.006-.006A.018.018 0 0 1 1.649.56h.197l-.015.03a.021.021 0 0 1-.006.007.018.018 0 0 1-.008 0h-.048a.01.01 0 0 0-.008.004.01.01 0 0 0-.003.008v.118z" class="fil0"/>
    <path id="4" d="M1.944.554c.035 0 .06.009.077.025a.089.089 0 0 1 .025.066.11.11 0 0 1-.006.037.073.073 0 0 1-.019.029.084.084 0 0 1-.031.018.142.142 0 0 1-.046.006A.142.142 0 0 1 1.9.73a.084.084 0 0 1-.031-.018.073.073 0 0 1-.019-.029.11.11 0 0 1-.006-.037c0-.027.008-.05.025-.066.016-.016.042-.025.076-.025zm0 .145c.008 0 .014-.001.021-.003A.042.042 0 0 0 1.982.69a.04.04 0 0 0 .012-.017A.069.069 0 0 0 2 .645a.07.07 0 0 0-.005-.027A.042.042 0 0 0 1.982.6a.04.04 0 0 0-.017-.008.098.098 0 0 0-.041 0 .04.04 0 0 0-.017.008.042.042 0 0 0-.012.017.07.07 0 0 0-.005.027c0 .011.002.02.005.027a.04.04 0 0 0 .012.017c.005.003.01.006.017.007a.099.099 0 0 0 .02.003z" class="fil0"/>
    <path id="5" d="M2.07.728V.561h.155a.061.061 0 0 1 .055.037.057.057 0 0 1 .006.023.06.06 0 0 1-.037.056l.06.051h-.064L2.19.681h-.054l.016-.03a.025.025 0 0 1 .005-.006l.008-.002h.047a.022.022 0 0 0 .022-.022A.022.022 0 0 0 2.213.6h-.08a.01.01 0 0 0-.008.003.01.01 0 0 0-.003.008v.118H2.07z" class="fil0"/>
    <g id="_1949717344592">
      <path stroke="#000" stroke-miterlimit="22.926" stroke-width=".029" d="M.31.451L.469.43l.07-.112M.469.43L.54.548" class="fil1"/>
      <circle r=".279" stroke="#000" stroke-miterlimit="22.926" stroke-width=".029" transform="rotate(-36.956 .58 -.861) scale(.57642)" class="fil1"/>
      <path stroke="#000" stroke-miterlimit="22.926" stroke-width=".029" d="M.579.093a.1.1 0 0 1 .145.04" class="fil1"/>
      <circle r=".279" stroke="#000" stroke-miterlimit="22.926" stroke-width=".029" transform="rotate(-36.956 .779 -.003) scale(.51326)" class="fil1"/>
      <path stroke="#000" stroke-miterlimit="22.926" stroke-width=".029" d="M.109.394A.088.088 0 0 1 .238.43" class="fil1"/>
      <circle r=".279" stroke="#000" stroke-miterlimit="22.926" stroke-width=".029" transform="rotate(-36.956 1.296 -.575) scale(.47378)" class="fil1"/>
      <path stroke="#000" stroke-miterlimit="22.926" stroke-width=".029" d="M.56.595a.082.082 0 0 1 .12.033" class="fil1"/>
    </g>
    <path d="M2.51.196h-.014V.16h-.024l.004-.008.001-.002h.058l-.004.008a.006.006 0 0 1-.002.002h-.016-.002V.197z" class="fil0"/>
    <path id="1" d="M2.608.15v.046h-.014V.16L2.58.196h-.014L2.554.16v.036H2.54V.152.15H2.561l.013.033a.327.327 0 0 1 .003-.01l.004-.01A.665.665 0 0 1 2.587.15h.022z" class="fil0"/>
  </g>
</svg>
