<?xml version="1.0" encoding="UTF-8"?>
<!DOCTYPE svg PUBLIC "-//W3C//DTD SVG 1.1//EN" "http://www.w3.org/Graphics/SVG/1.1/DTD/svg11.dtd">
<!-- Creator: CorelDRAW 2017 -->
<svg xmlns="http://www.w3.org/2000/svg" xml:space="preserve" width="100%" height="100%" version="1.1" style="shape-rendering:geometricPrecision; text-rendering:geometricPrecision; image-rendering:optimizeQuality; fill-rule:evenodd; clip-rule:evenodd"
viewBox="0 0 2.60815 0.8103"
 xmlns:xlink="http://www.w3.org/1999/xlink">
 <defs>
  <style type="text/css">
   <![CDATA[
    .str4 {stroke:black;stroke-width:0.02921;stroke-miterlimit:22.9256}
    .str7 {stroke:black;stroke-width:0.02921;stroke-miterlimit:22.9256}
    .str2 {stroke:black;stroke-width:0.02921;stroke-miterlimit:22.9256}
    .str0 {stroke:black;stroke-width:0.02922;stroke-miterlimit:22.9256}
    .str1 {stroke:black;stroke-width:0.02922;stroke-miterlimit:22.9256}
    .str3 {stroke:black;stroke-width:0.02922;stroke-miterlimit:22.9256}
    .str6 {stroke:black;stroke-width:0.02922;stroke-miterlimit:22.9256}
    .str5 {stroke:black;stroke-width:0.02922;stroke-miterlimit:22.9256}
    .fil1 {fill:none}
    .fil0 {fill:black;fill-rule:nonzero}
   ]]>
  </style>
 </defs>
 <g id="Camada_x0020_1">
  <metadata id="CorelCorpID_0Corel-Layer"/>
  <path class="fil0" d="M1.02511 0.30116c0.0046,-0.00748 0.00835,-0.01209 0.01122,-0.01382 0.00288,-0.00172 0.00864,-0.00259 0.01728,-0.00259l0.15892 0 -0.03023 0.05787c-0.00461,0.00748 -0.00835,0.01209 -0.01123,0.01382 -0.00288,0.00172 -0.00864,0.00259 -0.01727,0.00259l-0.15892 0 0.03023 -0.05787zm0.25996 -0.15287l-0.03195 0.06132c-0.00403,0.00749 -0.00763,0.01209 -0.0108,0.01382 -0.00316,0.00173 -0.00907,0.00259 -0.0177,0.00259l-0.22888 0c-0.00633,0 -0.01151,0.00216 -0.01554,0.00648 -0.00403,0.00432 -0.00605,0.00964 -0.00605,0.01598l0 0.24701 -0.10623 0 0 -0.3472 0.41715 0z"/>
  <path id="1" class="fil0" d="M1.76096 0.28475l0 0.18828c0,0.00634 -0.00201,0.01166 -0.00604,0.01598 -0.00403,0.00432 -0.00922,0.00648 -0.01555,0.00648l-0.26256 0c-0.03339,0 -0.06233,-0.00417 -0.0868,-0.01252 -0.02447,-0.00835 -0.04462,-0.02001 -0.06046,-0.03498 -0.01583,-0.01497 -0.02763,-0.03325 -0.03541,-0.05485 -0.00777,-0.02159 -0.01166,-0.04534 -0.01166,-0.07125 0,-0.02591 0.00389,-0.04966 0.01166,-0.07125 0.00778,-0.0216 0.01958,-0.03988 0.03541,-0.05485 0.01584,-0.01497 0.03599,-0.02663 0.06046,-0.03498 0.02447,-0.00834 0.05341,-0.01252 0.0868,-0.01252l0.26774 0 -0.03195 0.06132c-0.00461,0.00749 -0.0085,0.01209 -0.01166,0.01382 -0.00317,0.00173 -0.00878,0.00259 -0.01685,0.00259l-0.19691 0c-0.01267,0 -0.02476,0.0013 -0.03628,0.00389 -0.01151,0.00259 -0.02173,0.00734 -0.03066,0.01425 -0.00892,0.00691 -0.01598,0.0167 -0.02116,0.02936 -0.00518,0.01267 -0.00777,0.02879 -0.00777,0.04837 0,0.02015 0.00259,0.03642 0.00777,0.0488 0.00518,0.01238 0.01224,0.02202 0.02116,0.02893 0.00893,0.00691 0.01915,0.01152 0.03066,0.01382 0.01152,0.0023 0.02361,0.00346 0.03628,0.00346l0.1831 -0.00087 0 -0.057 -0.16497 0 0.02937 -0.05787c0.0046,-0.00748 0.00849,-0.01209 0.01166,-0.01382 0.00316,-0.00172 0.00878,-0.00259 0.01684,-0.00259l0.19778 0z"/>
  <polygon id="2" class="fil0" points="1.93715,0.14829 1.93715,0.49549 1.83006,0.49549 1.83006,0.14829 "/>
  <path id="3" class="fil0" d="M2.42686 0.14829l0 0.3472 -0.1071 0 0 -0.13646 -0.18655 0 0.03023 -0.05787c0.0046,-0.00748 0.00835,-0.01209 0.01122,-0.01382 0.00288,-0.00172 0.00864,-0.00259 0.01728,-0.00259l0.12782 0 0 -0.13646 0.1071 0zm-0.42061 0l0.10623 0 0 0.3472 -0.10623 0 0 -0.3472z"/>
  <path class="fil0" d="M1.06156 0.63496c0.00222,-0.0036 0.00402,-0.00582 0.00541,-0.00665 0.00138,-0.00083 0.00415,-0.00124 0.0083,-0.00124l0.07645 0 -0.01454 0.02783c-0.00222,0.0036 -0.00402,0.00582 -0.0054,0.00665 -0.00139,0.00083 -0.00416,0.00125 -0.00831,0.00125l-0.07645 0 0.01454 -0.02784zm0.12506 -0.07354l-0.01537 0.0295c-0.00194,0.0036 -0.00367,0.00582 -0.00519,0.00665 -0.00153,0.00083 -0.00437,0.00124 -0.00852,0.00124l-0.1101 0c-0.00305,0 -0.00554,0.00104 -0.00748,0.00312 -0.00194,0.00208 -0.00291,0.00464 -0.00291,0.00769l0 0.11882 -0.0511 0 0 -0.16702 0.20067 0z"/>
  <path id="1" class="fil0" d="M1.3312 0.70933c-0.00222,-0.00388 -0.00408,-0.00623 -0.00561,-0.00706 -0.00152,-0.00084 -0.00422,-0.00125 -0.0081,-0.00125l-0.07769 0 0.01537 -0.02991c0.00222,-0.00361 0.00402,-0.00589 0.0054,-0.00686 0.00139,-0.00097 0.00416,-0.00145 0.00831,-0.00145l0.03739 0 -0.03324 -0.06274 -0.06647 0.12838 -0.05734 0c0.01552,-0.02881 0.0295,-0.0547 0.04197,-0.07769 0.00526,-0.0097 0.01045,-0.01925 0.01558,-0.02867 0.00512,-0.00942 0.00969,-0.01793 0.01371,-0.02555 0.00401,-0.00762 0.00734,-0.01385 0.00997,-0.0187 0.00263,-0.00485 0.00422,-0.00755 0.00478,-0.0081 0.00221,-0.00388 0.00401,-0.00623 0.0054,-0.00706 0.00138,-0.00083 0.00415,-0.00125 0.00831,-0.00125l0.05733 0 0.09182 0.16702 -0.05692 0 -0.00997 -0.01911z"/>
  <path id="2" class="fil0" d="M1.49116 0.72844c-0.01606,0 -0.02998,-0.00201 -0.04175,-0.00602 -0.01178,-0.00402 -0.02147,-0.00963 -0.02909,-0.01683 -0.00761,-0.0072 -0.01329,-0.016 -0.01703,-0.02638 -0.00374,-0.01039 -0.00561,-0.02182 -0.00561,-0.03428 0,-0.01246 0.00187,-0.02389 0.00561,-0.03428 0.00374,-0.01038 0.00942,-0.01918 0.01703,-0.02638 0.00762,-0.0072 0.01731,-0.01281 0.02909,-0.01682 0.01177,-0.00402 0.02569,-0.00603 0.04175,-0.00603l0.11633 0 -0.01537 0.0295c-0.00222,0.0036 -0.00402,0.00582 -0.0054,0.00665 -0.00139,0.00083 -0.00416,0.00124 -0.00831,0.00124l-0.08226 0c-0.0061,0 -0.01191,0.00063 -0.01745,0.00187 -0.00554,0.00125 -0.01046,0.00353 -0.01475,0.00686 -0.0043,0.00332 -0.00769,0.00803 -0.01018,0.01412 -0.00249,0.0061 -0.00374,0.01385 -0.00374,0.02327 0,0.00969 0.00125,0.01752 0.00374,0.02347 0.00249,0.00596 0.00588,0.0106 0.01018,0.01392 0.00429,0.00333 0.00921,0.00554 0.01475,0.00665 0.00554,0.00111 0.01135,0.00166 0.01745,0.00166l0.1155 0 -0.01538 0.02992c-0.00221,0.0036 -0.00401,0.00581 -0.0054,0.00664 -0.00138,0.00083 -0.00415,0.00125 -0.00831,0.00125l-0.0914 0z"/>
  <path id="3" class="fil0" d="M1.75831 0.72844l-0.0511 0 0 -0.12963 -0.08725 0 0.01537 -0.0295c0.00194,-0.0036 0.00367,-0.00581 0.0052,-0.00664 0.00152,-0.00083 0.00422,-0.00125 0.0081,-0.00125l0.19735 0 -0.01538 0.0295c-0.00221,0.0036 -0.00401,0.00582 -0.0054,0.00665 -0.00138,0.00083 -0.00415,0.00124 -0.00831,0.00124l-0.04778 0c-0.00304,0 -0.00561,0.00104 -0.00768,0.00312 -0.00208,0.00208 -0.00312,0.00464 -0.00312,0.00769l0 0.11882z"/>
  <path id="4" class="fil0" d="M1.94444 0.55436c0.03463,0 0.06018,0.00824 0.07666,0.02472 0.01648,0.01648 0.02472,0.03843 0.02472,0.06585 0,0.01357 -0.00201,0.02597 -0.00603,0.03719 -0.00401,0.01121 -0.01017,0.02077 -0.01848,0.02866 -0.00831,0.0079 -0.01884,0.01399 -0.03158,0.01828 -0.01274,0.0043 -0.02784,0.00644 -0.04529,0.00644 -0.01745,0 -0.03254,-0.00214 -0.04528,-0.00644 -0.01274,-0.00429 -0.02327,-0.01038 -0.03158,-0.01828 -0.00831,-0.00789 -0.01447,-0.01745 -0.01849,-0.02866 -0.00401,-0.01122 -0.00602,-0.02362 -0.00602,-0.03719 0,-0.02742 0.00824,-0.04937 0.02472,-0.06585 0.01648,-0.01648 0.04203,-0.02472 0.07665,-0.02472zm0 0.14417c0.00721,0 0.01406,-0.0007 0.02057,-0.00208 0.00651,-0.00139 0.01226,-0.00402 0.01724,-0.0079 0.00499,-0.00387 0.009,-0.00927 0.01205,-0.0162 0.00305,-0.00692 0.00457,-0.01606 0.00457,-0.02742 0,-0.01108 -0.00152,-0.02015 -0.00457,-0.02721 -0.00305,-0.00707 -0.00706,-0.01261 -0.01205,-0.01662 -0.00498,-0.00402 -0.01073,-0.00672 -0.01724,-0.0081 -0.00651,-0.00139 -0.01336,-0.00208 -0.02057,-0.00208 -0.0072,0 -0.01405,0.00069 -0.02056,0.00208 -0.00651,0.00138 -0.01226,0.00408 -0.01724,0.0081 -0.00499,0.00401 -0.00901,0.00955 -0.01205,0.01662 -0.00305,0.00706 -0.00457,0.01613 -0.00457,0.02721 0,0.01136 0.00152,0.0205 0.00457,0.02742 0.00304,0.00693 0.00706,0.01233 0.01205,0.0162 0.00498,0.00388 0.01073,0.00651 0.01724,0.0079 0.00651,0.00138 0.01336,0.00208 0.02056,0.00208z"/>
  <path id="5" class="fil0" d="M2.07075 0.72844l0 -0.16702 0.15455 0c0.00831,0 0.01614,0.00159 0.02348,0.00478 0.00734,0.00318 0.01371,0.00748 0.01911,0.01288 0.0054,0.0054 0.00969,0.0117 0.01288,0.0189 0.00318,0.0072 0.00478,0.01496 0.00478,0.02327 0,0.01274 -0.00353,0.0241 -0.0106,0.03407 -0.00706,0.00997 -0.01599,0.01717 -0.0268,0.0216l0.06066 0.05152 -0.06398 0 -0.05401 -0.04695 -0.0536 0 0.01538 -0.02991c0.00221,-0.0036 0.00401,-0.00589 0.0054,-0.00686 0.00138,-0.00097 0.00415,-0.00145 0.00831,-0.00145l0.04653 0c0.00637,0 0.01163,-0.00215 0.01579,-0.00644 0.00415,-0.00429 0.00623,-0.00949 0.00623,-0.01558 0,-0.00609 -0.00208,-0.01129 -0.00623,-0.01558 -0.00416,-0.00429 -0.00942,-0.00644 -0.01579,-0.00644l-0.08019 0c-0.00304,0 -0.00561,0.00104 -0.00768,0.00311 -0.00208,0.00208 -0.00312,0.00464 -0.00312,0.00769l0 0.11841 -0.0511 0z"/>
  <g id="_1949717344592">
   <polyline class="fil1 str0" points="0.30995,0.45131 0.46905,0.42964 0.53874,0.31793 "/>
   <line class="fil1 str1" x1="0.46905" y1="0.42964" x2="0.5401" y2= "0.54825" />
   <g>
    <circle class="fil1 str2" transform="matrix(0.460614 -0.346544 0.346544 0.460614 0.634135 0.175676)" r="0.27941"/>
    <path class="fil1 str3" d="M0.57899 0.09312c0.0438,-0.02926 0.10282,-0.01922 0.13448,0.02287 0.00406,0.00538 0.00755,0.01117 0.01043,0.01726"/>
    <circle class="fil1 str4" transform="matrix(0.410145 -0.308574 0.308574 0.410145 0.158021 0.46762)" r="0.27941"/>
    <path class="fil1 str5" d="M0.10892 0.39411c0.039,-0.02605 0.09155,-0.01711 0.11975,0.02036 0.0036,0.0048 0.00672,0.00995 0.00928,0.01537"/>
    <circle class="fil1 str6" transform="matrix(0.378595 -0.284837 0.284837 0.378595 0.606187 0.663307)" r="0.27941"/>
    <path class="fil1 str7" d="M0.56086 0.59545c0.036,-0.02405 0.08451,-0.01579 0.11054,0.0188 0.00333,0.00442 0.0062,0.00918 0.00857,0.01419"/>
   </g>
  </g>
  <path class="fil0" d="M2.51043 0.19636l-0.01432 0 0 -0.03634 -0.02446 0 0.00431 -0.00827c0.00054,-0.00101 0.00103,-0.00163 0.00146,-0.00186 0.00042,-0.00023 0.00118,-0.00035 0.00227,-0.00035l0.05532 0 -0.00431 0.00827c-0.00062,0.00101 -0.00113,0.00163 -0.00151,0.00186 -0.00039,0.00023 -0.00117,0.00035 -0.00233,0.00035l-0.0134 0c-0.00085,0 -0.00157,0.00029 -0.00215,0.00087 -0.00058,0.00059 -0.00088,0.00131 -0.00088,0.00216l0 0.03331z"/>
  <path id="1" class="fil0" d="M2.60815 0.14954l0 0.04682 -0.01432 0 0 -0.03599 -0.01281 0.03599 -0.01363 0 -0.00012 0 0 -0.00012 -0.01328 -0.03587 0 0.03599 -0.01432 0 0 -0.04391c0,-0.00085 0.00027,-0.00155 0.00081,-0.0021 0.00055,-0.00054 0.00125,-0.00081 0.0021,-0.00081l0.01852 0 0.01281 0.03319c0.00101,-0.00295 0.00218,-0.00617 0.0035,-0.00966 0.00132,-0.0035 0.00256,-0.00678 0.00372,-0.00985 0.00117,-0.00306 0.00218,-0.00566 0.00303,-0.0078 0.00085,-0.00213 0.00132,-0.00332 0.0014,-0.00355 0.00046,-0.00109 0.00093,-0.00175 0.0014,-0.00198 0.00046,-0.00023 0.00128,-0.00035 0.00244,-0.00035l0.01875 0z"/>
 </g>
</svg>
