<svg xmlns="http://www.w3.org/2000/svg" width="100%" height="100%" fill-rule="evenodd" clip-rule="evenodd" image-rendering="optimizeQuality" shape-rendering="geometricPrecision" text-rendering="geometricPrecision" version="1.1" viewBox="0 0 2.718 .836" xml:space="preserve">
  <defs>
    <style type="text/css">
      .fil0{fill:#000;fill-rule:nonzero}
    </style>
  </defs>
  <g id="Camada_x0020_1">
    <g id="_1949717374224">
      <path d="M.33.474l.026.013C.348.51.334.52.313.52L.17.524.169.532l.027.001L.23.531l.006.004H.24L.28.533h.01v.005L.162.547l-.01.05h.005l.15-.009.005.005v.003H.3V.6l.037.005V.61C.33.623.278.635.18.644L.125.645.13.65.103.698H.098L.1.663H.095l-.01.053C.195.706.272.702.318.704L.345.71v.008H.332L.338.72v.011C.326.742.303.746.27.744v.004L.312.75v.008L.055.784H.051C.033.78.024.777.024.772L.025.76.04.718.035.714h.011l-.002.02H.05C.052.721.056.715.063.715L.057.711.061.673h-.01L.042.69.049.688h.005L.052.71H.047V.699H.043v.008H.036V.698L.055.634H.05L.06.615.056.611V.607L.068.543l.006.004h.005V.539L.077.52.085.487.086.474h.005L.097.48.103.475h.005L.113.48.12.476h.017L.329.475zM.052.642L.051.669h.005L.06.642H.053zm.182.005h.006L.24.65l-.1.006L.135.653V.65l.05-.002v.004l.05-.005z" class="fil0"/>
      <path id="1" d="M.45.468c.041.014.061.035.061.061l.033.035.017-.012h.005L.544.575.55.58h.005c.082-.066.136-.1.16-.1.014 0 .024.007.033.02C.76.499.765.5.765.506c0 .01-.032.032-.094.065L.594.63v.008c.033.038.06.08.083.126L.67.775h.006L.649.802H.632V.794L.616.802.544.682H.54a.62.62 0 0 0-.11.131H.418V.805L.423.802.418.798V.794A.894.894 0 0 1 .517.667h.005V.656C.45.726.412.77.412.79L.39.798C.378.798.365.788.351.77.351.757.396.703.484.61a.358.358 0 0 1-.06-.1h.005L.407.472h.005l.006.004L.45.468zm.237.004h.006L.61.526H.605V.522l.083-.05zM.6.526h.006L.566.552V.548L.6.526zM.61.583L.6.595h.005l.01-.012H.61zM.362.771L.484.637C.49.637.494.632.494.62H.49a.557.557 0 0 0-.127.15zm.254 0v.004L.62.79h.006V.775L.621.77H.616z" class="fil0"/>
      <path id="2" d="M1.073.467l.016.004v.008h-.016l.011.011c-.008.013-.037.02-.088.02L.957.512.952.525h.005C.947.543.924.625.891.77l.017.05H.902C.894.82.887.807.88.782L.886.743V.74H.88v.008C.87.747.864.75.864.755v.004l.01.061v.004h-.01L.84.812.836.816H.831A.11.11 0 0 1 .808.76l.006.003h.005L.81.736.824.732v-.02H.814V.71C.825.709.831.706.831.7V.697H.819c0-.02.006-.03.017-.03v-.05C.842.613.849.587.858.537L.82.54.742.536V.532L.77.528v.004L.775.528h.083V.517L.77.525.764.52H.76L.726.525.709.517l.006-.02L.709.495c0-.013.022-.02.066-.02l.298-.007zM1.04.48v.003h.022V.48H1.04zM.836.693L.825.778h.011L.831.758V.752L.84.739H.836L.841.736V.732L.836.728V.724L.847.71.841.693H.836z" class="fil0"/>
      <path id="3" d="M1.151.472h.066c.078.01.116.033.116.07v.022l-.055.054h.006l.055-.035v.008a.132.132 0 0 1-.072.057l-.033.008v.015c.008 0 .047.034.116.1a.1.1 0 0 1 .044.03v.005L1.366.79v.004c.019.014.028.024.028.03h-.006l-.027.012h-.006l-.01-.011-.006.004h-.006A.463.463 0 0 1 1.18.702L1.15.664c-.013 0-.02.015-.022.046.003.025 0 .04-.005.047-.011.006-.013.012-.006.018v.008h-.016c-.008 0-.011-.005-.011-.016h-.006c0 .01-.007.014-.02.012L1.04.756l.007-.035V.706L1.08.599h.005v.015h.006l.027-.08c-.007 0-.01.005-.01.015h-.006V.54h-.033V.537c0-.005.01-.009.033-.011V.522H1.09L1.058.53h-.006c0-.006.008-.008.022-.008V.518c-.014 0-.022-.004-.022-.011l.1-.035zm.006.138h.005A.34.34 0 0 0 1.284.55V.54c0-.009-.022-.018-.067-.027l-.033.008-.027.088zm.11-.096c.007.012.015.018.022.02V.525L1.267.514zM1.3.537l-.005.02H1.3l.006-.004V.537H1.3zM1.096.55h.006V.56l-.006.016h-.005V.564L1.096.55zm.188.015l-.028.027h.006l.027-.023V.564h-.005zm.055.008h.01l-.005.011H1.34V.572zm-.254.011h.006V.6h-.006V.583zm-.01.05v.015h.005V.633h-.006zm.164.115v.004l.023.015C1.254.756 1.247.75 1.239.748zm.028.027v.004L1.29.79V.787L1.267.775z" class="fil0"/>
      <path id="4" d="M1.669.474l.026.013C1.687.51 1.673.52 1.653.52l-.144.004v.008l.027.001.033-.002.005.004h.006l.039-.002h.01v.005l-.128.009-.01.05h.006l.15-.009.005.005v.003H1.64V.6l.038.005V.61c-.008.014-.061.026-.158.035l-.056.001.005.004-.026.049h-.006L1.44.663h-.005l-.01.053c.11-.01.187-.014.232-.012l.027.005v.008h-.011l.005.004-.001.011c-.01.01-.033.014-.068.012v.004l.044.002v.008l-.257.026H1.39C1.373.78 1.364.777 1.364.772V.76L1.38.718 1.375.714h.01l-.001.02h.005c.002-.013.007-.019.013-.019L1.397.711l.004-.038H1.39L1.382.69 1.39.688h.005L1.392.71h-.006l.001-.012h-.005v.008h-.006V.698l.018-.065h-.006l.013-.019-.005-.004V.607l.012-.064.005.004h.006V.539L1.416.52l.009-.033V.474h.006l.005.005.006-.004h.006l.005.004.006-.003h.016L1.67.475zm-.276.168L1.39.669h.006l.002-.027h-.005zm.182.005h.005V.65l-.1.006-.006-.004V.65l.05-.002v.004l.05-.005z" class="fil0"/>
      <path id="5" d="M1.989.469h.01v.007l-.013.016L1.98.488h-.005l.013-.02zm-.204.003h.01l.016.008V.476c.02.003.034.01.042.02.013 0 .026.026.04.08l.076-.08.006-.004h.006v.003l-.079.096h.011c.058-.079.092-.119.103-.119l.016.008V.476c.016 0 .034.013.056.039l-.002.011-.005.004.004.004-.002.015h-.01l.008.023-.011.042-.002.012.005.004v.004L2.06.64l.01.008-.012.008.01.007-.006.004h-.005l.005.004-.014.107c-.01 0-.017.004-.018.012-.01 0-.017.006-.019.019h-.016L1.965.795l.008-.023-.008-.023.037-.165a.245.245 0 0 0-.06.084c-.002.015-.01.025-.026.03H1.91V.696l.007-.004V.687L1.913.683l.012-.007.002-.012h-.011c-.002.014-.01.024-.026.031h-.006l-.025-.02c-.01 0-.015-.01-.017-.034-.019-.026-.028-.046-.026-.057h-.006L1.798.63l-.004.03-.007.012.003.02-.01.084c-.007 0-.012.003-.013.011l-.03.02h-.005L1.695.794l.008-.02V.734l.002-.019L1.71.71 1.706.706V.703A.586.586 0 0 1 1.74.576h.005L1.74.572V.568l.008-.015-.004-.015V.534h.006v.008h.005L1.755.53 1.75.526 1.77.5l.002-.011-.006.004H1.76L1.755.488l.001-.012h.006l.005.004h.006l.012-.008zm.138.173l.004.012h.006A.364.364 0 0 1 2 .553l.007-.02a.45.45 0 0 0-.085.112zm.098-.08l-.006.003-.012.096h.005l.016-.08L2.02.58h.006L2.02.576V.572l.006-.004V.564h-.005zm-.036.199l-.004.03h.006l.008-.018L1.99.764h-.005z" class="fil0"/>
      <path id="6" d="M2.395.474l.026.013C2.413.51 2.4.52 2.38.52l-.144.004v.008l.027.001.033-.002.005.004h.006l.039-.002h.01v.005l-.128.009-.01.05h.006l.15-.009.005.005v.003h-.012V.6l.038.005V.61c-.008.014-.061.026-.158.035L2.19.645l.005.004-.026.049h-.006l.003-.035h-.005l-.01.053c.11-.01.187-.014.232-.012L2.41.71v.008h-.011l.005.004-.001.011c-.01.01-.033.014-.068.012v.004L2.38.75v.008l-.257.026h-.006C2.1.78 2.09.777 2.09.772V.76l.016-.042L2.1.714h.01l-.001.02h.005c.002-.013.007-.019.013-.019L2.123.711l.004-.038h-.011L2.108.69l.007-.003h.005L2.118.71h-.006l.001-.012h-.005v.008h-.006V.698L2.12.634h-.006l.013-.019-.005-.004V.607l.012-.064.005.004h.006V.539L2.142.52 2.15.487V.474h.006l.005.005.006-.004h.006l.005.004.006-.003H2.2l.194-.002zm-.276.168l-.003.027h.006l.002-.027H2.12zM2.3.647h.005V.65l-.1.006L2.2.653V.65l.05-.002v.004L2.3.647z" class="fil0"/>
      <path d="M.369.096L.389 0H.083L0 .387h.115L.144.251h.183l.02-.093H.163L.177.096z" class="fil0"/>
      <path id="1" d="M.611.387L.652.195C.668.123.642.09.571.09H.4L.383.17h.169l-.007.03H.443C.383.2.346.229.333.29L.331.296c-.013.06.015.09.072.09H.61zM.521.314H.43l.008-.04H.53l-.009.04z" class="fil0"/>
      <path id="2" d="M.868.387l.017-.08H.803L.83.172h.082L.931.09H.848L.865.01H.76L.743.09H.7L.682.173h.044L.705.27C.685.36.71.387.807.387h.06z" class="fil0"/>
      <path id="3" d="M1.46.269c.01-.041.003-.067-.026-.088a.109.109 0 0 0 .058-.082C1.505.034 1.477 0 1.4 0h-.246l-.082.387h.236c.085 0 .136-.038.152-.118zM1.368.152h-.131l.012-.056h.13l-.011.056zm-.025.14h-.136l.012-.056h.136l-.012.056z" class="fil0"/>
      <path id="4" d="M1.786.387l.063-.296h-.105l-.046.216h-.094L1.65.09h-.106l-.036.171c-.021.096.01.125.106.125h.172z" class="fil0"/>
      <path id="5" d="M2.152.266l.015-.071C2.183.123 2.157.09 2.086.09h-.187l-.063.296h.106l.045-.215h.08l-.02.094h.105z" class="fil0"/>
      <path id="6" d="M2.466.387l.041-.192C2.522.123 2.497.09 2.425.09h-.2L2.16.387h.106l.045-.215h.095L2.36.387h.105z" class="fil0"/>
      <path d="M2.57.159l.016-.075h-.029l.002-.01h.068l-.003.01h-.027l-.016.075z" class="fil0"/>
      <path id="1" d="M2.62.159l.018-.085h.015L2.66.13a.221.221 0 0 1 .002.02.242.242 0 0 1 .012-.022l.03-.053h.014L2.7.16H2.69l.009-.041a.349.349 0 0 1 .009-.032.313.313 0 0 1-.01.017l-.03.056h-.012L2.647.105a.172.172 0 0 1-.001-.018.234.234 0 0 1-.003.018L2.632.16H2.62z" class="fil0"/>
    </g>
  </g>
</svg>
