<?xml version="1.0" encoding="UTF-8"?>
<!DOCTYPE svg PUBLIC "-//W3C//DTD SVG 1.1//EN" "http://www.w3.org/Graphics/SVG/1.1/DTD/svg11.dtd">
<!-- Creator: CorelDRAW 2017 -->
<svg xmlns="http://www.w3.org/2000/svg" xml:space="preserve" width="100%" height="100%" version="1.1" style="shape-rendering:geometricPrecision; text-rendering:geometricPrecision; image-rendering:optimizeQuality; fill-rule:evenodd; clip-rule:evenodd"
viewBox="0 0 2.71797 0.83644"
 xmlns:xlink="http://www.w3.org/1999/xlink">
 <defs>
  <style type="text/css">
   <![CDATA[
    .fil0 {fill:black;fill-rule:nonzero}
   ]]>
  </style>
 </defs>
 <g id="Camada_x0020_1">
  <metadata id="CorelCorpID_0Corel-Layer"/>
  <g id="_1949717374224">
   <g>
    <path class="fil0" d="M0.32907 0.47406l0.02655 0.01287c-0.00775,0.02272 -0.02179,0.03358 -0.04215,0.03265l-0.14392 0.00455 -0.00056 0.0077 0.02722 0.00131 0.03329 -0.00224 0.0052 0.00432 0.00553 0.00023 0.03894 -0.00231 0.01096 0.00069 -0.00033 0.00385 -0.128 0.00924 -0.01006 0.0496 0.00553 0.00023 0.14978 -0.00831 0.00487 0.00408 -0.00033 0.00377 -0.01106 -0.00061 0 0.00385 0.03795 0.00585 -0.00033 0.00385c-0.00797,0.01425 -0.06075,0.0258 -0.1582,0.03474l-0.05543 0.00131 0.0052 0.00385 -0.02655 0.04875 -0.00553 0 0.00321 -0.0345 -0.00542 -0.00024 -0.01073 0.05322c0.10995,-0.01024 0.18762,-0.01424 0.23298,-0.01216l0.02688 0.00516 -0.00022 0.0077 -0.01106 -0.00046 0.00487 0.00408 -0.00101 0.01147c-0.01061,0.00963 -0.03308,0.01371 -0.06736,0.01217l-0.00033 0.00385 0.04402 0.00208 -0.00099 0.00763 -0.25632 0.02618 -0.00554 -0.00023c-0.0177,-0.00269 -0.02655,-0.0067 -0.02655,-0.01194l0 -0.00069 0.00099 -0.01147 0.01527 -0.04152 -0.0052 -0.00408 0.01096 0.00023 -0.00188 0.01918 0.00541 0.00046c0.00222,-0.01278 0.00654,-0.01895 0.01306,-0.01856l-0.0052 -0.00424 0.00388 -0.03812 -0.01108 -0.00069 -0.00741 0.01894 0.00621 -0.00362 0.00541 0.00023 -0.00221 0.02303 -0.00553 -0.00046 0.00099 -0.01132 -0.00553 -0.00015 -0.00066 0.00762 -0.00553 -0.00023 0.00066 -0.00763 0.01748 -0.06477 -0.00541 -0.00023 0.01261 -0.01848 -0.0052 -0.00409 0.00033 -0.00385 0.01194 -0.06477 0.0052 0.00408 0.00554 0.00023 0.00066 -0.0077 -0.00355 -0.01941 0.00875 -0.03427 0.00099 -0.01148 0.00542 0.00039 0.0052 0.00408 0.00587 -0.00362 0.00553 0.00046 0.0052 0.00385 0.00575 -0.00362 0.01659 0.00093 0.19349 -0.00247zm-0.2758 0.1676l-0.00265 0.02688 0.00554 0.00023 0.00264 -0.02665 -0.00553 -0.00046zm0.18176 0.005l0.00553 0 -0.00066 0.00385 -0.09978 0.00694 -0.0052 -0.00424 0.00033 -0.00362 0.0499 -0.00162 -0.00033 0.00385 0.05021 -0.00516z"/>
    <path id="1" class="fil0" d="M0.45065 0.46798c0.04039,0.0144 0.06063,0.03489 0.06063,0.06131l0.03296 0.03458 0.01659 -0.01155 0.00553 0 -0.02212 0.02302 0.00553 0.00385 0.00553 0c0.08209,-0.06646 0.13541,-0.09973 0.15975,-0.09973 0.01349,0 0.02445,0.00639 0.03308,0.01917 0.01106,0 0.01659,0.00254 0.01659,0.00771 0,0.00962 -0.03131,0.03134 -0.09371,0.06515l-0.0771 0.05754 0 0.0077c0.03308,0.03789 0.06063,0.0801 0.08263,0.12654l-0.00553 0.01155 0.00553 0 -0.02753 0.02688 -0.01661 0 0 -0.0077 -0.01647 0.0077 -0.07169 -0.11892 -0.00541 0c-0.03574,0.0302 -0.07247,0.07371 -0.11019,0.1304l-0.01107 0 0 -0.00771 0.00554 -0.00377 -0.00554 -0.00385 0 -0.00385c0.01837,-0.03112 0.05145,-0.07332 0.09912,-0.12662l0.00553 0 0 -0.01148c-0.07346,0.07071 -0.11018,0.11546 -0.11018,0.13425l-0.02201 0.0077c-0.01183,0 -0.02478,-0.00893 -0.03861,-0.02688 0,-0.0144 0.04414,-0.06816 0.13231,-0.16112 -0.03374,-0.04375 -0.05398,-0.07702 -0.06062,-0.09974l0.00553 0 -0.02213 -0.03836 0.00553 0 0.00553 0.00385 0.03308 -0.00762zm0.23685 0.00377l0.00553 0 -0.08263 0.05376 -0.00553 0 0 -0.00385 0.08263 -0.04991zm-0.08806 0.05376l0.00543 0 -0.03851 0.02681 0 -0.00386 0.03308 -0.02295zm0.01096 0.05754l-0.01096 0.01147 0.00543 0 0.01106 -0.01147 -0.00553 0zm-0.24792 0.18792l0.12125 -0.13424c0.00731,0 0.01096,-0.00509 0.01096,-0.01533l-0.00553 0c-0.06494,0.05923 -0.1072,0.10914 -0.12668,0.14957zm0.25345 0l0 0.00385 0.00553 0.01533 0.00553 0 0 -0.01533 -0.00553 -0.00385 -0.00553 0z"/>
    <path id="2" class="fil0" d="M1.07293 0.46706l0.01649 0.00385 0 0.00762 -0.01649 0 0.01106 0.01155c-0.00808,0.01279 -0.03739,0.01918 -0.08817,0.01918l-0.03861 0.00378 -0.00553 0.01155 0.00553 0c-0.01094,0.01817 -0.03308,0.10005 -0.06616,0.24546l0.01661 0.0499 -0.00553 0c-0.00819,0 -0.0156,-0.01278 -0.02202,-0.03835l0.00553 -0.03836 0 -0.00385 -0.00553 0 0 0.0077c-0.01106,0 -0.01659,0.00255 -0.01659,0.00763l0 0.00385 0.01106 0.06138 0 0.00385 -0.01106 0 -0.02202 -0.01155 -0.00553 0.00385 -0.00542 0c-0.01472,-0.0221 -0.02213,-0.04128 -0.02213,-0.05753l0.00553 0.00385 0.00553 0 -0.01106 -0.02688 0.01659 -0.00385 0 -0.01918 -0.01106 0 0 -0.00377c0.01106,0 0.0166,-0.00262 0.0166,-0.0077l0 -0.00385 -0.01107 0c0,-0.02049 0.00553,-0.03066 0.01649,-0.03066l0 -0.0499c0.00586,-0.00362 0.01327,-0.03043 0.02212,-0.08057l-0.03861 0.00386 -0.07711 -0.00386 0 -0.00385 0.02755 -0.00377 0 0.00377 0.00553 -0.00377 0.08264 0 0 -0.01155 -0.08817 0.0077 -0.00553 -0.00385 -0.00553 0 -0.03308 0.00385 -0.01649 -0.0077 0.00553 -0.01918 -0.00553 -0.00385c0,-0.01279 0.02202,-0.01918 0.06616,-0.01918l0.29748 -0.00762zm-0.03308 0.01147l0 0.00385 0.02202 0 0 -0.00385 -0.02202 0zm-0.20388 0.21481l-0.01096 0.08441 0.01096 0 -0.00542 -0.01918 0 -0.0077 0.01095 -0.01148 -0.00553 0 0.00553 -0.00385 0 -0.00385 -0.00553 -0.00377 0 -0.00385 0.01106 -0.01533 -0.00553 -0.0154 -0.00553 0z"/>
    <path id="3" class="fil0" d="M1.15137 0.47198l0.06604 0c0.07721,0.01009 0.11572,0.03312 0.11572,0.06909l0 0.02303 -0.0551 0.05368 0.00553 0 0.0551 -0.0345 0 0.00762c-0.01882,0.02919 -0.04271,0.04837 -0.07158,0.05753l-0.03308 0.00771 0 0.01532c0.00796,0 0.04657,0.03327 0.11572,0.09974 0.0146,0.00424 0.02931,0.01448 0.04402,0.03065l0 0.00386 -0.02753 -0.01533 0 0.00385c0.01835,0.01355 0.02753,0.02372 0.02753,0.03065l-0.00553 0 -0.02755 0.01156 -0.00553 0 -0.01094 -0.01156 -0.00553 0.00385 -0.00553 0c-0.07346,-0.04182 -0.12491,-0.08402 -0.15423,-0.12654l-0.02753 -0.03843c-0.01306,0 -0.02037,0.0154 -0.02214,0.04606 0.00245,0.02557 0.00056,0.04113 -0.00541,0.04675 -0.01085,0.00616 -0.01273,0.01232 -0.00553,0.01848l0 0.00763 -0.01661 0c-0.00729,0 -0.01094,-0.00509 -0.01094,-0.01533l-0.00553 0c0,0.01024 -0.00697,0.01409 -0.0208,0.01155l-0.02423 -0.02256 0.00642 -0.03497 0 -0.0154 0.03308 -0.10737 0.00553 0 0 0.01533 0.00553 0 0.02755 -0.08056c-0.00741,0 -0.01106,0.00516 -0.01106,0.01533l-0.00555 0 0 -0.00763 -0.03296 0 0 -0.00385c0,-0.00508 0.01096,-0.00893 0.03296,-0.01148l0 -0.00385 -0.01094 0 -0.03308 0.00763 -0.00553 0c0,-0.00509 0.00741,-0.00763 0.02202,-0.00763l0 -0.00385c-0.01461,0 -0.02202,-0.00385 -0.02202,-0.01147l0.09924 -0.03459zm0.00541 0.1381l0.00553 0c0.05775,-0.01926 0.09814,-0.03967 0.12125,-0.06138l0 -0.00763c0,-0.00878 -0.02201,-0.01771 -0.06615,-0.02688l-0.03308 0.0077 -0.02755 0.08819zm0.1103 -0.09589c0.0073,0.01163 0.0146,0.01802 0.02201,0.01918l0 -0.00763 -0.02201 -0.01155zm0.03297 0.02303l-0.00543 0.01918 0.00543 0 0.00553 -0.00385 0 -0.01533 -0.00553 0zm-0.20378 0.01148l0.00541 0 0 0.01155 -0.00541 0.01532 -0.00553 0 0 -0.01147 0.00553 -0.0154zm0.18729 0.0154l-0.02755 0.0268 0.00554 0 0.02754 -0.02303 0 -0.00377 -0.00553 0zm0.0551 0.00762l0.01106 0 -0.00553 0.01156 -0.00553 0 0 -0.01156zm-0.25345 0.01156l0.00553 0 0 0.01532 -0.00553 0 0 -0.01532zm-0.01106 0.04983l0 0.01532 0.00553 0 0 -0.01532 -0.00553 0zm0.16527 0.11506l0 0.00385 0.02213 0.01533c-0.00719,-0.01155 -0.01449,-0.01794 -0.02213,-0.01918zm0.02766 0.02688l0 0.00385 0.02201 0.01148 0 -0.00385 -0.02201 -0.01148z"/>
    <path id="4" class="fil0" d="M1.66865 0.47406l0.02654 0.01287c-0.00774,0.02272 -0.02179,0.03358 -0.04214,0.03265l-0.14392 0.00455 -0.00056 0.0077 0.02722 0.00131 0.03329 -0.00224 0.0052 0.00432 0.00553 0.00023 0.03894 -0.00231 0.01096 0.00069 -0.00033 0.00385 -0.128 0.00924 -0.01007 0.0496 0.00554 0.00023 0.14978 -0.00831 0.00487 0.00408 -0.00033 0.00377 -0.01106 -0.00061 0 0.00385 0.03795 0.00585 -0.00033 0.00385c-0.00797,0.01425 -0.06075,0.0258 -0.1582,0.03474l-0.05543 0.00131 0.0052 0.00385 -0.02655 0.04875 -0.00553 0 0.0032 -0.0345 -0.00541 -0.00024 -0.01073 0.05322c0.10995,-0.01024 0.18762,-0.01424 0.23298,-0.01216l0.02687 0.00516 -0.00021 0.0077 -0.01106 -0.00046 0.00487 0.00408 -0.00101 0.01147c-0.01061,0.00963 -0.03308,0.01371 -0.06736,0.01217l-0.00033 0.00385 0.04402 0.00208 -0.00099 0.00763 -0.25632 0.02618 -0.00555 -0.00023c-0.01769,-0.00269 -0.02654,-0.0067 -0.02654,-0.01194l0 -0.00069 0.00099 -0.01147 0.01527 -0.04152 -0.0052 -0.00408 0.01096 0.00023 -0.00188 0.01918 0.00541 0.00046c0.00221,-0.01278 0.00654,-0.01895 0.01306,-0.01856l-0.0052 -0.00424 0.00388 -0.03812 -0.01108 -0.00069 -0.00741 0.01894 0.00621 -0.00362 0.00541 0.00023 -0.00221 0.02303 -0.00553 -0.00046 0.00099 -0.01132 -0.00553 -0.00015 -0.00066 0.00762 -0.00553 -0.00023 0.00066 -0.00763 0.01748 -0.06477 -0.00541 -0.00023 0.01261 -0.01848 -0.0052 -0.00409 0.00033 -0.00385 0.01194 -0.06477 0.00519 0.00408 0.00555 0.00023 0.00066 -0.0077 -0.00355 -0.01941 0.00875 -0.03427 0.00099 -0.01148 0.00542 0.00039 0.0052 0.00408 0.00587 -0.00362 0.00553 0.00046 0.0052 0.00385 0.00575 -0.00362 0.01659 0.00093 0.19349 -0.00247zm-0.2758 0.1676l-0.00266 0.02688 0.00555 0.00023 0.00264 -0.02665 -0.00553 -0.00046zm0.18176 0.005l0.00553 0 -0.00066 0.00385 -0.09979 0.00694 -0.00519 -0.00424 0.00033 -0.00362 0.0499 -0.00162 -0.00034 0.00385 0.05022 -0.00516z"/>
    <path id="5" class="fil0" d="M1.98892 0.4686l0.01094 0 -0.00099 0.0077 -0.01294 0.01532 -0.00487 -0.00385 -0.00541 0 0.01327 -0.01917zm-0.20423 0.00385l0.01106 0 0.0155 0.0077 0.00033 -0.00385c0.0197,0.00254 0.03363,0.00893 0.04182,0.01918 0.01272,0 0.02588,0.02687 0.0395,0.08056l0.07621 -0.08056 0.00586 -0.00386 0.00555 0 -0.00035 0.00386 -0.07821 0.09588 0.01106 0c0.05776,-0.07925 0.09204,-0.11891 0.1031,-0.11891l0.0155 0.0077 0.00033 -0.00385c0.01582,0 0.03452,0.01278 0.05609,0.03835l-0.00155 0.01148 -0.00586 0.00385 0.00487 0.00385 -0.002 0.01533 -0.01096 0 0.00809 0.02303 -0.01073 0.0422 -0.00166 0.01148 0.0052 0.00385 -0.00067 0.00385 -0.01162 0.0077 0.00974 0.00763 -0.01172 0.0077 0.00973 0.00762 -0.00575 0.00385 -0.00553 0 0.0052 0.00385 -0.01362 0.10745c-0.01106,-0.00008 -0.01703,0.00377 -0.01791,0.01147 -0.01096,0 -0.01738,0.00639 -0.01903,0.01918l-0.01659 0 -0.0311 -0.01533 0.00842 -0.02303 -0.00807 -0.02303 0.03727 -0.16497c-0.01836,0.0134 -0.03849,0.04159 -0.06028,0.08441 -0.002,0.01495 -0.01063,0.02511 -0.026,0.03073l-0.00543 0 0.00033 -0.00385 0.00609 -0.00385 0.00066 -0.00385 -0.0052 -0.00385 0.01207 -0.00762 0.0012 -0.01156 -0.01094 0c-0.00155,0.01402 -0.01019,0.02426 -0.026,0.03073l-0.00542 0 -0.025 -0.01917c-0.00974,0 -0.0156,-0.01156 -0.01748,-0.03451 -0.01881,-0.02665 -0.02744,-0.04582 -0.026,-0.05761l-0.00542 0 -0.0114 0.04606 -0.00387 0.03073 -0.00686 0.01147 0.00298 0.01918 -0.01039 0.08441c-0.0073,0 -0.01151,0.00386 -0.01262,0.01148l-0.02986 0.01918 -0.00553 0 -0.03729 -0.01148 0.00819 -0.01918 -0.00033 -0.0422 0.00221 -0.01918 0.00586 -0.00385 -0.00487 -0.00385 0.00068 -0.00385c0.00497,-0.03905 0.01581,-0.08126 0.0324,-0.12654l0.00553 0 -0.0052 -0.00385 0.00068 -0.00386 0.00741 -0.01532 -0.00388 -0.01533 0.00066 -0.00385 0.00553 0 -0.00099 0.0077 0.00553 0 0.00155 -0.01155 -0.0052 -0.00385 0.02014 -0.0268 0.00132 -0.01156 -0.00619 0.00385 -0.00553 0 -0.00487 -0.00385 0.00132 -0.01147 0.00553 0 0.0052 0.00385 0.00553 0 0.01195 -0.0077zm0.13807 0.1726l0.00421 0.01155 0.00553 0c0.00155,-0.01371 0.02423,-0.04822 0.06804,-0.10359l0.00774 -0.01918c-0.02743,0.0238 -0.05587,0.06085 -0.08552,0.11122zm0.09823 -0.08057l-0.00586 0.00385 -0.01228 0.09589 0.00543 0 0.01593 -0.08056 -0.0052 -0.00377 0.00553 0 -0.00487 -0.00385 0.00033 -0.00385 0.00619 -0.00386 0.00023 -0.00385 -0.00543 0zm-0.03605 0.19948l-0.00388 0.03073 0.00553 0 0.00807 -0.01918 -0.00419 -0.01155 -0.00553 0z"/>
    <path id="6" class="fil0" d="M2.3947 0.47406l0.02654 0.01287c-0.00774,0.02272 -0.02179,0.03358 -0.04214,0.03265l-0.14393 0.00455 -0.00056 0.0077 0.02722 0.00131 0.0333 -0.00224 0.0052 0.00432 0.00553 0.00023 0.03894 -0.00231 0.01096 0.00069 -0.00034 0.00385 -0.12799 0.00924 -0.01007 0.0496 0.00553 0.00023 0.14979 -0.00831 0.00486 0.00408 -0.00033 0.00377 -0.01106 -0.00061 0 0.00385 0.03795 0.00585 -0.00033 0.00385c-0.00797,0.01425 -0.06074,0.0258 -0.1582,0.03474l-0.05543 0.00131 0.0052 0.00385 -0.02654 0.04875 -0.00553 0 0.0032 -0.0345 -0.00542 -0.00024 -0.01073 0.05322c0.10996,-0.01024 0.18762,-0.01424 0.23298,-0.01216l0.02688 0.00516 -0.00022 0.0077 -0.01106 -0.00046 0.00487 0.00408 -0.001 0.01147c-0.01062,0.00963 -0.03308,0.01371 -0.06737,0.01217l-0.00033 0.00385 0.04403 0.00208 -0.00099 0.00763 -0.25633 0.02618 -0.00554 -0.00023c-0.0177,-0.00269 -0.02654,-0.0067 -0.02654,-0.01194l0 -0.00069 0.00099 -0.01147 0.01526 -0.04152 -0.00519 -0.00408 0.01095 0.00023 -0.00188 0.01918 0.00542 0.00046c0.00221,-0.01278 0.00653,-0.01895 0.01305,-0.01856l-0.00519 -0.00424 0.00387 -0.03812 -0.01107 -0.00069 -0.00741 0.01894 0.0062 -0.00362 0.00542 0.00023 -0.00221 0.02303 -0.00553 -0.00046 0.00099 -0.01132 -0.00553 -0.00015 -0.00066 0.00762 -0.00553 -0.00023 0.00066 -0.00763 0.01748 -0.06477 -0.00542 -0.00023 0.01261 -0.01848 -0.0052 -0.00409 0.00033 -0.00385 0.01194 -0.06477 0.0052 0.00408 0.00554 0.00023 0.00067 -0.0077 -0.00355 -0.01941 0.00874 -0.03427 0.001 -0.01148 0.00541 0.00039 0.0052 0.00408 0.00588 -0.00362 0.00553 0.00046 0.0052 0.00385 0.00574 -0.00362 0.01659 0.00093 0.1935 -0.00247zm-0.2758 0.1676l-0.00266 0.02688 0.00554 0.00023 0.00265 -0.02665 -0.00553 -0.00046zm0.18176 0.005l0.00553 0 -0.00067 0.00385 -0.09978 0.00694 -0.0052 -0.00424 0.00033 -0.00362 0.0499 -0.00162 -0.00033 0.00385 0.05022 -0.00516z"/>
    <polygon class="fil0" points="0.369,0.09559 0.38907,0 0.08269,0 -0,0.38716 0.11519,0.38716 0.14387,0.25141 0.32694,0.25141 0.34701,0.15773 0.16347,0.15773 0.17733,0.09559 "/>
    <path id="1" class="fil0" d="M0.61133 0.38716l0.04063 -0.19263c0.01578,-0.07169 -0.00956,-0.10372 -0.08125,-0.10372l-0.17016 0 -0.01769 0.08078 0.16873 0 -0.00622 0.02916 -0.10276 0c-0.05879,0 -0.09703,0.02868 -0.10946,0.08938l-0.00191 0.00717c-0.01291,0.06023 0.01482,0.08986 0.0717,0.08986l0.20839 0zm-0.08986 -0.07313l-0.09177 0 0.00813 -0.04015 0.09225 0 -0.00861 0.04015z"/>
    <path id="2" class="fil0" d="M0.86754 0.38716l0.0172 -0.0803 -0.08221 0 0.02868 -0.13527 0.08221 0 0.01721 -0.08078 -0.08221 0 0.01673 -0.08078 -0.10516 0 -0.01673 0.08078 -0.04397 0 -0.01721 0.08078 0.04397 0 -0.02103 0.09846c-0.01959,0.09034 0.00526,0.11711 0.10229,0.11711l0.06023 0z"/>
    <path id="3" class="fil0" d="M1.46023 0.26862c0.00909,-0.04063 0.00287,-0.06692 -0.02628,-0.08795 0.03776,-0.02294 0.05066,-0.04588 0.05783,-0.08173 0.01338,-0.06453 -0.01434,-0.09894 -0.09129,-0.09894l-0.24616 0 -0.08269 0.38716 0.2366 0c0.08508,0 0.13527,-0.03824 0.15199,-0.11854zm-0.09225 -0.1171l-0.13096 0 0.01195 -0.05593 0.13096 0 -0.01195 0.05593zm-0.02533 0.14004l-0.13574 0 0.01194 -0.05592 0.13623 0 -0.01243 0.05592z"/>
    <path id="4" class="fil0" d="M1.78574 0.38716l0.06357 -0.29635 -0.10563 0 -0.04589 0.21605 -0.09416 0 0.04588 -0.21605 -0.10563 0 -0.03633 0.1716c-0.02055,0.09512 0.00956,0.12475 0.10612,0.12475l0.17207 0z"/>
    <path id="5" class="fil0" d="M2.15187 0.26575l0.0153 -0.07122c0.01577,-0.07169 -0.01004,-0.10372 -0.08126,-0.10372l-0.18689 0 -0.06309 0.29635 0.10563 0 0.04589 -0.21557 0.07934 0 -0.02007 0.09416 0.10515 0z"/>
    <path id="6" class="fil0" d="M2.46591 0.38716l0.0411 -0.19263c0.0153,-0.07169 -0.01003,-0.10372 -0.08173,-0.10372l-0.20123 0 -0.06309 0.29635 0.10563 0 0.04589 -0.21557 0.09416 0 -0.04589 0.21557 0.10516 0z"/>
   </g>
   <polygon class="fil0" points="2.56998,0.15892 2.58573,0.08383 2.55727,0.08383 2.5593,0.07425 2.62653,0.07425 2.6245,0.08383 2.59696,0.08383 2.58122,0.15892 "/>
   <path id="1" class="fil0" d="M2.62077 0.15892l0.01768 -0.08467 0.01411 0 0.00784 0.05483c0.00103,0.00729 0.00168,0.01421 0.00198,0.02073 0.00234,-0.00555 0.00626,-0.01326 0.01178,-0.02305l0.02962 -0.05251 0.01419 0 -0.01789 0.08467 -0.01116 0 0.00899 -0.04117c0.00205,-0.0095 0.00497,-0.02018 0.00875,-0.03203 -0.00254,0.00546 -0.00558,0.01139 -0.00907,0.01778l-0.03143 0.05542 -0.0109 0 -0.00778 -0.05438c-0.00073,-0.00496 -0.00125,-0.01072 -0.00154,-0.01728 -0.00101,0.00753 -0.00197,0.01348 -0.00292,0.01782l-0.01121 0.05384 -0.01104 0z"/>
  </g>
 </g>
</svg>
