<svg xmlns="http://www.w3.org/2000/svg" width="100%" height="100%" fill-rule="evenodd" clip-rule="evenodd" image-rendering="optimizeQuality" shape-rendering="geometricPrecision" text-rendering="geometricPrecision" version="1.1" viewBox="0 0 2.2138 2.4402" xml:space="preserve">
  <defs>
    <style type="text/css">
      .fil3{fill:#000}.fil2{fill:#f7d67d}
    </style>
  </defs>
  <g id="curativo">
    <path id="arm" fill="none" stroke="#d2ae6d" stroke-linecap="round" stroke-linejoin="round" stroke-miterlimit="22.9256" stroke-width=".0994" d="M1.0172 1.2448c-.1456 0-.3063.0555-.3862.1748C.615 1.416.5615 1.3738.4862 1.349.3681 1.31.2804 1.2983.158 1.3408c-.0222.0077-.1082.0467-.1082.0666v.8821c0 .0237.0903.0634.1115.0715.177.0678.3481.0112.4855-.0923.0265-.02.0274-.0303.0487-.0238.0091.0027.0196.007.0306.0107a.7888.7888 0 0 0 .0668.0186c.1818.0428.397.052.5745-.0126a.9397.9397 0 0 0 .1134-.0492c.0844-.0439.2686-.2057.3739-.2846l.144-.104c.0266-.0194.1314-.0852.1568-.0912l.0043-.073c.0193-.2411-.0228-.535-.1553-.711-.0387-.0514-.1104-.1142-.165-.1763L1.8026.7317C1.6817.5956 1.5215.383 1.4291.2273 1.393.1668 1.305.0497 1.2245.0497c-.2402 0-.79-.009-.76.3454A.2222.2222 0 0 0 .471.4336C.4802.4721.4592.4582.4495.5393c-.0027.0233.0067.053.017.0692C.499.659.5439.6393.5742.639c.0188-.0002.2054.0488.37.0488.054 0 .1267-.0717.1635-.1087.024-.024.031-.0413.0478-.0457L1.2128.72c.0186.0634.0342.1313.048.2.0163.0815.0553.3668.0978.398-.0014.002-.006.0016-.0063.0023L1.2 1.2693a.772.772 0 0 0-.183-.0245z"/>
    <path id="muscle" fill="#fe4f32" d="M.465 1.866l-.0022-.0095c.0041-.0073.0074-.0088.0135-.014l.0426-.0421c.0189-.021.0372-.0407.055-.062C.61 1.695.6412 1.636.6766 1.59c.0392-.0508.0912-.1044.1443-.1333.0437-.0237.0533-.0273.0999-.0416.0452-.014.0946-.0188.1413-.0215.091-.0052.1543.0187.2388.0502.008.003.0142.0074.0218.0107.0347.0151.07.0327.1064.0457.0244.0088.0754.0295.1009.0277.0038-.0003.0056-.0014.0098-.0002.0128.0036-.0016.0006.0087.006-.0055.0211-.0036.0058-.031.0309a.3791.3791 0 0 0-.0283.0282.516.516 0 0 0-.0519.0723c-.0148.0252-.0355.0514-.0515.0735-.0438.0602-.1124.1392-.1666.1812a.34.34 0 0 1-.0619.0396.3636.3636 0 0 1-.0678.0202l-.0512.0083c-.0063.0005-.0125.0006-.0182.0009a.4481.4481 0 0 1-.075-.0034c-.0377-.004-.0802-.0154-.1185-.0248l-.1214-.0343-.0804-.0212c-.0269-.007-.0532-.0132-.08-.02-.0152-.0038-.0706-.0146-.0799-.0193zm-.1715.022a.0366.0366 0 0 0 .015.0491c.02.0107.057-.0064.0876-.0158.0372-.0113.0568-.022.0886-.018.0684.0085.1164.0281.1794.0537.051.0207.0764.0333.1319.0521.089.0302.172.0388.2636.0212.009-.0017.0134-.0034.022-.0052.0795-.017.178-.0737.2388-.1314.0484-.046.0984-.1177.1319-.1794.0135-.025.048-.0696.0666-.09l.0354-.0384c.0324-.0341.0222-.0244.0812-.0424.007-.0022.015-.004.0215-.0066.027-.0111.036-.0472 0-.0664-.0132-.007-.0322.0023-.0437.0058-.0284.0086-.0461.0182-.0647.014l-.0253-.006c-.0684-.0162-.0642-.0155-.1277-.0385-.166-.0751-.2991-.1263-.4881-.0687-.25.0763-.2808.301-.4482.4428-.0236.02-.0462.0223-.0823.0333l-.0645.0197a.0543.0543 0 0 0-.019.015zm.2446-.0578c.0214-.0022.1905-.057.2236-.0657l.6739-.1987c.0152-.0047.0478-.0127.0597-.019-.0229-.0062-.1108-.0142-.1344-.0165-.1129-.0109-.295.006-.392.048l-.044.016c-.0202.009-.0378.0156-.0576.026-.0102.0052-.0176.0079-.0278.0134a11.5048 11.5048 0 0 1-.0289.0156l-.2193.1405c-.0146.0104-.0421.0277-.0532.0404zM.536 1.829l.0002.001c0-.0002 0-.0011-.0002-.001zm-.0127.019c.03.008.1574.0074.1966.0054.059-.0031.1494-.0126.2039-.0258l.108-.0262.1182-.042c.0092-.004.0185-.0074.0285-.0114.0052-.002.01-.0047.0147-.0068.0056-.0026.0085-.0034.0148-.0064.0665-.0309.1642-.0842.2226-.1298.0085-.0066.0173-.0116.0262-.0188.0083-.0067.0204-.0153.0268-.0226l-.1791.052c-.0211.0065-.0395.0104-.0605.0168l-.4207.125-.06.0182-.24.0724zm.0897.0298c.0175.0088.094.0223.117.0251a.7682.7682 0 0 0 .2212-.0017.81.81 0 0 0 .1778-.0507c.1076-.0457.2173-.1213.2967-.2121l-.092.0565a1.4264 1.4264 0 0 1-.1938.092c-.0057.0021-.0062.0031-.0118.0052-.0047.0018-.0077.0022-.0123.0038-.006.002-.0064.003-.012.0052-.0278.0113-.137.0413-.1672.0467-.009.0015-.0161.0034-.0253.0052a1.4037 1.4037 0 0 1-.2145.0238l-.0553.0007c-.0046 0-.0082-.0002-.0136-.0004L.6196 1.877l-.0017.0002c-.005.0004-.0018 0-.0048.0007zm0-.1546c.0067-.0035.0137-.0116.0198-.0174.0615-.0585.1694-.1545.2447-.1898.0231-.011.0427-.022.0683-.0296.1045-.0313.1953-.0227.3006-.0116.0184.002.0349.0053.053.0084.0084.0014.0172.0036.0268.0053.0064.0011.0078.0017.0144.0031l.0136.0005-.1157-.049c-.0928-.0344-.2153-.036-.3067-.0079-.0148.0046-.032.0086-.046.0142-.0874.0351-.148.0926-.2026.168-.013.018-.0216.0337-.0346.052l-.0357.0538zm.1434.1949l.0955.0267c.05.0124.0898.0208.1395.022.0682.0018.1517-.0143.2059-.0578a.8346.8346 0 0 0 .136-.1385l.0637-.083c-.008-.0009-.0011-.0027-.009.0037-.017.014-.0285.0296-.061.0535-.0599.044-.0756.057-.1492.095-.0446.023-.0908.0387-.1383.0534-.0553.0172-.1346.026-.1933.0273-.009.0001-.0853-.0045-.0898-.0023zm-.1586-.1617l.01-.0058a2.3347 2.3347 0 0 1 .1646-.1053c.0654-.0376.0957-.0495.1597-.077.0254-.011.067-.0224.0947-.031.0099-.003.0157-.003.0251-.0059.016-.0049.032-.0075.049-.0105.0177-.0032.0319-.005.0497-.0077a.8375.8375 0 0 1 .102-.0073l.1063.0016c-.0183-.0092-.1089-.0216-.137-.0252-.0106-.0013-.0185-.0028-.028-.0034-.1071-.0069-.1292-.0073-.2311.0137-.0087.0018-.0041.0004-.0123.0037a.1068.1068 0 0 1-.0122.0042c-.0505.0149-.1108.0558-.1544.0888l-.1048.0864c-.0107.0096-.0736.0687-.0813.0807zm-.002-.0011l.0003.0009s0-.001-.0003-.001z"/>
    <g id="curas">
      <path id="cura1" d="M.9157 1.4863c-.0311.0076-.103.0701-.058.1237.0244.0289.2182.2188.258.2585.009.009.0146.017.0282.0235.062.03.1447-.0631.1003-.1191l-.2062-.207-.0517-.0516c-.0146-.0146-.0352-.0366-.0706-.028z" class="fil2"/>
      <path id="cura2" d="M1.0314 1.8221c-.0053.0095-.0554.058-.0658.065a.0628.0628 0 0 1-.0534.0088c-.0226-.0063-.0596-.0443-.066-.0655a.0654.0654 0 0 1 .0087-.054l.065-.0655.1115.1112zm-.1157-.3358c.0354-.0086.056.0134.0706.028l.0517.0517.2062.2069c.0444.056-.0384.149-.1003.1191-.0136-.0066-.0192-.0144-.0282-.0234-.0398-.0398-.2336-.2297-.258-.2586-.045-.0536.0269-.1161.058-.1237zm.154.072c.0535-.0507.0876-.1144.1595-.0427.0216.0215.0431.0522.017.0911-.007.0106-.0567.0618-.0665.0658-.0133-.0167-.104-.0987-.11-.1143zm.214.2649V1.801c-.0056-.0122-.0048-.0223-.0134-.0355-.0152-.0234-.0601-.0565-.0693-.0744.0139-.0205.0563-.052.0705-.0755.0077-.0128.0072-.0232.0122-.0342v-.0222c-.014-.03.0038-.021-.04-.065-.0157-.0157-.0333-.0342-.068-.0356-.0347-.0014-.0587.0165-.074.0318-.0101.0103-.0427.046-.0534.051-.0115-.0164-.0625-.0659-.082-.0751-.0508-.024-.0895.0075-.1122.03-.0826.0824-.0119.1387.0461.1948-.0266.0362-.143.0987-.0453.1964.0243.0244.0614.052.1132.028.0183-.0084.0697-.0587.0806-.0742.031.017.0602.0856.1271.0828.0358-.0015.0534-.0206.0694-.0367.0414-.0414.0256-.0359.0385-.0642z" class="fil3"/>
      <path id="cura3" d="M1.0696 1.5582c.006.0156.0968.0976.1101.1143.0098-.004.0595-.0552.0665-.0658.0261-.039.0046-.0696-.017-.0911-.072-.0717-.106-.008-.1596.0426z" class="fil2"/>
      <path id="cura4" d="M1.0314 1.8221L.9198 1.711l-.065.0656a.0654.0654 0 0 0-.0086.054c.0064.021.0434.059.066.0654a.0628.0628 0 0 0 .0534-.0088c.0104-.007.0605-.0555.0658-.065z" class="fil2"/>
      <path id="cura5" d="M1.032 1.7327c-.0127.0083-.002.0313.0148.0221.0149-.008.0015-.0329-.0148-.0221zM.9892 1.713c.0235.0072.0288-.0134.017-.0216-.0135-.0095-.0263.003-.017.0216zm.0901.0104c.0108-.015-.0004-.03-.0145-.0237-.014.0061-.007.0287.0145.0238zm-.0468-.0395c.0197-.0087.0095-.0273-.0047-.0263-.0153.0011-.0163.0238.0047.0263zm.0817.0047c.005-.0217-.0176-.0286-.0237-.0146-.0061.014.0085.0251.0237.0146zm-.0575-.0613c-.0067.0026-.0123.0065-.0067.0177.0026.0053.0104.01.0176.0062.0133-.0069.0046-.03-.011-.0239zm-.106.0237c-.0087.006-.0068.0146-.003.0192.0035.0042.0124.0058.0182.0012.0118-.0093-.0002-.031-.0152-.0204zm.203.0812c.0059-.0162-.0037-.0306-.0175-.0222-.0118.0073-.0069.029.0175.0222zm-.0823.0629c.022.0059.0288-.013.017-.0215-.013-.0091-.026.003-.017.0215zm.0336-.053c-.0143.0088-.0007.0286.0126.0225.0159-.0072.0032-.0323-.0126-.0226zm-.1204-.1236c-.0002.0001-.014.0023-.0069.0168.0026.005.01.01.0182.0055.0128-.007.003-.0296-.0113-.0223zm.0298-.0308c-.0163.0105-.0008.028.0119.0223.0146-.0067.0031-.032-.012-.0223z" class="fil3"/>
    </g>
  </g>
</svg>
