<svg xmlns="http://www.w3.org/2000/svg" width="100%" height="100%" fill-rule="evenodd" clip-rule="evenodd" image-rendering="optimizeQuality" shape-rendering="geometricPrecision" text-rendering="geometricPrecision" version="1.1" viewBox="0 0 2.214 2.44" xml:space="preserve">
  <defs>
    <style type="text/css">
      .fil3{fill:#000}.fil2{fill:#f7d67d}
    </style>
  </defs>
  <g id="curativo">
    <path id="arm" fill="none" stroke="#d2ae6d" stroke-linecap="round" stroke-linejoin="round" stroke-miterlimit="22.926" stroke-width=".099" d="M1.017 1.245c-.145 0-.306.055-.386.175-.016-.004-.07-.046-.145-.071a.456.456 0 0 0-.328-.008c-.022.008-.108.047-.108.066v.882c0 .024.09.064.111.072.177.068.348.011.486-.092.026-.02.027-.03.048-.024l.031.01a.789.789 0 0 0 .067.02c.182.042.397.051.574-.013a.94.94 0 0 0 .114-.05c.084-.044.268-.205.374-.284l.144-.104a1 1 0 0 1 .156-.091l.005-.073c.02-.241-.023-.535-.156-.711-.038-.052-.11-.115-.165-.177l-.036-.04a3.805 3.805 0 0 1-.374-.505C1.393.167 1.305.05 1.224.05c-.24 0-.79-.01-.76.345a.222.222 0 0 0 .007.039C.481.472.459.458.45.539a.12.12 0 0 0 .017.07c.032.05.077.03.107.03.019 0 .206.049.37.049.054 0 .127-.072.164-.109.024-.024.03-.041.048-.046l.057.187c.018.063.034.131.048.2.016.081.055.367.098.398-.002.002-.006.002-.007.002L1.2 1.27a.772.772 0 0 0-.183-.025z"/>
    <path id="muscle" fill="#fe4f32" d="M.465 1.866l-.002-.01c.004-.007.007-.008.013-.014L.52 1.8c.019-.02.037-.04.055-.062.036-.043.067-.102.103-.148a.509.509 0 0 1 .144-.133.4.4 0 0 1 .1-.042.6.6 0 0 1 .141-.021c.091-.006.154.018.239.05l.022.01c.034.016.07.033.106.046.024.009.075.03.101.028h.01c.013.003-.002 0 .009.006-.006.02-.004.006-.031.03a.38.38 0 0 0-.029.029.516.516 0 0 0-.052.072c-.015.025-.035.051-.051.074-.044.06-.113.139-.167.18a.34.34 0 0 1-.062.04.364.364 0 0 1-.068.02l-.05.009H1.02a.448.448 0 0 1-.075-.003c-.038-.004-.08-.015-.118-.024l-.122-.035-.08-.02c-.027-.008-.053-.014-.08-.02-.015-.005-.07-.016-.08-.02zm-.172.022a.037.037 0 0 0 .015.05c.02.01.058-.007.088-.017.037-.011.057-.022.089-.018.068.009.116.028.18.054.05.02.075.033.131.052.089.03.172.039.264.021.009-.001.013-.003.022-.005a.563.563 0 0 0 .37-.31.613.613 0 0 1 .067-.09l.035-.04c.033-.033.023-.023.082-.041l.021-.007c.027-.011.036-.047 0-.066-.013-.007-.032.002-.044.005-.028.009-.046.019-.064.014l-.026-.006c-.068-.016-.064-.015-.127-.038-.166-.075-.3-.126-.488-.069-.25.076-.281.301-.449.443-.023.02-.046.022-.082.033l-.064.02a.054.054 0 0 0-.02.015zm.245-.058c.021-.002.19-.057.224-.066l.674-.198c.015-.005.047-.013.06-.02-.024-.005-.111-.013-.135-.016a.965.965 0 0 0-.392.048l-.044.016-.058.026-.028.014a11.505 11.505 0 0 1-.028.015l-.22.14C.577 1.8.55 1.819.538 1.83zM.536 1.83v0zm-.013.019a1.259 1.259 0 0 0 .4-.02l.109-.027.118-.042.029-.011.014-.007.015-.006c.067-.031.164-.084.223-.13l.026-.019c.008-.007.02-.015.027-.022l-.18.052-.06.016-.42.125-.06.019-.24.072zm.09.03a.68.68 0 0 0 .117.025.768.768 0 0 0 .221-.002.81.81 0 0 0 .178-.05.845.845 0 0 0 .297-.213l-.092.057a1.426 1.426 0 0 1-.194.092l-.012.005-.012.004-.012.005a1.589 1.589 0 0 1-.167.047l-.026.005a1.404 1.404 0 0 1-.214.024H.613zm0-.155c.007-.003.014-.011.02-.017.061-.059.17-.155.245-.19.023-.011.042-.022.068-.03a.72.72 0 0 1 .3-.011l.053.008.027.005.015.004h.013l-.116-.049a.514.514 0 0 0-.306-.008l-.046.014a.454.454 0 0 0-.203.168c-.013.018-.021.034-.034.052l-.036.054zm.143.195l.096.027c.05.012.09.02.14.022a.33.33 0 0 0 .205-.058.835.835 0 0 0 .136-.139l.064-.083c-.008 0-.001-.002-.009.004-.017.014-.028.03-.061.054-.06.044-.076.057-.15.095a.786.786 0 0 1-.332.08c-.008 0-.084-.004-.089-.002zm-.158-.162l.01-.005a2.335 2.335 0 0 1 .164-.106c.066-.037.096-.05.16-.077.025-.01.067-.022.095-.03.01-.004.016-.004.025-.007l.049-.01.05-.008a.838.838 0 0 1 .102-.007l.106.002a.888.888 0 0 0-.137-.026l-.028-.003a.64.64 0 0 0-.231.014c-.009.001-.004 0-.012.003a.107.107 0 0 1-.013.004.556.556 0 0 0-.154.09l-.105.086c-.01.01-.074.068-.081.08zm-.002 0z"/>
    <g id="curas">
      <path id="cura1" d="M.916 1.486c-.031.008-.103.07-.058.124.024.029.218.219.258.258.009.01.014.017.028.024.062.03.145-.063.1-.12l-.206-.206-.052-.052C.972 1.5.951 1.478.916 1.486z" class="fil2"/>
      <path id="cura2" d="M1.031 1.822a.533.533 0 0 1-.065.065.063.063 0 0 1-.054.009.135.135 0 0 1-.066-.066.065.065 0 0 1 .009-.054l.065-.065.111.111zm-.115-.336c.035-.008.056.014.07.028l.052.052.206.207c.045.056-.038.149-.1.119-.014-.007-.02-.014-.028-.023-.04-.04-.234-.23-.258-.259-.045-.054.027-.116.058-.124zm.154.072c.053-.05.087-.114.16-.042.02.021.042.052.016.09a.439.439 0 0 1-.066.066c-.014-.016-.104-.098-.11-.114zm.214.265v-.022c-.006-.012-.005-.022-.014-.035-.015-.024-.06-.057-.069-.075.014-.02.056-.052.07-.075.008-.013.008-.024.013-.035V1.56c-.014-.03.004-.02-.04-.065-.016-.016-.034-.034-.068-.035a.097.097 0 0 0-.074.031c-.01.01-.043.046-.054.051a.387.387 0 0 0-.082-.075c-.05-.024-.09.008-.112.03-.083.083-.012.139.046.195-.026.036-.143.099-.045.196.024.025.061.052.113.028a.393.393 0 0 0 .08-.074c.032.017.06.086.128.083.036-.001.053-.02.07-.037.04-.041.025-.036.038-.064z" class="fil3"/>
      <path id="cura3" d="M1.07 1.558c.006.016.096.098.11.114a.439.439 0 0 0 .066-.065c.026-.04.005-.07-.017-.091-.072-.072-.106-.008-.16.042z" class="fil2"/>
      <path id="cura4" d="M1.031 1.822L.92 1.711l-.065.066a.065.065 0 0 0-.009.054.136.136 0 0 0 .066.065.063.063 0 0 0 .054-.009.533.533 0 0 0 .065-.065z" class="fil2"/>
      <path id="cura5" d="M1.032 1.733c-.013.008-.002.031.015.022.015-.008.001-.033-.015-.022zm-.043-.02c.024.007.029-.013.017-.022-.013-.01-.026.003-.017.022zm.09.01c.011-.015 0-.03-.014-.023-.014.006-.007.028.014.024zm-.047-.04c.02-.008.01-.026-.004-.025-.015 0-.016.023.005.026zm.082.006c.005-.022-.017-.029-.024-.015-.006.014.009.025.024.015zm-.057-.062c-.007.003-.013.007-.007.018.003.005.01.01.018.006.013-.007.004-.03-.011-.024zm-.106.024c-.009.006-.007.015-.003.02.003.003.012.005.018 0 .012-.009 0-.03-.015-.02zm.203.081c.006-.016-.004-.03-.018-.022-.012.007-.007.029.018.022zm-.083.063c.022.006.03-.013.017-.021-.013-.01-.026.003-.017.021zm.034-.053c-.014.009 0 .029.013.023.015-.008.003-.033-.013-.023zm-.12-.124s-.014.003-.007.017c.002.005.01.01.018.006.013-.007.003-.03-.011-.022zm.03-.03c-.017.01-.001.028.011.022.015-.007.003-.032-.012-.022z" class="fil3"/>
    </g>
  </g>
</svg>
