<svg xmlns="http://www.w3.org/2000/svg" width="100%" height="100%" fill-rule="evenodd" clip-rule="evenodd" image-rendering="optimizeQuality" shape-rendering="geometricPrecision" text-rendering="geometricPrecision" version="1.1" viewBox="0 0 2.2172 2.4438" xml:space="preserve">
  <path fill="#d2ae6d" fill-rule="nonzero" d="M.6206 1.4702l.0226-.0968-.0526.0207.009-.0128.0095-.0123.01-.012.0104-.0113.011-.011.0112-.0105.0116-.01.012-.0096.0123-.0091.0127-.0087.0129-.0083.0132-.0078.0134-.0074.0136-.007.0139-.0065.014-.0062.0143-.0058.0144-.0053.0145-.005.0146-.0045.0148-.0042.0148-.0039.015-.0034.015-.003.015-.0028.015-.0023.015-.002.0151-.0016.015-.0012.015-.0009.015-.0005.0149-.0002v.0994l-.0125.0001-.0126.0005-.0127.0008-.0127.001-.0127.0014-.0128.0016-.0127.002-.0126.0023-.0126.0025-.0125.003-.0124.0031-.0123.0035-.0122.0038-.012.0041-.0118.0044-.0117.0047-.0114.005-.0112.0053-.011.0056-.0106.0059-.0104.0062-.0101.0064-.0098.0067-.0095.007-.0091.0074-.0088.0075-.0084.0079-.008.008-.0077.0085-.0073.0087-.007.009-.0064.0091-.0526.0208zm.0526-.0208a.0497.0497 0 0 1-.0826-.0553l.0826.0553zm-.2019-.0512l.0311-.0944.0079.0027.0077.0027.0075.0029.0073.0029.0071.003.007.003.0068.003.0066.003.0065.0032.0062.003.006.0031.0059.003.0056.0031.0054.003.0053.0029.005.0028.0048.0027.0046.0027.0043.0026.0041.0024.0039.0022.0036.0021.0033.002.003.0018.0027.0015.0024.0013.0019.001.0014.0007.0008.0004-.0012-.0004-.0026-.0007-.0226.0968-.0059-.0017L.61 1.4668.606 1.465.602 1.4632l-.0035-.0018-.0035-.0018-.0034-.002-.0035-.0019-.0035-.002-.0035-.0021-.0037-.0022-.0039-.0023-.004-.0023-.004-.0024L.5614 1.44.557 1.4375.5526 1.435.548 1.4324.5433 1.43l-.0048-.0026-.005-.0026-.0051-.0026-.0052-.0026-.0053-.0025-.0055-.0026-.0056-.0025-.0056-.0024-.0058-.0024-.0058-.0024-.006-.0022-.006-.0022-.0063-.002zm0 0a.0497.0497 0 0 1 .0311-.0944l-.031.0944zm-.297-.0084l-.0326-.094.0124-.004.0121-.0039.012-.0035.012-.0032.0118-.0029.0117-.0026.0116-.0022.0115-.002.0115-.0016.0113-.0013.0113-.001.0113-.0008.011-.0005.0112-.0001.011.0001.011.0004.011.0007.011.0009.0108.0011.011.0015.0108.0016.0108.0019.0109.002.0108.0024.011.0025.0109.0027.011.0029.011.003.011.0032.0113.0034.0113.0036.0114.0037-.031.0944-.0106-.0034-.0104-.0033-.0102-.003-.01-.003-.0098-.0027-.0096-.0025-.0094-.0023-.0093-.0022-.0091-.002-.009-.0016-.009-.0016-.0088-.0013-.0087-.0012-.0086-.0009-.0086-.0007-.0086-.0005-.0086-.0003-.0085-.0001-.0085.0001-.0087.0003-.0087.0006-.0087.0008-.0089.001-.0089.0013-.009.0016-.0094.0018-.0094.002-.0096.0024L.205 1.38l-.01.003-.0102.0031-.0105.0036zm0 0a.0497.0497 0 0 1-.0326-.094l.0326.094zm-.0749.0198H0l.0017-.0138.0038-.0108.0045-.0084.0046-.0064.0046-.0052.0046-.0046.0045-.004.0045-.0037.0047-.0035.0047-.0034.0047-.0032.0049-.003.0049-.003.005-.003.005-.0029.0051-.0028.005-.0027.0052-.0027.005-.0025.005-.0025.005-.0025.0049-.0023.0047-.0022.0047-.0021.0045-.002.0042-.0019.0041-.0017.004-.0017.0037-.0015.0034-.0013.0033-.0013.0032-.0011.0326.0939-.0013.0004-.002.0008-.0023.0009-.0028.0011-.003.0013-.0033.0014-.0036.0016-.0038.0017-.004.0018-.004.0018-.0041.002-.0042.002-.0041.0021-.0042.0022-.0042.0021-.0041.0022-.004.0022-.0038.0022-.0036.0021-.0034.0021-.0032.002-.0028.002-.0024.0016-.0019.0015-.0015.0012-.0009.0008H.0917l.0006-.0006.0014-.002.0022-.004.0023-.0068.0012-.01zm0 0a.0497.0497 0 0 1-.0994 0h.0994zM0 2.293v-.8835h.0994v.8835H0zm.0994 0a.0497.0497 0 0 1-.0994 0h.0994zm.0797.0251l-.0355.0929L.1408 2.41.138 2.4088l-.0033-.0013-.0036-.0016-.0038-.0016-.004-.0018-.0044-.0019-.0045-.002-.0047-.0022-.0049-.0023-.005-.0024-.005-.0025-.0053-.0026-.0053-.0027L.079 2.381l-.0053-.0029-.0053-.003-.0053-.003-.0052-.0031-.0052-.0033-.005-.0033-.005-.0035-.005-.0036-.0049-.0038-.0048-.004-.0048-.0046-.0046-.005-.0047-.0057-.0047-.007-.0043-.0085-.0034-.0108L0 2.293h.0994l-.001-.0084-.0018-.006-.0019-.0037-.0013-.002-.0004-.0006.0002.0002.0009.0008.0015.0013.002.0016.0025.0018.003.002.0031.0021.0035.0022.0038.0023.004.0023.004.0023.0043.0023.0043.0022.0043.0023.0044.0022.0043.002.0043.0022.0042.002.004.0018.004.0018.0036.0016.0034.0015.0033.0014.0029.0012.0025.001.0022.0009.0016.0006zm0 0a.0497.0497 0 0 1-.0355.0929l.0355-.0929zm.4386-.0857l.0598.0794-.0138.0102-.014.0099-.0144.0096-.0145.0093-.0148.009-.015.0085-.0151.0082-.0154.0079-.0156.0074-.0158.007-.016.0066-.0162.0061-.0164.0057-.0165.0051-.0168.0047-.0169.0041-.017.0036-.0173.003-.0174.0024-.0175.0019-.0177.0012-.0178.0005H.3077l-.018-.0008-.018-.0014-.0182-.0022-.0183-.0028L.217 2.433l-.0183-.0044-.0183-.005-.0184-.0059-.0183-.0066.0355-.0929.0148.0054.0148.0047.0147.004.0146.0035.0145.0029.0145.0023.0144.0017.0144.001.0142.0007h.0142l.0142-.0004.0141-.001.014-.0014.014-.002.014-.0024.0139-.003.0137-.0033.0138-.0038.0137-.0043.0135-.0046.0135-.0051.0134-.0055.0133-.006.0133-.0063.013-.0066.013-.007.013-.0075.0126-.0077.0126-.008.0125-.0084.0123-.0087.0121-.009zm0 0a.0497.0497 0 0 1 .0599.0794l-.0599-.0794zm.093-.0318l-.0286.0952-.0005-.0001H.6815h.001l.001.0002h.0053l.0021-.0004.0025-.0005.0022-.0006.0018-.0007.0017-.0008.0014-.0007.001-.0006.0007-.0005h.0001l-.0004.0003-.0006.0005-.0008.0007-.0012.001-.0014.0013-.0015.0013-.0017.0016-.002.0016-.002.0018-.0023.002-.0024.002-.0027.002-.0028.0023-.003.0023-.0597-.0794.0018-.0015.0017-.0013.0017-.0013.0016-.0014.0015-.0013.0015-.0012.0015-.0013.0014-.0013.0015-.0014.0015-.0013.0016-.0014.0018-.0015.002-.0017.0021-.0017.0023-.0017.0024-.0018.003-.002.0034-.002.0037-.0019.004-.0017.0042-.0016.0046-.0014.005-.001.0047-.0007.0046-.0003h.0048l.0043.0002.0041.0004.004.0007.0037.0008.0035.0008.0035.001zm0 0a.0497.0497 0 0 1-.0286.0952l.0287-.0952zm.0318.011l-.031.0946-.0013-.0005-.0012-.0004-.0011-.0004-.0011-.0004-.0012-.0004-.0011-.0004-.0012-.0004L.702 2.303l-.001-.0004L.7 2.3022l-.001-.0004-.0012-.0004-.001-.0004-.0011-.0004-.0008-.0002L.6941 2.3.693 2.2995l-.001-.0003L.691 2.299l-.0006-.0002-.001-.0004-.0009-.0003-.0007-.0003-.0008-.0003-.0006-.0002-.0008-.0002-.0007-.0003-.0008-.0002-.0006-.0002-.0004-.0002-.0005-.0001-.0006-.0002.0286-.0952.0011.0003.0013.0004.0013.0005.0012.0004.001.0003.001.0003.0011.0004.0012.0004.001.0004.0011.0004.001.0003.0009.0003.0013.0005.001.0004.001.0003.0008.0003.001.0004.0012.0005.001.0003.0008.0003.0009.0003.0009.0004.001.0003.001.0003.0006.0003.0009.0003.001.0003.0008.0003.001.0003.0009.0004.0008.0002.0007.0003zm0 0a.0497.0497 0 0 1-.031.0945l.031-.0944zm.0628.0176l-.0228.0967-.0023-.0005-.0022-.0006-.0024-.0005-.0023-.0006-.0021-.0005-.0022-.0006-.0024-.0006-.0021-.0005-.0022-.0005L.76 2.3204.758 2.32l-.0023-.0006-.0022-.0006-.002-.0006-.0024-.0006L.747 2.317l-.0022-.0006-.0022-.0006-.0022-.0006-.0022-.0007-.0021-.0006-.0023-.0006-.0021-.0007-.0022-.0006-.0023-.0007-.0021-.0007-.0022-.0007-.0023-.0007-.0023-.0007-.002-.0007-.0023-.0007-.0023-.0007.0309-.0945.002.0006.002.0006.002.0007.002.0006.0018.0006.002.0006.002.0007.0018.0005.002.0006.002.0006.0018.0005.002.0006.0018.0005.0019.0006.002.0005.0019.0006.002.0005.0017.0005.002.0005.002.0005.0019.0005.002.0006.0019.0005.002.0005.002.0005.0019.0005.002.0005.0022.0005.002.0005.002.0005.002.0005.0022.0005zm0 0a.0497.0497 0 0 1-.0228.0967l.0228-.0967zm.5471-.0109l.034.0934-.018.0063-.0183.0058-.0184.0054-.0185.0049-.0186.0044-.0189.004-.0189.0037-.019.0032-.019.0028-.0193.0024-.0192.002-.0193.0017-.0194.0013-.0193.0009-.0194.0006-.0194.0002h-.0194l-.0193-.0005-.0194-.0007-.0192-.001-.0193-.0013-.0191-.0016-.0191-.002-.019-.002-.0189-.0025-.0188-.0027-.0186-.003L.855 2.341l-.0184-.0034-.0182-.0037-.018-.0038-.0178-.004.0228-.0968.0165.0037.0167.0036.0169.0034.017.0032.0171.0029.0173.0027.0174.0025.0174.0022.0176.002.0176.0018.0177.0015.0177.0012.0177.001.0177.0006.0178.0003.0177.0001.0177-.0002.0176-.0005.0176-.0009.0175-.0012.0173-.0014.0173-.0019.0172-.0021.017-.0025.017-.0029.0167-.0032.0166-.0035.0164-.004.0162-.0042.016-.0047.0157-.005.0155-.0054zm0 0a.0497.0497 0 0 1 .034.0934l-.034-.0934zm.1076-.0467l.0458.0882-.0035.0018-.0036.0018-.0036.0018-.0035.0018-.0036.0018-.0037.0018-.0035.0017-.0037.0017-.0036.0018-.0037.0016-.0037.0017-.0036.0017-.0036.0016-.0038.0017-.0037.0017-.0037.0016-.0037.0016-.0038.0016-.0037.0016-.0038.0015-.0038.0016-.0038.0015-.0038.0016-.0038.0015-.0038.0015-.0039.0015-.0039.0015-.0038.0015-.004.0015-.0038.0014-.004.0015-.004.0014-.0339-.0934.0036-.0013.0036-.0013.0036-.0014.0036-.0013.0035-.0014.0036-.0014.0034-.0013.0036-.0014.0034-.0014.0035-.0014.0034-.0014.0034-.0014.0035-.0014.0034-.0014.0033-.0015.0033-.0014.0034-.0015.0034-.0015.0032-.0014.0033-.0015.0033-.0015.0033-.0015.0033-.0015.0032-.0016.0032-.0015.0032-.0016.0032-.0015.0032-.0016.0032-.0016.0032-.0016.0031-.0016.0032-.0016zm0 0a.0497.0497 0 0 1 .0458.0882L1.46 2.1717zm.3683-.2813l.0582.0806.0007-.0005-.0098.0074-.0103.0079-.0107.0083-.0111.0088-.0115.009-.0118.0095-.0121.0097-.0124.01-.0126.0102-.0128.0103-.013.0105-.013.0106-.0131.0106-.0132.0107-.0133.0106-.0132.0106-.0131.0105-.0131.0104-.013.0102-.0129.01-.0127.0099-.0125.0095-.0123.0093-.012.0089-.0119.0086-.0115.0081-.0112.0078-.0108.0072-.0106.0069-.0102.0063-.01.0058-.0097.0053-.0458-.0882.0067-.0037.0076-.0044.0083-.0051.009-.0059.0096-.0064.01-.007.0107-.0075.011-.008.0114-.0084.0117-.0088.012-.0092.0123-.0095.0125-.0097.0127-.01.0128-.0102.013-.0103.013-.0105.013-.0105.0132-.0106.013-.0106.0131-.0105.013-.0105.0128-.0104.0127-.0103.0125-.01.0123-.0099.012-.0096.0118-.0094.0115-.009.0112-.0087.0108-.0083.0104-.0079.0007-.0005zm-.0007.0005a.0497.0497 0 0 1 .0596.0796l-.0596-.0796zm.2031-.024l-.1442.1041-.0582-.0806.1442-.1041.0584.0804-.0002.0002zm-.0582-.0806a.0497.0497 0 0 1 .0582.0806l-.0582-.0806zm.1366-.054l.0992.0059-.0383.0455.001-.0003-.0006.0002-.0017.0007-.0026.0012-.0032.0014-.0038.0019-.0041.002-.0045.0024-.005.0027-.005.0028-.0054.003-.0056.003-.0057.0034-.0058.0034-.0058.0034-.006.0036-.006.0036-.006.0036-.0058.0036-.0058.0036-.0057.0036-.0056.0035-.0054.0034-.0052.0033-.005.0032-.0046.003-.0043.003-.0041.0027-.0036.0024-.0033.0023-.0028.0019-.0021.0015-.0585-.0803.0032-.0024.0036-.0025.0039-.0026.0042-.0029.0045-.003.0048-.0031.005-.0033.0054-.0034.0055-.0036.0057-.0036.0058-.0037.006-.0038.0062-.0038.0063-.0038.0063-.0039.0063-.0037.0063-.0038.0063-.0038.0063-.0036.0062-.0036.0061-.0035.006-.0033.006-.0033.0056-.003.0056-.003.0055-.0027.0052-.0025.0052-.0024.0051-.0022.0051-.002.0055-.002.0063-.0017-.0383.0455zm.0383-.0454a.0497.0497 0 0 1 .0226.0968l-.0226-.0968zm.0652-.0218l-.0043.073-.0992-.0057.0043-.0731v-.001l.0992.0068zm-.0992-.0058a.0497.0497 0 0 1 .0992.0058l-.0992-.0058zM1.9678.9799l.0794-.0598.0133.0185.0127.019.012.0197.0115.0203.0109.0207.0103.0212.0097.0217.0091.0221.0086.0225.008.0229.0076.0232.007.0235.0065.0238.006.024.0056.0244.005.0244.0046.0247.0041.0247.0037.0249.0032.025.0028.025.0023.025.002.025.0014.025.0011.0248.0007.0249.0002.0246-.0001.0246-.0005.0243-.001.0242-.0013.0239-.0017.0236-.099-.008.0015-.022.0012-.0222.001-.0225.0004-.0227.0001-.023-.0002-.023-.0006-.0232-.001-.0233-.0014-.0233-.0018-.0233-.0022-.0233-.0026-.0233-.003-.0232-.0034-.023-.0038-.023-.0042-.0227-.0046-.0225-.0051-.0223-.0055-.022-.006-.0216-.0063-.0213-.0068-.021-.0072-.0204-.0077-.02-.008-.0196-.0086-.019-.0089-.0185-.0094-.018-.0097-.0172-.0103-.0166-.0106-.016L1.9678.98zm0 0a.0497.0497 0 0 1 .0794-.0598L1.9678.98zM1.8052.8067L1.879.7402l.0003.0004.0049.0055.005.0055.0051.0056.0052.0056.0053.0056.0054.0057.0054.0056.0055.0057.0056.0056.0056.0057.0056.0057.0056.0057.0056.0057.0057.0057.0056.0056.0057.0057.0055.0057.0056.0056.0055.0057.0055.0056.0054.0056.0054.0056.0052.0056.0052.0056.0051.0055.005.0056.0049.0055.0048.0055.0047.0056.0045.0055.0044.0056.0043.0055L1.9678.98 1.9646.9758 1.9612.9715 1.9575.967 1.9537.9625l-.004-.0046L1.9454.953 1.941.9482l-.0045-.005-.0047-.005L1.927.933 1.922.9278 1.9169.9225 1.9117.9172 1.9064.9117 1.901.9063 1.8955.9007 1.89.8952 1.8844.8895 1.8787.8838 1.873.8781 1.8673.8723 1.8616.8665 1.8558.8606 1.85.8547l-.0057-.006-.0058-.0059-.0057-.006-.0057-.006-.0057-.0061-.0056-.0061-.0055-.0061-.0055-.0062.0004.0004zM1.8048.8063a.0497.0497 0 0 1 .0746-.0657l-.0746.0657zm.0376-.1068l.0367.0407-.074.0665L1.7686.766 1.7683.7657l.0741-.0662zM1.7685.766a.0497.0497 0 0 1 .0739-.0665L1.7685.766zm-.38-.513L1.474.2021l.0086.0143.009.0148.0094.015.0098.0153.01.0156.0104.0158.0107.016.011.0161.0111.0164.0114.0164.0117.0166.0118.0166.012.0167.012.0167.0123.0167.0123.0166.0124.0166.0125.0166.0126.0164.0125.0163.0126.0161.0125.016.0125.0157.0125.0155.0124.0153.0122.015.0122.0146.012.0144.0119.014.0116.0135.0115.0132.0112.0127-.0743.066-.0117-.0132-.0119-.0137-.012-.014-.0123-.0145L1.708.6955l-.0125-.015L1.683.665 1.6702.6494 1.6575.6335 1.6447.6174 1.6318.601 1.619.5846 1.606.5679 1.5933.551 1.5805.534l-.0127-.017-.0126-.017-.0126-.017L1.5302.466 1.518.4489 1.5058.4318 1.494.4148l-.0117-.017-.0115-.0167-.0113-.0167-.011-.0166-.0108-.0163L1.427.3153 1.417.2993 1.4071.2836 1.3976.268 1.3885.253zm0 0A.0497.0497 0 0 1 1.474.2021l-.0855.0507zM1.2263.0993V0l.012.0005.0116.0016.0113.0024.011.0031.0106.0038.0102.0045.01.0049.0096.0054.0093.0058.0091.0062.0089.0065.0086.0068.0084.007.0081.0073.008.0074.0077.0077.0076.0077.0074.008.007.0079.007.008.0067.008.0065.008.0062.008.006.008.0058.0078.0055.0076.0053.0076.005.0074.0048.0072.0044.007.0042.0066.0039.0065-.0855.0507-.0032-.0052L1.3818.242 1.3781.2362l-.004-.006-.0043-.0064-.0045-.0065-.0048-.0066-.005-.0067-.005-.0068L1.345.1904 1.3396.1836 1.334.1768 1.3282.1702l-.006-.0066-.0059-.0064-.006-.0063-.0061-.006L1.298.1392 1.2918.1337l-.006-.0051-.0062-.0048-.006-.0045-.0059-.004L1.262.1118 1.2565.1087 1.251.106l-.005-.0022-.0046-.0017L1.237.101 1.233.1 1.2296.0996 1.2263.0994zm0 0a.0497.0497 0 0 1 0-.0994v.0994zM.5146.3915l-.099.0084L.4141.3627.4167.3272.4229.2934.4327.2615.446.2317.4623.2042.4815.179.503.156.5268.1355.5523.1168l.027-.0166.0285-.0147.0296-.0132L.668.0607.6996.0504l.0322-.009.0329-.0077L.798.0269.8316.0212.8653.0163l.0338-.004L.9327.009.966.0063l.033-.002.0322-.0016.0315-.0012.0305-.0007.0295-.0005.0282-.0002L1.1777 0H1.2263v.0994h-.0748L1.124.0998l-.0286.0005-.0296.0007-.0303.001-.031.0016-.0313.002L.9415.108.91.111.8783.115.847.1194.8162.1247.786.1307l-.0294.007-.0284.008L.701.1544.6751.1643.6508.175.6282.1868.6075.1995.5887.2132.5719.2277.5573.2432.5448.2597.5343.2774l-.0085.019-.0063.0205-.0042.0226-.0017.0247.001.0273zm0 0a.0497.0497 0 0 1-.099.0084l.099-.0084zM.52.4228L.4234.4457.4231.4443.4228.4429.4224.4416.4221.4402.4218.4388.4215.4375.4212.436.4209.435.4206.4337.4203.4323.42.4309.4197.4295.4195.4282.4192.427.419.4257.4187.4242.4184.4226.4182.4215.418.4201.4177.4185.4175.4171.4173.4156.417.414.4169.4126.4167.4111.4165.4095.4163.408.4162.4063.416.405.4158.4032.4157.4015.4155.3999l.099-.0084.0002.0013v.001L.515.395.515.3961l.0001.001.0001.001.0001.0008.0001.0009.0002.0008v.0009l.0002.0008.0001.0008.0001.0006.0002.0008.0001.001.0002.0007V.407l.0003.0008.0001.001.0002.0009.0002.0008.0002.0008.0002.001.0002.001.0003.0011.0002.001.0003.0012.0002.0011.0003.0012L.5195.42l.0003.0014.0003.0014zm0 0a.0497.0497 0 0 1-.0967.0229l.0967-.023zM.4995.5459L.4008.5342.4018.526.403.5182.4042.511.4055.504.4069.4976l.0014-.006.0014-.0057.0016-.0054.0015-.005.0016-.0047L.416.4665l.0016-.004L.419.4587.4205.4556l.0013-.003.0011-.0024.001-.0019.0006-.0015.0004-.001.0002-.0003-.0002.0006-.0002.0007L.4245.448.4244.449v.0015L.4242.4502.4242.4492.4239.4477.4234.4457l.0967-.023.0011.005.001.0048.0007.005.0005.005.0003.005V.453L.5233.458.5227.4632l-.001.005-.001.0047L.5192.477.518.4809.5166.4843l-.0013.003-.0011.0024-.001.0023-.001.002-.0008.0018-.0009.002-.0007.0018-.0008.002-.0008.0021-.0008.0024-.0008.0027-.0009.003-.0009.0035L.5039.519.503.5234.5021.5282.5012.5336.5003.5395.4995.5459zm0 0A.0497.0497 0 0 1 .4008.5342l.0987.0117zm.0096.0367L.4254.636.4237.6335.4222.631.4207.6282.4192.6254.418.6228.4166.62.4153.617.414.6144.413.6115.4117.6085.4107.6058.4095.6027.4086.5996l-.001-.003-.001-.0031L.4059.5902.4049.587.4042.5838.4035.5806.4028.5772.4022.574.4017.5706.4012.567.4008.5636.4005.5602.4002.5566.4.5529V.5456L.4002.5419.4004.538.4008.5342l.0987.0117v.0012L.4993.548v.0029L.4995.552l.0002.0014v.0012L.5.556l.0002.0015.0002.0013.0003.0014.0004.0015.0003.0015.0004.0015.0004.0014.0004.0014.0005.0016.0004.0013.0005.0014.0005.0014.0006.0013.0005.0012.0005.0012.0004.001.0006.0011.0005.001.0004.0008.0004.0007.0004.0007.0003.0005zm0 0A.0497.0497 0 0 1 .4254.636L.509.5826zm.0656.0077l.0006.0994H.5726L.5706.69.5683.6902.5656.6905.5626.691.5595.6913.5558.6917.5519.6922.548.6926.5436.693.5389.6933.5341.6936H.5238L.5182.6933.5125.6928.5067.6919.5005.6908.4943.6892.488.6872.4816.685.475.682.4688.6787.4626.6749.4566.6706.4507.6658.4451.6606.4397.6551.4347.649.4298.6428.4254.636.509.5826.5107.585l.0015.002.0013.0015.0012.0013.001.0009.0009.0007.0008.0005.0007.0005.0006.0003.0006.0002L.52.5932l.0008.0002.0009.0003.001.0001L.524.594l.0014.0002h.0077L.5355.5938.538.5937.541.5934.544.5931.547.5927.5503.5923.5538.5918.5575.5914.5615.591l.004-.0003L.57.5904.5746.5903zm0 0a.0497.0497 0 0 1 .0006.0994L.5746.5903zm.3707.049v.0993L.929.7385.9126.738.8962.7374.8798.7364.8635.7353.8472.7339.8311.7324.8151.7306.7994.7288.7838.7268.7685.7248.7535.7225.7386.7203.7244.718.7104.7157.697.7134.6837.711.6711.7087.6591.7064.6475.7042.6365.7021.6264.7.6167.698.6077.6963.5998.6947.5924.6932.586.692.5806.691.5762.6901.5733.6897.5724.6896h.0029L.5746.5904.582.5906l.0055.0007.0053.0009.0057.001.0062.0011.007.0014.0075.0015.0082.0017.0089.0017.0094.002.0101.002.0107.002.0111.0022.0117.0022.0122.0022.0125.0023.013.0022.0134.0022.0137.0022.014.0021.0142.0021.0144.002L.8114.63.8262.632l.015.0016.015.0014.015.0013.015.001.015.0009.0148.0006.0148.0004.0146.0001zm0 0a.0497.0497 0 0 1 0 .0993V.6392zM1.0741.545l.0704.07-.0036.0037-.0038.0039-.0041.004-.0043.0043-.0045.0044-.0047.0044-.0049.0047-.005.0047-.0052.0048-.0053.0048-.0056.005-.0056.0048-.0058.0049-.0059.0049-.006.0048L1.064.688l-.0062.0047-.0065.0046-.0064.0045-.0067.0044-.0067.0042-.0069.004-.007.0039-.0072.0036-.0073.0034-.0075.0031-.0077.0029-.008.0024-.0082.002-.0085.0016-.0087.001-.009.0004V.6392h.0011L.9483.639.9505.6386.9531.6379l.003-.001.0033-.0011.0037-.0016L.967.6324l.0042-.002L.9754.628.98.6253.9845.6224l.0047-.003L.994.616.999.6125 1.0037.609l.005-.0038.0048-.004.0049-.004.0048-.004.0048-.0042.0047-.0042.0047-.0042.0046-.0042.0044-.0042.0044-.0041.0042-.0042.0041-.004.004-.0038.0038-.0038.0037-.0037L1.074.545zm0 0a.0497.0497 0 0 1 .0705.07L1.074.545zm.1305-.0254l-.095.0292.0603.0334.001-.0003.001-.0003.001-.0005.0011-.0005.0006-.0003.0007-.0004.0007-.0004.0002-.0002.0003-.0002-.0002.0002-.0002.0002L1.1756.58l-.0007.0006-.0007.0009-.0009.001-.001.001-.001.0013-.0012.0015-.0013.0016-.0014.0017-.0016.0018-.0016.002-.0018.002-.0018.0023-.002.0022-.002.0023-.0022.0025-.0023.0024-.0024.0026-.0025.0027-.0027.0027L1.0741.545l.0017-.0018.0017-.0017.0016-.0018.0016-.0017.0015-.0017.0015-.0017.0015-.0017.0014-.0017.0014-.0016.0014-.0017.0014-.0018.0015-.0017.0014-.0017.0015-.0018.0016-.0019.0016-.0019.0017-.002.0018-.0019.0019-.002.002-.002L1.108.507l.0023-.0021.0025-.0022.0028-.0022.0028-.002.0033-.0023.0034-.002.0033-.0019.0039-.0018.004-.0017.004-.0014.004-.0012.0603.0334zM1.1443.4862a.0497.0497 0 0 1 .0256.096l-.0256-.096zm.0228.2494L1.1096.5488l.095-.0292.0575.1868.0002.0006-.0952.0286zm.095-.0292a.0497.0497 0 0 1-.095.0292l.095-.0292zm.0493.2052L1.2139.931 1.2126.9247 1.2113.9184 1.21.912 1.2087.9057 1.2074.8994 1.2061.893 1.2047.8867 1.2034.8804 1.202.8742 1.2006.868 1.1993.8617 1.1979.8554 1.1964.8492 1.195.843 1.1936.8368 1.192.8307 1.1907.8245 1.1892.8184 1.1877.8123 1.1862.8062 1.1846.8l-.0015-.006-.0015-.006L1.18.782 1.1784.776 1.1768.77 1.1752.7642 1.1736.7583 1.172.7525 1.1703.7466 1.1686.7408 1.167.735l.0954-.028.0018.0062.0018.0061.0017.0062.0018.0062.0017.0063.0017.0062.0017.0063.0016.0063.0017.0063.0016.0063.0016.0064.0016.0064.0016.0063.0016.0064.0015.0064.0015.0064.0016.0065.0014.0064.0015.0064.0015.0065.0015.0065.0014.0065.0014.0064.0015.0066.0013.0064.0014.0065.0014.0066.0014.0065.0013.0065.0014.0065.0013.0066.0013.0065zm0 0a.0497.0497 0 0 1-.0975.0195l.0975-.0195zm.0897.4373l-.0808-.0578.011.069-.0113-.0103-.0082-.0103-.0064-.0104L1.3 1.3185l-.0049-.011-.0045-.0117-.0043-.0123-.0041-.013-.004-.0135-.0039-.0141-.0037-.0147-.0037-.015-.0036-.0156-.0035-.0158-.0034-.0162-.0033-.0162-.0033-.0164-.003-.0164-.0031-.0164-.003-.0162-.0029-.016-.0027-.0157-.0027-.0154-.0025-.0148-.0025-.0143-.0023-.0137L1.223.9812l-.002-.012-.002-.0113L1.217.9478l-.0017-.009L1.214.931l.0975-.0195.0017.0088.0018.0097.0019.0106.002.0115.002.0122.0023.013.0023.0137.0025.0142.0025.0148.0026.015.0027.0155.0028.0157.003.0159.0029.016.003.0158.0032.0158.0031.0157.0033.0153.0033.015.0033.0144.0034.014.0034.0132.0034.0125.0034.0116.0034.0106.0033.0094.003.008.003.0065.0023.0047.0015.0024-.0002-.0002-.0034-.003.011.069zm-.011-.069a.0497.0497 0 0 1-.0588.0802l.0588-.0802zm-.0516.0895l.0316-.0942-.0603.0249.008-.0116.0085-.0073.006-.0035.0049-.0021.0023-.0009.0034-.001.0024-.0005-.0003.0001.002-.0004.0018-.0003-.0006.0001h.0004l.0006-.0001h-.0005.0004l-.0006.0001-.0007.0001.0006-.0001-.0015.0003-.001.0003-.0007.0001-.0014.0005-.0012.0004-.0018.0006-.002.0009-.003.0015-.0021.0012-.0015.001-.0033.0024-.0031.0028-.0024.0025-.0031.0039.0808.0578-.0033.0042-.0028.0029-.0035.0031-.0037.0027-.0018.0012-.0026.0015-.0034.0017-.0026.0011-.0022.0009-.0017.0005-.002.0006-.001.0003-.0017.0004-.002.0004h.0001l-.0012.0002-.0012.0002-.001.0001-.001.0002.0013-.0002.0017-.0003-.0007.0001.0021-.0005.003-.0008.0022-.0008.0046-.002.0059-.0035.0083-.0071.0078-.0114-.0602.0248zm.0602-.0248A.0497.0497 0 0 1 1.3098 1.3l.089.0445zm-.181-.1206l.1524.0512-.0316.0942-.1524-.0512.028-.0953.0036.0011zm-.0316.0942a.0497.0497 0 0 1 .0316-.0942l-.0316.0942zm-.1674-.0218V1.197h.0066l.0067.0002.0066.0001.0066.0003.0065.0003.0066.0003.0065.0005.0065.0004.0065.0006.0064.0006.0064.0006.0064.0007.0064.0007.0063.0008.0062.0008.0062.0009.0062.0009.0061.001.0061.001.006.001.006.001.006.001.0058.0012.0058.0011.0057.0012.0057.0012.0056.0012.0055.0012.0055.0013.0054.0012.0053.0013.0052.0013-.0242.0964-.0047-.0011-.0047-.0012-.0048-.0011-.0049-.0011-.005-.0011-.0049-.0011-.005-.001-.0052-.0011-.0051-.001-.0053-.001-.0053-.001-.0052-.001-.0054-.0008-.0054-.0009-.0054-.0008-.0055-.0008-.0054-.0008-.0055-.0007-.0056-.0007-.0055-.0006-.0056-.0006-.0056-.0006-.0056-.0005-.0056-.0005-.0056-.0004-.0057-.0004-.0056-.0003-.0056-.0002-.0056-.0002-.0056-.0002h-.0112zm0 0a.0497.0497 0 0 1 0-.0994v.0994z"/>
  <path fill="#fe4f32" d="M.898 1.3715l-.0445.1314.0053.0086c.0024.0029.0053.0055.0078.008l.072.0774c.0172.0184.0155.014.0355.0093.0163-.004.1411-.0313.1523-.0362.0137-.037.023-.0838.0347-.123.0058-.0192.0072-.011-.025-.0454a4.8771 4.8771 0 0 0-.0395-.0421c-.0064-.0068-.0123-.014-.0185-.0201-.0096-.0096-.0158-.0046-.026-.0022l-.0517.012C.983 1.353.9682 1.3565.95 1.3607c-.015.0035-.0382.0101-.052.0107zm.1554.768c.013.0154.0278.0301.0414.0446.03.0317.0232.0321.0437.0273l.0546-.0126c.0158-.0038.0388-.0104.053-.0115.0054-.0142.0275-.0885.0266-.0984-.0063-.0116-.0284-.032-.0394-.0437-.0176-.0187-.0203-.0276-.0315-.0255l-.0647.0152-.0259.006c-.0109.0026-.0153.0025-.0267.006l-.031.0926zm-.264-.2446c.0097.0137.0285.0317.0408.0448.0306.0329.025.0322.0437.0275l.0805-.0186c.008-.0019.02-.0036.026-.0056.0055-.0063.0282-.088.0288-.099C.9964 1.8296.982 1.815.9688 1.8007.9405 1.77.948 1.7735.9243 1.7788a6.9867 6.9867 0 0 0-.1039.024l-.031.0921zm.4248-.1746c-.006.0121-.031.0846-.0305.0938l.0596.0644c.0113.0125.0111.0092.0245.0061l.0532-.0123c.017-.004.0395-.0107.0544-.0118.009-.0276.0166-.0587.0246-.0866.0028-.0101.0043-.0106-.0024-.018l-.0561-.0598c-.008-.0072-.0337.0024-.0535.007-.0122.003-.024.0054-.036.0083-.013.0031-.025.0046-.0378.009zm-.3774.3663l.0624.0668c.01.011.0128.0069.0245.0042.0116-.0026.1049-.0229.1072-.026l.0255-.0953c-.002-.0048-.0029-.0055-.0074-.0103l-.0077-.0081-.0164-.0176c-.0104-.011-.0223-.0251-.0334-.0349l-.0936.0214c-.0096.0022-.0206.0038-.0298.0069l-.0313.0929zm.4195-.1712l-.0319.0928.0695.0746c.012-.0009.102-.0247.1236-.0274.0092-.0276.0163-.058.0245-.0867.0043-.0149.0032-.0116-.0168-.0329l-.0285-.0304c-.0206-.0217-.0061-.0214-.0666-.0072l-.0738.0172zm-.2155-.0583l-.0313.0928c.0052.0098.0467.0517.0597.066.0109.012.0117.01.0248.0069l.1087-.026.027-.097-.059-.0628c-.0048-.005-.0048-.0066-.0105-.0063-.0068.0004-.1022.0258-.1194.0264zm.5187.0657c.0183-.0382.03-.095.0345-.1293l-.0445-.0461c-.0101.0017-.021.0048-.0305.007l-.0926.0217-.0314.0925c.0085.0094.0663.0733.071.0743.0048.001.0834-.0207.0935-.02zm-.9081.0174c.0028.0167.0324.0628.044.0794a.4873.4873 0 0 0 .0286.0367c.0114.013.0231.024.0344.0365a.2934.2934 0 0 1 .0547-.0125L.841 1.981C.8277 1.969.8123 1.9512.8 1.9378c-.0062-.0067-.0132-.015-.0197-.0213-.009-.0088-.0153-.0037-.0258-.0013-.0167.0039-.094.0206-.1032.025zm.6194.2582c.0075-.001.0362-.0142.0448-.0183.0358-.017.1023-.0577.1252-.0866-.0214-.02-.008-.02-.0517-.0096l-.0848.0197c-.0087.0038-.0343.0892-.0335.0948zm-.3592-.0067c.0281.0135.0678.0228.0947.0284.0116.0024.0743.0126.087.0075-.0128-.0116-.0261-.0276-.0383-.0404-.0224-.0236-.0151-.026-.0438-.0195-.0174.0039-.0327.0076-.0503.0116-.007.0016-.043.0086-.0493.0124zm.5434-.1134c.0003 0 .001-.0008.001-.0005l.0236-.024a.5436.5436 0 0 0 .0236-.03.4277.4277 0 0 0 .043-.0731c-.007.0005-.0733.0158-.0758.0181-.0033.003-.0201.0566-.0241.0685l-.0065.0226c-.0004.0034.0122.0152.0152.0184zm-.6723.0354a.456.456 0 0 0 .1065.0672l.0024-.0079C.876 2.159.856 2.1361.8418 2.1206.8296 2.1072.8295 2.101.8136 2.1053c-.01.0028-.0215.004-.0309.0084z"/>
  <path fill="#fefefe" d="M.8999 1.721l.0462-.0095.1363.0487.1063-.0982.0463-.0095-.1469.1357L.9 1.721zM.8897 1.671l.335-.0685-.1467.1357-.1883-.0672z"/>
</svg>
