<svg xmlns="http://www.w3.org/2000/svg" width="100%" height="100%" fill-rule="evenodd" clip-rule="evenodd" image-rendering="optimizeQuality" shape-rendering="geometricPrecision" text-rendering="geometricPrecision" version="1.1" viewBox="0 0 2.217 2.444" xml:space="preserve">
  <path fill="#d2ae6d" fill-rule="nonzero" d="M.62 1.47l.023-.097-.052.021.009-.013.01-.012.01-.012.01-.011.01-.011.012-.01.011-.01.012-.01.013-.01.012-.008.013-.008.013-.008.014-.008.013-.007.014-.006.014-.006.015-.006.014-.005.014-.006.015-.004.015-.004.015-.004.015-.003.015-.003.015-.003.015-.003.015-.002.015-.001.015-.001.015-.001h.015l.015-.001v.1H.98L.968 1.3.955 1.3l-.012.002-.013.002-.013.002-.012.003-.013.003-.012.003-.012.003-.013.004-.012.004-.011.004-.012.005-.012.005-.01.005-.012.006-.01.006-.01.006-.01.007-.01.006-.01.007-.01.008-.008.007-.008.008-.008.008-.008.009-.007.008-.007.01-.007.008-.052.021zm.053-.02a.05.05 0 0 1-.082-.056l.082.055zm-.202-.052l.031-.094.008.003.008.002.008.003.007.003.007.003.007.003.007.003.006.003.007.003.006.003.006.003.006.003.006.003.005.003.005.003.005.003.005.003.005.002.004.003.004.002.004.003.004.002.003.002.003.002.003.001.002.001.002.001.001.001h.001-.004l-.022.096-.006-.002-.005-.001-.004-.002-.004-.002-.004-.002-.003-.001-.003-.002-.004-.002-.003-.002-.004-.002-.004-.003-.003-.002-.004-.002-.004-.003L.56 1.44l-.004-.002-.004-.003-.005-.003-.005-.002-.005-.003-.005-.002-.005-.003-.005-.002-.005-.003-.006-.002-.005-.003L.5 1.41l-.006-.003-.005-.002-.006-.002L.478 1.4.47 1.398zm0 0a.05.05 0 0 1 .031-.094l-.03.094zM.174 1.39l-.032-.094.012-.004.012-.004.012-.004.012-.003.012-.003.012-.002.011-.002.012-.002.011-.002.012-.001.01-.001.012-.001H.337l.011.001.011.001.011.002.011.002.01.001.012.002.01.003.012.002.01.003.011.003.011.003.011.003.012.003.011.004.011.004-.03.094-.011-.003-.01-.003-.01-.003-.01-.003-.01-.003-.01-.003-.01-.002-.009-.002-.009-.002-.009-.002-.009-.001-.009-.002H.348l-.01-.002H.33l-.008-.001H.279l-.009.001-.009.001-.009.002-.009.001-.01.002-.009.002-.01.003-.009.002-.01.003-.01.003-.01.004zm0 0a.05.05 0 0 1-.032-.094l.032.094zM.1 1.41H0l.002-.014.003-.011.005-.008.005-.007.004-.005.005-.005.004-.004.005-.003.004-.004.005-.003.005-.003.005-.003.005-.003.005-.003.005-.003.005-.003.005-.003.005-.002.005-.003.005-.002.005-.003.005-.002.005-.002.004-.003.005-.002.004-.001.004-.002.004-.002.004-.001.003-.002.004-.001.003-.001.032.094H.173l-.002.001H.169l-.003.002-.003.001-.003.002-.004.001-.004.002-.004.002-.004.002-.004.002-.004.002-.004.002-.004.002-.005.002-.004.002-.004.002-.003.003-.004.002-.003.002-.004.002-.002.002-.003.001-.002.002-.001.001H.092l.002-.002.002-.004.002-.006.001-.01zm0 0a.05.05 0 0 1-.099 0h.1zM0 2.293V1.41h.1v.883H0zm.1 0a.05.05 0 0 1-.1 0h.1zm.08.025l-.036.093L.14 2.41l-.003-.001-.003-.001-.004-.002-.004-.002-.004-.001L.12 2.4l-.005-.002-.004-.003-.005-.002L.1 2.392l-.005-.003-.005-.002-.006-.003L.08 2.38l-.005-.003-.006-.003-.005-.003-.005-.003-.005-.003-.005-.004-.005-.003-.005-.004-.005-.003-.005-.004-.005-.005-.004-.005-.005-.006-.005-.007-.004-.008-.003-.011L0 2.293h.1l-.002-.008-.001-.006-.002-.004-.002-.002h.001l.002.002.002.001.002.002.003.002.003.002.004.002.004.003.004.002.004.002.004.003.004.002.004.002.005.002.004.002.004.002.005.002.004.002.004.002.003.002.004.001.003.001.003.002h.002l.003.002h.001zm0 0a.05.05 0 0 1-.036.093l.035-.093zm.438-.086l.06.08-.014.01-.014.01-.015.01-.014.009-.015.009-.015.008-.015.009-.016.007-.015.008-.016.007-.016.006-.016.007-.017.005-.016.005-.017.005-.017.004-.017.004-.017.003-.017.002-.018.002-.018.001H.29l-.018-.001-.019-.003-.018-.002-.018-.004-.018-.004-.019-.005-.018-.006-.018-.007.035-.093.015.006.015.004.014.004.015.004.015.003.014.002.014.002h.015l.014.001H.34l.014-.001.014-.001.014-.002.014-.003.014-.003.013-.003.014-.004.014-.004.013-.005.014-.005.013-.005.013-.006.014-.007.013-.006.013-.007.013-.008.012-.008.013-.008.012-.008.013-.009.012-.009zm0 0a.05.05 0 0 1 .06.08l-.06-.08zm.093-.031l-.029.095H.692l.002-.001h.003l.001-.001.002-.001H.7l.001-.001h.001H.7v.002H.697l-.002.002-.001.002-.002.001-.002.002-.003.002-.002.002-.003.002-.003.002-.003.003-.06-.08.003-.001.001-.001.002-.002.002-.001.001-.001.002-.002h.001l.001-.002.002-.002h.001l.002-.002.002-.002.002-.002.002-.001.002-.002.003-.002.003-.002.003-.002.004-.002.004-.001.004-.002.005-.001.005-.001.004-.001H.696l.004.001h.004l.003.002h.004zm0 0a.05.05 0 0 1-.029.095L.711 2.2zm.031.01l-.03.095H.708l-.001-.001H.706l-.001-.001H.703l-.001-.001H.7l-.001-.001H.698L.697 2.3H.695V2.3H.691l-.001-.001H.688l-.001-.001H.686l-.001-.001H.682l-.001-.001.029-.095h.003l.001.001h.002l.002.001.002.001h.002v.001h.002l.001.001h.001l.002.001H.73v.001h.002l.002.001h.001l.001.001H.74v.001h.002zm0 0a.05.05 0 0 1-.03.095l.03-.094zm.063.018l-.023.097H.78l-.002-.001H.776l-.003-.001H.771L.77 2.322l-.002-.001H.765L.762 2.32H.76L.758 2.32H.756l-.002-.001H.752l-.003-.001-.002-.001H.745l-.002-.001H.74l-.002-.001-.002-.001H.734l-.002-.001-.002-.001H.727L.725 2.31.723 2.31H.72l-.003-.002H.714l-.002-.002.03-.094h.003l.002.001h.002l.002.001.001.001h.002l.002.001h.002l.002.001.002.001h.002l.002.001h.002l.002.001h.002l.002.001h.002l.001.001H.78l.002.001h.002l.002.001h.002l.002.001h.002l.002.001h.002l.002.001H.8l.002.001h.002l.002.001zm0 0a.05.05 0 0 1-.023.097l.023-.097zm.547-.01l.034.093-.018.006-.018.006-.018.005-.019.005-.018.004-.02.004-.018.004-.02.003-.018.003-.02.003-.019.002-.019.001-.02.002h-.019l-.02.001h-.077l-.019-.002-.02-.001-.018-.002-.02-.002-.018-.002-.02-.002-.018-.003-.019-.003-.018-.003-.018-.003-.019-.004L.8 2.33l-.017-.004.022-.097.017.004.017.004.017.003.017.003.017.003.017.003.017.002.018.003.017.002.018.001.018.002.017.001.018.001h.036l.017.001h.036l.017-.002h.018l.017-.002.017-.002.017-.002.017-.003.017-.003.017-.003.017-.003.016-.004.016-.004.016-.005.016-.005.016-.006zm0 0a.05.05 0 0 1 .034.093l-.034-.094zm.108-.047l.046.088-.004.002-.003.001-.004.002-.003.002-.004.002-.004.002-.003.001-.004.002-.004.002-.003.001-.004.002-.004.002-.003.001-.004.002-.004.002-.003.001-.004.002-.004.002-.004.001-.003.002-.004.001-.004.002-.004.001-.004.002-.003.001-.004.002-.004.001-.004.002-.004.001-.004.002-.004.001-.004.002-.034-.094.004-.001.004-.001.003-.002.004-.001.003-.001.004-.002.003-.001.004-.002h.003l.004-.002.003-.002.004-.001.003-.002h.003l.004-.002.003-.002.003-.001.004-.002.003-.001.003-.002.004-.001.003-.002.003-.001.004-.002.003-.001.003-.002.003-.001.003-.002.004-.002.003-.001.003-.002.003-.001zm0 0a.05.05 0 0 1 .046.088l-.046-.088zm.368-.282l.058.08h.001l-.01.008-.01.008-.01.008-.012.009-.011.009-.012.01-.012.009-.013.01-.012.01-.013.01-.013.011-.013.01-.013.011-.013.01-.013.012-.014.01-.013.01-.013.011-.013.01-.013.01-.013.01-.012.01-.012.009-.012.009-.012.008-.012.009-.01.007-.012.008-.01.006-.01.007-.01.006-.01.005-.046-.088.007-.004.007-.004.009-.006.009-.005.01-.007.01-.007.01-.007.01-.008.012-.009.012-.009.012-.009.012-.01.013-.009.012-.01.013-.01.013-.01.013-.011.013-.01.013-.011.013-.01.014-.011.013-.01.012-.011.013-.01.013-.01.012-.01.012-.01.012-.01.011-.008.011-.009.011-.008.01-.008h.001zm0 0a.05.05 0 0 1 .06.08l-.06-.08zm.203-.023l-.145.104-.058-.08.144-.105.059.08zm-.059-.08a.05.05 0 0 1 .059.08l-.059-.08zm.137-.055l.1.006-.039.046h.001-.002l-.003.001-.003.002-.004.002-.004.002-.005.002-.005.003-.005.003-.005.003-.006.003-.005.003-.006.003-.006.004-.006.003-.006.004-.006.004-.006.003-.005.004-.006.003-.006.004-.005.003-.005.004-.005.003-.005.003-.004.003-.004.003-.004.002-.003.002-.003.002-.002.002-.059-.08.004-.003.003-.003.004-.002.004-.003.005-.003.005-.003.005-.003.005-.004.006-.003.005-.004.006-.004.006-.004.006-.003.007-.004.006-.004.006-.004.006-.004.007-.003.006-.004.006-.004.006-.003.006-.003.006-.004.006-.003.006-.003.005-.002.005-.003.005-.002.005-.002.006-.002.005-.002.006-.002-.038.045zm.038-.045a.05.05 0 0 1 .023.097l-.023-.097zm.066-.022l-.005.073-.099-.006.004-.073.1.006zm-.1-.006a.05.05 0 0 1 .1.006l-.1-.006zM1.968.98l.08-.059.013.019.012.019.012.02.012.02.01.02.01.021.01.022.01.022.008.023.008.023.008.023.007.023.006.024.006.024.006.025.005.024.005.025.004.024.003.025.004.025.002.025.003.025.002.025.001.025.001.025v.025l.001.025v.048l-.002.025v.024l-.003.023-.099-.008.002-.022.001-.022.001-.023V1.5l-.001-.024-.002-.023-.001-.023-.003-.024-.002-.023-.003-.023-.004-.023-.003-.023-.005-.023-.004-.022-.005-.023-.006-.022-.006-.021-.006-.022-.007-.02-.007-.02-.008-.02-.008-.02-.008-.02-.01-.018-.009-.018L2 1.028l-.01-.017-.01-.016L1.968.98zm0 0a.05.05 0 0 1 .08-.059l-.08.06zM1.805.808L1.88.74l.005.006.005.006.005.005.005.006.006.005.005.006.006.006.005.005.006.006.005.006.006.005.006.006.005.006.006.006.005.005.006.006.006.006.005.005.006.006.005.005.006.006.005.006.005.005.005.006.006.005.005.006.004.005.005.006.005.006.004.005.005.006.004.005-.08.06-.002-.004L1.96.972 1.957.967 1.955.963 1.95.958 1.945.953 1.941.948 1.937.943 1.932.938 1.927.933 1.922.928 1.917.922 1.912.917 1.906.912 1.901.906 1.895.901 1.89.895 1.884.89 1.88.884 1.873.878 1.867.872 1.862.867 1.856.86 1.85.855 1.844.849 1.838.843 1.834.837 1.827.83 1.821.825 1.816.819 1.81.813 1.805.805zm0 0A.05.05 0 0 1 1.879.74l-.074.065zm.037-.108L1.88.74l-.074.067L1.77.766 1.841.7zm-.074.067a.05.05 0 0 1 .074-.067l-.074.067zm-.38-.513l.086-.05.009.013.009.015.009.015.01.016.01.015.01.016.01.016.012.016.011.016.011.017.012.016.012.017.012.017.012.016.012.017.012.017.013.016.012.017.013.016.012.017.013.016.013.016.012.015.013.016.012.015.012.015.012.015.012.014.012.014.012.014.011.013.012.013-.075.066-.011-.014L1.745.74 1.733.725 1.72.71 1.708.696 1.695.68 1.683.664 1.67.649 1.658.633 1.645.617 1.632.601 1.619.585 1.606.568 1.593.55 1.581.534 1.568.517 1.555.5 1.543.483 1.53.466 1.518.449 1.506.432 1.494.415 1.482.398 1.471.38 1.459.364 1.45.348 1.438.332 1.427.315 1.417.3l-.01-.015-.01-.016L1.39.253zm0 0a.05.05 0 0 1 .086-.05l-.086.05zM1.227.099V0h.012l.012.002.011.003.011.003.01.003.011.005.01.005.01.005.009.006.009.006.009.007.009.006.008.008.008.007.008.007.008.008.007.008.008.008.007.007.007.009.006.007.007.009.006.007.006.009.006.007.005.008.006.008.005.007.004.007.005.007.004.007.004.006-.086.05-.003-.004-.003-.006-.004-.006L1.374.23 1.37.224 1.365.217 1.361.211 1.356.204 1.35.197 1.345.19 1.34.184 1.334.177 1.328.17 1.322.164 1.316.157 1.31.151 1.304.145 1.298.139 1.292.134 1.286.129 1.28.124 1.274.119 1.268.115 1.262.112 1.256.109 1.252.106 1.246.104 1.241.102 1.237.101 1.233.1h-.007zm0 0a.05.05 0 0 1 0-.1v.1zM.515.391L.415.4V.363L.416.327.423.293l.01-.031.013-.03.016-.028.02-.025.021-.023.024-.02.025-.02L.58.1.608.085l.03-.013.03-.011L.7.05.732.04.765.034.798.027.832.02.865.016.9.012.933.01.966.006.999.004l.032-.001.032-.001.03-.001H1.151L1.178 0h.048v.1h-.131l-.03.001-.03.001-.03.002-.032.002-.031.002L.91.111.878.115.847.119l-.03.006L.785.13l-.03.007-.028.008-.027.008-.026.01-.024.011-.023.012L.608.2l-.02.013-.016.015-.015.015L.545.26l-.01.017-.01.02-.005.02L.515.34.514.364v.028zm0 0a.05.05 0 0 1-.1.009l.1-.008zM.52.423L.423.446V.44L.421.44V.436L.42.435V.432L.42.431V.427L.418.426V.42H.417V.415L.416.414V.406L.415.405V.4L.514.39v.012h.001V.41h.001v.004l.001.001v.003L.52.42V.42L.52.423zm0 0a.05.05 0 0 1-.097.023L.52.423zM.5.546L.4.534.403.526.403.518.404.511.406.504V.498L.409.492.41.486.41.48.413.474.414.471.416.467.418.462.419.46.421.456V.453L.424.45V.448L.426.447V.446v.005-.002L.423.448V.446L.52.423l.001.005.001.004v.006l.001.004v.021L.522.468.52.473.519.477.518.481.517.484.515.487V.49L.512.492v.002L.51.496v.002L.51.5.509.502v.002L.506.506V.51L.506.512.505.515.504.52.503.523v.005L.5.534v.005L.498.546zm0 0A.05.05 0 0 1 .4.534l.1.012zm.01.037L.424.636.424.633.422.631.421.628.419.625.418.623.417.62.415.617.414.614.413.612.412.609.41.606.409.603V.6L.408.597.407.594.406.59.405.587V.584L.402.58V.574L.401.571V.567L.4.564V.557L.4.553V.534l.1.012V.56l.001.002v.003l.001.001v.001L.504.57V.57l.001.002v.001l.001.001v.002h.001v.002l.001.001V.58h.001v.002H.51zm0 0a.05.05 0 0 1-.085.053L.51.583zM.574.59v.1H.566L.563.692H.556L.552.693H.548L.544.694H.512L.507.692.5.69.494.689.488.687.482.685.475.682.469.679.463.675.457.67.45.666.445.66.44.655.435.65.43.643.425.636.51.583l.002.002.001.002.001.002h.002v.002h.002l.001.001H.52L.52.594h.002l.002.001h.02L.547.592H.55L.554.591h.003L.561.59H.576zm0 0a.05.05 0 0 1 0 .1v-.1zm.37.05v.099H.93L.913.738H.896L.88.735H.864L.847.733.831.732.815.731.8.729.784.727.768.725.753.723.74.72.724.718.71.716.697.713.684.711.67.709.66.706.647.704.637.702.626.7.616.698.607.696.6.695.592.693.586.692.581.691H.576L.573.69h.002v-.1h.007l.005.001.006.001.005.001.007.001.007.002.007.001L.627.6.637.6l.009.002.01.002.01.002.012.002.011.002.012.002.013.002.013.003L.74.62l.014.002.014.002.014.002.015.002L.81.63l.015.002.015.002.015.001.015.001.015.001.015.001h.015L.931.64h.014zm0 0a.05.05 0 0 1 0 .099v-.1zm.13-.095l.07.07-.004.004-.004.004-.004.004-.004.004-.005.004L1.12.64l-.004.004L1.11.65l-.006.005L1.1.659l-.005.005-.006.005-.006.004-.006.005-.006.005-.006.005-.006.005-.007.004-.006.005-.007.004-.006.004-.007.004-.007.004-.008.004-.007.003-.007.003-.008.003L.98.734.972.736.963.737.955.738h-.01V.64h.006L.953.638.956.637.96.636.963.634.967.632.971.63.975.628.98.625.985.622.989.62.994.616.999.613l.005-.004.005-.004.005-.004.004-.004.005-.004.005-.004.005-.004.004-.004.005-.005.004-.004.005-.004.004-.004.004-.004.004-.004.004-.004L1.07.55l.003-.004zm0 0a.05.05 0 0 1 .07.07l-.071-.07zm.13-.025L1.11.549l.06.033h.002L1.175.58 1.176.58h.001-.001v.002h-.002v.002H1.17v.002l-.002.002-.002.002-.001.001-.002.002-.002.002-.001.003L1.159.6l-.002.002-.003.003-.002.002L1.15.61l-.003.002-.002.003-.07-.07V.543l.003-.002.001-.001.002-.002.001-.002.002-.001.001-.002.002-.002.001-.001.001-.002.002-.002.001-.002.002-.001.001-.002.002-.002.001-.002L1.1.515l.002-.002.002-.002.002-.002.002-.002.002-.002.003-.002L1.116.5l.002-.002.004-.003.003-.002.003-.002.004-.001.004-.002.004-.002h.004l.06.033zm-.06-.034a.05.05 0 0 1 .025.096L1.144.486zm.022.25L1.11.549l.095-.03.057.187v.001l-.095.029zm.095-.03a.05.05 0 0 1-.095.03l.095-.03zm.05.206L1.213.93 1.213.925 1.21.918 1.21.912 1.209.906 1.207.899V.893L1.204.887 1.203.88 1.202.874 1.201.868 1.199.862 1.198.855 1.196.85 1.195.843 1.194.837 1.192.83 1.191.825 1.189.818 1.188.812 1.186.806 1.185.8 1.183.794 1.182.788 1.18.782 1.178.776 1.177.77 1.175.764 1.174.758 1.172.752 1.17.747 1.17.74 1.167.735l.095-.028.002.006.002.006.002.006.002.007.001.006.002.006.002.006.001.007.002.006.002.006.001.007.002.006.001.006.002.007.001.006.002.007.002.006v.007l.002.006.002.006.001.007.002.006.001.007.002.006.001.007.001.006.002.007.001.006.002.007v.006l.002.007.002.007zm0 0a.05.05 0 0 1-.098.02l.097-.02zm.09.437L1.32 1.29l.011.07-.011-.011-.008-.01-.007-.01-.005-.012-.005-.01-.004-.012-.005-.012-.004-.013-.004-.014-.004-.014-.003-.015-.004-.015-.004-.015-.003-.016-.004-.016-.003-.017-.003-.016-.003-.016-.003-.017-.003-.016-.003-.016-.003-.016-.003-.015-.002-.015-.003-.014-.002-.014-.002-.013L1.221.97 1.219.958l-.002-.01-.002-.01-.001-.007.098-.02.001.01.002.009.002.01.002.012.002.012.002.013.002.014.003.014.002.015.003.015.003.016.003.015.003.016.002.016.003.016.004.016.003.015.003.016.003.015.004.014.003.014.003.013.004.013.003.011.004.011.003.01.003.007.003.007.002.005.002.002-.004-.003.011.069zm-.012-.07a.05.05 0 0 1-.059.081l.06-.08zm-.051.09l.031-.094-.06.025.008-.012.008-.007.006-.003.005-.002.002-.001.004-.001h.002l.002-.001h.002-.005l-.001.001H1.34l-.002.002-.003.001-.002.001-.002.001-.003.003-.003.003-.003.002-.003.004.081.058-.003.004-.003.003-.004.003-.003.003-.002.001-.003.001-.003.002-.003.001-.002.001h-.002l-.002.001-.002.001h-.005l-.002.001h.005l.003-.002h.002l.005-.002.006-.004.008-.007.008-.011-.06.024zm.06-.024a.05.05 0 0 1-.09-.045l.09.044zm-.181-.121l.152.051-.032.094-.152-.05.028-.096.004.001zm-.032.094a.05.05 0 0 1 .032-.094l-.032.094zm-.167-.022v-.099h.033l.006.001h.007l.006.001h.007l.006.001h.007l.006.002h.006l.007.001h.006l.006.002h.006l.006.002h.006l.006.002h.006l.006.002h.006l.006.002.006.001.005.001.006.002h.006l.005.002.005.001.006.002h.005l-.024.097h-.005l-.005-.002-.004-.001-.005-.001-.005-.001-.005-.001-.005-.001-.005-.002h-.005l-.006-.002h-.005l-.005-.002h-.006l-.005-.001-.006-.001h-.005l-.005-.002h-.006L1.091 1.3h-.005L1.08 1.3h-.005l-.006-.001h-.005l-.006-.001h-.011l-.006-.001H1.02zm0 0a.05.05 0 0 1 0-.099v.1z"/>
  <path fill="#fe4f32" d="M.898 1.371l-.044.132.005.009.008.007.072.078c.017.018.015.014.035.01.016-.005.141-.032.152-.037.014-.037.023-.084.035-.123.006-.02.007-.011-.025-.045a4.877 4.877 0 0 0-.04-.043l-.018-.02c-.01-.01-.016-.004-.026-.002L1 1.35l-.05.012c-.015.003-.038.01-.052.01zm.155.768c.013.016.028.03.042.045.03.032.023.032.044.027l.054-.012c.016-.004.039-.01.053-.012a.698.698 0 0 0 .027-.098c-.007-.012-.029-.032-.04-.044-.017-.018-.02-.027-.031-.025l-.065.015-.026.006c-.01.003-.015.002-.027.006l-.03.092zM.79 1.895c.01.014.029.032.041.045.03.033.025.032.044.027l.08-.018.026-.006a.59.59 0 0 0 .03-.099l-.041-.043C.94 1.77.948 1.774.924 1.779a6.987 6.987 0 0 0-.104.024l-.03.092zm.425-.175a.614.614 0 0 0-.03.094l.06.064c.01.013.01.01.024.007l.053-.013c.017-.004.04-.01.054-.012.01-.027.017-.058.025-.086.003-.01.004-.01-.002-.018l-.056-.06c-.008-.007-.034.002-.054.007l-.036.008c-.013.003-.025.005-.038.01zm-.377.367l.062.066c.01.011.013.007.025.005.011-.003.105-.023.107-.026l.025-.096c-.002-.004-.002-.005-.007-.01l-.008-.008L1.025 2c-.01-.01-.022-.025-.033-.035l-.094.022-.03.007-.031.093zm.42-.172l-.033.093.07.075c.012-.001.102-.025.124-.028.009-.027.016-.058.024-.086.004-.015.003-.012-.017-.033l-.028-.03c-.02-.022-.006-.022-.067-.008l-.074.017zm-.216-.058l-.031.093c.005.01.046.052.06.066.01.012.01.01.024.007l.109-.026.027-.097-.06-.063c-.004-.005-.004-.007-.01-.006-.007 0-.102.025-.12.026zm.519.066a.486.486 0 0 0 .034-.13l-.044-.046-.031.007-.093.022-.031.093c.009.009.066.073.071.074.005 0 .083-.02.094-.02zM.65 1.94a.356.356 0 0 0 .044.08.487.487 0 0 0 .029.036l.034.037a.293.293 0 0 1 .055-.013l.028-.099C.828 1.969.812 1.951.8 1.938l-.02-.021c-.009-.01-.015-.004-.026-.002-.016.004-.094.02-.103.025zm.62.258a.454.454 0 0 0 .17-.105c-.022-.02-.008-.02-.052-.01l-.085.02a.354.354 0 0 0-.033.095zm-.36-.006a.452.452 0 0 0 .182.036l-.038-.04c-.022-.024-.015-.027-.044-.02l-.05.011c-.007.002-.043.009-.05.013zm.544-.114h.001l.024-.024a.544.544 0 0 0 .023-.03.428.428 0 0 0 .043-.073.724.724 0 0 0-.076.018c-.003.003-.02.056-.024.068l-.006.023c0 .003.012.015.015.018zm-.672.036a.456.456 0 0 0 .106.067l.003-.008c-.016-.014-.036-.037-.05-.052C.83 2.107.83 2.1.814 2.105c-.01.003-.022.004-.031.009z"/>
  <path fill="#fefefe" d="M.9 1.721l.046-.01.136.05.107-.099.046-.01-.147.136L.9 1.721zm-.01-.05l.335-.069-.147.136-.188-.067z"/>
</svg>
