<svg xmlns="http://www.w3.org/2000/svg" width="100%" height="100%" fill-rule="evenodd" clip-rule="evenodd" image-rendering="optimizeQuality" shape-rendering="geometricPrecision" text-rendering="geometricPrecision" version="1.1" viewBox="0 0 2.328 2.428" xml:space="preserve">
  <path fill="#d2ae6d" d="M1.672 1.57l-.028.093c.03.023.152.03.199.029a.742.742 0 0 1-.111.287.7.7 0 0 1-.2.203c-.22.14-.365.14-.662.143-.148 0-.075-.061-.13-.115l-.216-.234C.452 1.89.367 1.765.356 1.638v-.4c.17.075.17.068.354.075-.008.075.104.178.137.201-.008.058-.028.072-.028.173a.38.38 0 0 0 .1-.002c.001-.128.052-.227.115-.295a.407.407 0 0 1 .27-.133c.015.066.025.1.05.154l.089-.043c-.003-.016-.016-.042-.023-.06a.416.416 0 0 1-.006-.238c.076-.282.429-.398.68-.194.194.158.191.564-.117.685-.116.045-.188.033-.305.009zm-.404.572a.341.341 0 0 0 .334-.333H1.5c-.004.144-.093.224-.233.233v.1zM.592.47l.03.092C.684.555.722.557.745.6.768.641.76.704.73.732.694.767.534.795.56.622L.468.59C.454.645.448.677.47.73.486.77.52.807.548.825A.191.191 0 0 0 .799.796C.86.734.885.64.826.55a.2.2 0 0 0-.091-.08C.697.457.63.446.592.47zM.432.265a.458.458 0 0 0 .05.085C.566.318.619.282.75.314c.09.023.16.08.197.135.073.11.088.261.02.383-.132.238-.463.22-.593.043A.356.356 0 0 1 .348.487C.358.468.374.451.381.436.366.414.326.397.308.374.294.382.292.387.282.402L.23.506c-.155.409.359.807.72.493.36-.311.062-.86-.364-.791a.407.407 0 0 0-.154.057zM.33.085l.048.09C.405.165.432.147.465.135.662.064.912.11 1.052.263c.026.029.034.031.061.072a.565.565 0 0 1-.102.754c-.35.287-.901.051-.91-.416A.535.535 0 0 1 .243.288.452.452 0 0 0 .17.221C.066.318-.007.523.001.682c.01.21.115.371.235.474.024.02.017.02.017.062-.001.11-.007.393.008.472a.95.95 0 0 0 .23.404c.015.015.021.027.036.04l.118.123c.025.027.047.139.153.165.041.01.257.004.31 0 .385-.028.697-.255.812-.615.022-.07.014-.122.042-.137l.052-.02a.55.55 0 0 0 .06-.03.634.634 0 0 0 .102-.078.505.505 0 0 0 .118-.54.514.514 0 0 0-.896-.114c-.026.038-.045.066-.064.115-.035.092-.021.098-.036.149-.041.02-.119.01-.242.095a.549.549 0 0 0-.162.174.229.229 0 0 1-.087-.107l-.08-.001c.044-.021.268-.016.462-.279C1.52.591 1.152-.03.62.001A.645.645 0 0 0 .464.03a.693.693 0 0 0-.07.025C.372.065.352.078.33.085z"/>
</svg>
