<svg xmlns="http://www.w3.org/2000/svg" width="100%" height="100%" fill-rule="evenodd" clip-rule="evenodd" image-rendering="optimizeQuality" shape-rendering="geometricPrecision" text-rendering="geometricPrecision" version="1.1" viewBox="0 0 2.3283 2.4276" xml:space="preserve">
  <path fill="#d2ae6d" d="M1.6724 1.5697l-.0284.0931c.0304.023.152.0305.1985.0292-.005.0896-.0712.227-.111.2873-.053.08-.1223.1527-.2004.2025-.2193.14-.364.141-.661.1428-.148.001-.075-.0607-.1303-.1144l-.2163-.2339c-.0713-.0864-.1568-.2117-.168-.338l-.0004-.4007c.1705.0756.171.068.3547.0753-.0077.075.104.178.1367.2015-.0073.0573-.0273.0717-.0274.1725.0266.0019.0765.0047.1008-.0023.0005-.1276.051-.2269.1136-.2942.0514-.0554.1544-.1316.2706-.1333.0153.066.0251.0991.0498.154l.089-.043c-.003-.0158-.0161-.0425-.0227-.061-.0263-.074-.0255-.1628-.0058-.237.0751-.2817.4286-.398.679-.1945.195.1586.192.5644-.1169.6856-.1153.0453-.1872.0332-.3042.0085zm-.4042.5726c.1809-.0019.3296-.152.3335-.3332l-.101.0005c-.0038.1431-.0925.2235-.2323.2323l-.0002.1004zM.5924.469l.0293.0923C.6838.555.7212.5566.7447.5993c.023.0415.0158.1047-.0139.133C.6939.7672.5345.795.5619.6211L.4667.5905C.4536.645.4483.6779.4703.7315c.0153.0371.05.0753.0776.0929.0926.0589.1874.0373.2512-.0285C.8594.7337.885.6398.8261.5511.8044.5184.7774.4895.7349.4717.6973.456.6301.4445.5924.469zM.4317.2653c.0063.0159.0382.073.05.0844.0845-.032.137-.0678.268-.0353.09.0223.1605.0797.1971.1347.0735.1105.088.2609.0205.3825-.1323.2384-.4638.2206-.593.0432C.2895.7582.28.6168.3485.4874.3585.4684.374.4507.3809.4358.3656.4143.3264.3973.3082.3744.2945.3823.2923.3871.2824.4023L.2297.506c-.1547.4086.3591.8074.7209.4934.3591-.3117.0616-.8613-.365-.7914-.0464.0076-.123.0316-.154.0573zM.3304.0855l.0473.089C.4047.165.4323.1469.465.135c.1967-.0712.447-.0255.587.1284.0258.0283.0337.0311.0612.0715.1833.2685.0954.5926-.1018.754-.3506.2867-.9015.0515-.91-.416C.0981.4974.1617.382.2435.2882A.4517.4517 0 0 0 .169.2214C.0657.3176-.0072.523.0006.6824c.0102.2094.1156.371.2351.4732.0238.0203.0174.0205.017.062-.0007.1102-.0064.3933.0084.472.0236.1252.1355.3105.2301.4044.0149.0148.0213.0267.0355.0404l.1186.123c.0243.0265.047.1385.153.1644.0412.0101.2566.0047.3091.0009.3855-.0285.6976-.2552.8122-.6153.0226-.0712.0142-.1227.0427-.1374l.0517-.0193a.5509.5509 0 0 0 .0597-.0302.6345.6345 0 0 0 .1019-.0783c.1364-.133.1954-.3518.1187-.5406C2.2539.9024 2.2025.848 2.142.7937c-.2172-.1942-.5843-.1417-.744.094-.0263.0386-.0455.0667-.0644.1158-.035.0914-.0207.098-.0355.1485-.0413.0207-.1188.0093-.2421.095-.0577.04-.1286.1093-.162.1743C.8695 1.4102.8202 1.356.807 1.314l-.0794-.0012c.0432-.0211.267-.0162.4616-.2785C1.5183.5907 1.1516-.03.619.0011a.6452.6452 0 0 0-.155.0286.693.693 0 0 0-.0695.0253C.3716.0648.3516.0779.3305.0855z"/>
</svg>
