<svg xmlns="http://www.w3.org/2000/svg" width="100%" height="100%" fill-rule="evenodd" clip-rule="evenodd" image-rendering="optimizeQuality" shape-rendering="geometricPrecision" text-rendering="geometricPrecision" version="1.1" viewBox="0 0 4.147 14.032" xml:space="preserve">
  <path fill="#759fbc" d="M.751 7.741c0-.016.01-.001.004 0 0 0-.004.017-.004 0zm3.396-5.41a2.079 2.079 0 0 1-.282-.065c-.147-.043-.31-.116-.367-.258a.828.828 0 0 1-.032-.374c.014-.14.054-.066.13-.29.048-.144-.002-.049.075-.136a.355.355 0 0 0 .076-.134c.01-.04.016-.094-.012-.125-.013-.014-.018-.012-.041-.014-.041-.005-.04-.013-.038-.062.007-.09.01-.215-.004-.299A.685.685 0 0 0 3.53.277C3.52.26 3.52.263 3.507.25 3.45.192 3.44.174 3.367.125 2.923-.168 2.228.062 2.228.737c0 .064.016.147.006.192-.05.023-.08-.004-.095.06a.215.215 0 0 0 .02.131c.027.06.067.085.104.131.023.028.043.18.12.277.01.015.024.024.031.042.02.055.018.163.018.224 0 .2-.065.32-.23.402-.069.035-.141.066-.226.088-.086.021-.175.047-.267.054-.268.022-.442.183-.549.398-.128.257-.101.54-.1.845 0 .058-.007.092-.007.148.001.254.013.518-.029.768a2.787 2.787 0 0 1-.159.626C.81 5.26.768 5.3.722 5.456c-.023.082-.04.17-.053.262-.018.123-.013.208-.025.29l-.029.293c-.04.471-.174.477-.42.847-.051.076-.21.319-.194.428.008.054.039.068.083.049.038-.016.064-.044.09-.07.028-.028.05-.061.07-.092l.052-.085c.008-.012.002-.005.01-.014-.014.17-.11.366-.154.532a.425.425 0 0 0-.019.148c.009.078.088.025.116-.008.05-.059.074-.135.102-.207.013-.033.022-.073.037-.105L.39 7.72l.003-.004c0 .093-.02.207-.019.316 0 .047-.006.19.026.22.019.018.042.015.06.001.048-.04.064-.175.076-.257.014-.095.021-.21.03-.31.028.02.024.102.029.137l.014.233c.002.028-.002.06 0 .086.005.043.023.095.062.106.107-.029.086-.34.086-.488h.007c0 .04.032.149.044.184.018.054.031.131.098.137.023-.043.02-.05.028-.108.006-.044.003-.093.003-.14 0-.174-.008-.21.013-.388l.012-.198C.96 7.22.956 7.217.955 7.185.951 7.017.918 6.98.978 6.81c.025-.071.052-.13.08-.197a.928.928 0 0 1 .046-.09c.017-.03.033-.06.052-.09.019-.032.038-.058.055-.088.018-.033.03-.06.05-.093l.088-.189c.029-.066.058-.127.083-.195.081-.226.154-.44.154-.687 0-.101.002-.175.014-.264.015-.118.039-.232.084-.336.014-.031.027-.066.05-.093l.007.08.03.421c.003.05.013.122.013.173 0 .297.039.561-.005.874-.008.061-.023.086-.042.136a4.13 4.13 0 0 0-.23.865c-.007.052-.017.109-.02.16-.014.253-.018.248.013.505.026.212.056.43.08.644.04.366.099.732.176 1.09.012.056.026.093.036.15.036.227.011.588.047.763.005.027.015.053.018.075a.363.363 0 0 1-.025.153c-.115.343-.15.542-.075.93.04.201.093.397.15.58l.042.136.087.272c.049.145.098.267.112.431.008.086.014.17.007.254-.009.101.005.141-.035.238-.054.13-.127.261-.127.417 0 .048.01.069.045.086l.004.002.004.002.024.014c.047.012.03-.023.071.008.035.026.086.049.132.038.047-.012.022-.017.061.004a.124.124 0 0 0 .142-.005c.01.008.019.016.033.023.053.025.095-.013.125-.007.047.008.089.065.174 0 .065-.048.05-.091.035-.167-.022-.123-.067-.229-.108-.343-.03-.084-.081-.467-.104-.582-.061-.308-.087-.213-.087-.593 0-.033-.003-.08 0-.11.005-.036.003-.073.006-.113.006-.065.014-.137.019-.204.004-.067.02-.137.024-.204.004-.075.01-.145.007-.223l-.013-.216c-.003-.121-.036-.279-.053-.398-.025-.176.083-.607.117-.781.012-.06.021-.13.03-.198.04-.262.08-.536.11-.8.039-.342.093-.688.093-1.044.064.031.08.021.142.007 0 .302.041.561.068.835.032.336.105.867.163 1.197.037.217.11.452.115.675 0 .029.006.028.006.05.002.045-.012.11-.019.153-.034.21-.048.417-.049.632 0 .145.03.28.038.42.005.107.028.338.017.432-.011.102-.01.205-.043.303-.073.217-.108.654-.148.76-.02.055-.042.112-.06.169-.018.051-.102.287-.035.33.047.03.083.054.15.033.014-.005.03-.017.042-.02.02-.005.044.02.081.018.046-.003.056-.017.082-.034.047.03.082.033.136.006.057-.03.09.028.198-.044.039-.026.044.007.083-.015l.012-.007c.002 0 .003 0 .004-.002.035-.017.05-.046.05-.093-.005-.177-.144-.404-.154-.477a.957.957 0 0 1-.007-.085c-.006-.23-.012-.425.071-.64.034-.087.06-.18.09-.268.092-.275.171-.539.23-.831v-.724a1.198 1.198 0 0 0-.027-.096c-.015-.043-.032-.087-.046-.134-.011-.04-.034-.1-.025-.148.006-.032.015-.045.02-.073.044-.235.006-.534.049-.774.007-.044.018-.083.03-.124v-3.35a.78.78 0 0 1-.034-.238l-.006-.26c0-.04.006-.05.006-.086.001-.058-.006-.12.003-.177l.03-.534v-2.48z"/>
  <path fill="#fe4f32" d="M1.808 4.446h.228V3.088h1.836v1.358h.251L2.965 5.643 1.808 4.446zm.228-1.453v-.144h1.836v.144H2.036zm0-.323v-.168h1.836v.168H2.036zm0-.431V2.06h1.836v.179H2.036zm0-.525v-.187h1.836v.187H2.036zm0-.617v-.073h1.836v.073H2.036z"/>
</svg>
