<?xml version="1.0" encoding="UTF-8"?>
<!DOCTYPE svg PUBLIC "-//W3C//DTD SVG 1.1//EN" "http://www.w3.org/Graphics/SVG/1.1/DTD/svg11.dtd">
<!-- Creator: CorelDRAW 2017 -->
<svg xmlns="http://www.w3.org/2000/svg" xml:space="preserve" width="100%" height="100%" version="1.1" style="shape-rendering:geometricPrecision; text-rendering:geometricPrecision; image-rendering:optimizeQuality; fill-rule:evenodd; clip-rule:evenodd"
viewBox="0 0 4.14725 14.03178"
 xmlns:xlink="http://www.w3.org/1999/xlink">
 <defs>
  <style type="text/css">
   <![CDATA[
    .fil0 {fill:#759FBC}
    .fil1 {fill:#FE4F32}
   ]]>
  </style>
 </defs>
 <g id="Camada_x0020_1">
  <metadata id="CorelCorpID_0Corel-Layer"/>
  <path class="fil0" d="M0.75121 7.74101c0,-0.01583 0.00979,-0.001 0.00367,0 -0.00007,0 -0.00367,0.01725 -0.00367,0zm3.39604 -5.41013c-0.09849,-0.01428 -0.19812,-0.03986 -0.28262,-0.06477 -0.14626,-0.04311 -0.30996,-0.11641 -0.36619,-0.25817 -0.04491,-0.11324 -0.04446,-0.25356 -0.0324,-0.3736 0.01414,-0.1406 0.05417,-0.06607 0.12965,-0.29073 0.04839,-0.14401 -0.00185,-0.04852 0.07487,-0.1353 0.02976,-0.03367 0.063,-0.08353 0.07629,-0.13389 0.01048,-0.03967 0.01658,-0.09398 -0.0119,-0.12517 -0.01302,-0.01426 -0.01833,-0.012 -0.04103,-0.01462 -0.04107,-0.00476 -0.04085,-0.01261 -0.03748,-0.06149 0.00627,-0.09096 0.00935,-0.21505 -0.0041,-0.29875 -0.02006,-0.12486 -0.06361,-0.21139 -0.12287,-0.2975 -0.01088,-0.01582 -0.01033,-0.01384 -0.0227,-0.02675 -0.0556,-0.05803 -0.06599,-0.07581 -0.14055,-0.12528 -0.44184,-0.2932 -1.13757,-0.06237 -1.13757,0.6121 0,0.06407 0.0167,0.1466 0.0062,0.19164 -0.04911,0.02356 -0.07892,-0.00402 -0.09456,0.06002 -0.01118,0.04575 0.00465,0.09636 0.02037,0.13163 0.02622,0.0588 0.06602,0.08513 0.10368,0.13123 0.02257,0.02763 0.04295,0.17873 0.11877,0.27687 0.01146,0.01483 0.02534,0.02334 0.03218,0.04199 0.02004,0.05464 0.01728,0.16287 0.01752,0.22386 0.00081,0.1989 -0.06458,0.32001 -0.22887,0.40169 -0.0699,0.03475 -0.14228,0.06622 -0.2274,0.08787 -0.08519,0.02167 -0.17446,0.04707 -0.26697,0.05449 -0.26795,0.02148 -0.44122,0.18307 -0.54838,0.39744 -0.12857,0.25718 -0.10126,0.53981 -0.10089,0.84493 0.00007,0.05851 -0.00641,0.09194 -0.0062,0.14834 0.00094,0.25427 0.01279,0.51814 -0.02904,0.76842 -0.03596,0.21515 -0.0756,0.42754 -0.159,0.62609 -0.05718,0.1361 -0.09818,0.17548 -0.14362,0.33239 -0.02389,0.08248 -0.04012,0.16931 -0.0535,0.26178 -0.01776,0.12287 -0.01328,0.20872 -0.02451,0.29076l-0.02905 0.2924c-0.03978,0.47131 -0.17445,0.47765 -0.42054,0.84674 -0.05125,0.07687 -0.20954,0.31914 -0.19373,0.42853 0.00785,0.05428 0.03853,0.06747 0.08328,0.04848 0.03763,-0.01597 0.06347,-0.04312 0.09048,-0.07042 0.0267,-0.027 0.04864,-0.06019 0.06943,-0.09131l0.05165 -0.08435c0.00771,-0.01268 0.00222,-0.00543 0.01016,-0.01456 -0.01416,0.17022 -0.11025,0.36567 -0.15459,0.53159 -0.01213,0.04538 -0.02329,0.099 -0.01814,0.14803 0.00827,0.07882 0.08733,0.02594 0.11539,-0.00751 0.04954,-0.05905 0.07418,-0.13503 0.10243,-0.20666 0.01311,-0.03325 0.02134,-0.07358 0.03697,-0.10522 0.00053,-0.00107 0.00178,-0.0031 0.00223,-0.00395 0.00044,-0.00084 0.0014,-0.00267 0.00226,-0.00392 0,0.09272 -0.0188,0.20654 -0.01856,0.31527 0.00011,0.04724 -0.00591,0.19097 0.02631,0.22117 0.0185,0.01735 0.04151,0.01478 0.05887,0.00031 0.04888,-0.0408 0.06468,-0.17467 0.07666,-0.25746 0.01368,-0.09447 0.02147,-0.21004 0.02981,-0.3102 0.02828,0.02072 0.02454,0.10231 0.02923,0.13769l0.01407 0.2332c0.00149,0.02744 -0.00229,0.05891 0.00064,0.0859 0.00468,0.04299 0.02207,0.09533 0.06115,0.10577 0.10762,-0.02875 0.08655,-0.33908 0.08655,-0.48837l0.00618 0c0,0.03991 0.03203,0.14903 0.04403,0.18469 0.01803,0.05356 0.03163,0.13122 0.09815,0.13676 0.02286,-0.04318 0.02005,-0.0493 0.02839,-0.10761 0.00635,-0.04444 0.00247,-0.09378 0.00253,-0.13966 0.00021,-0.17494 -0.00811,-0.2104 0.01288,-0.38893l0.01207 -0.19817c-0.00062,-0.0259 -0.00561,-0.02997 -0.00641,-0.062 -0.0042,-0.16726 -0.03707,-0.20346 0.02234,-0.37329 0.025,-0.0715 0.05227,-0.13 0.08096,-0.19722 0.01219,-0.02856 0.03072,-0.06551 0.04534,-0.09067 0.01734,-0.02986 0.03281,-0.05867 0.05185,-0.09032 0.019,-0.03159 0.03807,-0.0567 0.05499,-0.0872 0.01833,-0.03307 0.03108,-0.06003 0.04941,-0.09278l0.08897 -0.1892c0.02851,-0.06622 0.05808,-0.12657 0.08286,-0.19532 0.08121,-0.22528 0.15397,-0.43895 0.15382,-0.68691 -0.00005,-0.10094 0.0024,-0.17425 0.01419,-0.26401 0.0154,-0.11731 0.03858,-0.23178 0.08454,-0.33581 0.01372,-0.03107 0.02677,-0.06625 0.04964,-0.09255 0.00181,0.02181 0.00421,0.0518 0.00712,0.07942l0.02995 0.42133c0.00256,0.04969 0.01259,0.12199 0.0126,0.17286 0.00004,0.29726 0.03885,0.56146 -0.00446,0.87379 -0.00854,0.06156 -0.02348,0.08669 -0.04262,0.13665 -0.10494,0.27388 -0.18666,0.57211 -0.22952,0.86466 -0.00756,0.05157 -0.01739,0.10847 -0.02017,0.15912 -0.01394,0.25403 -0.01814,0.24884 0.01332,0.5056 0.02599,0.21204 0.05556,0.43106 0.07923,0.64404 0.04069,0.36605 0.09904,0.73216 0.17663,1.09066 0.01195,0.05524 0.02614,0.09233 0.03545,0.15 0.03659,0.22672 0.01159,0.58744 0.04685,0.76297 0.00533,0.02654 0.01593,0.05277 0.01864,0.07413 0.00695,0.05496 -0.01193,0.1147 -0.02488,0.15312 -0.11573,0.34359 -0.1499,0.54277 -0.07503,0.92966 0.03908,0.20192 0.09274,0.39756 0.14922,0.58025 0.01409,0.04556 0.03101,0.09413 0.04273,0.13654l0.08707 0.27148c0.04843,0.14535 0.09813,0.26752 0.11223,0.43177 0.00732,0.08523 0.01325,0.17 0.00633,0.25395 -0.00832,0.10094 0.00566,0.14087 -0.03481,0.2372 -0.05442,0.12959 -0.12666,0.26194 -0.12658,0.41792 0.00002,0.04776 0.00885,0.06833 0.04415,0.08585 0.00127,0.00063 0.00294,0.00133 0.00419,0.00199 0.00124,0.00065 0.00282,0.00149 0.00404,0.00215l0.02413 0.01344c0.0469,0.01208 0.02914,-0.02339 0.07149,0.00808 0.03505,0.02605 0.08603,0.04854 0.1313,0.03756 0.04737,-0.01148 0.02198,-0.01685 0.06124,0.00479 0.05247,0.02891 0.09686,0.02455 0.14198,-0.00567 0.0099,0.00861 0.01858,0.01631 0.03267,0.02302 0.05354,0.02546 0.09508,-0.01226 0.1255,-0.00685 0.04696,0.00837 0.08859,0.06477 0.17404,0.00077 0.06484,-0.04858 0.04923,-0.09209 0.03517,-0.16793 -0.02272,-0.12246 -0.06719,-0.22844 -0.10853,-0.34275 -0.03048,-0.08428 -0.08077,-0.46734 -0.10379,-0.58241 -0.0614,-0.30707 -0.08706,-0.21246 -0.08706,-0.59295 0,-0.03299 -0.00262,-0.07892 0.0009,-0.11036 0.00392,-0.03484 0.00232,-0.07201 0.00561,-0.11185 0.00539,-0.06524 0.01396,-0.13738 0.01844,-0.20411 0.00453,-0.06754 0.02103,-0.13756 0.02454,-0.20419 0.00393,-0.07474 0.00866,-0.14534 0.00635,-0.22278l-0.01245 -0.21628c-0.00287,-0.12117 -0.0361,-0.27871 -0.05322,-0.39804 -0.02518,-0.17549 0.08239,-0.6068 0.11652,-0.78098 0.01189,-0.06073 0.02133,-0.13056 0.03111,-0.19762 0.03833,-0.26278 0.07878,-0.53585 0.10895,-0.79977 0.03915,-0.34233 0.09326,-0.6883 0.09326,-1.04421 0.06391,0.03066 0.0793,0.02083 0.14217,0.00618 0,0.30276 0.04136,0.56195 0.06744,0.83511 0.03212,0.33647 0.10558,0.86686 0.16299,1.19703 0.03774,0.21708 0.10987,0.45237 0.11561,0.67568 0.00073,0.02853 0.00541,0.02777 0.00604,0.04963 0.0013,0.04507 -0.01206,0.11022 -0.01914,0.15331 -0.0344,0.20911 -0.04809,0.41655 -0.04857,0.63144 -0.00034,0.14495 0.03028,0.28016 0.03721,0.42025 0.00529,0.10701 0.02812,0.33758 0.01753,0.43194 -0.01144,0.10192 -0.01004,0.20513 -0.04314,0.30305 -0.07335,0.217 -0.10842,0.65444 -0.14846,0.76026 -0.02055,0.05428 -0.04115,0.11149 -0.06017,0.16857 -0.01709,0.05128 -0.10175,0.28732 -0.03493,0.33008 0.04787,0.03062 0.0834,0.05458 0.15052,0.03278 0.01429,-0.00464 0.03057,-0.01645 0.0423,-0.01952 0.02044,-0.00537 0.04363,0.01968 0.08084,0.01755 0.04536,-0.00263 0.05595,-0.01663 0.08194,-0.03405 0.04656,0.03119 0.08235,0.03363 0.13596,0.00607 0.05682,-0.02922 0.08906,0.02869 0.1976,-0.04369 0.03889,-0.02593 0.04469,0.00669 0.08377,-0.0147l0.01179 -0.0069c0.00126,-0.00066 0.0029,-0.00137 0.00417,-0.00202 0.0342,-0.01755 0.0505,-0.04667 0.04918,-0.09309 -0.00507,-0.17712 -0.14354,-0.40448 -0.1534,-0.47765 -0.00341,-0.02531 -0.00712,-0.06318 -0.00767,-0.08504 -0.00585,-0.22963 -0.01139,-0.42504 0.07163,-0.63941 0.03372,-0.08708 0.06034,-0.18005 0.08994,-0.26859 0.0917,-0.2742 0.17088,-0.53846 0.23015,-0.83066l0 -0.72448c-0.00794,-0.03225 -0.01716,-0.06411 -0.0277,-0.09545 -0.01458,-0.04335 -0.0316,-0.0875 -0.0452,-0.13407 -0.01156,-0.0396 -0.03427,-0.09907 -0.02514,-0.14769 0.00599,-0.03188 0.01496,-0.04512 0.02009,-0.07293 0.04335,-0.23512 0.0057,-0.53424 0.04831,-0.77387 0.00783,-0.04407 0.01886,-0.083 0.02964,-0.12411l0 -3.35083c-0.02315,-0.07649 -0.03362,-0.15159 -0.03315,-0.23761l-0.0063 -0.25982c-0.00015,-0.03957 0.00614,-0.05045 0.00658,-0.08616 0.00071,-0.05798 -0.00616,-0.12061 0.00237,-0.17691l0.0305 -0.53371 0 -2.48046z"/>
  <path class="fil1" d="M1.80764 4.44555l0.22846 0 0 -1.35741 1.83632 0 0 1.35741 0.25058 0 -1.15768 1.19751 -1.15768 -1.19751zm0.22846 -1.453l0 -0.1434 1.83632 0 0 0.1434 -1.83632 0zm0 -0.32263l0 -0.16826 1.83632 0 0 0.16826 -1.83632 0zm0 -0.43113l0 -0.17867 1.83632 0 0 0.17867 -1.83632 0zm0 -0.52518l0 -0.18681 1.83632 0 0 0.18681 -1.83632 0zm0 -0.61696l0 -0.07249 1.83632 0 0 0.07249 -1.83632 0z"/>
 </g>
</svg>
