<svg xmlns="http://www.w3.org/2000/svg" width="100%" height="100%" fill-rule="evenodd" clip-rule="evenodd" image-rendering="optimizeQuality" shape-rendering="geometricPrecision" text-rendering="geometricPrecision" version="1.1" viewBox="0 0 1.939 1.941" xml:space="preserve">
  <path fill="#e6e7e8" d="M1.51 1.776l-.054-.085-.01-.015-.03-.045-.025-.05.039-.037.002-.002a.728.728 0 0 0 .05-1.097l-.024.046a.54.54 0 0 1 .072.09.683.683 0 0 1-.214.984l.06.095.025.04.043.057-.065.039a.178.178 0 0 1-.042.019.91.91 0 0 1-.743 0 .933.933 0 0 1-.511-.593l-.052.003.002.007.001.002v.002a.52.52 0 0 0 .028.08l.001.001c.09.243.275.435.511.54.236.105.5.112.742.022.042-.018.085-.035.124-.06l.002-.001h.001a.762.762 0 0 0 .067-.042zM1.401.104c-.036.07-.066.134-.11.2L1.24.288 1.237.288a.728.728 0 0 0-.978.499L.31.784A.54.54 0 0 1 .352.678C.375.628.404.578.44.535a.683.683 0 0 1 .874-.157c.04-.072.072-.132.105-.206l.065.036a.178.178 0 0 1 .038.027.91.91 0 0 1 .366.646.933.933 0 0 1-.262.737l.028.044a.208.208 0 0 0 .005-.005l.001-.002h.002a.52.52 0 0 0 .055-.064l.001-.001v-.001a.955.955 0 0 0 .217-.712.981.981 0 0 0-.347-.655C1.55.194 1.514.165 1.473.144L1.472.143 1.47.142a.759.759 0 0 0-.069-.038zm-1.4.92l.1-.002.02-.002.053-.002.055.004.013.053v.002a.728.728 0 0 0 .918.604l-.028-.043a.54.54 0 0 1-.113.015.646.646 0 0 1-.167-.005.683.683 0 0 1-.569-.682L.17.968.123.97l-.07.007L.051.902c0-.016.001-.03.005-.045a.91.91 0 0 1 .38-.638c.202-.14.52-.22.758-.14l.012.003.025-.046a.18.18 0 0 0-.007-.002H1.22a.987.987 0 0 0-.81.145.981.981 0 0 0-.399.626C.006.851 0 .897.001.943v.003a.763.763 0 0 0 0 .079z"/>
  <path fill="#57a695" d="M1.246 1.374c-.04-.017-.044-.03-.068-.062a.135.135 0 0 1-.031-.076c-.008-.093.042-.09.11-.082a.13.13 0 0 1 .105.055c.023.03.062.039.03.132-.022.066-.076.062-.146.033zm.007.127c.178.044.291.041.423-.041-.03-.026-.074-.042-.11-.073-.03-.025-.052-.195-.112-.242-.043-.078-.096-.064-.174-.108-.016-.015-.062-.35-.347-.39a.379.379 0 0 0-.14-.243C.744.364.596.293.51.31.433.47.402.759.561.886c.077.062.024.045.084.172.119.25.333.228.372.266.024.022.027.039.063.07.022.02.111.09.173.107zM.63.478C.77.434.853.71.746.754.677.782.598.702.582.666.556.606.572.496.63.478zM.777.97C.751.73 1.072.74 1.135.95c.032.108-.042.181-.154.173C.882 1.116.788 1.065.777.971z"/>
  <rect width=".211" height="5.187" fill="#ed3237" rx=".105" ry=".105" transform="scale(-.4234 .4234) rotate(-45 -1.456 5.334)"/>
</svg>
