<svg xmlns="http://www.w3.org/2000/svg" width="100%" height="100%" fill-rule="evenodd" clip-rule="evenodd" image-rendering="optimizeQuality" shape-rendering="geometricPrecision" text-rendering="geometricPrecision" version="1.1" viewBox="0 0 1.939 1.941" xml:space="preserve">
  <defs>
    <style type="text/css">
      .str0,.str1{stroke:#201e1e;stroke-width:.04944;stroke-linecap:round;stroke-linejoin:round;stroke-miterlimit:22.9256}.fil1{fill:none}.fil2{fill:#fefefe}
    </style>
  </defs>
  <g id="Camada_x0020_1">
    <g id="_2075651100752">
      <path fill="#e6e7e8" d="M1.51 1.776l-.054-.085-.01-.015-.03-.045-.025-.05.039-.037.002-.002a.728.728 0 0 0 .05-1.097l-.024.046a.54.54 0 0 1 .072.09.683.683 0 0 1-.214.984l.06.095.025.04.043.057-.065.039a.178.178 0 0 1-.042.019.91.91 0 0 1-.743 0 .933.933 0 0 1-.511-.593l-.052.003.002.007.001.002v.002a.52.52 0 0 0 .028.08l.001.001c.09.243.275.435.511.54.236.105.5.112.742.022.042-.018.085-.035.124-.06l.002-.001h.001a.76.76 0 0 0 .067-.042zM1.401.104c-.036.07-.066.134-.11.2L1.24.288 1.237.288a.728.728 0 0 0-.978.499L.31.784A.539.539 0 0 1 .352.678C.375.628.404.578.44.535a.683.683 0 0 1 .874-.157c.04-.072.072-.132.105-.206l.065.036a.178.178 0 0 1 .038.027.91.91 0 0 1 .366.646.933.933 0 0 1-.262.737l.028.044a.208.208 0 0 0 .005-.005l.001-.002.002-.001a.519.519 0 0 0 .055-.063l.001-.001v-.001a.955.955 0 0 0 .217-.712.981.981 0 0 0-.347-.655C1.55.194 1.514.165 1.473.144L1.472.143 1.47.142a.764.764 0 0 0-.069-.038zm-1.4.92l.1-.002.02-.002.053-.002.055.004.013.053v.002a.728.728 0 0 0 .918.604l-.028-.043a.538.538 0 0 1-.113.015.646.646 0 0 1-.167-.005.683.683 0 0 1-.569-.682L.17.968.123.97l-.07.007L.051.902c0-.016.001-.03.005-.045a.91.91 0 0 1 .38-.638c.202-.14.52-.22.758-.14l.012.003.025-.046a.202.202 0 0 0-.007-.002H1.22a.987.987 0 0 0-.81.145.981.981 0 0 0-.399.626C.006.851 0 .897.001.943v.003a.763.763 0 0 0 0 .079z"/>
      <path d="M1.138 1.474l-.044-.281-.304-.111.046.285z" class="fil1 str0"/>
      <path id="1" d="M1.138 1.474l-.044-.281-.304-.111.046.285z" class="fil2"/>
      <path d="M1.094 1.193l.044.281.264-.191L1.354 1z" class="fil1 str0"/>
      <path id="1" d="M1.094 1.193l.044.281.264-.191L1.354 1z" class="fil2"/>
      <path d="M1.354 1L1.043.887l-.253.195.304.111z" class="fil1 str0"/>
      <path id="1" d="M1.354 1L1.043.887l-.253.195.304.111z" class="fil2"/>
      <g>
        <path d="M.784 1.018l.092-.27L.658.509.566.782z" class="fil1 str1"/>
        <path id="1" d="M.784 1.018l.092-.27L.658.509.566.782z" class="fil2"/>
      </g>
      <g>
        <path d="M.876.748l-.092.27.322-.047.09-.273z" class="fil1 str1"/>
        <path id="1" d="M.876.748l-.092.27.322-.047.09-.273z" class="fil2"/>
      </g>
      <g>
        <path d="M1.196.698L.973.454.658.509l.218.239z" class="fil1 str1"/>
        <path id="1" d="M1.196.698L.973.454.658.509l.218.239z" class="fil2"/>
      </g>
      <rect width=".211" height="5.187" fill="#ed3237" rx=".105" ry=".105" transform="scale(-.4234 .4234) rotate(-45 -1.456 5.334)"/>
    </g>
  </g>
</svg>
