<svg xmlns="http://www.w3.org/2000/svg" width="100%" height="100%" fill-rule="evenodd" clip-rule="evenodd" image-rendering="optimizeQuality" shape-rendering="geometricPrecision" text-rendering="geometricPrecision" version="1.1" viewBox="0 0 8.185 5.212" xml:space="preserve">
  <defs>
    <style type="text/css">
      .fil1{fill:#00afef}
    </style>
    <clipPath id="id0">
      <path d="M.766 3.406c-.057.027-.245.052-.293.01.019-.108.183.028.124-.372-.017-.11-.053-.367-.12-.417.073.22.026.144 0 .348-.008.065-.02.128-.024.192-.006.094.03.12.019.206-.08.045-.088.004-.237.02-.073.008-.098.016-.17-.012-.04-.015-.027.003-.039-.042l.027-.01.01-.003.037-.003a.29.29 0 0 0 .19-.102c.04-.058.014-.263.008-.345-.011-.145-.009-.195-.067-.309a.971.971 0 0 1-.065-.318c-.002-.146-.029-.19.02-.342.031-.1-.02-.216-.016-.328.004-.11.013-.243.03-.346.023-.132-.014-.073-.019-.15C.18 1.033.22.979.235.943.205.919.182.914.152.886.072.812-.018.725.003.624.021.54.048.487.075.414.115.305.104.28.116.166.168.121.208.115.28.142.281.176.274.197.275.222c.002.04.016.02.012.071C.275.3.268.3.255.303L.247.306.22.316C.2.431.21.566.185.664c.185.107.04.034.201.07C.38.622.372.651.313.597.31.554.33.537.335.512.34.479.325.474.325.439.446.371.359.346.475.296c.098-.043.15.019.21.048L.667.194C.622.184.597.18.577.147a.833.833 0 0 1-.043-.1C.59-.011.671-.027.713.066c.055.122.19.277.203.371C.918.45.878.647.87.681.848.769.827.695.8.89c-.014.107-.017.145-.054.24-.08.209-.179.299-.2.384-.024.1.025.125.048.212.037.136.011.126-.02.236-.018.064.026.162.037.234.012.084.008.188.027.264.038.158.158.243.121.42-.016.08-.014.19-.02.275-.008.107.036.188.026.25zM.494 5.004h.669v.208h-.67v-.208zm.942.032h.03v.15h-.03l-.058-.1v.1h-.03v-.15h.032l.056.097v-.097zm.083.025h-.025l.019-.031h.037l-.031.03zm.007.01v.115h-.029V5.07h.03zm.126 0l-.038.115H1.58l-.037-.115h.031l.023.089.023-.09h.03zm.043.066v.02c0 .003.001.005.004.005h.028c.003 0 .004-.002.004-.005v-.009h.03v.01c0 .01-.003.017-.007.021-.005.005-.012.007-.021.007h-.04c-.01 0-.017-.002-.021-.007-.005-.004-.007-.011-.007-.02v-.06c0-.01.002-.017.007-.022.004-.004.011-.006.021-.006h.04c.01 0 .016.002.021.006.004.005.007.012.007.021v.039h-.066zm.032-.043h-.028c-.003 0-.004.002-.004.005v.018h.036v-.018c0-.003-.001-.005-.004-.005zm.058-.064h.03v.156h-.03V5.03zm.138.04c.01 0 .017.001.022.004.006.003.01.007.015.014V5.03h.03v.156h-.03v-.017a.046.046 0 0 1-.015.013.047.047 0 0 1-.022.005c-.012 0-.02-.003-.025-.007-.005-.005-.007-.013-.007-.023V5.1c0-.011.002-.019.007-.023.005-.005.013-.007.025-.007zm-.003.033v.05c0 .003 0 .005.002.006l.007.001a.065.065 0 0 0 .03-.007v-.05a.066.066 0 0 0-.03-.007l-.007.001-.002.006zm.124.034v.02c0 .003.002.005.005.005h.027c.003 0 .005-.002.005-.005v-.009h.03v.01c0 .01-.003.017-.008.021-.004.005-.011.007-.02.007h-.04c-.01 0-.017-.002-.022-.007-.004-.004-.006-.011-.006-.02v-.06c0-.01.002-.017.006-.022.005-.004.012-.006.021-.006h.04c.01 0 .017.002.021.006.005.005.007.012.007.021v.039h-.066zm.032-.043h-.027c-.003 0-.005.002-.005.005v.018h.037v-.018c0-.003-.002-.005-.005-.005zm.208-.03h-.04v.122h-.031v-.122h-.04v-.028h.111v.028zm.03.073v.02c0 .003.002.005.005.005h.027c.003 0 .005-.002.005-.005v-.009h.03v.01c0 .01-.003.017-.007.021-.005.005-.012.007-.021.007h-.04c-.01 0-.017-.002-.021-.007-.005-.004-.007-.011-.007-.02v-.06c0-.01.002-.017.007-.022.004-.004.011-.006.02-.006h.04c.01 0 .017.002.022.006.004.005.006.012.006.021v.039h-.066zm.032-.043H2.32c-.003 0-.005.002-.005.005v.018h.037v-.018c0-.003-.002-.005-.005-.005zm.117.013v-.009c0-.003-.002-.004-.005-.004h-.022l-.004.001a.017.017 0 0 0-.001.007v.009l.006.002.032.005c.01.002.016.005.02.009.003.004.005.012.005.024 0 .013-.002.022-.006.027-.005.005-.012.008-.021.008h-.039c-.01 0-.016-.002-.021-.007-.004-.004-.007-.011-.007-.02v-.011h.03v.01c0 .003 0 .005.004.005h.027c.001 0 .003 0 .003-.002a.02.02 0 0 0 .001-.008v-.01l-.006-.002-.032-.005c-.01-.001-.016-.004-.02-.009-.003-.004-.005-.011-.005-.022 0-.013.002-.022.006-.027.005-.005.012-.007.022-.007h.034c.01 0 .016.002.021.006.004.005.007.012.007.021v.009h-.03zm.09-.013v.063c0 .003.001.004.004.004h.02v.025h-.026c-.01 0-.017-.002-.021-.007-.005-.004-.007-.011-.007-.02v-.065h-.017v-.023h.018v-.028h.028v.028h.025v.023h-.024zm.068-.023h.041c.01 0 .017.002.021.006.005.005.007.012.007.021v.06c0 .01-.002.017-.007.021-.004.005-.011.007-.02.007H2.62c-.01 0-.017-.002-.021-.007-.005-.004-.007-.011-.007-.02v-.06c0-.01.002-.017.007-.022.004-.004.011-.006.02-.006zm.04.085V5.1c0-.003-.002-.005-.005-.005h-.029c-.003 0-.004.002-.004.005v.055c0 .003.001.004.004.004h.029c.003 0 .004-.001.004-.004zm.112-.05v-.008c0-.003-.002-.004-.005-.004h-.022l-.004.001a.017.017 0 0 0 0 .007v.009l.006.002.031.005c.01.002.016.005.02.009.004.004.006.012.006.024 0 .013-.003.022-.007.027-.004.005-.012.008-.021.008h-.039c-.01 0-.016-.002-.02-.007-.005-.004-.007-.011-.007-.02v-.011h.029v.01c0 .003.001.005.004.005h.027c.002 0 .003 0 .004-.002a.02.02 0 0 0 0-.008v-.01l-.006-.002-.032-.005c-.01-.001-.016-.004-.02-.009-.003-.004-.005-.011-.005-.022 0-.013.002-.022.007-.027.004-.005.011-.007.02-.007h.035c.01 0 .017.002.021.006.005.005.007.012.007.021v.009h-.03zm.09-.012v.063c0 .003.001.004.005.004h.02v.025H2.86c-.01 0-.016-.002-.02-.007-.005-.004-.008-.011-.008-.02v-.065h-.017v-.023h.018v-.028h.028v.028h.026v.023h-.025zm.07.043v.02c0 .003.001.005.005.005h.027c.003 0 .004-.002.004-.005v-.009H3v.01c0 .01-.002.017-.007.021-.004.005-.011.007-.02.007h-.04c-.01 0-.017-.002-.022-.007-.004-.004-.007-.011-.007-.02v-.06c0-.01.003-.017.007-.022.005-.004.012-.006.021-.006h.04c.01 0 .017.002.021.006.005.005.007.012.007.021v.039h-.066zm.032-.043h-.027c-.004 0-.005.002-.005.005v.018h.036v-.018c0-.003-.001-.005-.004-.005zm.13.004H3.08a.058.058 0 0 0-.027.007v.08h-.03v-.114h.03v.017a.05.05 0 0 1 .014-.013.036.036 0 0 1 .019-.004h.009v.027zm.041-.027h.041c.01 0 .017.002.021.006.005.005.007.012.007.021v.06c0 .01-.002.017-.007.021-.004.005-.011.007-.02.007h-.042c-.01 0-.017-.002-.021-.007-.005-.004-.007-.011-.007-.02v-.06c0-.01.002-.017.007-.022.004-.004.011-.006.021-.006zm.04.085V5.1c0-.003-.002-.005-.005-.005h-.029c-.003 0-.004.002-.004.005v.055c0 .003.001.004.004.004h.029c.003 0 .005-.001.005-.004zm.084-.085v.016a.047.047 0 0 1 .014-.013.045.045 0 0 1 .022-.005c.011 0 .02.003.024.007.005.005.007.012.007.022v.088h-.03V5.1v-.004l-.007-.001a.064.064 0 0 0-.03.007v.083h-.03V5.07h.03zm.12 0h.038c.01 0 .016.002.02.006.005.005.008.012.008.021v.088h-.03v-.018a.05.05 0 0 1-.014.014.042.042 0 0 1-.022.005c-.011 0-.019-.003-.024-.008-.004-.005-.007-.013-.007-.025 0-.012.003-.02.008-.026a.037.037 0 0 1 .022-.01.443.443 0 0 1 .037-.003v-.016c0-.003-.001-.004-.005-.004h-.024c-.003 0-.005.001-.005.004v.007h-.029v-.008c0-.01.002-.016.007-.02.004-.005.011-.007.02-.007zm.036.063l-.03.005c-.003 0-.005.002-.006.003-.001.002-.002.004-.002.009 0 .004 0 .007.002.008 0 .002.003.002.006.002a.05.05 0 0 0 .021-.004.198.198 0 0 0 .01-.004v-.02zm4.376-1.999h.192a.585.585 0 0 0-.014.129c.003.058.02.062.012.13-.068.049-.122.016-.218.026-.073.008-.203.016-.242-.025.01-.025-.01-.018.075-.043.13-.037.204-.074.197-.185l-.002-.032zm-1.091-.342h.273c-.001.144-.101.336-.064.523.03.144-.08.092-.174.099-.074.005-.234.032-.279-.022.016-.048.056-.02.154-.07.058-.029.116-.047.121-.114a1.74 1.74 0 0 0-.031-.416zM5.507 2.35h.341c-.017.067-.034.143-.013.204.027.075.069.145.075.236.004.067-.035.184-.049.26-.018.108-.03.169-.01.277.026.134-.1.081-.184.089-.068.006-.218.03-.27-.023.009-.027 0-.014.027-.027.012-.006.064-.01.129-.042.055-.027.11-.046.119-.105.017-.115-.015-.484-.08-.594-.03-.05-.061-.16-.085-.275zM4.42 2.078h.4c-.005.051.002.11-.008.17-.012.077-.043.145-.048.228-.006.083.04.138.065.213.04.118.025.132-.003.24-.076.295-.014.404-.038.479-.073.013-.157.006-.234.013a.497.497 0 0 1-.123.002c-.054-.007-.07.003-.091-.04.04-.043.274-.042.282-.194a2.844 2.844 0 0 0-.037-.44c-.019-.108-.034-.092-.068-.17-.013-.03-.016-.06-.025-.093-.01-.036-.022-.046-.033-.085a1.748 1.748 0 0 1-.039-.323zm-1.077-.574h.447a.282.282 0 0 0 0 .022c-.001.105.07.124.075.248.005.123-.05.15-.083.224-.024.053.001.19-.027.287-.107.369 0 .237.046.488.02.104-.1.362-.059.533.038.154-.081.099-.184.108-.079.007-.221.025-.267-.02.016-.053.033-.018.148-.065.048-.02.114-.054.13-.097.02-.054-.015-.506-.055-.583-.038-.073-.042-.063-.066-.161-.018-.07-.042-.066-.048-.173-.01-.171-.052-.174-.003-.389.027-.117-.061-.22-.053-.368a.33.33 0 0 0-.001-.054zM2.33 1.212h.511c-.048.116-.137.267-.103.375.022.074.079.092.066.22-.01.108-.072.135-.086.198-.015.067.022.15-.008.251-.083.293-.09.183.01.43.055.14.024.107.002.23-.014.08-.025.162-.038.244-.018.118.03.164.002.247-.08.013-.154.006-.242.013-.056.004-.182.016-.205-.037.026-.038.228-.048.277-.144.03-.057-.003-.314-.012-.393-.036-.303-.062-.185-.096-.323-.013-.05-.008-.046-.027-.082-.017-.031-.022-.036-.027-.078-.01-.075-.006-.12-.02-.199-.028-.147.048-.224.023-.356-.029-.146-.046-.15-.037-.276.004-.046-.007-.05-.009-.093l.012-.187.007-.04zM1.433.879h.346c.053.1.084.186-.045.474-.112.248-.056.187-.002.325.065.164-.049.231-.064.313-.014.073.03.147-.002.254-.08.255-.114.201-.003.43.06.124.039.102.013.217-.01.046-.054.322-.046.368.01.065.029.052.015.133-.033.018-.41.058-.453-.01.033-.047.228-.041.279-.144.034-.068-.001-.305-.011-.39-.006-.052-.016-.133-.028-.18-.016-.056-.05-.075-.069-.147-.03-.119-.045-.078-.055-.16-.01-.077-.001-.118-.017-.2-.03-.154.056-.21.034-.368-.025-.184-.029-.115-.024-.28 0-.043-.013-.055-.013-.097 0-.055.011-.03 0-.083a.311.311 0 0 1 .025-.176c.032-.064.019-.013.005-.069-.02-.078.06-.161.115-.21zM.338 3.778v-.02l.001-.004.005-.002h.047c.002 0 .004 0 .005.002v.024a.01.01 0 0 1 0 .006l-.004.003-.007.003-.048.018a.106.106 0 0 0-.032.017.032.032 0 0 0-.01.025v.07H.44v-.039H.337V3.86l.001-.006a.007.007 0 0 1 .004-.003l.007-.003.048-.018a.105.105 0 0 0 .032-.017.032.032 0 0 0 .01-.025v-.033c0-.028-.013-.042-.041-.042h-.06c-.028 0-.042.014-.042.042v.023h.042zm.25.143H.515c-.027 0-.041-.014-.041-.042v-.125c0-.027.014-.041.041-.041h.071c.028 0 .042.014.042.041v.125c0 .028-.014.042-.042.042zm-.07-.163v.118l.001.004c0 .001.002.002.005.002H.58c.003 0 .004 0 .005-.002l.001-.004v-.118l-.001-.005H.519l-.001.005zm-.266.474H.178l-.013.046H.12l.063-.208h.063l.063.208H.266l-.014-.046zM.24 4.193l-.026-.087-.025.087H.24zm.134-.076v.024a.065.065 0 0 1 .02-.02.063.063 0 0 1 .03-.005c.016 0 .027.003.034.01.007.005.01.016.01.03v.122h-.04V4.16c0-.003-.002-.005-.003-.006l-.008-.002a.09.09 0 0 0-.043.01v.116h-.04v-.16h.04zm.167 0h.057c.013 0 .023.003.03.01.006.006.009.015.009.029v.083c0 .013-.003.023-.01.03-.006.005-.016.009-.029.009H.541c-.014 0-.023-.004-.03-.01-.006-.006-.009-.016-.009-.029v-.083c0-.014.003-.023.01-.03.006-.006.015-.009.029-.009zm.055.118V4.16c0-.004-.003-.006-.007-.006H.55c-.004 0-.006.002-.006.006v.076c0 .005.002.007.007.007h.04c.003 0 .006-.002.006-.007zm.156-.067v-.012c0-.005-.002-.007-.006-.007H.715c-.003 0-.005.001-.006.003a.023.023 0 0 0-.001.01l.001.01c.001.003.004.004.008.004l.044.007c.013.003.023.007.028.013.005.006.007.017.007.033 0 .018-.003.03-.009.038-.006.007-.016.01-.03.01H.705c-.013 0-.023-.003-.03-.009C.67 4.262.666 4.252.666 4.24v-.015h.04v.015c0 .004.003.007.007.007H.75c.003 0 .005-.001.006-.003v-.011-.013l-.008-.004-.044-.007C.689 4.206.68 4.202.675 4.196.67 4.19.668 4.18.668 4.165c0-.018.003-.03.009-.037.006-.007.016-.01.03-.01h.047c.013 0 .023.002.03.008.006.007.009.016.009.03v.012h-.04zm.632-.311a.16.16 0 0 0 0 .017l.003.007.003.001h.052l.004-.001.002-.007a.16.16 0 0 0-.002-.04H1.392v-.038h.048c.002 0 .004-.002.005-.004l.001-.018-.001-.019c-.001-.002-.003-.003-.005-.003h-.048c-.002 0-.003 0-.004.003a.082.082 0 0 0-.001.019v.003h-.043V3.77c0-.021.003-.036.01-.044.006-.009.017-.013.031-.013h.062c.015 0 .025.004.032.012.007.008.01.023.01.043a.084.084 0 0 1-.004.031.031.031 0 0 1-.015.016.03.03 0 0 1 .016.015.084.084 0 0 1 .005.033c0 .022-.003.037-.01.045-.006.009-.017.013-.031.013h-.067c-.015 0-.025-.004-.032-.013-.006-.008-.01-.023-.01-.045v-.006h.043zm.253.064h-.07c-.029 0-.043-.014-.043-.042v-.125c0-.027.014-.041.042-.041h.071c.028 0 .042.014.042.041v.125c0 .028-.014.042-.042.042zm-.07-.163v.118c0 .002 0 .003.002.004l.004.002h.057c.002 0 .004 0 .005-.002v-.122-.005h-.066l-.002.005zm-.264.474h-.074l-.014.046H1.17l.063-.208h.063l.063.208h-.043l-.013-.046zm-.012-.039l-.027-.087-.025.087h.052zm.133-.076v.024a.065.065 0 0 1 .02-.02.063.063 0 0 1 .031-.005c.015 0 .027.003.033.01.007.005.01.016.01.03v.122h-.04V4.16c0-.003-.001-.005-.003-.006l-.008-.002a.09.09 0 0 0-.043.01v.116h-.04v-.16h.04zm.167 0h.057c.014 0 .023.003.03.01.006.006.009.015.009.029v.083c0 .013-.003.023-.01.03-.006.005-.015.009-.029.009h-.057c-.013 0-.023-.004-.03-.01-.006-.006-.009-.016-.009-.029v-.083c0-.014.003-.023.01-.03.006-.006.016-.009.029-.009zm.055.118V4.16c0-.004-.002-.006-.007-.006H1.6c-.004 0-.006.002-.006.006v.076c0 .005.002.007.007.007h.04c.004 0 .006-.002.006-.007zm.157-.067v-.012c0-.005-.003-.007-.007-.007h-.031c-.003 0-.005.001-.005.003a.023.023 0 0 0-.002.01c0 .005 0 .01.002.01 0 .003.003.004.007.004l.044.007c.014.003.023.007.028.013.005.006.007.017.007.033 0 .018-.003.03-.009.038-.006.007-.016.01-.03.01h-.053c-.013 0-.023-.003-.029-.009-.006-.006-.01-.016-.01-.029v-.015h.041v.015c0 .004.002.007.007.007H1.8c.002 0 .004-.001.005-.003l.001-.011-.001-.013c-.001-.002-.004-.003-.008-.004l-.044-.007c-.013-.002-.023-.006-.028-.012-.005-.006-.007-.016-.007-.031 0-.018.003-.03.009-.037.006-.007.016-.01.03-.01h.047c.014 0 .023.002.03.008.006.007.009.016.009.03v.012h-.04zm.752-.29h-.03v.043h-.042v-.043h-.095l-.01-.035.107-.13h.04v.127h.03v.038zm-.123-.038h.051v-.065l-.051.065zm.26.08h-.07c-.028 0-.042-.013-.042-.04v-.126c0-.027.014-.041.041-.041h.072c.027 0 .041.014.041.041v.125c0 .028-.014.042-.041.042zm-.07-.162v.118l.002.004c0 .001.002.002.005.002h.056c.003 0 .004 0 .005-.002l.001-.004v-.118l-.001-.005h-.066l-.001.005zm-.27.474H2.28l-.013.046H2.22l.063-.208h.062l.064.208h-.043l-.014-.046zm-.011-.039l-.027-.087-.025.087h.052zm.134-.076v.024a.065.065 0 0 1 .02-.02.063.063 0 0 1 .03-.005c.016 0 .027.003.033.01.007.005.01.016.01.03v.122h-.04V4.16c0-.003-.001-.005-.003-.006l-.008-.002a.09.09 0 0 0-.042.01v.116h-.041v-.16h.04zm.166 0h.057c.014 0 .023.003.03.01.006.006.01.015.01.029v.083c0 .013-.004.023-.01.03-.007.005-.016.009-.03.009h-.057c-.013 0-.023-.004-.03-.01-.005-.006-.009-.016-.009-.029v-.083c0-.014.004-.023.01-.03.006-.006.016-.009.03-.009zm.055.118V4.16c0-.004-.002-.006-.006-.006h-.04c-.004 0-.007.002-.007.006v.076c0 .005.003.007.007.007h.04c.004 0 .006-.002.006-.007zm.157-.067v-.012c0-.005-.002-.007-.007-.007h-.031c-.003 0-.004.001-.005.003a.023.023 0 0 0-.002.01c0 .005 0 .01.002.01 0 .003.003.004.007.004l.045.007c.013.003.022.007.027.013.005.006.008.017.008.033 0 .018-.003.03-.01.038-.006.007-.015.01-.029.01h-.053c-.014 0-.023-.003-.03-.009-.006-.006-.01-.016-.01-.029v-.015h.041v.015c0 .004.003.007.007.007h.037c.002 0 .004-.001.005-.003l.001-.011-.001-.013c-.001-.002-.004-.003-.008-.004l-.044-.007c-.013-.002-.022-.006-.027-.012-.005-.006-.008-.016-.008-.031 0-.018.003-.03.01-.037.005-.007.015-.01.029-.01h.048c.013 0 .023.002.029.008.006.007.01.016.01.03v.012h-.041zm.638-.416v.057a.064.064 0 0 1 .02-.019.066.066 0 0 1 .032-.006c.017 0 .029.003.036.01.008.007.012.017.012.032v.052c0 .029-.015.043-.043.043h-.061c-.028 0-.042-.014-.042-.042v-.023h.043v.02l.001.004.005.002h.048c.002 0 .004 0 .004-.002l.002-.004v-.048l-.002-.005a.095.095 0 0 0-.055.009l-.043-.01v-.11h.137v.04H3.49zm.248.169h-.071c-.028 0-.042-.014-.042-.042v-.125c0-.027.014-.041.042-.041h.07c.029 0 .042.014.042.041v.125c0 .028-.013.042-.041.042zm-.07-.163v.118l.001.004.005.002h.057c.002 0 .003 0 .004-.002l.002-.004v-.118c0-.002 0-.004-.002-.005H3.67l-.001.005zm-.266.474H3.33l-.013.046H3.27l.063-.208h.062l.064.208h-.043l-.014-.046zm-.012-.039l-.027-.087-.024.087h.051zm.134-.076v.024a.065.065 0 0 1 .02-.02.063.063 0 0 1 .03-.005c.016 0 .027.003.034.01.006.005.01.016.01.03v.122h-.041V4.16c0-.003 0-.005-.002-.006s-.004-.002-.009-.002a.09.09 0 0 0-.042.01v.116h-.041v-.16h.04zm.166 0h.058c.013 0 .023.003.029.01.006.006.01.015.01.029v.083c0 .013-.004.023-.01.03-.006.005-.016.009-.03.009h-.057c-.013 0-.023-.004-.029-.01-.006-.006-.01-.016-.01-.029v-.083c0-.014.004-.023.01-.03.006-.006.016-.009.03-.009zm.055.118V4.16c0-.004-.002-.006-.006-.006H3.7c-.004 0-.006.002-.006.006v.076c0 .005.002.007.006.007h.04c.004 0 .006-.002.006-.007zm.157-.067v-.012c0-.005-.002-.007-.007-.007h-.03c-.003 0-.005.001-.006.003a.023.023 0 0 0-.001.01l.001.01c.001.003.004.004.008.004l.044.007c.013.003.022.007.027.013.005.006.008.017.008.033 0 .018-.003.03-.01.038-.005.007-.015.01-.029.01h-.053c-.013 0-.023-.003-.03-.009-.006-.006-.009-.016-.009-.029v-.015h.04v.015c0 .004.003.007.007.007H3.9c.003 0 .004-.001.005-.003s.002-.005.002-.011c0-.007-.001-.01-.002-.013-.001-.002-.003-.003-.007-.004l-.045-.007c-.013-.002-.022-.006-.027-.012-.005-.006-.008-.016-.008-.031 0-.018.003-.03.01-.037.006-.007.015-.01.029-.01h.048c.013 0 .023.002.029.008.006.007.01.016.01.03v.012h-.041zm.693-.394v-.016c0-.004-.002-.006-.005-.006h-.048c-.004 0-.006.002-.006.006v.057a.06.06 0 0 1 .02-.02.078.078 0 0 1 .035-.005c.018 0 .03.003.038.01.008.006.012.017.012.031v.048c0 .028-.014.042-.042.042h-.064c-.028 0-.042-.014-.042-.042v-.125c0-.027.014-.041.042-.041h.062c.027 0 .041.014.041.041v.02h-.043zm-.06.063v.039l.002.004c.001.001.002.002.005.002h.05c.002 0 .004 0 .005-.002v-.046c0-.003 0-.004-.002-.005a.103.103 0 0 0-.06.009zm.255.084H4.72c-.028 0-.042-.014-.042-.042v-.125c0-.027.014-.041.042-.041h.07c.028 0 .042.014.042.041v.125c0 .028-.014.042-.041.042zm-.07-.163v.118l.001.004c0 .001.002.002.005.002h.056c.003 0 .004 0 .005-.002l.001-.004v-.118l-.001-.005h-.066l-.001.005zm-.268.474H4.38l-.013.046h-.045l.063-.208h.062l.064.208h-.043l-.014-.046zm-.012-.039l-.026-.087-.025.087h.051zm.134-.076v.024a.065.065 0 0 1 .02-.02.063.063 0 0 1 .03-.005c.016 0 .027.003.034.01.007.005.01.016.01.03v.122h-.041V4.16c0-.003 0-.005-.002-.006l-.008-.002a.09.09 0 0 0-.043.01v.116h-.04v-.16h.04zm.167 0h.057c.013 0 .023.003.03.01.005.006.009.015.009.029v.083c0 .013-.004.023-.01.03-.006.005-.016.009-.03.009h-.056c-.014 0-.024-.004-.03-.01-.006-.006-.01-.016-.01-.029v-.083c0-.014.004-.023.01-.03.006-.006.016-.009.03-.009zm.055.118V4.16c0-.004-.003-.006-.007-.006h-.04c-.004 0-.006.002-.006.006v.076c0 .005.002.007.006.007h.04c.004 0 .007-.002.007-.007zm.156-.067v-.012c0-.005-.002-.007-.006-.007h-.032c-.002 0-.004.001-.005.003a.023.023 0 0 0-.001.01l.001.01c.001.003.004.004.008.004l.044.007c.013.003.023.007.028.013.005.006.007.017.007.033 0 .018-.003.03-.01.038-.005.007-.015.01-.028.01h-.054c-.013 0-.023-.003-.03-.009-.006-.006-.009-.016-.009-.029v-.015h.04v.015c0 .004.003.007.007.007h.037c.003 0 .005-.001.005-.003.001-.002.002-.005.002-.011 0-.007 0-.01-.002-.013 0-.002-.003-.003-.007-.004l-.044-.007c-.014-.002-.023-.006-.028-.012-.005-.006-.008-.016-.008-.031 0-.018.004-.03.01-.037.006-.007.016-.01.03-.01h.047c.013 0 .023.002.03.008.005.007.009.016.009.03v.012h-.04zm.743-.425l-.09.178H5.56l.087-.17h-.102v-.038h.152v.03zm.136.178h-.071c-.028 0-.042-.014-.042-.042v-.125c0-.027.014-.041.042-.041h.071c.028 0 .042.014.042.041v.125c0 .028-.014.042-.042.042zm-.07-.163v.118c0 .002 0 .003.002.004l.004.002h.057c.002 0 .004 0 .004-.002l.002-.004v-.118c0-.002 0-.004-.002-.005h-.065l-.002.005zm-.258.474H5.43l-.014.046h-.045l.063-.208h.063l.063.208h-.043l-.013-.046zm-.013-.039l-.026-.087-.025.087h.051zm.134-.076v.024a.065.065 0 0 1 .02-.02.063.063 0 0 1 .03-.005c.016 0 .027.003.034.01.007.005.01.016.01.03v.122h-.04V4.16c0-.003-.001-.005-.003-.006l-.008-.002a.09.09 0 0 0-.043.01v.116h-.04v-.16h.04zm.167 0h.057c.013 0 .023.003.03.01.006.006.009.015.009.029v.083c0 .013-.003.023-.01.03-.006.005-.016.009-.029.009h-.057c-.014 0-.023-.004-.03-.01-.006-.006-.009-.016-.009-.029v-.083c0-.014.003-.023.01-.03.006-.006.015-.009.029-.009zm.055.118V4.16c0-.004-.002-.006-.007-.006H5.8c-.004 0-.006.002-.006.006v.076c0 .005.002.007.007.007h.04c.004 0 .006-.002.006-.007zm.156-.067v-.012c0-.005-.002-.007-.006-.007h-.031c-.003 0-.005.001-.006.003a.023.023 0 0 0 0 .01v.01c.002.003.004.004.008.004l.044.007c.014.003.023.007.028.013.005.006.007.017.007.033 0 .018-.003.03-.009.038-.006.007-.016.01-.03.01h-.053c-.013 0-.023-.003-.03-.009-.005-.006-.008-.016-.008-.029v-.015h.04v.015c0 .004.002.007.007.007H6c.003 0 .005-.001.006-.003v-.011-.013l-.008-.004-.044-.007c-.014-.002-.023-.006-.028-.012-.005-.006-.007-.016-.007-.031 0-.018.003-.03.009-.037.006-.007.016-.01.03-.01h.047c.013 0 .023.002.03.008.006.007.009.016.009.03v.012h-.04zm.721-.353a.03.03 0 0 1 .016.015.085.085 0 0 1 .005.033c0 .022-.003.037-.01.045-.006.009-.017.013-.031.013h-.072c-.014 0-.025-.004-.032-.013-.006-.008-.01-.023-.01-.045 0-.015.002-.026.005-.033a.03.03 0 0 1 .017-.015.031.031 0 0 1-.015-.016.084.084 0 0 1-.004-.03c0-.021.003-.036.01-.044.006-.008.017-.012.032-.012H6.7c.015 0 .025.004.032.012.007.008.01.023.01.043a.083.083 0 0 1-.004.031.031.031 0 0 1-.015.016zm-.03-.063h-.052c-.003 0-.004 0-.005.003a.082.082 0 0 0-.001.019l.001.018c0 .002.002.004.005.004h.052c.002 0 .004-.002.005-.004a.08.08 0 0 0 .001-.018l-.001-.019c0-.002-.003-.003-.005-.003zm-.055.13h.057l.004-.001.002-.007a.164.164 0 0 0-.002-.04h-.064l-.002.007a.16.16 0 0 0 .002.04l.003.001zm.252.039h-.07c-.029 0-.042-.014-.042-.042v-.125c0-.027.013-.041.041-.041h.071c.028 0 .042.014.042.041v.125c0 .028-.014.042-.042.042zm-.07-.163v.118c0 .002 0 .003.002.004l.004.002h.057c.002 0 .004 0 .005-.002l.001-.004v-.118l-.001-.005h-.066l-.002.005zm-.267.474H6.48l-.013.046H6.42l.064-.208h.062l.063.208h-.042l-.014-.046zm-.012-.039l-.027-.087-.025.087h.052zm.134-.076v.024a.065.065 0 0 1 .02-.02.063.063 0 0 1 .03-.005c.015 0 .027.003.033.01.007.005.01.016.01.03v.122h-.04V4.16c0-.003-.001-.005-.003-.006l-.008-.002a.09.09 0 0 0-.042.01v.116h-.042v-.16h.042zm.166 0h.057c.014 0 .023.003.03.01.006.006.009.015.009.029v.083c0 .013-.003.023-.01.03-.006.005-.015.009-.029.009h-.057c-.013 0-.023-.004-.03-.01-.006-.006-.009-.016-.009-.029v-.083c0-.014.003-.023.01-.03.006-.006.016-.009.029-.009zm.055.118V4.16c0-.004-.002-.006-.007-.006h-.04c-.003 0-.006.002-.006.006v.076c0 .005.003.007.007.007h.04c.004 0 .006-.002.006-.007zm.157-.067v-.012c0-.005-.003-.007-.007-.007h-.031c-.003 0-.004.001-.005.003a.023.023 0 0 0-.002.01c0 .005 0 .01.002.01 0 .003.003.004.007.004l.045.007c.013.003.022.007.027.013.005.006.008.017.008.033 0 .018-.003.03-.01.038-.006.007-.016.01-.03.01h-.053c-.013 0-.023-.003-.029-.009-.006-.006-.01-.016-.01-.029v-.015h.041v.015c0 .004.002.007.007.007h.037c.002 0 .004-.001.005-.003l.001-.011-.001-.013c-.001-.002-.004-.003-.008-.004l-.044-.007c-.013-.002-.022-.006-.028-.012-.005-.006-.007-.016-.007-.031 0-.018.003-.03.01-.037.005-.007.015-.01.029-.01h.047c.014 0 .023.002.03.008.006.007.009.016.009.03v.012h-.04zm.635-.308v.016c0 .004.002.006.006.006h.048c.004 0 .006-.002.006-.006v-.058a.06.06 0 0 1-.021.02.077.077 0 0 1-.034.005c-.018 0-.03-.003-.039-.01-.007-.006-.011-.017-.011-.031v-.048c0-.027.014-.041.042-.041h.064c.028 0 .042.014.042.041v.125c0 .028-.014.042-.042.042h-.062c-.028 0-.042-.014-.042-.042v-.02h.043zm.06-.064v-.038l-.001-.005h-.06l-.001.005V3.8c0 .003 0 .004.002.005l.012.001c.02 0 .035-.003.048-.01zm.192.125h-.07c-.029 0-.042-.014-.042-.042v-.125c0-.027.013-.041.041-.041h.071c.028 0 .042.014.042.041v.125c0 .028-.014.042-.042.042zm-.07-.163v.118c0 .002 0 .003.002.004l.004.002h.057c.002 0 .004 0 .005-.002l.001-.004v-.118l-.001-.005h-.066l-.002.005zm-.267.474H7.53l-.013.046h-.045l.063-.208h.062l.064.208h-.043l-.014-.046zm-.012-.039l-.027-.087-.024.087h.05zm.134-.076v.024a.065.065 0 0 1 .02-.02.063.063 0 0 1 .03-.005c.016 0 .027.003.034.01.006.005.01.016.01.03v.122h-.041V4.16l-.002-.006-.009-.002a.09.09 0 0 0-.042.01v.116h-.041v-.16h.04zm.166 0h.058c.013 0 .023.003.029.01.006.006.01.015.01.029v.083c0 .013-.004.023-.01.03-.006.005-.016.009-.03.009h-.057c-.013 0-.023-.004-.03-.01-.005-.006-.008-.016-.008-.029v-.083c0-.014.003-.023.009-.03.006-.006.016-.009.03-.009zm.055.118V4.16c0-.004-.002-.006-.006-.006H7.9c-.004 0-.006.002-.006.006v.076c0 .005.002.007.006.007h.04c.004 0 .006-.002.006-.007zm.157-.067v-.012c0-.005-.002-.007-.007-.007h-.03c-.004 0-.005.001-.006.003a.023.023 0 0 0-.001.01l.001.01c.001.003.003.004.007.004l.045.007c.013.003.022.007.027.013.005.006.008.017.008.033 0 .018-.003.03-.01.038-.006.007-.015.01-.029.01h-.053c-.014 0-.023-.003-.03-.009-.006-.006-.009-.016-.009-.029v-.015h.04v.015c0 .004.003.007.007.007h.037c.002 0 .004-.001.005-.003l.001-.011-.001-.013c-.001-.002-.004-.003-.008-.004l-.044-.007c-.013-.002-.022-.006-.027-.012-.005-.006-.008-.016-.008-.031 0-.018.003-.03.01-.037.005-.007.015-.01.029-.01h.048c.013 0 .023.002.029.008.006.007.01.016.01.03v.012h-.041z"/>
    </clipPath>
  </defs>
  <g id="Camada_x0020_1">
    <path fill="#fe4f32" d="M7.792 3.135c-.04-.605-.064-.381-.122-.593l-.058-.19c-.03-.151-.06-.303-.047-.46l-.098-.14c-.075-.135-.008-.436.08-.576.055-.086-.009-.129.184-.303.034-.03.114-.088.03-.15C7.715.689 7.718.717 7.707.66 7.695.6 7.698.603 7.67.565c.06-.123.043-.15.076-.195.085-.112.308-.076.329.087.013.108-.067.118-.012.245.074.166.154.182.109.43-.025.14-.144.289-.085.453.159.436-.045.266-.068.633-.005.093-.032.16-.038.247-.01.143.127.242.06.456a2.11 2.11 0 0 0-.057.214h-.192zm-1.091-.342a.704.704 0 0 0-.058-.182c-.035-.067-.034-.117-.06-.177a1.783 1.783 0 0 1-.065-.4c-.002-.098.023-.117-.013-.19-.1-.203-.117-.305-.03-.567.021-.063.05-.108.057-.172.01-.081.077-.157.128-.216.016-.019.172-.127-.016-.19-.008-.05.002-.053-.024-.107C6.607.564 6.606.588 6.61.557 6.613.52 6.63.553 6.644.46 6.66.36 6.7.31 6.811.308c.106-.002.166.037.19.121.037.131-.071.14-.018.277.042.108.18.23.083.503-.03.083-.06.14-.076.237-.025.155.016.14.05.26.057.198-.073.293-.092.366-.012.048-.008.104-.012.154-.008.09-.043.183-.042.272.001.056.061.167.076.25.003.014.004.03.004.045H6.7zm.272.02zm-.003.03zm-.002.015a1.543 1.543 0 0 0 0 0zm-.03.133zm-.016.074zm-.008.038zm-.005.204zm-1.395-.925zm-.007-.032a1.719 1.719 0 0 1-.04-.295c-.001-.068.022-.15.002-.203-.02-.05-.052-.113-.067-.16-.065-.213.08-.546.083-.587.012-.197.248-.242.178-.365-.019-.033-.04-.023-.073-.045-.019-.033-.009-.04-.02-.08-.014-.053-.012-.017-.029-.057.077-.11.016-.14.092-.21.059-.053.175-.052.24-.011.056.035.095.13.054.22-.044.095-.019.158.03.236.201.33-.06.496-.047.744.004.09.068.144.072.248.005.102-.038.166-.079.227-.045.066-.023.188-.04.272l-.015.066h-.341zm.319.151zm.001.017zm-1.406-.44a.623.623 0 0 1 .003-.105c.02-.12.018-.079-.014-.193-.02-.072-.05-.104-.046-.189.005-.157-.002-.275.059-.416.043-.1-.036-.132.163-.31.048-.044.06-.126-.012-.155-.092-.037-.022-.024-.067-.117-.014-.029-.01-.001-.022-.038.031-.043.033-.032.043-.096a.2.2 0 0 1 .039-.1c.08-.096.311-.09.324.11.007.107-.073.103-.036.23.048.16.16.2.11.445-.026.124-.155.31-.11.44.046.139.134.182-.01.413a.177.177 0 0 0-.024.08h-.4zm-1.077-.574c-.002-.017-.004-.032-.005-.054 0-.049.011-.058.012-.108a.459.459 0 0 1 .039-.18c.016-.033-.01-.181.14-.291.073-.054.054-.066.031-.156-.119-.023-.068-.028-.095-.11-.01-.03-.007-.016-.01-.023C3.44.553 3.453.597 3.44.554c.07-.125.025-.149.092-.21.117-.108.397.004.286.221-.042.082-.013.165.031.238.195.316-.04.492-.058.7h-.447zm.447.003v0zm0 .01zm-1.46-.305a.173.173 0 0 1 .015-.045c.035-.07.018-.04.013-.075-.018-.126.159-.235.17-.258a.167.167 0 0 0-.007-.088c-.016-.043-.02-.03-.063-.045-.068-.023-.015-.024-.052-.11-.014-.032-.002.01-.02-.037.034-.057.028-.03.04-.104A.183.183 0 0 1 2.47.352c.09-.094.347-.06.32.147-.011.097-.073.075-.035.21.04.14.166.24.108.446a.54.54 0 0 1-.02.057h-.51zm.402.292zm-.001.046zm.005.032zM1.406.904zM1.43.881c.03-.026.054-.042.055-.043a.18.18 0 0 0-.01-.101c-.025-.059-.018-.021-.07-.04C1.355.68 1.383.686 1.37.626 1.356.547 1.356.607 1.336.552c.07-.083.025-.13.078-.198.066-.084.34-.085.328.134-.006.106-.08.074-.037.224.02.073.05.121.074.167h-.346L1.43.881zm3.013 4.123h.67v.208h-.67v-.208zm.846.032h.082c.02 0 .03.01.03.03v.09c0 .02-.01.03-.03.03h-.082v-.15zm.03.122h.046l.004-.001V5.069v-.004H5.32v.093zm.136-.022v.021c0 .003.001.005.004.005h.028c.003 0 .004-.002.004-.005v-.009h.03v.01c0 .01-.003.017-.007.021-.005.005-.012.007-.021.007h-.04c-.01 0-.017-.002-.021-.007-.005-.004-.007-.011-.007-.02v-.06c0-.01.002-.017.007-.022.004-.004.011-.006.021-.006h.04c.01 0 .016.002.021.006.004.005.007.012.007.021v.039h-.066zm.032-.042h-.028c-.003 0-.004.002-.004.005v.018h.036v-.018c0-.003-.001-.005-.004-.005zm.118-.042h-.02c-.002 0-.004.002-.004.005v.014h.026v.024H5.58v.09h-.03v-.09h-.016v-.024h.017v-.013c0-.01.002-.017.006-.021.005-.005.012-.007.021-.007h.026v.022zm.05.006h-.03V5.03h.03v.028zm0 .013v.115h-.03V5.07h.03zm.053 0h.036c.01 0 .017.002.022.006.004.005.006.012.006.021v.015h-.03V5.1c0-.003 0-.005-.004-.005h-.024c-.003 0-.005.002-.005.005v.055c0 .003.002.004.005.004h.024c.003 0 .005-.001.005-.004v-.012h.03v.014c0 .01-.003.017-.007.021-.005.005-.012.007-.022.007h-.036c-.01 0-.017-.002-.021-.007-.005-.004-.007-.011-.007-.02v-.06c0-.01.002-.017.007-.022.004-.004.011-.006.02-.006zm.118-.013h-.031V5.03h.03v.028zm-.001.013v.115h-.03V5.07h.03zm.06-.015h-.027l.027-.027h.026l.028.027H5.91l-.013-.013-.013.013zm-.005.08v.021c0 .003.001.005.005.005h.027c.003 0 .004-.002.004-.005v-.009h.03v.01c0 .01-.002.017-.007.021-.004.005-.011.007-.02.007h-.04c-.01 0-.017-.002-.022-.007-.004-.004-.007-.011-.007-.02v-.06c0-.01.003-.017.007-.022.005-.004.012-.006.021-.006h.04c.01 0 .017.002.021.006.005.005.007.012.007.021v.039H5.88zm.032-.042h-.027c-.004 0-.005.002-.005.005v.018h.036v-.018c0-.003-.001-.005-.004-.005zM6 5.071v.016a.047.047 0 0 1 .014-.013.045.045 0 0 1 .022-.005c.011 0 .02.003.024.007.005.005.007.012.007.022v.088h-.03V5.1v-.004l-.007-.001a.064.064 0 0 0-.03.007v.083h-.03V5.07H6zm.12 0h.036c.01 0 .017.002.021.006.005.005.007.012.007.021v.015h-.03V5.1c0-.003 0-.005-.004-.005h-.024c-.003 0-.005.002-.005.005v.055c0 .003.002.004.005.004h.024c.003 0 .005-.001.005-.004v-.012h.03v.014c0 .01-.003.017-.008.021-.004.005-.011.007-.02.007h-.038c-.009 0-.016-.002-.02-.007-.005-.004-.007-.011-.007-.02v-.06c0-.01.002-.017.006-.022.005-.004.012-.006.021-.006zm.118-.013h-.031V5.03h.03v.028zm-.001.013v.115h-.03V5.07h.03zm.054 0h.038c.01 0 .016.002.02.006.005.005.007.012.007.021v.088h-.03v-.018a.05.05 0 0 1-.013.014.042.042 0 0 1-.022.005c-.011 0-.02-.003-.024-.008-.005-.005-.007-.013-.007-.025 0-.012.002-.02.007-.026a.037.037 0 0 1 .023-.01.443.443 0 0 1 .037-.003v-.016c0-.003-.002-.004-.005-.004h-.025c-.003 0-.004.001-.004.004v.007h-.03v-.008c0-.01.003-.016.007-.02.005-.005.012-.007.021-.007zm.036.063l-.03.005c-.004 0-.006.002-.007.003l-.001.009.001.008c.001.002.003.002.007.002a.05.05 0 0 0 .02-.004.198.198 0 0 0 .01-.004v-.02zm.137-.064c.01 0 .018.001.023.004.005.003.01.007.014.014V5.03h.03v.156H6.5v-.017a.046.046 0 0 1-.014.013.047.047 0 0 1-.023.005c-.012 0-.02-.003-.025-.007-.005-.005-.007-.013-.007-.023V5.1c0-.011.002-.019.007-.023.005-.005.013-.007.025-.007zm-.003.033v.05c0 .003 0 .005.002.006l.007.001a.065.065 0 0 0 .031-.007v-.05a.066.066 0 0 0-.031-.007l-.007.001-.002.006zm.124.033v.021c0 .003.002.005.005.005h.027c.003 0 .005-.002.005-.005v-.009h.03v.01c0 .01-.003.017-.007.021-.005.005-.012.007-.021.007h-.04c-.01 0-.017-.002-.021-.007-.005-.004-.007-.011-.007-.02v-.06c0-.01.002-.017.007-.022.004-.004.011-.006.02-.006h.04c.01 0 .017.002.022.006.004.005.006.012.006.021v.038h-.066zm.032-.042H6.59c-.003 0-.005.002-.005.005v.018h.037v-.018c0-.003-.002-.005-.005-.005zm.209-.03h-.041v.122h-.03v-.122h-.041v-.028h.112v.028zm.03.072v.021c0 .003.001.005.005.005h.027c.003 0 .004-.002.004-.005v-.009h.03v.01c0 .01-.002.017-.007.021-.004.005-.011.007-.02.007h-.04c-.01 0-.017-.002-.022-.007-.004-.004-.007-.011-.007-.02v-.06c0-.01.003-.017.007-.022.005-.004.012-.006.021-.006h.04c.01 0 .017.002.021.006.005.005.007.012.007.021v.039h-.066zm.032-.042H6.86c-.004 0-.005.002-.005.005v.018h.036v-.018c0-.003-.001-.005-.004-.005zm.116.013v-.009c0-.003-.002-.004-.005-.004h-.022l-.004.001a.017.017 0 0 0 0 .007v.009l.006.002.031.005c.01.002.017.005.02.009.004.004.006.012.006.024 0 .013-.003.022-.007.027-.004.005-.011.008-.021.008h-.039c-.01 0-.016-.002-.02-.007-.005-.004-.007-.011-.007-.02v-.011h.029v.01c0 .003.001.005.004.005h.027c.002 0 .003 0 .004-.002a.02.02 0 0 0 0-.008v-.01L7 5.142l-.032-.005c-.01-.001-.016-.004-.02-.009-.003-.004-.005-.011-.005-.022 0-.013.002-.022.007-.027.004-.005.011-.007.02-.007h.035c.01 0 .017.002.021.006.005.005.007.012.007.021v.009h-.029zm.09-.013v.063c0 .003.002.004.005.004h.02v.025h-.027c-.01 0-.016-.002-.02-.007-.005-.004-.008-.011-.008-.02v-.065h-.017v-.023h.018v-.028h.029v.028h.025v.023h-.025zm.068-.023h.041c.01 0 .017.002.022.006.004.005.006.012.006.021v.06c0 .01-.002.017-.006.021-.005.005-.012.007-.022.007h-.04c-.01 0-.017-.002-.022-.007-.004-.004-.006-.011-.006-.02v-.06c0-.01.002-.017.006-.022.005-.004.012-.006.021-.006zm.04.085V5.1c0-.003-.002-.005-.005-.005H7.17c-.003 0-.005.002-.005.005v.055c0 .003.002.004.005.004h.028c.003 0 .005-.001.005-.004zm.112-.05v-.008c0-.003-.001-.004-.004-.004h-.023l-.004.001a.017.017 0 0 0 0 .007v.009l.006.002.032.005c.01.002.016.005.02.009.003.004.005.012.005.024 0 .013-.002.022-.007.027-.004.005-.011.008-.02.008h-.04c-.009 0-.016-.002-.02-.007-.005-.004-.007-.011-.007-.02v-.011h.029v.01c0 .003.002.005.005.005h.026c.002 0 .003 0 .004-.002a.02.02 0 0 0 0-.008v-.01l-.006-.002-.031-.005c-.01-.001-.016-.004-.02-.009-.004-.004-.006-.011-.006-.022 0-.013.003-.022.007-.027.004-.005.012-.007.021-.007h.035c.01 0 .016.002.02.006.005.005.007.012.007.021v.009h-.029zm.09-.012v.063c0 .003.002.004.005.004h.02v.025h-.026c-.01 0-.017-.002-.022-.007-.004-.004-.006-.011-.006-.02v-.065h-.017v-.023h.017v-.028h.029v.028h.025v.023h-.025zm.07.042v.021c0 .003.002.005.005.005h.027c.003 0 .005-.002.005-.005v-.009h.03v.01c0 .01-.003.017-.007.021-.005.005-.012.007-.021.007h-.04c-.01 0-.017-.002-.021-.007-.005-.004-.007-.011-.007-.02v-.06c0-.01.002-.017.007-.022.004-.004.011-.006.02-.006h.04c.01 0 .017.002.022.006.004.005.006.012.006.021v.039h-.066zm.032-.042H7.48c-.003 0-.005.002-.005.005v.018h.037v-.018c0-.003-.002-.005-.005-.005zm.13.004h-.014a.058.058 0 0 0-.028.007v.08h-.03v-.114h.03v.017a.05.05 0 0 1 .014-.013.036.036 0 0 1 .02-.004h.008v.027zm.041-.027h.042c.01 0 .016.002.02.006.005.005.007.012.007.021v.06c0 .01-.002.017-.006.021-.005.005-.012.007-.021.007h-.042c-.01 0-.016-.002-.02-.007-.005-.004-.007-.011-.007-.02v-.06c0-.01.002-.017.006-.022.005-.004.012-.006.021-.006zm.04.085V5.1c0-.003-.002-.005-.005-.005h-.028c-.003 0-.005.002-.005.005v.055c0 .003.002.004.005.004h.028c.003 0 .005-.001.005-.004zM7.8 5.07v.016a.047.047 0 0 1 .014-.013.045.045 0 0 1 .023-.005c.01 0 .019.003.023.007.005.005.008.012.008.022v.088h-.03V5.1l-.001-.004-.006-.001a.064.064 0 0 0-.03.007v.083h-.03V5.07h.03zm.121 0h.037c.01 0 .017.002.021.006.005.005.007.012.007.021v.088h-.03v-.018a.05.05 0 0 1-.014.014.042.042 0 0 1-.022.005c-.01 0-.019-.003-.023-.008-.005-.005-.008-.013-.008-.025 0-.012.003-.02.008-.026a.037.037 0 0 1 .022-.01.443.443 0 0 1 .038-.003v-.016c0-.003-.002-.004-.005-.004h-.025c-.003 0-.005.001-.005.004v.007h-.029v-.008c0-.01.003-.016.007-.02.005-.005.012-.007.021-.007zm.036.063l-.031.005c-.003 0-.005.002-.006.003l-.001.009v.008c.002.002.004.002.007.002a.05.05 0 0 0 .022-.004.198.198 0 0 0 .009-.004v-.02z"/>
    <path d="M.766 3.406c-.057.027-.245.052-.293.01.019-.108.183.028.124-.372-.017-.11-.053-.367-.12-.417.073.22.026.144 0 .348-.008.065-.02.128-.024.192-.006.094.03.12.019.206-.08.045-.088.004-.237.02-.073.008-.098.016-.17-.012-.04-.015-.027.003-.039-.042l.027-.01.01-.003.037-.003a.29.29 0 0 0 .19-.102c.04-.058.014-.263.008-.345-.011-.145-.009-.195-.067-.309a.971.971 0 0 1-.065-.318c-.002-.146-.029-.19.02-.342.031-.1-.02-.216-.016-.328.004-.11.013-.243.03-.346.023-.132-.014-.073-.019-.15C.18 1.033.22.979.235.943.205.919.182.914.152.886.072.812-.018.725.003.624.021.54.048.487.075.414.115.305.104.28.116.166.168.121.208.115.28.142.281.176.274.197.275.222c.002.04.016.02.012.071C.275.3.268.3.255.303L.247.306.22.316C.2.431.21.566.185.664c.185.107.04.034.201.07C.38.622.372.651.313.597.31.554.33.537.335.512.34.479.325.474.325.439.446.371.359.346.475.296c.098-.043.15.019.21.048L.667.194C.622.184.597.18.577.147a.833.833 0 0 1-.043-.1C.59-.011.671-.027.713.066c.055.122.19.277.203.371C.918.45.878.647.87.681.848.769.827.695.8.89c-.014.107-.017.145-.054.24-.08.209-.179.299-.2.384-.024.1.025.125.048.212.037.136.011.126-.02.236-.018.064.026.162.037.234.012.084.008.188.027.264.038.158.158.243.121.42-.016.08-.014.19-.02.275-.008.107.036.188.026.25zM.494 5.004h.669v.208h-.67v-.208zm.942.032h.03v.15h-.03l-.058-.1v.1h-.03v-.15h.032l.056.097v-.097zm.083.025h-.025l.019-.031h.037l-.031.03zm.007.01v.115h-.029V5.07h.03zm.126 0l-.038.115H1.58l-.037-.115h.031l.023.089.023-.09h.03zm.043.066v.02c0 .003.001.005.004.005h.028c.003 0 .004-.002.004-.005v-.009h.03v.01c0 .01-.003.017-.007.021-.005.005-.012.007-.021.007h-.04c-.01 0-.017-.002-.021-.007-.005-.004-.007-.011-.007-.02v-.06c0-.01.002-.017.007-.022.004-.004.011-.006.021-.006h.04c.01 0 .016.002.021.006.004.005.007.012.007.021v.039h-.066zm.032-.043h-.028c-.003 0-.004.002-.004.005v.018h.036v-.018c0-.003-.001-.005-.004-.005zm.058-.064h.03v.156h-.03V5.03zm.138.04c.01 0 .017.001.022.004.006.003.01.007.015.014V5.03h.03v.156h-.03v-.017a.046.046 0 0 1-.015.013.047.047 0 0 1-.022.005c-.012 0-.02-.003-.025-.007-.005-.005-.007-.013-.007-.023V5.1c0-.011.002-.019.007-.023.005-.005.013-.007.025-.007zm-.003.033v.05c0 .003 0 .005.002.006l.007.001a.065.065 0 0 0 .03-.007v-.05a.066.066 0 0 0-.03-.007l-.007.001-.002.006zm.124.034v.02c0 .003.002.005.005.005h.027c.003 0 .005-.002.005-.005v-.009h.03v.01c0 .01-.003.017-.008.021-.004.005-.011.007-.02.007h-.04c-.01 0-.017-.002-.022-.007-.004-.004-.006-.011-.006-.02v-.06c0-.01.002-.017.006-.022.005-.004.012-.006.021-.006h.04c.01 0 .017.002.021.006.005.005.007.012.007.021v.039h-.066zm.032-.043h-.027c-.003 0-.005.002-.005.005v.018h.037v-.018c0-.003-.002-.005-.005-.005zm.208-.03h-.04v.122h-.031v-.122h-.04v-.028h.111v.028zm.03.073v.02c0 .003.002.005.005.005h.027c.003 0 .005-.002.005-.005v-.009h.03v.01c0 .01-.003.017-.007.021-.005.005-.012.007-.021.007h-.04c-.01 0-.017-.002-.021-.007-.005-.004-.007-.011-.007-.02v-.06c0-.01.002-.017.007-.022.004-.004.011-.006.02-.006h.04c.01 0 .017.002.022.006.004.005.006.012.006.021v.039h-.066zm.032-.043H2.32c-.003 0-.005.002-.005.005v.018h.037v-.018c0-.003-.002-.005-.005-.005zm.117.013v-.009c0-.003-.002-.004-.005-.004h-.022l-.004.001a.017.017 0 0 0-.001.007v.009l.006.002.032.005c.01.002.016.005.02.009.003.004.005.012.005.024 0 .013-.002.022-.006.027-.005.005-.012.008-.021.008h-.039c-.01 0-.016-.002-.021-.007-.004-.004-.007-.011-.007-.02v-.011h.03v.01c0 .003 0 .005.004.005h.027c.001 0 .003 0 .003-.002a.02.02 0 0 0 .001-.008v-.01l-.006-.002-.032-.005c-.01-.001-.016-.004-.02-.009-.003-.004-.005-.011-.005-.022 0-.013.002-.022.006-.027.005-.005.012-.007.022-.007h.034c.01 0 .016.002.021.006.004.005.007.012.007.021v.009h-.03zm.09-.013v.063c0 .003.001.004.004.004h.02v.025h-.026c-.01 0-.017-.002-.021-.007-.005-.004-.007-.011-.007-.02v-.065h-.017v-.023h.018v-.028h.028v.028h.025v.023h-.024zm.068-.023h.041c.01 0 .017.002.021.006.005.005.007.012.007.021v.06c0 .01-.002.017-.007.021-.004.005-.011.007-.02.007H2.62c-.01 0-.017-.002-.021-.007-.005-.004-.007-.011-.007-.02v-.06c0-.01.002-.017.007-.022.004-.004.011-.006.02-.006zm.04.085V5.1c0-.003-.002-.005-.005-.005h-.029c-.003 0-.004.002-.004.005v.055c0 .003.001.004.004.004h.029c.003 0 .004-.001.004-.004zm.112-.05v-.008c0-.003-.002-.004-.005-.004h-.022l-.004.001a.017.017 0 0 0 0 .007v.009l.006.002.031.005c.01.002.016.005.02.009.004.004.006.012.006.024 0 .013-.003.022-.007.027-.004.005-.012.008-.021.008h-.039c-.01 0-.016-.002-.02-.007-.005-.004-.007-.011-.007-.02v-.011h.029v.01c0 .003.001.005.004.005h.027c.002 0 .003 0 .004-.002a.02.02 0 0 0 0-.008v-.01l-.006-.002-.032-.005c-.01-.001-.016-.004-.02-.009-.003-.004-.005-.011-.005-.022 0-.013.002-.022.007-.027.004-.005.011-.007.02-.007h.035c.01 0 .017.002.021.006.005.005.007.012.007.021v.009h-.03zm.09-.012v.063c0 .003.001.004.005.004h.02v.025H2.86c-.01 0-.016-.002-.02-.007-.005-.004-.008-.011-.008-.02v-.065h-.017v-.023h.018v-.028h.028v.028h.026v.023h-.025zm.07.043v.02c0 .003.001.005.005.005h.027c.003 0 .004-.002.004-.005v-.009H3v.01c0 .01-.002.017-.007.021-.004.005-.011.007-.02.007h-.04c-.01 0-.017-.002-.022-.007-.004-.004-.007-.011-.007-.02v-.06c0-.01.003-.017.007-.022.005-.004.012-.006.021-.006h.04c.01 0 .017.002.021.006.005.005.007.012.007.021v.039h-.066zm.032-.043h-.027c-.004 0-.005.002-.005.005v.018h.036v-.018c0-.003-.001-.005-.004-.005zm.13.004H3.08a.058.058 0 0 0-.027.007v.08h-.03v-.114h.03v.017a.05.05 0 0 1 .014-.013.036.036 0 0 1 .019-.004h.009v.027zm.041-.027h.041c.01 0 .017.002.021.006.005.005.007.012.007.021v.06c0 .01-.002.017-.007.021-.004.005-.011.007-.02.007h-.042c-.01 0-.017-.002-.021-.007-.005-.004-.007-.011-.007-.02v-.06c0-.01.002-.017.007-.022.004-.004.011-.006.021-.006zm.04.085V5.1c0-.003-.002-.005-.005-.005h-.029c-.003 0-.004.002-.004.005v.055c0 .003.001.004.004.004h.029c.003 0 .005-.001.005-.004zm.084-.085v.016a.047.047 0 0 1 .014-.013.045.045 0 0 1 .022-.005c.011 0 .02.003.024.007.005.005.007.012.007.022v.088h-.03V5.1v-.004l-.007-.001a.064.064 0 0 0-.03.007v.083h-.03V5.07h.03zm.12 0h.038c.01 0 .016.002.02.006.005.005.008.012.008.021v.088h-.03v-.018a.05.05 0 0 1-.014.014.042.042 0 0 1-.022.005c-.011 0-.019-.003-.024-.008-.004-.005-.007-.013-.007-.025 0-.012.003-.02.008-.026a.037.037 0 0 1 .022-.01.443.443 0 0 1 .037-.003v-.016c0-.003-.001-.004-.005-.004h-.024c-.003 0-.005.001-.005.004v.007h-.029v-.008c0-.01.002-.016.007-.02.004-.005.011-.007.02-.007zm.036.063l-.03.005c-.003 0-.005.002-.006.003-.001.002-.002.004-.002.009 0 .004 0 .007.002.008 0 .002.003.002.006.002a.05.05 0 0 0 .021-.004.198.198 0 0 0 .01-.004v-.02zm4.376-1.999h.192a.585.585 0 0 0-.014.129c.003.058.02.062.012.13-.068.049-.122.016-.218.026-.073.008-.203.016-.242-.025.01-.025-.01-.018.075-.043.13-.037.204-.074.197-.185l-.002-.032zm-1.091-.342h.273c-.001.144-.101.336-.064.523.03.144-.08.092-.174.099-.074.005-.234.032-.279-.022.016-.048.056-.02.154-.07.058-.029.116-.047.121-.114a1.74 1.74 0 0 0-.031-.416zM5.507 2.35h.341c-.017.067-.034.143-.013.204.027.075.069.145.075.236.004.067-.035.184-.049.26-.018.108-.03.169-.01.277.026.134-.1.081-.184.089-.068.006-.218.03-.27-.023.009-.027 0-.014.027-.027.012-.006.064-.01.129-.042.055-.027.11-.046.119-.105.017-.115-.015-.484-.08-.594-.03-.05-.061-.16-.085-.275zM4.42 2.078h.4c-.005.051.002.11-.008.17-.012.077-.043.145-.048.228-.006.083.04.138.065.213.04.118.025.132-.003.24-.076.295-.014.404-.038.479-.073.013-.157.006-.234.013a.497.497 0 0 1-.123.002c-.054-.007-.07.003-.091-.04.04-.043.274-.042.282-.194a2.844 2.844 0 0 0-.037-.44c-.019-.108-.034-.092-.068-.17-.013-.03-.016-.06-.025-.093-.01-.036-.022-.046-.033-.085a1.748 1.748 0 0 1-.039-.323zm-1.077-.574h.447a.282.282 0 0 0 0 .022c-.001.105.07.124.075.248.005.123-.05.15-.083.224-.024.053.001.19-.027.287-.107.369 0 .237.046.488.02.104-.1.362-.059.533.038.154-.081.099-.184.108-.079.007-.221.025-.267-.02.016-.053.033-.018.148-.065.048-.02.114-.054.13-.097.02-.054-.015-.506-.055-.583-.038-.073-.042-.063-.066-.161-.018-.07-.042-.066-.048-.173-.01-.171-.052-.174-.003-.389.027-.117-.061-.22-.053-.368a.33.33 0 0 0-.001-.054zM2.33 1.212h.511c-.048.116-.137.267-.103.375.022.074.079.092.066.22-.01.108-.072.135-.086.198-.015.067.022.15-.008.251-.083.293-.09.183.01.43.055.14.024.107.002.23-.014.08-.025.162-.038.244-.018.118.03.164.002.247-.08.013-.154.006-.242.013-.056.004-.182.016-.205-.037.026-.038.228-.048.277-.144.03-.057-.003-.314-.012-.393-.036-.303-.062-.185-.096-.323-.013-.05-.008-.046-.027-.082-.017-.031-.022-.036-.027-.078-.01-.075-.006-.12-.02-.199-.028-.147.048-.224.023-.356-.029-.146-.046-.15-.037-.276.004-.046-.007-.05-.009-.093l.012-.187.007-.04zM1.433.879h.346c.053.1.084.186-.045.474-.112.248-.056.187-.002.325.065.164-.049.231-.064.313-.014.073.03.147-.002.254-.08.255-.114.201-.003.43.06.124.039.102.013.217-.01.046-.054.322-.046.368.01.065.029.052.015.133-.033.018-.41.058-.453-.01.033-.047.228-.041.279-.144.034-.068-.001-.305-.011-.39-.006-.052-.016-.133-.028-.18-.016-.056-.05-.075-.069-.147-.03-.119-.045-.078-.055-.16-.01-.077-.001-.118-.017-.2-.03-.154.056-.21.034-.368-.025-.184-.029-.115-.024-.28 0-.043-.013-.055-.013-.097 0-.055.011-.03 0-.083a.311.311 0 0 1 .025-.176c.032-.064.019-.013.005-.069-.02-.078.06-.161.115-.21zM.338 3.778v-.02l.001-.004.005-.002h.047c.002 0 .004 0 .005.002v.024a.01.01 0 0 1 0 .006l-.004.003-.007.003-.048.018a.106.106 0 0 0-.032.017.032.032 0 0 0-.01.025v.07H.44v-.039H.337V3.86l.001-.006a.007.007 0 0 1 .004-.003l.007-.003.048-.018a.105.105 0 0 0 .032-.017.032.032 0 0 0 .01-.025v-.033c0-.028-.013-.042-.041-.042h-.06c-.028 0-.042.014-.042.042v.023h.042zm.25.143H.515c-.027 0-.041-.014-.041-.042v-.125c0-.027.014-.041.041-.041h.071c.028 0 .042.014.042.041v.125c0 .028-.014.042-.042.042zm-.07-.163v.118l.001.004c0 .001.002.002.005.002H.58c.003 0 .004 0 .005-.002l.001-.004v-.118l-.001-.005H.519l-.001.005zm-.266.474H.178l-.013.046H.12l.063-.208h.063l.063.208H.266l-.014-.046zM.24 4.193l-.026-.087-.025.087H.24zm.134-.076v.024a.065.065 0 0 1 .02-.02.063.063 0 0 1 .03-.005c.016 0 .027.003.034.01.007.005.01.016.01.03v.122h-.04V4.16c0-.003-.002-.005-.003-.006l-.008-.002a.09.09 0 0 0-.043.01v.116h-.04v-.16h.04zm.167 0h.057c.013 0 .023.003.03.01.006.006.009.015.009.029v.083c0 .013-.003.023-.01.03-.006.005-.016.009-.029.009H.541c-.014 0-.023-.004-.03-.01-.006-.006-.009-.016-.009-.029v-.083c0-.014.003-.023.01-.03.006-.006.015-.009.029-.009zm.055.118V4.16c0-.004-.003-.006-.007-.006H.55c-.004 0-.006.002-.006.006v.076c0 .005.002.007.007.007h.04c.003 0 .006-.002.006-.007zm.156-.067v-.012c0-.005-.002-.007-.006-.007H.715c-.003 0-.005.001-.006.003a.023.023 0 0 0-.001.01l.001.01c.001.003.004.004.008.004l.044.007c.013.003.023.007.028.013.005.006.007.017.007.033 0 .018-.003.03-.009.038-.006.007-.016.01-.03.01H.705c-.013 0-.023-.003-.03-.009C.67 4.262.666 4.252.666 4.24v-.015h.04v.015c0 .004.003.007.007.007H.75c.003 0 .005-.001.006-.003v-.011-.013l-.008-.004-.044-.007C.689 4.206.68 4.202.675 4.196.67 4.19.668 4.18.668 4.165c0-.018.003-.03.009-.037.006-.007.016-.01.03-.01h.047c.013 0 .023.002.03.008.006.007.009.016.009.03v.012h-.04zm.632-.311a.16.16 0 0 0 0 .017l.003.007.003.001h.052l.004-.001.002-.007a.16.16 0 0 0-.002-.04H1.392v-.038h.048c.002 0 .004-.002.005-.004l.001-.018-.001-.019c-.001-.002-.003-.003-.005-.003h-.048c-.002 0-.003 0-.004.003a.082.082 0 0 0-.001.019v.003h-.043V3.77c0-.021.003-.036.01-.044.006-.009.017-.013.031-.013h.062c.015 0 .025.004.032.012.007.008.01.023.01.043a.084.084 0 0 1-.004.031.031.031 0 0 1-.015.016.03.03 0 0 1 .016.015.084.084 0 0 1 .005.033c0 .022-.003.037-.01.045-.006.009-.017.013-.031.013h-.067c-.015 0-.025-.004-.032-.013-.006-.008-.01-.023-.01-.045v-.006h.043zm.253.064h-.07c-.029 0-.043-.014-.043-.042v-.125c0-.027.014-.041.042-.041h.071c.028 0 .042.014.042.041v.125c0 .028-.014.042-.042.042zm-.07-.163v.118c0 .002 0 .003.002.004l.004.002h.057c.002 0 .004 0 .005-.002v-.122-.005h-.066l-.002.005zm-.264.474h-.074l-.014.046H1.17l.063-.208h.063l.063.208h-.043l-.013-.046zm-.012-.039l-.027-.087-.025.087h.052zm.133-.076v.024a.065.065 0 0 1 .02-.02.063.063 0 0 1 .031-.005c.015 0 .027.003.033.01.007.005.01.016.01.03v.122h-.04V4.16c0-.003-.001-.005-.003-.006l-.008-.002a.09.09 0 0 0-.043.01v.116h-.04v-.16h.04zm.167 0h.057c.014 0 .023.003.03.01.006.006.009.015.009.029v.083c0 .013-.003.023-.01.03-.006.005-.015.009-.029.009h-.057c-.013 0-.023-.004-.03-.01-.006-.006-.009-.016-.009-.029v-.083c0-.014.003-.023.01-.03.006-.006.016-.009.029-.009zm.055.118V4.16c0-.004-.002-.006-.007-.006H1.6c-.004 0-.006.002-.006.006v.076c0 .005.002.007.007.007h.04c.004 0 .006-.002.006-.007zm.157-.067v-.012c0-.005-.003-.007-.007-.007h-.031c-.003 0-.005.001-.005.003a.023.023 0 0 0-.002.01c0 .005 0 .01.002.01 0 .003.003.004.007.004l.044.007c.014.003.023.007.028.013.005.006.007.017.007.033 0 .018-.003.03-.009.038-.006.007-.016.01-.03.01h-.053c-.013 0-.023-.003-.029-.009-.006-.006-.01-.016-.01-.029v-.015h.041v.015c0 .004.002.007.007.007H1.8c.002 0 .004-.001.005-.003l.001-.011-.001-.013c-.001-.002-.004-.003-.008-.004l-.044-.007c-.013-.002-.023-.006-.028-.012-.005-.006-.007-.016-.007-.031 0-.018.003-.03.009-.037.006-.007.016-.01.03-.01h.047c.014 0 .023.002.03.008.006.007.009.016.009.03v.012h-.04zm.752-.29h-.03v.043h-.042v-.043h-.095l-.01-.035.107-.13h.04v.127h.03v.038zm-.123-.038h.051v-.065l-.051.065zm.26.08h-.07c-.028 0-.042-.013-.042-.04v-.126c0-.027.014-.041.041-.041h.072c.027 0 .041.014.041.041v.125c0 .028-.014.042-.041.042zm-.07-.162v.118l.002.004c0 .001.002.002.005.002h.056c.003 0 .004 0 .005-.002l.001-.004v-.118l-.001-.005h-.066l-.001.005zm-.27.474H2.28l-.013.046H2.22l.063-.208h.062l.064.208h-.043l-.014-.046zm-.011-.039l-.027-.087-.025.087h.052zm.134-.076v.024a.065.065 0 0 1 .02-.02.063.063 0 0 1 .03-.005c.016 0 .027.003.033.01.007.005.01.016.01.03v.122h-.04V4.16c0-.003-.001-.005-.003-.006l-.008-.002a.09.09 0 0 0-.042.01v.116h-.041v-.16h.04zm.166 0h.057c.014 0 .023.003.03.01.006.006.01.015.01.029v.083c0 .013-.004.023-.01.03-.007.005-.016.009-.03.009h-.057c-.013 0-.023-.004-.03-.01-.005-.006-.009-.016-.009-.029v-.083c0-.014.004-.023.01-.03.006-.006.016-.009.03-.009zm.055.118V4.16c0-.004-.002-.006-.006-.006h-.04c-.004 0-.007.002-.007.006v.076c0 .005.003.007.007.007h.04c.004 0 .006-.002.006-.007zm.157-.067v-.012c0-.005-.002-.007-.007-.007h-.031c-.003 0-.004.001-.005.003a.023.023 0 0 0-.002.01c0 .005 0 .01.002.01 0 .003.003.004.007.004l.045.007c.013.003.022.007.027.013.005.006.008.017.008.033 0 .018-.003.03-.01.038-.006.007-.015.01-.029.01h-.053c-.014 0-.023-.003-.03-.009-.006-.006-.01-.016-.01-.029v-.015h.041v.015c0 .004.003.007.007.007h.037c.002 0 .004-.001.005-.003l.001-.011-.001-.013c-.001-.002-.004-.003-.008-.004l-.044-.007c-.013-.002-.022-.006-.027-.012-.005-.006-.008-.016-.008-.031 0-.018.003-.03.01-.037.005-.007.015-.01.029-.01h.048c.013 0 .023.002.029.008.006.007.01.016.01.03v.012h-.041zm.638-.416v.057a.064.064 0 0 1 .02-.019.066.066 0 0 1 .032-.006c.017 0 .029.003.036.01.008.007.012.017.012.032v.052c0 .029-.015.043-.043.043h-.061c-.028 0-.042-.014-.042-.042v-.023h.043v.02l.001.004.005.002h.048c.002 0 .004 0 .004-.002l.002-.004v-.048l-.002-.005a.095.095 0 0 0-.055.009l-.043-.01v-.11h.137v.04H3.49zm.248.169h-.071c-.028 0-.042-.014-.042-.042v-.125c0-.027.014-.041.042-.041h.07c.029 0 .042.014.042.041v.125c0 .028-.013.042-.041.042zm-.07-.163v.118l.001.004.005.002h.057c.002 0 .003 0 .004-.002l.002-.004v-.118c0-.002 0-.004-.002-.005H3.67l-.001.005zm-.266.474H3.33l-.013.046H3.27l.063-.208h.062l.064.208h-.043l-.014-.046zm-.012-.039l-.027-.087-.024.087h.051zm.134-.076v.024a.065.065 0 0 1 .02-.02.063.063 0 0 1 .03-.005c.016 0 .027.003.034.01.006.005.01.016.01.03v.122h-.041V4.16c0-.003 0-.005-.002-.006s-.004-.002-.009-.002a.09.09 0 0 0-.042.01v.116h-.041v-.16h.04zm.166 0h.058c.013 0 .023.003.029.01.006.006.01.015.01.029v.083c0 .013-.004.023-.01.03-.006.005-.016.009-.03.009h-.057c-.013 0-.023-.004-.029-.01-.006-.006-.01-.016-.01-.029v-.083c0-.014.004-.023.01-.03.006-.006.016-.009.03-.009zm.055.118V4.16c0-.004-.002-.006-.006-.006H3.7c-.004 0-.006.002-.006.006v.076c0 .005.002.007.006.007h.04c.004 0 .006-.002.006-.007zm.157-.067v-.012c0-.005-.002-.007-.007-.007h-.03c-.003 0-.005.001-.006.003a.023.023 0 0 0-.001.01l.001.01c.001.003.004.004.008.004l.044.007c.013.003.022.007.027.013.005.006.008.017.008.033 0 .018-.003.03-.01.038-.005.007-.015.01-.029.01h-.053c-.013 0-.023-.003-.03-.009-.006-.006-.009-.016-.009-.029v-.015h.04v.015c0 .004.003.007.007.007H3.9c.003 0 .004-.001.005-.003s.002-.005.002-.011c0-.007-.001-.01-.002-.013-.001-.002-.003-.003-.007-.004l-.045-.007c-.013-.002-.022-.006-.027-.012-.005-.006-.008-.016-.008-.031 0-.018.003-.03.01-.037.006-.007.015-.01.029-.01h.048c.013 0 .023.002.029.008.006.007.01.016.01.03v.012h-.041zm.693-.394v-.016c0-.004-.002-.006-.005-.006h-.048c-.004 0-.006.002-.006.006v.057a.06.06 0 0 1 .02-.02.078.078 0 0 1 .035-.005c.018 0 .03.003.038.01.008.006.012.017.012.031v.048c0 .028-.014.042-.042.042h-.064c-.028 0-.042-.014-.042-.042v-.125c0-.027.014-.041.042-.041h.062c.027 0 .041.014.041.041v.02h-.043zm-.06.063v.039l.002.004c.001.001.002.002.005.002h.05c.002 0 .004 0 .005-.002v-.046c0-.003 0-.004-.002-.005a.103.103 0 0 0-.06.009zm.255.084H4.72c-.028 0-.042-.014-.042-.042v-.125c0-.027.014-.041.042-.041h.07c.028 0 .042.014.042.041v.125c0 .028-.014.042-.041.042zm-.07-.163v.118l.001.004c0 .001.002.002.005.002h.056c.003 0 .004 0 .005-.002l.001-.004v-.118l-.001-.005h-.066l-.001.005zm-.268.474H4.38l-.013.046h-.045l.063-.208h.062l.064.208h-.043l-.014-.046zm-.012-.039l-.026-.087-.025.087h.051zm.134-.076v.024a.065.065 0 0 1 .02-.02.063.063 0 0 1 .03-.005c.016 0 .027.003.034.01.007.005.01.016.01.03v.122h-.041V4.16c0-.003 0-.005-.002-.006l-.008-.002a.09.09 0 0 0-.043.01v.116h-.04v-.16h.04zm.167 0h.057c.013 0 .023.003.03.01.005.006.009.015.009.029v.083c0 .013-.004.023-.01.03-.006.005-.016.009-.03.009h-.056c-.014 0-.024-.004-.03-.01-.006-.006-.01-.016-.01-.029v-.083c0-.014.004-.023.01-.03.006-.006.016-.009.03-.009zm.055.118V4.16c0-.004-.003-.006-.007-.006h-.04c-.004 0-.006.002-.006.006v.076c0 .005.002.007.006.007h.04c.004 0 .007-.002.007-.007zm.156-.067v-.012c0-.005-.002-.007-.006-.007h-.032c-.002 0-.004.001-.005.003a.023.023 0 0 0-.001.01l.001.01c.001.003.004.004.008.004l.044.007c.013.003.023.007.028.013.005.006.007.017.007.033 0 .018-.003.03-.01.038-.005.007-.015.01-.028.01h-.054c-.013 0-.023-.003-.03-.009-.006-.006-.009-.016-.009-.029v-.015h.04v.015c0 .004.003.007.007.007h.037c.003 0 .005-.001.005-.003.001-.002.002-.005.002-.011 0-.007 0-.01-.002-.013 0-.002-.003-.003-.007-.004l-.044-.007c-.014-.002-.023-.006-.028-.012-.005-.006-.008-.016-.008-.031 0-.018.004-.03.01-.037.006-.007.016-.01.03-.01h.047c.013 0 .023.002.03.008.005.007.009.016.009.03v.012h-.04zm.743-.425l-.09.178H5.56l.087-.17h-.102v-.038h.152v.03zm.136.178h-.071c-.028 0-.042-.014-.042-.042v-.125c0-.027.014-.041.042-.041h.071c.028 0 .042.014.042.041v.125c0 .028-.014.042-.042.042zm-.07-.163v.118c0 .002 0 .003.002.004l.004.002h.057c.002 0 .004 0 .004-.002l.002-.004v-.118c0-.002 0-.004-.002-.005h-.065l-.002.005zm-.258.474H5.43l-.014.046h-.045l.063-.208h.063l.063.208h-.043l-.013-.046zm-.013-.039l-.026-.087-.025.087h.051zm.134-.076v.024a.065.065 0 0 1 .02-.02.063.063 0 0 1 .03-.005c.016 0 .027.003.034.01.007.005.01.016.01.03v.122h-.04V4.16c0-.003-.001-.005-.003-.006l-.008-.002a.09.09 0 0 0-.043.01v.116h-.04v-.16h.04zm.167 0h.057c.013 0 .023.003.03.01.006.006.009.015.009.029v.083c0 .013-.003.023-.01.03-.006.005-.016.009-.029.009h-.057c-.014 0-.023-.004-.03-.01-.006-.006-.009-.016-.009-.029v-.083c0-.014.003-.023.01-.03.006-.006.015-.009.029-.009zm.055.118V4.16c0-.004-.002-.006-.007-.006H5.8c-.004 0-.006.002-.006.006v.076c0 .005.002.007.007.007h.04c.004 0 .006-.002.006-.007zm.156-.067v-.012c0-.005-.002-.007-.006-.007h-.031c-.003 0-.005.001-.006.003a.023.023 0 0 0 0 .01v.01c.002.003.004.004.008.004l.044.007c.014.003.023.007.028.013.005.006.007.017.007.033 0 .018-.003.03-.009.038-.006.007-.016.01-.03.01h-.053c-.013 0-.023-.003-.03-.009-.005-.006-.008-.016-.008-.029v-.015h.04v.015c0 .004.002.007.007.007H6c.003 0 .005-.001.006-.003v-.011-.013l-.008-.004-.044-.007c-.014-.002-.023-.006-.028-.012-.005-.006-.007-.016-.007-.031 0-.018.003-.03.009-.037.006-.007.016-.01.03-.01h.047c.013 0 .023.002.03.008.006.007.009.016.009.03v.012h-.04zm.721-.353a.03.03 0 0 1 .016.015.085.085 0 0 1 .005.033c0 .022-.003.037-.01.045-.006.009-.017.013-.031.013h-.072c-.014 0-.025-.004-.032-.013-.006-.008-.01-.023-.01-.045 0-.015.002-.026.005-.033a.03.03 0 0 1 .017-.015.031.031 0 0 1-.015-.016.084.084 0 0 1-.004-.03c0-.021.003-.036.01-.044.006-.008.017-.012.032-.012H6.7c.015 0 .025.004.032.012.007.008.01.023.01.043a.083.083 0 0 1-.004.031.031.031 0 0 1-.015.016zm-.03-.063h-.052c-.003 0-.004 0-.005.003a.082.082 0 0 0-.001.019l.001.018c0 .002.002.004.005.004h.052c.002 0 .004-.002.005-.004a.08.08 0 0 0 .001-.018l-.001-.019c0-.002-.003-.003-.005-.003zm-.055.13h.057l.004-.001.002-.007a.164.164 0 0 0-.002-.04h-.064l-.002.007a.16.16 0 0 0 .002.04l.003.001zm.252.039h-.07c-.029 0-.042-.014-.042-.042v-.125c0-.027.013-.041.041-.041h.071c.028 0 .042.014.042.041v.125c0 .028-.014.042-.042.042zm-.07-.163v.118c0 .002 0 .003.002.004l.004.002h.057c.002 0 .004 0 .005-.002l.001-.004v-.118l-.001-.005h-.066l-.002.005zm-.267.474H6.48l-.013.046H6.42l.064-.208h.062l.063.208h-.042l-.014-.046zm-.012-.039l-.027-.087-.025.087h.052zm.134-.076v.024a.065.065 0 0 1 .02-.02.063.063 0 0 1 .03-.005c.015 0 .027.003.033.01.007.005.01.016.01.03v.122h-.04V4.16c0-.003-.001-.005-.003-.006l-.008-.002a.09.09 0 0 0-.042.01v.116h-.042v-.16h.042zm.166 0h.057c.014 0 .023.003.03.01.006.006.009.015.009.029v.083c0 .013-.003.023-.01.03-.006.005-.015.009-.029.009h-.057c-.013 0-.023-.004-.03-.01-.006-.006-.009-.016-.009-.029v-.083c0-.014.003-.023.01-.03.006-.006.016-.009.029-.009zm.055.118V4.16c0-.004-.002-.006-.007-.006h-.04c-.003 0-.006.002-.006.006v.076c0 .005.003.007.007.007h.04c.004 0 .006-.002.006-.007zm.157-.067v-.012c0-.005-.003-.007-.007-.007h-.031c-.003 0-.004.001-.005.003a.023.023 0 0 0-.002.01c0 .005 0 .01.002.01 0 .003.003.004.007.004l.045.007c.013.003.022.007.027.013.005.006.008.017.008.033 0 .018-.003.03-.01.038-.006.007-.016.01-.03.01h-.053c-.013 0-.023-.003-.029-.009-.006-.006-.01-.016-.01-.029v-.015h.041v.015c0 .004.002.007.007.007h.037c.002 0 .004-.001.005-.003l.001-.011-.001-.013c-.001-.002-.004-.003-.008-.004l-.044-.007c-.013-.002-.022-.006-.028-.012-.005-.006-.007-.016-.007-.031 0-.018.003-.03.01-.037.005-.007.015-.01.029-.01h.047c.014 0 .023.002.03.008.006.007.009.016.009.03v.012h-.04zm.635-.308v.016c0 .004.002.006.006.006h.048c.004 0 .006-.002.006-.006v-.058a.06.06 0 0 1-.021.02.077.077 0 0 1-.034.005c-.018 0-.03-.003-.039-.01-.007-.006-.011-.017-.011-.031v-.048c0-.027.014-.041.042-.041h.064c.028 0 .042.014.042.041v.125c0 .028-.014.042-.042.042h-.062c-.028 0-.042-.014-.042-.042v-.02h.043zm.06-.064v-.038l-.001-.005h-.06l-.001.005V3.8c0 .003 0 .004.002.005l.012.001c.02 0 .035-.003.048-.01zm.192.125h-.07c-.029 0-.042-.014-.042-.042v-.125c0-.027.013-.041.041-.041h.071c.028 0 .042.014.042.041v.125c0 .028-.014.042-.042.042zm-.07-.163v.118c0 .002 0 .003.002.004l.004.002h.057c.002 0 .004 0 .005-.002l.001-.004v-.118l-.001-.005h-.066l-.002.005zm-.267.474H7.53l-.013.046h-.045l.063-.208h.062l.064.208h-.043l-.014-.046zm-.012-.039l-.027-.087-.024.087h.05zm.134-.076v.024a.065.065 0 0 1 .02-.02.063.063 0 0 1 .03-.005c.016 0 .027.003.034.01.006.005.01.016.01.03v.122h-.041V4.16l-.002-.006-.009-.002a.09.09 0 0 0-.042.01v.116h-.041v-.16h.04zm.166 0h.058c.013 0 .023.003.029.01.006.006.01.015.01.029v.083c0 .013-.004.023-.01.03-.006.005-.016.009-.03.009h-.057c-.013 0-.023-.004-.03-.01-.005-.006-.008-.016-.008-.029v-.083c0-.014.003-.023.009-.03.006-.006.016-.009.03-.009zm.055.118V4.16c0-.004-.002-.006-.006-.006H7.9c-.004 0-.006.002-.006.006v.076c0 .005.002.007.006.007h.04c.004 0 .006-.002.006-.007zm.157-.067v-.012c0-.005-.002-.007-.007-.007h-.03c-.004 0-.005.001-.006.003a.023.023 0 0 0-.001.01l.001.01c.001.003.003.004.007.004l.045.007c.013.003.022.007.027.013.005.006.008.017.008.033 0 .018-.003.03-.01.038-.006.007-.015.01-.029.01h-.053c-.014 0-.023-.003-.03-.009-.006-.006-.009-.016-.009-.029v-.015h.04v.015c0 .004.003.007.007.007h.037c.002 0 .004-.001.005-.003l.001-.011-.001-.013c-.001-.002-.004-.003-.008-.004l-.044-.007c-.013-.002-.022-.006-.027-.012-.005-.006-.008-.016-.008-.031 0-.018.003-.03.01-.037.005-.007.015-.01.029-.01h.048c.013 0 .023.002.029.008.006.007.01.016.01.03v.012h-.041z" class="fil1"/>
    <g clip-path="url(#id0)">
      <g id="_1949727185216">
        <path id="1" d="M-.297-.208h1.456v3.756H-.297z" class="fil1"/>
      </g>
    </g>
    <path fill="none" d="M.766 3.406c-.057.027-.245.052-.293.01.019-.108.183.028.124-.372-.017-.11-.053-.367-.12-.417.073.22.026.144 0 .348-.008.065-.02.128-.024.192-.006.094.03.12.019.206-.08.045-.088.004-.237.02-.073.008-.098.016-.17-.012-.04-.015-.027.003-.039-.042l.027-.01.01-.003.037-.003a.29.29 0 0 0 .19-.102c.04-.058.014-.263.008-.345-.011-.145-.009-.195-.067-.309a.971.971 0 0 1-.065-.318c-.002-.146-.029-.19.02-.342.031-.1-.02-.216-.016-.328.004-.11.013-.243.03-.346.023-.132-.014-.073-.019-.15C.18 1.033.22.979.235.943.205.919.182.914.152.886.072.812-.018.725.003.624.021.54.048.487.075.414.115.305.104.28.116.166.168.121.208.115.28.142.281.176.274.197.275.222c.002.04.016.02.012.071C.275.3.268.3.255.303L.247.306.22.316C.2.431.21.566.185.664c.185.107.04.034.201.07C.38.622.372.651.313.597.31.554.33.537.335.512.34.479.325.474.325.439.446.371.359.346.475.296c.098-.043.15.019.21.048L.667.194C.622.184.597.18.577.147a.833.833 0 0 1-.043-.1C.59-.011.671-.027.713.066c.055.122.19.277.203.371C.918.45.878.647.87.681.848.769.827.695.8.89c-.014.107-.017.145-.054.24-.08.209-.179.299-.2.384-.024.1.025.125.048.212.037.136.011.126-.02.236-.018.064.026.162.037.234.012.084.008.188.027.264.038.158.158.243.121.42-.016.08-.014.19-.02.275-.008.107.036.188.026.25zM.494 5.004h.669v.208h-.67v-.208zm.942.032h.03v.15h-.03l-.058-.1v.1h-.03v-.15h.032l.056.097v-.097zm.083.025h-.025l.019-.031h.037l-.031.03zm.007.01v.115h-.029V5.07h.03zm.126 0l-.038.115H1.58l-.037-.115h.031l.023.089.023-.09h.03zm.043.066v.02c0 .003.001.005.004.005h.028c.003 0 .004-.002.004-.005v-.009h.03v.01c0 .01-.003.017-.007.021-.005.005-.012.007-.021.007h-.04c-.01 0-.017-.002-.021-.007-.005-.004-.007-.011-.007-.02v-.06c0-.01.002-.017.007-.022.004-.004.011-.006.021-.006h.04c.01 0 .016.002.021.006.004.005.007.012.007.021v.039h-.066zm.032-.043h-.028c-.003 0-.004.002-.004.005v.018h.036v-.018c0-.003-.001-.005-.004-.005zm.058-.064h.03v.156h-.03V5.03zm.138.04c.01 0 .017.001.022.004.006.003.01.007.015.014V5.03h.03v.156h-.03v-.017a.046.046 0 0 1-.015.013.047.047 0 0 1-.022.005c-.012 0-.02-.003-.025-.007-.005-.005-.007-.013-.007-.023V5.1c0-.011.002-.019.007-.023.005-.005.013-.007.025-.007zm-.003.033v.05c0 .003 0 .005.002.006l.007.001a.065.065 0 0 0 .03-.007v-.05a.066.066 0 0 0-.03-.007l-.007.001-.002.006zm.124.034v.02c0 .003.002.005.005.005h.027c.003 0 .005-.002.005-.005v-.009h.03v.01c0 .01-.003.017-.008.021-.004.005-.011.007-.02.007h-.04c-.01 0-.017-.002-.022-.007-.004-.004-.006-.011-.006-.02v-.06c0-.01.002-.017.006-.022.005-.004.012-.006.021-.006h.04c.01 0 .017.002.021.006.005.005.007.012.007.021v.039h-.066zm.032-.043h-.027c-.003 0-.005.002-.005.005v.018h.037v-.018c0-.003-.002-.005-.005-.005zm.208-.03h-.04v.122h-.031v-.122h-.04v-.028h.111v.028zm.03.073v.02c0 .003.002.005.005.005h.027c.003 0 .005-.002.005-.005v-.009h.03v.01c0 .01-.003.017-.007.021-.005.005-.012.007-.021.007h-.04c-.01 0-.017-.002-.021-.007-.005-.004-.007-.011-.007-.02v-.06c0-.01.002-.017.007-.022.004-.004.011-.006.02-.006h.04c.01 0 .017.002.022.006.004.005.006.012.006.021v.039h-.066zm.032-.043H2.32c-.003 0-.005.002-.005.005v.018h.037v-.018c0-.003-.002-.005-.005-.005zm.117.013v-.009c0-.003-.002-.004-.005-.004h-.022l-.004.001a.017.017 0 0 0-.001.007v.009l.006.002.032.005c.01.002.016.005.02.009.003.004.005.012.005.024 0 .013-.002.022-.006.027-.005.005-.012.008-.021.008h-.039c-.01 0-.016-.002-.021-.007-.004-.004-.007-.011-.007-.02v-.011h.03v.01c0 .003 0 .005.004.005h.027c.001 0 .003 0 .003-.002a.02.02 0 0 0 .001-.008v-.01l-.006-.002-.032-.005c-.01-.001-.016-.004-.02-.009-.003-.004-.005-.011-.005-.022 0-.013.002-.022.006-.027.005-.005.012-.007.022-.007h.034c.01 0 .016.002.021.006.004.005.007.012.007.021v.009h-.03zm.09-.013v.063c0 .003.001.004.004.004h.02v.025h-.026c-.01 0-.017-.002-.021-.007-.005-.004-.007-.011-.007-.02v-.065h-.017v-.023h.018v-.028h.028v.028h.025v.023h-.024zm.068-.023h.041c.01 0 .017.002.021.006.005.005.007.012.007.021v.06c0 .01-.002.017-.007.021-.004.005-.011.007-.02.007H2.62c-.01 0-.017-.002-.021-.007-.005-.004-.007-.011-.007-.02v-.06c0-.01.002-.017.007-.022.004-.004.011-.006.02-.006zm.04.085V5.1c0-.003-.002-.005-.005-.005h-.029c-.003 0-.004.002-.004.005v.055c0 .003.001.004.004.004h.029c.003 0 .004-.001.004-.004zm.112-.05v-.008c0-.003-.002-.004-.005-.004h-.022l-.004.001a.017.017 0 0 0 0 .007v.009l.006.002.031.005c.01.002.016.005.02.009.004.004.006.012.006.024 0 .013-.003.022-.007.027-.004.005-.012.008-.021.008h-.039c-.01 0-.016-.002-.02-.007-.005-.004-.007-.011-.007-.02v-.011h.029v.01c0 .003.001.005.004.005h.027c.002 0 .003 0 .004-.002a.02.02 0 0 0 0-.008v-.01l-.006-.002-.032-.005c-.01-.001-.016-.004-.02-.009-.003-.004-.005-.011-.005-.022 0-.013.002-.022.007-.027.004-.005.011-.007.02-.007h.035c.01 0 .017.002.021.006.005.005.007.012.007.021v.009h-.03zm.09-.012v.063c0 .003.001.004.005.004h.02v.025H2.86c-.01 0-.016-.002-.02-.007-.005-.004-.008-.011-.008-.02v-.065h-.017v-.023h.018v-.028h.028v.028h.026v.023h-.025zm.07.043v.02c0 .003.001.005.005.005h.027c.003 0 .004-.002.004-.005v-.009H3v.01c0 .01-.002.017-.007.021-.004.005-.011.007-.02.007h-.04c-.01 0-.017-.002-.022-.007-.004-.004-.007-.011-.007-.02v-.06c0-.01.003-.017.007-.022.005-.004.012-.006.021-.006h.04c.01 0 .017.002.021.006.005.005.007.012.007.021v.039h-.066zm.032-.043h-.027c-.004 0-.005.002-.005.005v.018h.036v-.018c0-.003-.001-.005-.004-.005zm.13.004H3.08a.058.058 0 0 0-.027.007v.08h-.03v-.114h.03v.017a.05.05 0 0 1 .014-.013.036.036 0 0 1 .019-.004h.009v.027zm.041-.027h.041c.01 0 .017.002.021.006.005.005.007.012.007.021v.06c0 .01-.002.017-.007.021-.004.005-.011.007-.02.007h-.042c-.01 0-.017-.002-.021-.007-.005-.004-.007-.011-.007-.02v-.06c0-.01.002-.017.007-.022.004-.004.011-.006.021-.006zm.04.085V5.1c0-.003-.002-.005-.005-.005h-.029c-.003 0-.004.002-.004.005v.055c0 .003.001.004.004.004h.029c.003 0 .005-.001.005-.004zm.084-.085v.016a.047.047 0 0 1 .014-.013.045.045 0 0 1 .022-.005c.011 0 .02.003.024.007.005.005.007.012.007.022v.088h-.03V5.1v-.004l-.007-.001a.064.064 0 0 0-.03.007v.083h-.03V5.07h.03zm.12 0h.038c.01 0 .016.002.02.006.005.005.008.012.008.021v.088h-.03v-.018a.05.05 0 0 1-.014.014.042.042 0 0 1-.022.005c-.011 0-.019-.003-.024-.008-.004-.005-.007-.013-.007-.025 0-.012.003-.02.008-.026a.037.037 0 0 1 .022-.01.443.443 0 0 1 .037-.003v-.016c0-.003-.001-.004-.005-.004h-.024c-.003 0-.005.001-.005.004v.007h-.029v-.008c0-.01.002-.016.007-.02.004-.005.011-.007.02-.007zm.036.063l-.03.005c-.003 0-.005.002-.006.003-.001.002-.002.004-.002.009 0 .004 0 .007.002.008 0 .002.003.002.006.002a.05.05 0 0 0 .021-.004.198.198 0 0 0 .01-.004v-.02zm4.376-1.999h.192a.585.585 0 0 0-.014.129c.003.058.02.062.012.13-.068.049-.122.016-.218.026-.073.008-.203.016-.242-.025.01-.025-.01-.018.075-.043.13-.037.204-.074.197-.185l-.002-.032zm-1.091-.342h.273c-.001.144-.101.336-.064.523.03.144-.08.092-.174.099-.074.005-.234.032-.279-.022.016-.048.056-.02.154-.07.058-.029.116-.047.121-.114a1.74 1.74 0 0 0-.031-.416zM5.507 2.35h.341c-.017.067-.034.143-.013.204.027.075.069.145.075.236.004.067-.035.184-.049.26-.018.108-.03.169-.01.277.026.134-.1.081-.184.089-.068.006-.218.03-.27-.023.009-.027 0-.014.027-.027.012-.006.064-.01.129-.042.055-.027.11-.046.119-.105.017-.115-.015-.484-.08-.594-.03-.05-.061-.16-.085-.275zM4.42 2.078h.4c-.005.051.002.11-.008.17-.012.077-.043.145-.048.228-.006.083.04.138.065.213.04.118.025.132-.003.24-.076.295-.014.404-.038.479-.073.013-.157.006-.234.013a.497.497 0 0 1-.123.002c-.054-.007-.07.003-.091-.04.04-.043.274-.042.282-.194a2.844 2.844 0 0 0-.037-.44c-.019-.108-.034-.092-.068-.17-.013-.03-.016-.06-.025-.093-.01-.036-.022-.046-.033-.085a1.748 1.748 0 0 1-.039-.323zm-1.077-.574h.447a.282.282 0 0 0 0 .022c-.001.105.07.124.075.248.005.123-.05.15-.083.224-.024.053.001.19-.027.287-.107.369 0 .237.046.488.02.104-.1.362-.059.533.038.154-.081.099-.184.108-.079.007-.221.025-.267-.02.016-.053.033-.018.148-.065.048-.02.114-.054.13-.097.02-.054-.015-.506-.055-.583-.038-.073-.042-.063-.066-.161-.018-.07-.042-.066-.048-.173-.01-.171-.052-.174-.003-.389.027-.117-.061-.22-.053-.368a.33.33 0 0 0-.001-.054zM2.33 1.212h.511c-.048.116-.137.267-.103.375.022.074.079.092.066.22-.01.108-.072.135-.086.198-.015.067.022.15-.008.251-.083.293-.09.183.01.43.055.14.024.107.002.23-.014.08-.025.162-.038.244-.018.118.03.164.002.247-.08.013-.154.006-.242.013-.056.004-.182.016-.205-.037.026-.038.228-.048.277-.144.03-.057-.003-.314-.012-.393-.036-.303-.062-.185-.096-.323-.013-.05-.008-.046-.027-.082-.017-.031-.022-.036-.027-.078-.01-.075-.006-.12-.02-.199-.028-.147.048-.224.023-.356-.029-.146-.046-.15-.037-.276.004-.046-.007-.05-.009-.093l.012-.187.007-.04zM1.433.879h.346c.053.1.084.186-.045.474-.112.248-.056.187-.002.325.065.164-.049.231-.064.313-.014.073.03.147-.002.254-.08.255-.114.201-.003.43.06.124.039.102.013.217-.01.046-.054.322-.046.368.01.065.029.052.015.133-.033.018-.41.058-.453-.01.033-.047.228-.041.279-.144.034-.068-.001-.305-.011-.39-.006-.052-.016-.133-.028-.18-.016-.056-.05-.075-.069-.147-.03-.119-.045-.078-.055-.16-.01-.077-.001-.118-.017-.2-.03-.154.056-.21.034-.368-.025-.184-.029-.115-.024-.28 0-.043-.013-.055-.013-.097 0-.055.011-.03 0-.083a.311.311 0 0 1 .025-.176c.032-.064.019-.013.005-.069-.02-.078.06-.161.115-.21zM.338 3.778v-.02l.001-.004.005-.002h.047c.002 0 .004 0 .005.002v.024a.01.01 0 0 1 0 .006l-.004.003-.007.003-.048.018a.106.106 0 0 0-.032.017.032.032 0 0 0-.01.025v.07H.44v-.039H.337V3.86l.001-.006a.007.007 0 0 1 .004-.003l.007-.003.048-.018a.105.105 0 0 0 .032-.017.032.032 0 0 0 .01-.025v-.033c0-.028-.013-.042-.041-.042h-.06c-.028 0-.042.014-.042.042v.023h.042zm.25.143H.515c-.027 0-.041-.014-.041-.042v-.125c0-.027.014-.041.041-.041h.071c.028 0 .042.014.042.041v.125c0 .028-.014.042-.042.042zm-.07-.163v.118l.001.004c0 .001.002.002.005.002H.58c.003 0 .004 0 .005-.002l.001-.004v-.118l-.001-.005H.519l-.001.005zm-.266.474H.178l-.013.046H.12l.063-.208h.063l.063.208H.266l-.014-.046zM.24 4.193l-.026-.087-.025.087H.24zm.134-.076v.024a.065.065 0 0 1 .02-.02.063.063 0 0 1 .03-.005c.016 0 .027.003.034.01.007.005.01.016.01.03v.122h-.04V4.16c0-.003-.002-.005-.003-.006l-.008-.002a.09.09 0 0 0-.043.01v.116h-.04v-.16h.04zm.167 0h.057c.013 0 .023.003.03.01.006.006.009.015.009.029v.083c0 .013-.003.023-.01.03-.006.005-.016.009-.029.009H.541c-.014 0-.023-.004-.03-.01-.006-.006-.009-.016-.009-.029v-.083c0-.014.003-.023.01-.03.006-.006.015-.009.029-.009zm.055.118V4.16c0-.004-.003-.006-.007-.006H.55c-.004 0-.006.002-.006.006v.076c0 .005.002.007.007.007h.04c.003 0 .006-.002.006-.007zm.156-.067v-.012c0-.005-.002-.007-.006-.007H.715c-.003 0-.005.001-.006.003a.023.023 0 0 0-.001.01l.001.01c.001.003.004.004.008.004l.044.007c.013.003.023.007.028.013.005.006.007.017.007.033 0 .018-.003.03-.009.038-.006.007-.016.01-.03.01H.705c-.013 0-.023-.003-.03-.009C.67 4.262.666 4.252.666 4.24v-.015h.04v.015c0 .004.003.007.007.007H.75c.003 0 .005-.001.006-.003v-.011-.013l-.008-.004-.044-.007C.689 4.206.68 4.202.675 4.196.67 4.19.668 4.18.668 4.165c0-.018.003-.03.009-.037.006-.007.016-.01.03-.01h.047c.013 0 .023.002.03.008.006.007.009.016.009.03v.012h-.04zm.632-.311a.16.16 0 0 0 0 .017l.003.007.003.001h.052l.004-.001.002-.007a.16.16 0 0 0-.002-.04H1.392v-.038h.048c.002 0 .004-.002.005-.004l.001-.018-.001-.019c-.001-.002-.003-.003-.005-.003h-.048c-.002 0-.003 0-.004.003a.082.082 0 0 0-.001.019v.003h-.043V3.77c0-.021.003-.036.01-.044.006-.009.017-.013.031-.013h.062c.015 0 .025.004.032.012.007.008.01.023.01.043a.084.084 0 0 1-.004.031.031.031 0 0 1-.015.016.03.03 0 0 1 .016.015.084.084 0 0 1 .005.033c0 .022-.003.037-.01.045-.006.009-.017.013-.031.013h-.067c-.015 0-.025-.004-.032-.013-.006-.008-.01-.023-.01-.045v-.006h.043zm.253.064h-.07c-.029 0-.043-.014-.043-.042v-.125c0-.027.014-.041.042-.041h.071c.028 0 .042.014.042.041v.125c0 .028-.014.042-.042.042zm-.07-.163v.118c0 .002 0 .003.002.004l.004.002h.057c.002 0 .004 0 .005-.002v-.122-.005h-.066l-.002.005zm-.264.474h-.074l-.014.046H1.17l.063-.208h.063l.063.208h-.043l-.013-.046zm-.012-.039l-.027-.087-.025.087h.052zm.133-.076v.024a.065.065 0 0 1 .02-.02.063.063 0 0 1 .031-.005c.015 0 .027.003.033.01.007.005.01.016.01.03v.122h-.04V4.16c0-.003-.001-.005-.003-.006l-.008-.002a.09.09 0 0 0-.043.01v.116h-.04v-.16h.04zm.167 0h.057c.014 0 .023.003.03.01.006.006.009.015.009.029v.083c0 .013-.003.023-.01.03-.006.005-.015.009-.029.009h-.057c-.013 0-.023-.004-.03-.01-.006-.006-.009-.016-.009-.029v-.083c0-.014.003-.023.01-.03.006-.006.016-.009.029-.009zm.055.118V4.16c0-.004-.002-.006-.007-.006H1.6c-.004 0-.006.002-.006.006v.076c0 .005.002.007.007.007h.04c.004 0 .006-.002.006-.007zm.157-.067v-.012c0-.005-.003-.007-.007-.007h-.031c-.003 0-.005.001-.005.003a.023.023 0 0 0-.002.01c0 .005 0 .01.002.01 0 .003.003.004.007.004l.044.007c.014.003.023.007.028.013.005.006.007.017.007.033 0 .018-.003.03-.009.038-.006.007-.016.01-.03.01h-.053c-.013 0-.023-.003-.029-.009-.006-.006-.01-.016-.01-.029v-.015h.041v.015c0 .004.002.007.007.007H1.8c.002 0 .004-.001.005-.003l.001-.011-.001-.013c-.001-.002-.004-.003-.008-.004l-.044-.007c-.013-.002-.023-.006-.028-.012-.005-.006-.007-.016-.007-.031 0-.018.003-.03.009-.037.006-.007.016-.01.03-.01h.047c.014 0 .023.002.03.008.006.007.009.016.009.03v.012h-.04zm.752-.29h-.03v.043h-.042v-.043h-.095l-.01-.035.107-.13h.04v.127h.03v.038zm-.123-.038h.051v-.065l-.051.065zm.26.08h-.07c-.028 0-.042-.013-.042-.04v-.126c0-.027.014-.041.041-.041h.072c.027 0 .041.014.041.041v.125c0 .028-.014.042-.041.042zm-.07-.162v.118l.002.004c0 .001.002.002.005.002h.056c.003 0 .004 0 .005-.002l.001-.004v-.118l-.001-.005h-.066l-.001.005zm-.27.474H2.28l-.013.046H2.22l.063-.208h.062l.064.208h-.043l-.014-.046zm-.011-.039l-.027-.087-.025.087h.052zm.134-.076v.024a.065.065 0 0 1 .02-.02.063.063 0 0 1 .03-.005c.016 0 .027.003.033.01.007.005.01.016.01.03v.122h-.04V4.16c0-.003-.001-.005-.003-.006l-.008-.002a.09.09 0 0 0-.042.01v.116h-.041v-.16h.04zm.166 0h.057c.014 0 .023.003.03.01.006.006.01.015.01.029v.083c0 .013-.004.023-.01.03-.007.005-.016.009-.03.009h-.057c-.013 0-.023-.004-.03-.01-.005-.006-.009-.016-.009-.029v-.083c0-.014.004-.023.01-.03.006-.006.016-.009.03-.009zm.055.118V4.16c0-.004-.002-.006-.006-.006h-.04c-.004 0-.007.002-.007.006v.076c0 .005.003.007.007.007h.04c.004 0 .006-.002.006-.007zm.157-.067v-.012c0-.005-.002-.007-.007-.007h-.031c-.003 0-.004.001-.005.003a.023.023 0 0 0-.002.01c0 .005 0 .01.002.01 0 .003.003.004.007.004l.045.007c.013.003.022.007.027.013.005.006.008.017.008.033 0 .018-.003.03-.01.038-.006.007-.015.01-.029.01h-.053c-.014 0-.023-.003-.03-.009-.006-.006-.01-.016-.01-.029v-.015h.041v.015c0 .004.003.007.007.007h.037c.002 0 .004-.001.005-.003l.001-.011-.001-.013c-.001-.002-.004-.003-.008-.004l-.044-.007c-.013-.002-.022-.006-.027-.012-.005-.006-.008-.016-.008-.031 0-.018.003-.03.01-.037.005-.007.015-.01.029-.01h.048c.013 0 .023.002.029.008.006.007.01.016.01.03v.012h-.041zm.638-.416v.057a.064.064 0 0 1 .02-.019.066.066 0 0 1 .032-.006c.017 0 .029.003.036.01.008.007.012.017.012.032v.052c0 .029-.015.043-.043.043h-.061c-.028 0-.042-.014-.042-.042v-.023h.043v.02l.001.004.005.002h.048c.002 0 .004 0 .004-.002l.002-.004v-.048l-.002-.005a.095.095 0 0 0-.055.009l-.043-.01v-.11h.137v.04H3.49zm.248.169h-.071c-.028 0-.042-.014-.042-.042v-.125c0-.027.014-.041.042-.041h.07c.029 0 .042.014.042.041v.125c0 .028-.013.042-.041.042zm-.07-.163v.118l.001.004.005.002h.057c.002 0 .003 0 .004-.002l.002-.004v-.118c0-.002 0-.004-.002-.005H3.67l-.001.005zm-.266.474H3.33l-.013.046H3.27l.063-.208h.062l.064.208h-.043l-.014-.046zm-.012-.039l-.027-.087-.024.087h.051zm.134-.076v.024a.065.065 0 0 1 .02-.02.063.063 0 0 1 .03-.005c.016 0 .027.003.034.01.006.005.01.016.01.03v.122h-.041V4.16c0-.003 0-.005-.002-.006s-.004-.002-.009-.002a.09.09 0 0 0-.042.01v.116h-.041v-.16h.04zm.166 0h.058c.013 0 .023.003.029.01.006.006.01.015.01.029v.083c0 .013-.004.023-.01.03-.006.005-.016.009-.03.009h-.057c-.013 0-.023-.004-.029-.01-.006-.006-.01-.016-.01-.029v-.083c0-.014.004-.023.01-.03.006-.006.016-.009.03-.009zm.055.118V4.16c0-.004-.002-.006-.006-.006H3.7c-.004 0-.006.002-.006.006v.076c0 .005.002.007.006.007h.04c.004 0 .006-.002.006-.007zm.157-.067v-.012c0-.005-.002-.007-.007-.007h-.03c-.003 0-.005.001-.006.003a.023.023 0 0 0-.001.01l.001.01c.001.003.004.004.008.004l.044.007c.013.003.022.007.027.013.005.006.008.017.008.033 0 .018-.003.03-.01.038-.005.007-.015.01-.029.01h-.053c-.013 0-.023-.003-.03-.009-.006-.006-.009-.016-.009-.029v-.015h.04v.015c0 .004.003.007.007.007H3.9c.003 0 .004-.001.005-.003s.002-.005.002-.011c0-.007-.001-.01-.002-.013-.001-.002-.003-.003-.007-.004l-.045-.007c-.013-.002-.022-.006-.027-.012-.005-.006-.008-.016-.008-.031 0-.018.003-.03.01-.037.006-.007.015-.01.029-.01h.048c.013 0 .023.002.029.008.006.007.01.016.01.03v.012h-.041zm.693-.394v-.016c0-.004-.002-.006-.005-.006h-.048c-.004 0-.006.002-.006.006v.057a.06.06 0 0 1 .02-.02.078.078 0 0 1 .035-.005c.018 0 .03.003.038.01.008.006.012.017.012.031v.048c0 .028-.014.042-.042.042h-.064c-.028 0-.042-.014-.042-.042v-.125c0-.027.014-.041.042-.041h.062c.027 0 .041.014.041.041v.02h-.043zm-.06.063v.039l.002.004c.001.001.002.002.005.002h.05c.002 0 .004 0 .005-.002v-.046c0-.003 0-.004-.002-.005a.103.103 0 0 0-.06.009zm.255.084H4.72c-.028 0-.042-.014-.042-.042v-.125c0-.027.014-.041.042-.041h.07c.028 0 .042.014.042.041v.125c0 .028-.014.042-.041.042zm-.07-.163v.118l.001.004c0 .001.002.002.005.002h.056c.003 0 .004 0 .005-.002l.001-.004v-.118l-.001-.005h-.066l-.001.005zm-.268.474H4.38l-.013.046h-.045l.063-.208h.062l.064.208h-.043l-.014-.046zm-.012-.039l-.026-.087-.025.087h.051zm.134-.076v.024a.065.065 0 0 1 .02-.02.063.063 0 0 1 .03-.005c.016 0 .027.003.034.01.007.005.01.016.01.03v.122h-.041V4.16c0-.003 0-.005-.002-.006l-.008-.002a.09.09 0 0 0-.043.01v.116h-.04v-.16h.04zm.167 0h.057c.013 0 .023.003.03.01.005.006.009.015.009.029v.083c0 .013-.004.023-.01.03-.006.005-.016.009-.03.009h-.056c-.014 0-.024-.004-.03-.01-.006-.006-.01-.016-.01-.029v-.083c0-.014.004-.023.01-.03.006-.006.016-.009.03-.009zm.055.118V4.16c0-.004-.003-.006-.007-.006h-.04c-.004 0-.006.002-.006.006v.076c0 .005.002.007.006.007h.04c.004 0 .007-.002.007-.007zm.156-.067v-.012c0-.005-.002-.007-.006-.007h-.032c-.002 0-.004.001-.005.003a.023.023 0 0 0-.001.01l.001.01c.001.003.004.004.008.004l.044.007c.013.003.023.007.028.013.005.006.007.017.007.033 0 .018-.003.03-.01.038-.005.007-.015.01-.028.01h-.054c-.013 0-.023-.003-.03-.009-.006-.006-.009-.016-.009-.029v-.015h.04v.015c0 .004.003.007.007.007h.037c.003 0 .005-.001.005-.003.001-.002.002-.005.002-.011 0-.007 0-.01-.002-.013 0-.002-.003-.003-.007-.004l-.044-.007c-.014-.002-.023-.006-.028-.012-.005-.006-.008-.016-.008-.031 0-.018.004-.03.01-.037.006-.007.016-.01.03-.01h.047c.013 0 .023.002.03.008.005.007.009.016.009.03v.012h-.04zm.743-.425l-.09.178H5.56l.087-.17h-.102v-.038h.152v.03zm.136.178h-.071c-.028 0-.042-.014-.042-.042v-.125c0-.027.014-.041.042-.041h.071c.028 0 .042.014.042.041v.125c0 .028-.014.042-.042.042zm-.07-.163v.118c0 .002 0 .003.002.004l.004.002h.057c.002 0 .004 0 .004-.002l.002-.004v-.118c0-.002 0-.004-.002-.005h-.065l-.002.005zm-.258.474H5.43l-.014.046h-.045l.063-.208h.063l.063.208h-.043l-.013-.046zm-.013-.039l-.026-.087-.025.087h.051zm.134-.076v.024a.065.065 0 0 1 .02-.02.063.063 0 0 1 .03-.005c.016 0 .027.003.034.01.007.005.01.016.01.03v.122h-.04V4.16c0-.003-.001-.005-.003-.006l-.008-.002a.09.09 0 0 0-.043.01v.116h-.04v-.16h.04zm.167 0h.057c.013 0 .023.003.03.01.006.006.009.015.009.029v.083c0 .013-.003.023-.01.03-.006.005-.016.009-.029.009h-.057c-.014 0-.023-.004-.03-.01-.006-.006-.009-.016-.009-.029v-.083c0-.014.003-.023.01-.03.006-.006.015-.009.029-.009zm.055.118V4.16c0-.004-.002-.006-.007-.006H5.8c-.004 0-.006.002-.006.006v.076c0 .005.002.007.007.007h.04c.004 0 .006-.002.006-.007zm.156-.067v-.012c0-.005-.002-.007-.006-.007h-.031c-.003 0-.005.001-.006.003a.023.023 0 0 0 0 .01v.01c.002.003.004.004.008.004l.044.007c.014.003.023.007.028.013.005.006.007.017.007.033 0 .018-.003.03-.009.038-.006.007-.016.01-.03.01h-.053c-.013 0-.023-.003-.03-.009-.005-.006-.008-.016-.008-.029v-.015h.04v.015c0 .004.002.007.007.007H6c.003 0 .005-.001.006-.003v-.011-.013l-.008-.004-.044-.007c-.014-.002-.023-.006-.028-.012-.005-.006-.007-.016-.007-.031 0-.018.003-.03.009-.037.006-.007.016-.01.03-.01h.047c.013 0 .023.002.03.008.006.007.009.016.009.03v.012h-.04zm.721-.353a.03.03 0 0 1 .016.015.085.085 0 0 1 .005.033c0 .022-.003.037-.01.045-.006.009-.017.013-.031.013h-.072c-.014 0-.025-.004-.032-.013-.006-.008-.01-.023-.01-.045 0-.015.002-.026.005-.033a.03.03 0 0 1 .017-.015.031.031 0 0 1-.015-.016.084.084 0 0 1-.004-.03c0-.021.003-.036.01-.044.006-.008.017-.012.032-.012H6.7c.015 0 .025.004.032.012.007.008.01.023.01.043a.083.083 0 0 1-.004.031.031.031 0 0 1-.015.016zm-.03-.063h-.052c-.003 0-.004 0-.005.003a.082.082 0 0 0-.001.019l.001.018c0 .002.002.004.005.004h.052c.002 0 .004-.002.005-.004a.08.08 0 0 0 .001-.018l-.001-.019c0-.002-.003-.003-.005-.003zm-.055.13h.057l.004-.001.002-.007a.164.164 0 0 0-.002-.04h-.064l-.002.007a.16.16 0 0 0 .002.04l.003.001zm.252.039h-.07c-.029 0-.042-.014-.042-.042v-.125c0-.027.013-.041.041-.041h.071c.028 0 .042.014.042.041v.125c0 .028-.014.042-.042.042zm-.07-.163v.118c0 .002 0 .003.002.004l.004.002h.057c.002 0 .004 0 .005-.002l.001-.004v-.118l-.001-.005h-.066l-.002.005zm-.267.474H6.48l-.013.046H6.42l.064-.208h.062l.063.208h-.042l-.014-.046zm-.012-.039l-.027-.087-.025.087h.052zm.134-.076v.024a.065.065 0 0 1 .02-.02.063.063 0 0 1 .03-.005c.015 0 .027.003.033.01.007.005.01.016.01.03v.122h-.04V4.16c0-.003-.001-.005-.003-.006l-.008-.002a.09.09 0 0 0-.042.01v.116h-.042v-.16h.042zm.166 0h.057c.014 0 .023.003.03.01.006.006.009.015.009.029v.083c0 .013-.003.023-.01.03-.006.005-.015.009-.029.009h-.057c-.013 0-.023-.004-.03-.01-.006-.006-.009-.016-.009-.029v-.083c0-.014.003-.023.01-.03.006-.006.016-.009.029-.009zm.055.118V4.16c0-.004-.002-.006-.007-.006h-.04c-.003 0-.006.002-.006.006v.076c0 .005.003.007.007.007h.04c.004 0 .006-.002.006-.007zm.157-.067v-.012c0-.005-.003-.007-.007-.007h-.031c-.003 0-.004.001-.005.003a.023.023 0 0 0-.002.01c0 .005 0 .01.002.01 0 .003.003.004.007.004l.045.007c.013.003.022.007.027.013.005.006.008.017.008.033 0 .018-.003.03-.01.038-.006.007-.016.01-.03.01h-.053c-.013 0-.023-.003-.029-.009-.006-.006-.01-.016-.01-.029v-.015h.041v.015c0 .004.002.007.007.007h.037c.002 0 .004-.001.005-.003l.001-.011-.001-.013c-.001-.002-.004-.003-.008-.004l-.044-.007c-.013-.002-.022-.006-.028-.012-.005-.006-.007-.016-.007-.031 0-.018.003-.03.01-.037.005-.007.015-.01.029-.01h.047c.014 0 .023.002.03.008.006.007.009.016.009.03v.012h-.04zm.635-.308v.016c0 .004.002.006.006.006h.048c.004 0 .006-.002.006-.006v-.058a.06.06 0 0 1-.021.02.077.077 0 0 1-.034.005c-.018 0-.03-.003-.039-.01-.007-.006-.011-.017-.011-.031v-.048c0-.027.014-.041.042-.041h.064c.028 0 .042.014.042.041v.125c0 .028-.014.042-.042.042h-.062c-.028 0-.042-.014-.042-.042v-.02h.043zm.06-.064v-.038l-.001-.005h-.06l-.001.005V3.8c0 .003 0 .004.002.005l.012.001c.02 0 .035-.003.048-.01zm.192.125h-.07c-.029 0-.042-.014-.042-.042v-.125c0-.027.013-.041.041-.041h.071c.028 0 .042.014.042.041v.125c0 .028-.014.042-.042.042zm-.07-.163v.118c0 .002 0 .003.002.004l.004.002h.057c.002 0 .004 0 .005-.002l.001-.004v-.118l-.001-.005h-.066l-.002.005zm-.267.474H7.53l-.013.046h-.045l.063-.208h.062l.064.208h-.043l-.014-.046zm-.012-.039l-.027-.087-.024.087h.05zm.134-.076v.024a.065.065 0 0 1 .02-.02.063.063 0 0 1 .03-.005c.016 0 .027.003.034.01.006.005.01.016.01.03v.122h-.041V4.16l-.002-.006-.009-.002a.09.09 0 0 0-.042.01v.116h-.041v-.16h.04zm.166 0h.058c.013 0 .023.003.029.01.006.006.01.015.01.029v.083c0 .013-.004.023-.01.03-.006.005-.016.009-.03.009h-.057c-.013 0-.023-.004-.03-.01-.005-.006-.008-.016-.008-.029v-.083c0-.014.003-.023.009-.03.006-.006.016-.009.03-.009zm.055.118V4.16c0-.004-.002-.006-.006-.006H7.9c-.004 0-.006.002-.006.006v.076c0 .005.002.007.006.007h.04c.004 0 .006-.002.006-.007zm.157-.067v-.012c0-.005-.002-.007-.007-.007h-.03c-.004 0-.005.001-.006.003a.023.023 0 0 0-.001.01l.001.01c.001.003.003.004.007.004l.045.007c.013.003.022.007.027.013.005.006.008.017.008.033 0 .018-.003.03-.01.038-.006.007-.015.01-.029.01h-.053c-.014 0-.023-.003-.03-.009-.006-.006-.009-.016-.009-.029v-.015h.04v.015c0 .004.003.007.007.007h.037c.002 0 .004-.001.005-.003l.001-.011-.001-.013c-.001-.002-.004-.003-.008-.004l-.044-.007c-.013-.002-.022-.006-.027-.012-.005-.006-.008-.016-.008-.031 0-.018.003-.03.01-.037.005-.007.015-.01.029-.01h.048c.013 0 .023.002.029.008.006.007.01.016.01.03v.012h-.041z"/>
  </g>
</svg>
