<svg xmlns="http://www.w3.org/2000/svg" width="100%" height="100%" fill-rule="evenodd" clip-rule="evenodd" image-rendering="optimizeQuality" shape-rendering="geometricPrecision" text-rendering="geometricPrecision" version="1.1" viewBox="0 0 2.6664 2.5919" xml:space="preserve">
  <path fill="#d2ae6d" d="M.3597 1.3253c-.0967 0-.1694-.017-.1694.0535 0 .0224.0221.0446.0446.0446h.165c.0405 0 .046-.0385.0516-.0643.0073-.0335.0598-.2702.0598-.2925.0144.0105.0353.1394.0391.1572.0096.0446.0862.429.0959.4482.0128.0256.0309.0234.0479.0234.0392 0 .0421-.0372.05-.0705.0069-.0296.0615-.2771.0615-.2997.026.0299.0287.0982.0758.0982h.3033c.057 0 .0672-.086.008-.0972l-.2756-.001C.908 1.308.9028 1.2918.8934 1.2732c-.0093-.0184-.0173-.0375-.0252-.055A1.5028 1.5028 0 0 1 .844 1.162c-.0253-.0625-.0895-.0545-.102.0059-.0083.0399-.0478.207-.0478.2332h-.009C.6849 1.3784.675 1.3427.67 1.318L.5675.8277C.5503.7462.481.7631.4675.8131l-.1078.5121zm.7395.562c-.0474.0813-.067.1845-.0751.2729-.0006.0055-.0043.02-.012.02H.409c-.0077 0-.0114-.0145-.0119-.02-.0081-.0884-.0278-.1916-.0752-.2729h.7774zm-.8988-.006c.0526.0473.0912.138.1049.2873.0052.0567.0466.1036.1036.1036h.6032c.057 0 .0984-.0469.1036-.1036.0137-.1493.0524-.24.105-.2873a.2563.2563 0 0 0 .2004-.2493V.6328A.2563.2563 0 0 0 1.211.3815C1.1634.3321 1.1286.2436 1.1158.1036 1.1105.047 1.069 0 1.012 0H.409C.352 0 .3105.0469.3053.1036c-.0128.14-.0476.2285-.0952.278A.2563.2563 0 0 0 0 .6327v.9992c0 .1216.0861.224.2004.2493zM1.558.7586a.0594.0594 0 0 1 .0592.0592v.2591a.0594.0594 0 0 1-.0592.0592.0594.0594 0 0 1-.0592-.0592v-.259A.0594.0594 0 0 1 1.558.7585zM.326.3775h.769c-.0443-.08-.063-.1798-.071-.2655-.0005-.0055-.0042-.02-.0119-.02H.409C.4012.092.3975.1066.397.112.3891.1977.3704.2974.326.3775zm-.0707.092h.9104a.1637.1637 0 0 1 .1633.1633v.9992a.1637.1637 0 0 1-.1633.1633H.2553a.1637.1637 0 0 1-.1632-.1633V.6328A.1637.1637 0 0 1 .2553.4696zm1.5551 1.5096c.084-.076.094-.124.198-.1171.038.0025.0701-.0034.1063-.0047-.0095.0124-.0842.0486-.1297.0835-.0687.0528-.0925.0214-.1746.0383zm-.708.5129v.0376c.0145.0239.0255.0697.0559.0613.0177-.0118-.0038-.0366.0084-.0601l.0658-.0876c.0485-.0575.1479-.1254.216-.171.0303-.0202.0582-.0443.089-.0644.0293-.0192.0726-.036.0931-.0599.065-.0755.0223-.0264.0796-.0735.0238-.0196.065-.054.0792-.0739-.0086.0524.007.0922-.01.1433-.0107.0323-.041.098-.0092.1242.0271-.0142.0248-.06.0725-.1121.0166-.0181.0323-.0272.05-.0436.0659-.0607.0304-.059.1844-.1005.0514-.0139.1102-.0183.159-.033.049-.0146.0928-.0342.1103-.0764.0276-.0666.0124-.0975-.037-.1243-.0639-.0348-.1213-.0786-.183-.0975-.0308-.0095-.0534-.0053-.0752-.0221-.0007-.0211.005-.0225.0186-.0327l.082-.0712c.0246-.0273.0114-.0344.0486-.0535.036-.0184.0369-.0233.0608-.0456.0599-.0556.0871-.0052.1409.0172.039.0163.1293.041.1759.032.0797-.0155.0558-.067.0662-.1395.0064-.0454.0254-.1384.0218-.1831-.007-.086-.102-.0778-.1216-.056-.0119.0134-.0027.0183-.011.04-.0042.0112-.0137.0231-.0074.0378.014.0333.0836.0332.0452.0853-.0239.0324-.0312.0554-.0651.0827-.0133-.008-.0223-.0177-.037-.026-.0114-.0063-.0354-.01-.0445-.0191-.0103-.0105-.0089-.0321-.021-.0429-.0114-.0102-.0357-.0126-.0484-.0161.0118-.0153.011-.0061.0218-.0322l.0218-.0328c-.0133-.0475.0322-.1783-.1176-.1646-.1389.0127-.0503.1414-.1327.156-.0475.0085-.0847-.0135-.1318.0041-.0577.0216-.0605-.006-.1067-.0206-.0371-.0117-.091.0023-.1345-.0032-.111-.0141-.0966.0059-.1663.1098l-.0936.1233c-.0083.0156-.0134.0364-.0224.05-.0249.0373-.0384.0425-.0034.077a.0856.0856 0 0 0 .0022.002l.0096.0074c.0116.0097.0228.0256.0504.0196.019-.0041.0325-.0194.0407-.0321.0269-.0417-.0071-.0778.0237-.1208.039-.0545.1439-.0658.173-.1163.0528.0184.0304.042.1418.0268-.0005.0639-.0341.1448-.0582.1929-.0382.0764-.0656.0858-.1109.1442-.0331.0426-.0169.0432-.0367.0867l-.0566.0711c-.0371.048-.0668.1003-.0981.157-.044.0797-.0929.0525-.1453.1058-.04.0408-.0565.1089-.0975.1576-.124.1471-.0896.0378-.1495.076-.034.0216-.0208.0965-.076.1795z"/>
  <path fill="#fe4f32" d="M.9587 1.0734c.0039-.002.0075-.0066.0108-.0094l.026-.0234c.0019-.0019.0031-.0028.005-.0048.0019-.0018.0037-.0029.0055-.0049l.025-.024c.0035-.0032.0069-.0061.0102-.0094L1.0856.952c.0016-.0018.0032-.0031.0048-.005l.0094-.0103a.299.299 0 0 0 .0187-.0206l.0093-.0106a.6177.6177 0 0 0 .027-.0324l.0133-.0167.0041-.0056.0042-.0057c.022-.0344.0525-.091.0525-.135V.7017a.1224.1224 0 0 0-.0244-.073C1.2022.6254 1.1995.6228 1.197.62A.1234.1234 0 0 0 1.148.5885a.1477.1477 0 0 0-.106-.0015A.1095.1095 0 0 0 1 .6147C.9977.6172.9961.6196.9937.622A.198.198 0 0 0 .97.6538l-.0078.013C.9612.6687.9609.67.959.6708L.9575.6687a.2331.2331 0 0 0-.0317-.047A.1612.1612 0 0 0 .897.5958a.0527.0527 0 0 0-.0085-.005A.146.146 0 0 0 .7713.589a.1257.1257 0 0 0-.049.0335.123.123 0 0 0-.0193.0302C.694.6718.6917.692.6917.7145c0 .035.0167.0741.0341.1034l.015.0238A.7283.7283 0 0 0 .7742.887l.0089.0107a.8217.8217 0 0 0 .0413.0467l.0095.0101c.0078.0086.016.0169.0242.025C.8647.986.871.9918.8776.9987c.0032.0034.007.0062.0101.0095l.0301.0284a.0704.0704 0 0 1 .0052.0047l.0206.0187c.0024.0024.0141.0116.0152.0134z"/>
</svg>
