<svg xmlns="http://www.w3.org/2000/svg" width="100%" height="100%" fill-rule="evenodd" clip-rule="evenodd" image-rendering="optimizeQuality" shape-rendering="geometricPrecision" text-rendering="geometricPrecision" version="1.1" viewBox="0 0 2.666 2.592" xml:space="preserve">
  <path fill="#d2ae6d" d="M.36 1.325c-.097 0-.17-.017-.17.054 0 .022.022.044.045.044H.4c.04 0 .046-.038.052-.064.007-.033.06-.27.06-.292.014.01.035.139.038.157.01.044.087.429.096.448.013.026.031.023.048.023.04 0 .042-.037.05-.07.007-.03.062-.277.062-.3.026.03.028.098.075.098h.304c.057 0 .067-.086.008-.097H.917c-.009-.018-.014-.034-.024-.053l-.025-.055a1.503 1.503 0 0 1-.024-.056c-.025-.063-.09-.054-.102.006-.008.04-.048.207-.048.233H.685c0-.023-.01-.058-.015-.083L.567.828C.55.746.482.763.468.813l-.107.512zm.74.562a.679.679 0 0 0-.076.273c0 .006-.004.02-.012.02H.41c-.008 0-.011-.014-.012-.02a.679.679 0 0 0-.075-.273h.777zm-.9-.006c.053.048.092.138.105.288.006.056.047.103.104.103h.603c.057 0 .099-.047.104-.103.013-.15.052-.24.105-.288a.256.256 0 0 0 .2-.249v-1a.256.256 0 0 0-.21-.25c-.048-.05-.082-.138-.095-.278C1.11.047 1.069 0 1.012 0H.409C.352 0 .311.047.305.104.293.244.258.332.21.382a.256.256 0 0 0-.21.25v1c0 .122.086.224.2.25zM1.558.76a.06.06 0 0 1 .06.059v.259a.06.06 0 0 1-.06.06.06.06 0 0 1-.06-.06v-.26a.06.06 0 0 1 .06-.058zM.326.377h.769a.696.696 0 0 1-.071-.265c0-.006-.004-.02-.012-.02H.41c-.008 0-.011.015-.012.02a.693.693 0 0 1-.071.266zM.256.47h.91a.164.164 0 0 1 .163.164v.999a.164.164 0 0 1-.163.163h-.91a.164.164 0 0 1-.164-.163v-1A.164.164 0 0 1 .255.47zM1.81 1.98c.084-.076.094-.124.198-.117.038.003.07-.003.107-.005-.01.013-.085.049-.13.084-.069.053-.092.021-.175.038zm-.708.513v.038c.015.024.026.07.056.06.018-.01-.003-.036.009-.06l.066-.087a1.18 1.18 0 0 1 .216-.17c.03-.021.058-.045.089-.065.029-.02.072-.036.093-.06.065-.076.022-.026.08-.074a.578.578 0 0 0 .078-.073c-.008.052.007.092-.01.143-.01.032-.04.098-.009.124.027-.014.025-.06.073-.112.016-.018.032-.027.05-.044.066-.06.03-.059.184-.1.051-.014.11-.018.16-.033.048-.015.092-.034.11-.077.027-.066.012-.097-.038-.124-.064-.035-.12-.078-.183-.097-.03-.01-.053-.006-.075-.022 0-.022.005-.023.019-.033l.082-.071c.024-.028.011-.035.048-.054.036-.018.037-.023.061-.045.06-.056.087-.006.141.017a.41.41 0 0 0 .176.032c.08-.016.056-.067.066-.14.007-.045.026-.138.022-.183-.007-.086-.102-.078-.122-.056-.012.014-.002.018-.01.04-.005.011-.014.023-.008.038.014.033.084.033.045.085-.024.033-.031.056-.065.083-.013-.008-.022-.018-.037-.026-.011-.006-.035-.01-.044-.02-.01-.01-.01-.031-.021-.042-.012-.01-.036-.013-.049-.016.012-.015.011-.006.022-.032l.022-.033c-.014-.048.032-.178-.118-.165-.139.013-.05.142-.133.156-.047.009-.084-.013-.131.004-.058.022-.06-.006-.107-.02-.037-.012-.091.002-.135-.003-.11-.015-.096.005-.166.11l-.093.123c-.009.015-.014.036-.023.05-.025.037-.038.042-.003.077a.086.086 0 0 0 .002.002l.01.007c.011.01.022.026.05.02.019-.004.032-.02.04-.032.028-.042-.006-.078.024-.121.04-.055.144-.066.173-.117.053.019.03.042.142.027a.503.503 0 0 1-.058.193c-.038.077-.066.086-.11.144-.034.043-.018.044-.038.087l-.056.071a1.2 1.2 0 0 0-.098.157c-.044.08-.093.053-.146.106-.04.04-.056.109-.097.158-.124.147-.09.037-.15.076-.034.021-.02.096-.076.179z"/>
  <path fill="#fe4f32" d="M.959 1.073c.004-.002.007-.006.01-.009l.027-.023L1 1.036l.005-.005.025-.024.01-.01.045-.045.004-.005.01-.01a.299.299 0 0 0 .018-.02l.01-.012a.618.618 0 0 0 .027-.032l.013-.017.004-.005.004-.006A.296.296 0 0 0 1.23.71V.702a.122.122 0 0 0-.025-.073L1.198.62a.123.123 0 0 0-.049-.031.148.148 0 0 0-.106-.002A.11.11 0 0 0 1 .615L.994.622A.198.198 0 0 0 .97.654L.962.667C.962.669.961.67.96.67L.958.669A.233.233 0 0 0 .925.622.161.161 0 0 0 .897.596.053.053 0 0 0 .888.59.146.146 0 0 0 .772.589a.126.126 0 0 0-.049.034.123.123 0 0 0-.019.03.14.14 0 0 0-.011.061.22.22 0 0 0 .034.104L.74.842a.728.728 0 0 0 .033.045l.01.01a.822.822 0 0 0 .04.047l.01.01A.635.635 0 0 0 .858.98l.02.019.01.01.03.028a.07.07 0 0 1 .005.004l.02.019.016.013z"/>
</svg>
